<?xml version="1.0" encoding="UTF-8" standalone="no"?>
<svg
   xmlns:dc="http://purl.org/dc/elements/1.1/"
   xmlns:cc="http://creativecommons.org/ns#"
   xmlns:rdf="http://www.w3.org/1999/02/22-rdf-syntax-ns#"
   xmlns="http://www.w3.org/2000/svg"
   viewBox="0 0 753.42133 244.45332"
   height="60"
   width="120"
   xml:space="preserve"
   id="svg2"
   version="1.1"><metadata
     id="metadata8"><rdf:RDF><cc:Work
         rdf:about=""><dc:format>image/svg+xml</dc:format><dc:type
           rdf:resource="http://purl.org/dc/dcmitype/StillImage" /></cc:Work></rdf:RDF></metadata><defs
     id="defs6"><clipPath
       id="clipPath18"
       clipPathUnits="userSpaceOnUse"><path
         id="path16"
         d="M 0,183.34 H 565.066 V 0 H 0 Z" /></clipPath></defs><g
     transform="matrix(1.3333333,0,0,-1.3333333,0,244.45333)"
     id="g10"><g
       id="g12"><g
         clip-path="url(#clipPath18)"
         id="g14"><g
           transform="translate(321.6396,40.1016)"
           id="g20"><path
             id="path22"
             style="fill:#ffffff;fill-opacity:1;fill-rule:nonzero;stroke:none"
             d="m 0,0 h -0.012 c -1.07,0 -2.014,-0.353 -2.902,-1.07 -0.66,-0.524 -1.116,-1.23 -1.481,-2.015 h 0.046 c 0.365,0.785 0.82,1.491 1.468,2.015 C -1.992,-0.353 -1.048,-0.012 0,0" /></g><g
           transform="translate(321.6729,40.1016)"
           id="g24"><path
             id="path26"
             style="fill:#ffffff;fill-opacity:1;fill-rule:nonzero;stroke:none"
             d="M 0,0 H -0.033 C 1.07,-0.012 1.799,-0.388 2.289,-1.195 2.505,-1.537 2.618,-2.049 2.618,-2.698 2.618,-2.812 2.596,-2.96 2.584,-3.085 H 2.63 c 0,0.125 0.022,0.273 0.022,0.387 0,0.649 -0.101,1.161 -0.318,1.503 C 1.845,-0.376 1.104,0 0,0" /></g><g
           transform="translate(350.6963,22.4053)"
           id="g28"><path
             id="path30"
             style="fill:none;stroke:#ffffff;stroke-width:3.28399992;stroke-linecap:butt;stroke-linejoin:miter;stroke-miterlimit:4;stroke-dasharray:none;stroke-opacity:1"
             d="m 0,0 c 0.462,-1.187 0.924,-2.374 1.405,-3.533 0.741,-1.576 1.598,-3.085 2.628,-4.493 5.565,-7.565 14.883,-11.706 26.715,-12.738 h 12.727 c 4.024,0.315 8.241,0.9 12.611,1.755 7.538,1.474 15.528,3.738 23.827,6.764 6.286,2.292 12.746,5.004 19.302,8.156 14.277,6.844 29.025,15.671 43.495,26.322 4.766,3.506 9.338,7.103 13.727,10.76 4.025,3.348 7.885,6.748 11.573,10.187 10.291,9.917 18.06,19.99 22.46,28.834 4.582,9.21 5.497,17.085 1.742,22.046 -2.301,3.044 -6.151,4.676 -11.109,5.06 22.334,16.759 35.349,37.089 30.68,49.906 -1.482,4.09 -4.746,7.142 -9.425,8.829 -2.079,0.749 -4.419,1.222 -6.969,1.438 h -6.874 c -9.598,-0.692 -23.556,-4.129 -35.397,-9.932" /></g><g
           transform="translate(80.0596,95.5264)"
           id="g32"><path
             id="path34"
             style="fill:#ffffff;fill-opacity:1;fill-rule:nonzero;stroke:none"
             d="m 0,0 h 32.733 l 6.039,24.743 C 41.21,34.56 43.557,42.74 45.812,49.285 41.305,43.637 35.343,36.936 27.925,29.181 L 0,0 m -51.434,-38.527 95.469,98.57 H 59.626 L 36.574,-38.527 H 23.751 l 6.546,28.374 H -9.726 l -27.198,-28.374 h -14.51 m 217.283,-28.522 c -0.968,-0.263 -2.052,-0.482 -3.487,-0.677 -1.07,-0.159 -1.833,-0.327 -2.276,-0.498 -0.387,-0.159 -0.699,-0.38 -0.961,-0.675 -0.25,-0.285 -0.418,-0.583 -0.498,-0.925 -0.023,-0.137 -0.035,-0.278 -0.035,-0.391 v -0.036 c 10e-4,-0.027 -0.003,-0.08 0,-0.106 0.007,-0.052 0.021,-0.13 0.035,-0.178 0.006,-0.017 0.03,-0.056 0.036,-0.071 0.013,-0.031 0.02,-0.078 0.035,-0.107 0.017,-0.029 0.052,-0.079 0.072,-0.107 0.029,-0.041 0.07,-0.104 0.106,-0.142 0.285,-0.319 0.853,-0.463 1.672,-0.463 0.899,0 1.764,0.171 2.561,0.57 0.786,0.386 1.419,0.964 1.885,1.636 0.342,0.478 0.615,1.213 0.855,2.17 m -64.281,6.225 c -0.94,-0.112 -1.815,-0.541 -2.631,-1.28 -0.98,-0.888 -1.69,-2.283 -2.099,-4.127 -0.171,-0.774 -0.249,-1.436 -0.249,-2.028 0,-0.807 0.155,-1.442 0.462,-1.921 0.082,-0.123 0.19,-0.252 0.285,-0.355 0.506,-0.537 1.213,-0.819 2.099,-0.819 1.149,0 2.163,0.429 3.129,1.317 0.98,0.899 1.678,2.308 2.1,4.197 0.387,1.731 0.332,3.023 -0.214,3.842 -0.523,0.797 -1.289,1.174 -2.347,1.174 -0.18,0 -0.36,0.02 -0.535,0 m 93.201,0.071 c -1.008,-0.031 -1.951,-0.372 -2.81,-1.067 -0.649,-0.524 -1.095,-1.243 -1.459,-2.028 h 6.973 c 0.011,0.125 0.035,0.278 0.035,0.391 0,0.649 -0.104,1.153 -0.321,1.494 -0.489,0.809 -1.243,1.198 -2.347,1.21 -0.032,0 -0.038,10e-4 -0.071,0 m -143.358,0 c -0.98,-0.041 -1.87,-0.394 -2.703,-1.067 -0.66,-0.524 -1.094,-1.243 -1.458,-2.028 h 7.008 c 0.011,0.125 0.035,0.278 0.035,0.391 0,0.649 -0.104,1.153 -0.32,1.494 -0.1,0.167 -0.234,0.332 -0.356,0.463 -0.475,0.491 -1.13,0.747 -1.992,0.747 -0.066,0 -0.148,0.003 -0.214,0 m -18.533,0 c -0.981,-0.041 -1.871,-0.394 -2.703,-1.067 -0.66,-0.524 -1.106,-1.243 -1.458,-2.028 h 7.008 c 0.01,0.125 0.035,0.278 0.035,0.391 0,0.649 -0.115,1.153 -0.321,1.494 -0.501,0.82 -1.243,1.21 -2.347,1.21 -0.067,0 -0.149,0.003 -0.214,0 m 99.39,3.237 h 4.233 c 0,0 0.522,-10.132 0.534,-10.28 0.17,0.362 0.303,0.668 0.319,0.711 l 4.661,9.569 h 3.878 c 0,0 0.355,-10.009 0.355,-10.067 0.113,0.205 5.3,10.067 5.3,10.067 h 4.198 l -9.249,-17.075 h -3.807 c 0,0 -0.368,9.259 -0.391,9.782 -1.57,-3.22 -4.767,-9.782 -4.767,-9.782 h -3.913 z m 62.288,0.321 c 0.248,0.018 0.493,0 0.747,0 2.322,0 4.091,-0.815 5.228,-2.419 0.729,-1.036 1.104,-2.317 1.104,-3.843 0,-0.842 -0.14,-1.748 -0.357,-2.738 l -0.284,-1.245 h -11.597 c -0.022,-0.24 -0.071,-0.496 -0.071,-0.712 0,-0.888 0.194,-1.586 0.57,-2.099 0.058,-0.079 0.149,-0.178 0.213,-0.249 0.037,-0.04 0.103,-0.105 0.142,-0.143 0.509,-0.461 1.202,-0.711 2.063,-0.711 0.842,0 1.582,0.233 2.277,0.676 0.66,0.421 1.28,1.095 1.849,2.028 h 4.448 l -0.427,-0.854 c -0.843,-1.707 -2.029,-3.039 -3.486,-3.984 -1.481,-0.945 -3.212,-1.458 -5.159,-1.458 -2.515,0 -4.352,0.813 -5.513,2.419 -1.15,1.57 -1.422,3.742 -0.819,6.474 0.616,2.778 1.806,4.997 3.593,6.545 1.612,1.389 3.457,2.159 5.479,2.313 m -12.202,0 c 0.161,0.019 0.336,0 0.498,0 1.036,0 2.006,-0.313 2.918,-0.961 l 0.533,-0.392 -2.206,-3.628 -0.605,0.427 c -0.443,0.284 -0.897,0.427 -1.387,0.427 -0.432,0 -0.86,-0.154 -1.281,-0.427 -0.432,-0.284 -0.747,-0.661 -1.031,-1.174 -0.467,-0.876 -0.828,-1.858 -1.067,-2.917 l -1.956,-8.751 h -4.127 l 3.806,17.075 h 3.842 c 0,0 -0.097,-0.517 -0.143,-0.712 0.182,0.137 0.364,0.325 0.535,0.427 0.542,0.329 1.097,0.535 1.671,0.606 m -18.036,0 c 0.301,0.017 0.578,0 0.89,0 1.435,0 2.562,-0.146 3.415,-0.498 0.91,-0.365 1.557,-0.88 1.921,-1.495 0.352,-0.581 0.533,-1.293 0.533,-2.169 l -0.427,-2.597 -0.782,-3.523 c -0.672,-3.004 -0.819,-4.131 -0.853,-4.552 -0.035,-0.57 0.018,-1.124 0.177,-1.637 l 0.285,-0.925 h -4.198 l -0.177,0.534 c -0.069,0.25 -0.049,0.569 -0.072,0.854 -0.797,-0.489 -1.594,-0.924 -2.312,-1.174 -1.059,-0.364 -2.157,-0.569 -3.273,-0.569 -1.935,0 -3.368,0.504 -4.233,1.494 -0.66,0.728 -0.96,1.619 -0.96,2.632 0,0.387 0.051,0.789 0.143,1.21 0.193,0.865 0.544,1.666 1.102,2.383 0.546,0.706 1.192,1.286 1.921,1.707 0.705,0.421 1.492,0.72 2.312,0.925 l 2.526,0.427 c 1.946,0.228 3.399,0.511 4.446,0.818 0.023,0.114 0.071,0.249 0.071,0.249 0.165,0.733 0.145,1.284 -0.036,1.566 -0.012,0.017 -0.055,0.055 -0.071,0.07 -0.038,0.041 -0.097,0.106 -0.142,0.143 -0.428,0.339 -1.158,0.498 -2.134,0.498 -1.105,0 -1.921,-0.181 -2.49,-0.533 -0.558,-0.354 -1.074,-0.999 -1.53,-1.921 h -4.304 l 0.391,0.853 c 0.513,1.184 1.123,2.166 1.886,2.917 0.762,0.751 1.793,1.333 2.988,1.743 0.915,0.302 1.916,0.503 2.987,0.57 m -62.501,0 c 0.255,0.019 0.489,0 0.747,0 2.369,0 4.188,-0.802 5.373,-2.384 1.172,-1.582 1.457,-3.717 0.853,-6.403 -0.467,-2.094 -1.142,-3.787 -2.063,-5.016 -0.922,-1.23 -2.097,-2.233 -3.487,-2.917 -1.377,-0.683 -2.835,-1.031 -4.303,-1.031 -2.414,0 -4.21,0.825 -5.373,2.419 -0.751,1.012 -1.137,2.317 -1.137,3.877 0,0.842 0.093,1.737 0.32,2.739 0.683,3.051 2.077,5.374 4.126,6.865 1.504,1.086 3.165,1.714 4.944,1.851 m -50.476,0 c 0.248,0.018 0.493,0 0.747,0 2.322,0 4.079,-0.815 5.228,-2.419 0.718,-1.036 1.103,-2.317 1.103,-3.843 0,-0.83 -0.104,-1.724 -0.319,-2.703 l -0.321,-1.28 H 46.183 c -0.012,-0.16 -0.025,-0.304 -0.037,-0.463 -0.007,-0.06 0.004,-0.151 0,-0.213 v -0.036 c 0,-0.17 0.025,-0.338 0.037,-0.498 0.056,-0.649 0.225,-1.191 0.533,-1.601 0.058,-0.079 0.114,-0.178 0.178,-0.249 0.521,-0.558 1.259,-0.854 2.206,-0.854 0.841,0 1.593,0.233 2.276,0.676 0.66,0.421 1.292,1.095 1.85,2.028 h 4.446 l -0.427,-0.854 c -0.842,-1.707 -2.017,-3.039 -3.485,-3.984 -1.469,-0.945 -3.224,-1.458 -5.158,-1.458 -2.516,0 -4.389,0.813 -5.55,2.419 -0.751,1.024 -1.103,2.329 -1.103,3.877 0,0.239 0.013,0.497 0.036,0.747 0.045,0.591 0.136,1.19 0.285,1.85 0.614,2.766 1.805,4.997 3.592,6.545 1.602,1.389 3.455,2.159 5.479,2.313 m -18.534,0 c 0.249,0.018 0.493,0 0.748,0 2.321,0 4.079,-0.815 5.228,-2.419 0.717,-1.036 1.103,-2.317 1.103,-3.843 0,-0.842 -0.104,-1.748 -0.32,-2.738 l -0.32,-1.245 H 27.649 c -0.023,-0.24 -0.036,-0.496 -0.036,-0.712 0,-0.888 0.183,-1.586 0.57,-2.099 0.183,-0.25 0.397,-0.476 0.64,-0.64 0.458,-0.299 1.05,-0.463 1.743,-0.463 0.842,0 1.582,0.233 2.277,0.676 0.66,0.421 1.292,1.095 1.849,2.028 h 4.412 l -0.392,-0.854 c -0.842,-1.707 -2.018,-3.039 -3.485,-3.984 -1.469,-0.945 -3.224,-1.458 -5.159,-1.458 -2.515,0 -4.388,0.813 -5.549,2.419 -1.15,1.57 -1.398,3.742 -0.783,6.474 0.615,2.778 1.841,4.997 3.628,6.545 1.603,1.389 3.42,2.159 5.443,2.313 m -12.237,0 c 0.16,0.019 0.336,0 0.498,0 1.025,0 1.971,-0.313 2.881,-0.961 l 0.57,-0.392 -2.206,-3.628 -0.604,0.427 c -0.444,0.284 -0.923,0.427 -1.424,0.427 -0.431,0 -0.835,-0.154 -1.244,-0.427 -0.433,-0.284 -0.795,-0.661 -1.067,-1.174 -0.479,-0.876 -0.828,-1.858 -1.068,-2.917 l -1.921,-8.751 h -4.126 l 3.806,17.075 h 3.842 c 0,0 -0.132,-0.517 -0.178,-0.712 0.183,0.137 0.374,0.325 0.534,0.427 0.551,0.329 1.133,0.535 1.707,0.606 m -21.45,5.62 h 16.008 l -0.89,-3.985 H 2.535 c -0.182,-0.807 -0.912,-4.081 -1.174,-5.264 h 10.138 l -0.89,-3.985 H 0.472 c -0.216,-0.99 -2.17,-9.782 -2.17,-9.782 h -4.304 z m 131.085,0.142 c 0,0 -1.079,-4.853 -1.351,-6.083 h 2.667 l -0.783,-3.521 h -2.668 c -0.216,-0.98 -1.921,-8.573 -1.921,-8.573 0,0 -0.142,-0.912 -0.142,-1.174 10e-4,-0.009 0,-0.029 0,-0.036 10e-4,-0.002 0,-0.034 0,-0.035 10e-4,-0.002 0.034,0.001 0.036,0 l 0.427,-0.036 1.956,0.142 -0.213,-3.166 0.035,-0.569 -2.81,-0.32 c -1.116,0 -1.934,0.182 -2.526,0.57 -0.626,0.409 -0.99,0.953 -1.138,1.635 -0.023,0.125 -0.071,0.308 -0.071,0.57 0,0.511 0.097,1.379 0.427,2.881 0,0 1.495,6.699 1.813,8.111 h -1.956 l 0.783,3.521 h 1.957 c 0.181,0.82 0.818,3.628 0.818,3.628 l 3.309,1.743 z m -9.853,0.178 c 0.224,0.018 0.436,0 0.675,0 l 2.561,-0.284 0.853,-0.071 c 10e-4,0 -1.244,-3.166 -1.244,-3.166 l -0.249,-0.498 -1.957,0.177 c -0.577,0 -1.002,-0.089 -1.28,-0.285 -0.019,-0.014 -0.055,-0.056 -0.071,-0.071 -0.037,-0.032 -0.101,-0.089 -0.143,-0.142 -0.171,-0.224 -0.38,-0.626 -0.533,-1.352 0,0 -0.074,-0.307 -0.143,-0.569 h 3.06 l -0.783,-3.521 h -2.988 c -0.227,-1.026 -3.024,-13.554 -3.024,-13.554 h -4.126 c 0,0 2.683,12.039 3.023,13.554 h -2.382 l 0.782,3.521 h 2.347 c 0.115,0.49 0.286,1.103 0.286,1.103 0.25,1.139 0.511,1.956 0.853,2.525 0.467,0.786 1.125,1.444 1.956,1.921 0.685,0.399 1.551,0.636 2.527,0.712 M 83,-51.184 c 0.142,0.005 0.284,0 0.427,0 1.684,0 3.156,-0.295 4.34,-0.854 1.263,-0.592 2.167,-1.471 2.668,-2.632 0.489,-1.127 0.617,-2.406 0.355,-3.807 l -0.106,-0.533 h -4.163 l 0.036,0.498 c 0.108,0.979 -0.013,1.747 -0.391,2.277 -0.049,0.066 -0.121,0.154 -0.178,0.214 -0.093,0.095 -0.235,0.205 -0.355,0.284 -0.583,0.367 -1.494,0.569 -2.668,0.569 -1.561,0 -2.726,-0.271 -3.523,-0.818 -0.773,-0.535 -1.263,-1.133 -1.422,-1.85 -0.16,-0.728 0.102,-1.111 0.285,-1.316 0.006,-0.006 0.028,-0.03 0.035,-0.036 0.23,-0.196 1.031,-0.658 3.521,-1.245 2.254,-0.546 3.747,-1.037 4.589,-1.459 1.276,-0.648 2.166,-1.489 2.633,-2.525 0.467,-1.024 0.569,-2.224 0.284,-3.521 -0.284,-1.264 -0.929,-2.429 -1.885,-3.522 -0.945,-1.093 -2.147,-1.958 -3.593,-2.561 -1.434,-0.592 -3.008,-0.925 -4.624,-0.925 -2.049,0 -3.694,0.309 -4.98,0.925 -1.344,0.637 -2.312,1.643 -2.882,2.953 -0.546,1.274 -0.663,2.721 -0.355,4.303 l 0.106,0.498 h 4.091 l -0.035,-0.498 c -0.103,-0.944 -0.002,-1.708 0.249,-2.276 0.238,-0.547 0.694,-0.999 1.423,-1.352 0.773,-0.376 1.741,-0.569 2.846,-0.569 0.99,0 1.895,0.166 2.703,0.462 0.797,0.285 1.43,0.66 1.885,1.139 0.444,0.477 0.705,0.983 0.819,1.529 0.113,0.489 0.086,0.903 -0.108,1.245 -0.215,0.364 -0.644,0.688 -1.316,0.96 0,10e-4 -3.485,1.032 -3.485,1.032 -1.947,0.49 -3.257,0.956 -4.02,1.423 -1.036,0.614 -1.783,1.403 -2.171,2.348 -0.387,0.933 -0.428,1.968 -0.177,3.095 0.262,1.207 0.843,2.355 1.743,3.379 0.911,1.036 2.086,1.848 3.486,2.383 1.238,0.465 2.541,0.737 3.913,0.783 m 77.143,102.595 -9.64,-43.469 h 36.177 l 9.605,43.469 z m 60.402,7.898 h 14.514 l -16.435,-74.24 -3.593,-16.221 h 34.719 c 0.364,-2.662 0.79,-5.278 1.245,-7.862 h -52.221 l 4.127,18.64 z m -73.172,0 h 52.967 c 3.552,0 6.344,-0.674 8.324,-2.028 1.992,-1.361 2.755,-3.123 2.276,-5.264 L 201.052,7.337 C 200.585,5.208 199.058,3.472 196.463,2.108 193.867,0.74 190.812,0.045 187.249,0.045 H 148.76 l -7.435,-33.545 -1.21,-5.514 h -14.513 l 1.103,4.981 z m -65.952,0 c 0.213,0.004 0.423,0 0.641,0 h 42.082 c 3.596,0 6.378,-0.674 8.359,-2.028 1.97,-1.361 2.708,-3.123 2.241,-5.264 l -5.015,-22.661 h -14.834 l 4.873,22.055 H 82.631 L 69.22,-9.204 64.382,-31.152 h 37.101 l 0.037,0.142 7.434,33.58 H 91.523 l 1.672,7.577 h 32.265 l -9.249,-41.904 c -0.125,-0.597 -0.345,-1.137 -0.641,-1.672 -0.762,-1.388 -2.092,-2.578 -3.948,-3.557 -2.572,-1.355 -5.651,-2.028 -9.249,-2.028 H 60.326 c -3.597,0 -6.379,0.673 -8.359,2.028 -1.969,1.354 -2.719,3.085 -2.241,5.229 L 68.26,52.017 c 0.477,2.141 1.969,3.903 4.553,5.264 0.09,0.049 0.193,0.06 0.284,0.107 2.358,1.181 5.127,1.845 8.324,1.921 m 186.507,22.162 c -1.116,-17.027 2.185,-41.964 9.676,-69.652 1.332,-4.926 2.781,-9.94 4.375,-15.011 0.99,-3.131 2.012,-6.214 3.059,-9.248 -0.614,-0.905 -1.233,-1.803 -1.814,-2.705 -9.346,-14.322 -14.808,-27.857 -16.186,-39.627 -3.95,13.227 -6.924,27.715 -8.608,43.079 -0.478,4.401 -0.852,8.754 -1.103,13.054 -1.844,31.239 2.234,59.557 10.601,80.11 M -40.468,81.72 -80.06,-91.021 H 24.113 207.276 302.54 c -11.35,0.991 -20.31,4.975 -25.648,12.237 -0.991,1.344 -1.808,2.791 -2.526,4.305 -0.455,1.115 -0.884,2.241 -1.316,3.378 -1.138,3.621 -1.592,7.637 -1.387,11.917 0.569,11.93 6.167,26.121 15.865,40.981 10.302,15.791 25.233,32.343 43.719,47.702 4.144,3.439 8.428,6.837 12.912,10.138 5.544,4.079 11.131,7.835 16.72,11.347 20.592,12.965 41.133,22.037 59.335,26.645 -17.394,-5.675 -36.935,-15.309 -56.24,-28.423 -0.695,-0.469 -1.38,-0.949 -2.064,-1.423 -10.711,-7.422 -20.416,-15.304 -28.885,-23.264 -27.252,-25.623 -41.655,-52.175 -35.11,-67.73 0.467,-1.07 1.023,-2.092 1.672,-3.06 7.035,-10.346 24.47,-12.135 46.564,-6.581 1.503,0.376 3.006,0.802 4.554,1.246 7.058,2.038 14.551,4.79 22.269,8.181 1.855,0.82 3.73,1.662 5.62,2.562 0.193,0.091 0.376,0.181 0.569,0.284 24.36,12.104 43.081,26.031 47.134,34.399 0.888,1.82 1.101,3.371 0.498,4.588 -2.892,5.863 -23.124,1.903 -47.632,-8.715 -1.97,-0.853 -3.962,-1.732 -5.976,-2.668 1.639,1.522 3.345,3.05 5.086,4.554 2.778,2.393 5.654,4.733 8.716,7.043 4.792,3.629 9.637,6.909 14.407,9.817 22.333,16.85 33.625,32.79 31.268,38.704 -0.443,1.115 -1.389,1.88 -2.846,2.348 -4.656,1.481 -13.153,-0.287 -23.477,-4.518 -8.515,-3.493 -18.295,-8.672 -28.21,-15.119 l -1.352,-0.889 -0.249,-0.142 -4.766,-3.166 2.739,5.016 c 4.063,7.438 10.684,15.2 18.925,22.411 6.044,5.271 12.949,10.238 20.383,14.584 2.811,1.646 5.619,3.175 8.43,4.554 2.88,1.407 5.762,2.657 8.573,3.77 8.168,3.231 17.143,7.311 23.943,7.844 -0.619,0 -20.278,-2.116 -20.278,-2.116 H 370.092 86.188 Z" /></g></g></g></g></svg>