<?xml version="1.0" encoding="utf-8"?>
<!-- Generator: Adobe Illustrator 16.0.0, SVG Export Plug-In . SVG Version: 6.00 Build 0)  -->
<!DOCTYPE svg PUBLIC "-//W3C//DTD SVG 1.0//EN" "http://www.w3.org/TR/2001/REC-SVG-20010904/DTD/svg10.dtd">
<svg version="1.0" id="Capa_1" xmlns="http://www.w3.org/2000/svg" xmlns:xlink="http://www.w3.org/1999/xlink" x="0px" y="0px"
	 width="446.812px" height="114.271px" viewBox="0 0 446.812 114.271" style="enable-background:new 0 0 446.812 114.271;"
	 xml:space="preserve">
<g>
	<g>
		<path style="fill:#FFFFFF;" d="M335.642,69.164h-4.957c1.297,1.534,1.771,2.892,1.771,5.194c0,6.371-4.483,10.325-11.803,10.325
			c-1.653,0-2.42-0.117-4.366-0.473c-1.889,1.89-2.597,2.952-2.597,3.778c0,0.649,0.589,1.061,1.476,1.061h14.752
			c3.659,0,5.547,1.831,5.547,5.491c0,7.021-6.608,12.39-15.342,12.39c-5.901,0-9.795-1.77-13.16-5.958
			c1.357-2.597,1.83-3.365,3.717-5.49c0.531-0.589,1.182-1.298,1.83-2.063c-2.597-0.593-3.835-1.241-5.665-2.952
			c2.714-3.836,3.601-4.84,6.433-7.318c-3.423-2.122-5.075-4.837-5.075-8.379c0-6.373,4.485-10.386,11.448-10.386
			c2.951,0,5.488,0.59,7.79,1.771h4.013l4.189-1.002V69.164z M315.813,94.244c-1.239,2.066-1.593,3.069-1.593,4.367
			c0,3.246,2.831,5.606,6.786,5.606c4.603,0,8.38-3.365,8.38-7.494c0-1.83-0.768-2.479-2.892-2.479H315.813z M325.314,74.474
			c0-4.66-1.889-7.552-4.957-7.552c-3.069,0-4.957,2.892-4.957,7.552c0,4.663,1.888,7.556,4.957,7.556
			C323.426,82.029,325.314,79.137,325.314,74.474z"/>
		<path style="fill:#FFFFFF;" d="M351.81,91.823h-14.577v-2.477h3.481V68.693h-4.13v-1.889l8.497-2.303h2.598v4.545l1.357-1.476
			c2.123-2.36,3.48-3.188,5.133-3.188c0.886,0,1.594,0.177,2.007,0.59l1.829,1.594l-3.718,5.133
			c-1.534-1.12-2.243-1.531-2.951-1.531c-1.121,0-2.065,0.766-3.657,2.831v16.347h4.131V91.823z"/>
		<path style="fill:#FFFFFF;" d="M357.296,78.488c0-8.202,5.725-14.104,13.631-14.104c7.909,0,13.691,5.902,13.691,14.104
			c0,8.143-5.782,14.104-13.691,14.104C363.021,92.592,357.296,86.631,357.296,78.488z M364.791,78.488
			c0,6.55,2.537,11.153,6.136,11.153c3.6,0,6.139-4.604,6.139-11.153c0-6.609-2.539-11.211-6.139-11.211
			C367.328,67.277,364.791,71.879,364.791,78.488z"/>
		<path style="fill:#FFFFFF;" d="M417.427,90.173l-8.498,2.123h-2.537V87.34c-3.954,4.131-5.961,5.252-9.561,5.252
			c-5.074,0-7.73-2.598-7.73-7.611V68.693h-4.189v-1.889l8.497-2.303h2.598v19.299c0,3.362,1.061,4.838,3.481,4.838
			c2.301,0,3.776-0.945,6.904-4.308V68.693h-3.01v-2.126l7.789-2.065h2.124v23.724h4.132V90.173z"/>
		<path style="fill:#FFFFFF;" d="M432.59,106.164h-14.28v-2.477h3.481V68.396h-4.19v-1.652l8.499-2.242h2.596v2.597
			c2.242-1.946,4.308-2.655,7.436-2.655c6.491,0,10.681,5.073,10.681,12.924c0,8.971-5.842,15.225-14.339,15.225
			c-1.594,0-2.184-0.117-3.777-0.648v11.744h3.895V106.164z M428.695,70.109v14.987c0,4.191,0.531,5.016,3.01,5.016
			c4.426,0,7.553-5.016,7.553-12.097c0-5.901-2.419-9.914-6.019-9.914C431.823,68.102,430.761,68.575,428.695,70.109z"/>
		<circle style="fill:#FFFFFF;" cx="10.914" cy="62.583" r="10.913"/>
		<circle style="fill:#FFFFFF;" cx="91.621" cy="102.511" r="10.913"/>
		<path style="fill:#FFFFFF;" d="M3.633,114.271h9.252C15.598,89.697,37.509,71.731,62.23,74l0.842-9.163
			C33.006,62.075,6.399,84.207,3.633,114.271z"/>
		<path style="fill:#FFFFFF;" d="M40.304,91.093l-0.84,9.163c30.066,2.76,56.677-19.376,59.439-49.439H89.65
			C86.941,75.39,65.028,93.361,40.304,91.093z"/>
		<path style="fill:#FFFFFF;" d="M155.067,68.295c-2.813-2.811-6.299-4.238-10.364-4.238c-4.103,0-7.608,1.418-10.42,4.212
			c-2.81,2.793-4.236,6.289-4.236,10.39v29.8h6.909V91.623v-0.549l0.474,0.273c2.214,1.27,4.66,1.913,7.274,1.913
			c4.064,0,7.551-1.425,10.364-4.239c2.812-2.812,4.238-6.296,4.238-10.363C159.306,74.598,157.879,71.107,155.067,68.295z
			 M150.152,84.107c-1.49,1.487-3.322,2.244-5.448,2.244s-3.967-0.755-5.475-2.244c-1.508-1.487-2.273-3.32-2.273-5.449
			c0-2.125,0.765-3.957,2.273-5.446c1.507-1.488,3.35-2.244,5.475-2.244s3.958,0.756,5.448,2.244
			c1.488,1.489,2.243,3.321,2.243,5.446C152.395,80.784,151.64,82.62,150.152,84.107z"/>
		<path style="fill:#FFFFFF;" d="M178.448,64.057c-4.063,0-7.562,1.427-10.392,4.231c-2.829,2.806-4.264,6.286-4.264,10.343
			c0,4.097,1.426,7.596,4.237,10.4c2.81,2.807,6.316,4.229,10.419,4.229c3.751,0,7.047-1.278,9.8-3.799l-4.177-5.555
			c-1.505,1.621-3.394,2.444-5.623,2.444c-1.7,0-3.246-0.501-4.601-1.488c-1.353-0.982-2.295-2.308-2.796-3.932l-0.126-0.41h0.428
			h21.571c0.083-0.636,0.125-1.277,0.125-1.912c0-4.049-1.426-7.523-4.237-10.328C186.002,65.479,182.515,64.057,178.448,64.057z
			 M184.93,75.513h-13.019h-0.525l0.246-0.463c1.431-2.708,3.725-4.082,6.816-4.082c3.055,0,5.33,1.374,6.761,4.082l0.245,0.463
			H184.93z"/>
		<path style="fill:#FFFFFF;" d="M212.25,64.057c-4.064,0-7.562,1.427-10.393,4.231c-2.829,2.806-4.264,6.286-4.264,10.343
			c0,4.097,1.425,7.596,4.238,10.4c2.811,2.807,6.317,4.229,10.419,4.229c3.753,0,7.048-1.278,9.8-3.799l-4.177-5.555
			c-1.506,1.621-3.396,2.444-5.623,2.444c-1.699,0-3.247-0.501-4.601-1.488c-1.355-0.987-2.295-2.308-2.797-3.932l-0.127-0.41h0.43
			h21.569c0.085-0.636,0.126-1.277,0.126-1.912c0-4.049-1.424-7.523-4.236-10.328C219.801,65.479,216.316,64.057,212.25,64.057z
			 M218.731,75.513h-13.018h-0.525l0.246-0.463c1.43-2.708,3.725-4.082,6.816-4.082c3.056,0,5.33,1.374,6.761,4.082l0.245,0.463
			H218.731z"/>
		<path style="fill:#FFFFFF;" d="M231.396,78.631v13.791h6.91V78.631c0-2.124,0.763-3.951,2.273-5.438
			c1.432-1.41,3.164-2.162,5.156-2.232v-6.898c-3.93,0.072-7.319,1.493-10.075,4.227C232.829,71.094,231.396,74.574,231.396,78.631z
			"/>
		<g>
			<path style="fill:#FFFFFF;" d="M256.263,91.929l15.864-12.982c1.497-1.223,2.769-2.319,3.813-3.296
				c1.044-0.971,1.895-1.901,2.554-2.784c0.656-0.886,1.133-1.745,1.43-2.585c0.295-0.838,0.443-1.755,0.443-2.752
				c0-2.038-0.592-3.577-1.771-4.621c-1.182-1.043-2.723-1.563-4.629-1.563c-1.862,0-3.507,0.521-4.938,1.564
				c-1.43,1.045-3.029,2.656-4.8,4.833l-7.354-5.922c1.182-1.598,2.373-3.014,3.575-4.248c1.203-1.232,2.497-2.273,3.881-3.121
				c1.384-0.845,2.916-1.486,4.596-1.919c1.68-0.436,3.587-0.652,5.72-0.652c2.451,0,4.688,0.351,6.708,1.057
				c2.018,0.701,3.743,1.689,5.173,2.961c1.433,1.271,2.543,2.815,3.339,4.63c0.794,1.815,1.19,3.835,1.19,6.06v0.135
				c0,1.999-0.262,3.78-0.783,5.346c-0.521,1.566-1.295,3.043-2.313,4.427c-1.023,1.385-2.328,2.77-3.917,4.154
				c-1.588,1.384-3.428,2.892-5.516,4.529l-7.76,5.99h20.764v9.053h-35.268V91.929z"/>
		</g>
		<circle style="fill:#01A99D;" cx="346.46" cy="100.969" r="3.793"/>
		<circle style="fill:#1FCA4A;" cx="376.126" cy="100.969" r="3.793"/>
		<circle style="fill:#449EF0;" cx="361.293" cy="100.969" r="3.794"/>
		<circle style="fill:#FF931E;" cx="390.958" cy="100.969" r="3.794"/>
		<circle style="fill:#C1272D;" cx="405.791" cy="100.969" r="3.794"/>
	</g>
	<g>
		<path style="fill:#FFFFFF;" d="M19.669,14.337c-0.063,0.191-0.106,0.319-0.106,0.383c0,0.382-0.212,0.828-0.616,1.296
			c-0.404,0.488-0.829,0.828-1.253,0.998c-0.361,0.105-0.552,0.212-0.595,0.361l-2.23,1.125l-2.146,0.701l-0.063-0.063l-3.653,0.913
			c-0.064-0.043-0.106-0.063-0.17-0.063c-0.085,0-0.149,0.021-0.213,0.063l-0.998-0.425l-0.297,2.103v0.638L7.01,25.552l0.064,2.188
			l-0.17,1.826c-0.106,0.063-0.255,0.191-0.446,0.383c-0.106,0.021-0.17-0.021-0.234-0.17c0,0.021-0.021,0.042-0.064,0.084
			l-0.127,0.128C5.927,30.013,5.799,29.949,5.65,29.8c-0.552-0.233-0.913-0.722-1.062-1.423c-0.128-1.02-0.191-1.551-0.191-1.614
			v-2.315l0.318-4.163c0.043-0.573,0.425-2.804,1.147-6.69c0.212-0.531,0.488-0.807,0.807-0.828l0.425,0.063
			c0.255,0.17,0.468,0.403,0.616,0.701c0.191,0.425,0.318,0.658,0.34,0.743c0.021-0.043,0.021,0.106,0.021,0.467l-0.213,2.167
			c0,0.106,0.021,0.255,0.085,0.446c0.85-0.383,1.848-0.786,3.017-1.211c1.21-0.191,2.506-0.637,3.887-1.338
			c0.042-0.021,0.148-0.064,0.318-0.085c0.276-0.191,0.51-0.319,0.638-0.361c0.255-0.233,0.637-0.595,1.146-1.083
			c-0.127-0.318-0.403-0.595-0.807-0.828c-0.68-0.383-1.041-0.596-1.083-0.638l-0.212,0.063l-0.382-0.212l-0.106,0.021
			c-0.064,0.021-0.106,0.021-0.128,0.021L13,11.406l-2.507,0.042c-0.042,0-0.17,0-0.361,0.043c-0.234,0.042-0.404,0.085-0.489,0.085
			c-1.21,0.148-2.188,0.425-2.974,0.85c-0.191,0.021-0.573,0.191-1.125,0.488c-0.701,0.361-1.041,0.701-1.041,1.02
			c0,0.127,0.063,0.297,0.212,0.51c-0.042,0.063-0.106,0.085-0.17,0.085c-0.063,0.063-0.106,0.148-0.085,0.255
			c-0.021,0-0.063,0-0.127-0.021C4.291,14.74,4.249,14.74,4.228,14.74c0,0-0.042,0.106-0.106,0.319
			c-0.063,0-0.148-0.043-0.276-0.106c-0.021,0-0.085,0.043-0.149,0.106H3.399c-0.043-0.063-0.128-0.17-0.234-0.276L3.038,14.89
			C2.868,14.656,2.72,14.486,2.55,14.4c-0.021-0.212-0.043-0.403-0.085-0.552C2.401,13.7,2.38,13.637,2.38,13.637v-0.936
			l0.191-0.275c-0.042-0.318,0.127-0.595,0.489-0.871c0.297-0.213,0.573-0.425,0.828-0.595c0.042-0.106,0.106-0.212,0.212-0.318
			c0.149,0.042,0.234,0.063,0.276,0.063l3.505-1.656l2.188-0.638c0.276,0.106,0.553,0.148,0.85,0.148
			c0.021,0,0.085-0.021,0.191-0.063c0.106-0.021,0.17-0.043,0.191-0.043h1.083c0.021,0,0.063-0.042,0.127-0.105
			c0.425,0.063,0.765,0.148,1.02,0.212c0.191,0,0.489,0.021,0.892,0.063c0.34,0.043,0.658,0.149,0.977,0.319
			c0.021,0,0.064-0.021,0.149-0.021c0.063-0.021,0.127-0.042,0.148-0.042c0.807,0,1.678,0.552,2.612,1.613
			c0.213,0.276,0.489,0.638,0.808,1.126c0.446,1.104,0.658,1.912,0.658,2.422C19.775,14.061,19.733,14.146,19.669,14.337z"/>
		<path style="fill:#FFFFFF;" d="M33.455,15.951c-0.021,0.064-0.063,0.213-0.127,0.425c-0.255,0.319-0.638,0.765-1.126,1.339
			c-0.765,0.488-1.487,0.955-2.167,1.38c-1.572,0.531-2.761,0.808-3.589,0.808h-0.701c-0.063,0-0.148-0.021-0.255-0.085
			c-0.148,0.021-0.722-0.128-1.699-0.403c-0.382-0.234-0.935-0.638-1.614-1.232c-0.106-0.191-0.276-0.488-0.51-0.893
			c-0.233-0.828-0.34-1.465-0.34-1.911l0.106-0.978v-1.529c0-0.021,0.063-0.254,0.191-0.68c0.149-0.445,0.234-0.743,0.255-0.87
			c0.149-0.361,0.68-0.85,1.593-1.444c0.148-0.043,0.403-0.106,0.743-0.191c0.085-0.063,0.191-0.127,0.34-0.191
			c0.021,0.021,0.063,0.043,0.127,0.043c0,0,0.191-0.064,0.595-0.191s0.744-0.191,1.041-0.191h1.997
			c0.233,0,0.467,0.043,0.765,0.148c0.467-0.021,1.423,0.426,2.889,1.359v0.213c0.233,0.213,0.552,0.425,0.935,0.658
			c0.148,0.148,0.446,0.723,0.892,1.699c0.085,0.488,0.128,0.956,0.128,1.381C33.923,15.145,33.774,15.59,33.455,15.951z
			 M31.544,13.657c-0.574-0.913-1.083-1.359-1.551-1.359c-0.021,0-0.063,0.021-0.085,0.021c-0.021,0.021-0.042,0.042-0.063,0.042
			h-0.128c-0.148-0.233-0.51-0.34-1.104-0.318l-1.146,0.043l-2.549,0.488l-0.128,0.17v0.383c0,0.063,0.043,0.17,0.106,0.318
			c-0.021,0.042-0.106,0.105-0.212,0.212c0.064,0.149,0.106,0.233,0.106,0.255c-0.127,0.106-0.233,0.17-0.318,0.213
			c0,0.021-0.106,0.191-0.297,0.51c-0.191,0.34-0.297,0.552-0.297,0.68c0-0.021,0.021,0.063,0.063,0.212
			c0.213,0.255,0.553,0.468,1.063,0.68c0.488,0.191,0.892,0.298,1.253,0.298c0.807-0.148,1.296-0.234,1.444-0.234l1.678-0.658
			c0.829-0.34,1.381-0.637,1.657-0.892c0.34-0.298,0.51-0.573,0.51-0.786V13.657z"/>
		<path style="fill:#FFFFFF;" d="M53.019,13.254c-0.063,0.17-0.17,0.488-0.34,0.956c-0.106,0.127-0.318,0.573-0.637,1.338
			c-0.361,0.68-0.871,1.466-1.529,2.4c-0.786,1.104-1.423,1.848-1.912,2.229h-0.658c-0.68,0-1.359-0.637-2.061-1.933
			c-0.34-0.51-0.807-1.359-1.381-2.549c-0.127-0.255-0.318-0.573-0.552-0.935c0.042,0,0-0.021-0.128-0.063
			c-0.616,0.913-1.55,2.272-2.782,4.1c-0.701,0.446-1.359,0.722-1.976,0.786c-0.17-0.106-0.382-0.256-0.637-0.489
			c-0.128-0.19-0.34-0.467-0.659-0.786c-0.17-0.34-0.489-0.955-0.892-1.911c-0.743-1.763-1.083-3.037-1.083-3.802v-0.828
			c0-0.234,0.255-0.553,0.765-0.956h0.212c0.149,0,0.425,0.19,0.829,0.573c0.191,0.043,0.319,0.17,0.425,0.361
			c0.127,0.255,0.212,0.403,0.255,0.425c0.191,0.7,0.574,1.784,1.168,3.229c0.233-0.063,0.531-0.361,0.892-0.913
			c0.106-0.043,0.234-0.149,0.383-0.298c0.106-0.191,0.425-0.658,0.998-1.359c0.467-0.595,0.765-1.041,0.892-1.359
			c0.106-0.148,0.149-0.276,0.149-0.382c0.106-0.021,0.255-0.106,0.446-0.256c0.149,0,0.297-0.021,0.425-0.063
			c0.17,0.021,0.425,0.128,0.765,0.298c0.977,0.68,1.997,2.124,2.995,4.396c0.085,0.106,0.255,0.297,0.51,0.573
			c0.17-0.106,0.34-0.255,0.489-0.467c0.425-0.573,1.168-1.614,2.273-3.102c0.148-0.19,0.658-0.743,1.529-1.656
			c0.063,0.042,0.085,0.063,0.127,0.063c0,0-0.021,0.043-0.042,0.127c-0.021,0.064-0.043,0.106-0.043,0.149
			c0.021,0,0.043,0.021,0.085,0.042l0.425-0.382c0,0.063,0.149,0.212,0.383,0.467c-0.021,0.043-0.043,0.085-0.043,0.191
			c0.021,0.021,0.106,0.042,0.213,0.042c0,0.021,0,0.106,0.021,0.213s0.021,0.191,0.021,0.213
			C53.337,12.171,53.231,12.617,53.019,13.254z"/>
		<path style="fill:#FFFFFF;" d="M65.467,17.927c-0.106,0-0.17-0.021-0.213-0.063c-0.085,0.021-0.212,0.085-0.361,0.191
			c0.149,0.063,0.361,0.148,0.595,0.297c-0.085,0.021-0.276,0.17-0.574,0.446c-0.276,0.085-0.722,0.212-1.316,0.34
			c-0.191,0.106-0.319,0.276-0.383,0.467l-2.634,0.34c-1.89-0.127-3.419-0.552-4.545-1.296c-0.808-0.828-1.317-1.783-1.529-2.867
			c-0.064-0.17-0.106-0.275-0.106-0.361c0-0.68,0.297-1.508,0.871-2.463c0.658-1.063,1.359-1.742,2.145-2.061
			c0.042-0.021,0.149-0.021,0.34-0.021c0.34-0.276,0.914-0.531,1.763-0.743c0.743-0.191,1.38-0.276,1.89-0.276
			c0.467,0,0.999,0.17,1.614,0.51c-0.021,0.021-0.021,0.106-0.021,0.255c0.127,0.021,0.276,0.063,0.467,0.106
			c0,0.042,0.043,0.105,0.128,0.212c0,0.255,0.106,0.573,0.297,0.999v0.445c0,0.064-0.042,0.128-0.127,0.213
			c0.042,0.063,0.063,0.148,0.063,0.233c0,0.148-0.063,0.318-0.191,0.51c-0.021,0.106-0.021,0.233-0.042,0.425
			c-0.149,0.213-1.063,1.041-1.848,1.572c-1.147,0.764-3.229,1.486-3.229,1.486c0.234,0.127,1.742,0.425,2.783,0.425
			c1.21,0,3.823-0.892,3.823-0.892c0.127,0.19,0.403,0.722,0.701,0.955C65.743,17.438,65.615,17.629,65.467,17.927z M60.964,12.149
			c-0.871,0.361-1.147,0.298-1.784,0.68c-0.701,0.446-1.253,0.978-1.551,1.487c0.085,0,0.148,0.021,0.233,0.105
			c0.701-0.275,1.317-0.382,2.018-0.85c0.552-0.382,0.871-0.743,1.232-1.146C61.112,12.468,61.07,12.383,60.964,12.149z"/>
		<path style="fill:#FFFFFF;" d="M81.694,12.149c-0.042,0-0.127,0.042-0.276,0.106c0,0.063-0.021,0.105-0.042,0.148l0.212,0.213
			c-0.064,0.063-0.234,0.148-0.51,0.19c-0.297,0.063-0.446,0.128-0.467,0.149l-1.933-0.426c-0.34,0.043-0.786,0.106-1.359,0.191
			c-0.659,0.234-1.296,0.425-1.869,0.574c-0.68,0.275-1.678,0.68-2.974,1.273c-1.189,0.553-1.912,1.381-2.209,2.465
			c0,0.042,0.042,0.318,0.106,0.828v0.34c-0.064,0.127-0.127,0.233-0.149,0.318c-0.042,0.127,0,0.233,0.128,0.318l-1.063,0.658
			h-0.191c-0.149-0.084-0.34-0.233-0.574-0.424l-0.276,0.042c-0.085-0.128-0.212-0.298-0.361-0.531
			c-0.064-0.19-0.149-0.34-0.213-0.488c-0.085-0.425-0.127-0.638-0.127-0.658v-0.893c0-0.021,0.021-0.063,0.021-0.127
			c0.021-0.063,0.042-0.106,0.042-0.128v-0.955c0-0.276,0.085-0.766,0.297-1.445c0.255-0.87,0.531-1.295,0.85-1.295h0.319
			l0.361,0.318h0.149c0.17,0,0.828-0.34,1.911-1.041c0.765-0.34,1.912-0.828,3.462-1.508c0.042,0.021,0.382-0.127,1.062-0.425
			c0.148,0,0.467-0.063,0.977-0.17c0.489-0.106,0.722-0.17,0.744-0.17h1.041c0.744,0,1.593,0.488,2.57,1.466
			c0.043,0.042,0.064,0.127,0.085,0.255c0.17,0.19,0.255,0.382,0.255,0.53V12.149z"/>
		<path style="fill:#FFFFFF;" d="M93.505,17.927c-0.106,0-0.17-0.021-0.212-0.063c-0.085,0.021-0.213,0.085-0.361,0.191
			c0.148,0.063,0.361,0.148,0.595,0.297c-0.085,0.021-0.276,0.17-0.573,0.446c-0.276,0.085-0.723,0.212-1.317,0.34
			c-0.191,0.106-0.318,0.276-0.382,0.467l-2.634,0.34c-1.891-0.127-3.42-0.552-4.546-1.296c-0.807-0.828-1.316-1.783-1.529-2.867
			c-0.063-0.17-0.106-0.275-0.106-0.361c0-0.68,0.297-1.508,0.871-2.463c0.659-1.063,1.359-1.742,2.146-2.061
			c0.042-0.021,0.148-0.021,0.34-0.021c0.34-0.276,0.913-0.531,1.763-0.743c0.744-0.191,1.381-0.276,1.891-0.276
			c0.467,0,0.998,0.17,1.614,0.51c-0.021,0.021-0.021,0.106-0.021,0.255c0.128,0.021,0.276,0.063,0.468,0.106
			c0,0.042,0.042,0.105,0.127,0.212c0,0.255,0.106,0.573,0.298,0.999v0.445c0,0.064-0.043,0.128-0.128,0.213
			c0.043,0.063,0.064,0.148,0.064,0.233c0,0.148-0.064,0.318-0.191,0.51c-0.021,0.106-0.021,0.233-0.043,0.425
			c-0.148,0.213-1.062,1.041-1.848,1.572c-1.147,0.764-3.229,1.486-3.229,1.486c0.233,0.127,1.742,0.425,2.782,0.425
			c1.211,0,3.823-0.892,3.823-0.892c0.128,0.19,0.404,0.722,0.701,0.955C93.781,17.438,93.654,17.629,93.505,17.927z M89.002,12.149
			c-0.871,0.361-1.146,0.298-1.784,0.68c-0.701,0.446-1.253,0.978-1.55,1.487c0.085,0,0.149,0.021,0.234,0.105
			c0.701-0.275,1.316-0.382,2.018-0.85c0.552-0.382,0.871-0.743,1.232-1.146C89.151,12.468,89.108,12.383,89.002,12.149z"/>
		<path style="fill:#FFFFFF;" d="M109.818,16.737c-0.212,0.128-0.318,0.276-0.318,0.488c0,0.085,0.021,0.191,0.085,0.319
			c-0.063,0.084-0.276,0.233-0.637,0.424c-0.382,0.191-0.637,0.34-0.722,0.446c-0.425,0.191-1.062,0.468-1.912,0.85
			c0,0-0.106,0-0.34,0.043c-0.212,0.021-0.361,0.042-0.446,0.042l-1.02,0.213c-0.446,0-0.829,0.021-1.083,0.042L103,19.668
			l-1.02-0.063c-0.042,0-0.106,0.021-0.17,0.085c-0.17,0.021-0.446,0.043-0.807,0.064l-0.595,0.021
			c-0.425,0.021-1.296-0.17-2.612-0.51c-0.298-0.085-0.701-0.255-1.232-0.53c-0.297-0.234-0.51-0.51-0.616-0.786
			c-0.276-0.233-0.404-0.531-0.404-0.871c0-0.318,0.106-0.871,0.34-1.657c0.106-0.148,0.276-0.36,0.531-0.637
			c1.551-1.104,3.781-1.976,6.712-2.549c0.403-0.085,1.126-0.191,2.167-0.361c0.149-0.021,0.276-0.085,0.361-0.17l0.298-8.814
			c0,0,0.042-0.085,0.085-0.255c0.063-0.425,0.148-0.935,0.297-1.487c0.531-0.828,1.041-1.125,1.572-1.146
			c0.807,0.383,1.168,1.168,1.104,2.315c0.021,0.085,0.021,0.17,0.042,0.297c0.043,0.021,0.085,0.106,0.149,0.255l-0.085,10.217
			l-0.34,1.338c-0.021,0-0.212,0-0.595,0c-0.191,0.255-0.446,0.383-0.722,0.383c-0.021,0-0.17-0.021-0.425-0.085
			c-0.276-0.063-0.425-0.085-0.446-0.085c-1.21,0.191-2.4,0.105-3.632,0.425c-1.062,0.276-3.144,0.998-3.144,1.529
			c0,0.446,3.377,0.425,5.48,0.106c1.38-0.191,3.462-0.914,3.462-0.914c0.233,0.043,0.425,0.064,0.595,0.064
			c0.106,0,0.191,0,0.276-0.021l0.17,0.191l-0.149,0.254c0.085,0.064,0.234,0.149,0.468,0.213
			C110.116,16.546,110.031,16.631,109.818,16.737z"/>
		<path style="fill:#FFFFFF;" d="M132.632,14.805c-0.213,0.127-0.361,0.318-0.425,0.573c-0.829,0.765-1.827,1.423-3.017,2.018
			c-0.191,0.085-1.21,0.553-3.037,1.339c-0.212,0.042-0.616,0.127-1.168,0.297c-0.51,0.148-0.765,0.233-0.808,0.233
			c-0.021,0-0.106-0.021-0.212-0.021c-0.106-0.021-0.191-0.021-0.234-0.021c-0.212-0.213-0.404-0.318-0.616-0.318
			c-0.043,0-0.085,0-0.128,0c-0.042-0.086-0.127-0.234-0.255-0.383c-0.042,0.043-0.106,0.148-0.191,0.318
			c-0.064,0.17-0.127,0.276-0.17,0.318c-0.149,0.064-0.297,0.086-0.467,0.064l-0.212,0.212h-0.17c-0.042,0-0.234-0.085-0.595-0.276
			c0,0-0.042,0.021-0.127,0.043s-0.148,0.021-0.191,0.021c-0.361-0.298-0.531-0.553-0.531-0.765c-0.17-0.213-0.276-0.51-0.319-0.913
			c-0.106-0.191-0.191-0.383-0.233-0.616c-0.021-0.128-0.042-0.34-0.085-0.595c-0.085-0.446-0.127-0.595-0.127-0.446v-1.104
			c-0.064-0.425-0.106-0.701-0.085-0.807c-0.021-0.086-0.021-0.191-0.021-0.298c0-0.128,0-0.255,0.042-0.382
			c-0.063-0.128-0.297-0.276-0.68-0.426c-0.255-0.318-0.382-0.658-0.382-1.04c0-0.255,0.106-0.553,0.297-0.893
			c0.213-0.318,0.425-0.552,0.659-0.7l0.064-5.311c0.042-0.106,0.042-0.276,0.063-0.467c0-0.383,0.021-0.956,0.085-1.721
			c0.042-0.658,0.212-1.189,0.51-1.657c0.042-0.042,0.127-0.127,0.255-0.233c0.276-0.127,0.446-0.191,0.51-0.191
			c0.042,0,0.106,0.021,0.212,0.043c0.127,0.042,0.191,0.063,0.212,0.063c0.085,0.191,0.255,0.446,0.51,0.808
			c0.106,0.254,0.212,0.594,0.318,1.02c0,0.105,0,0.297,0.021,0.573c0.042,0.34,0.063,0.595,0.063,0.765l0.213,5.055
			c0.021,0.043,0.063,0.085,0.127,0.106c0.128-0.063,0.383-0.042,0.744-0.085l2.167-0.191l2.103,0.043
			c0.149,0,0.446,0.021,0.85,0.063c0.574,0.106,1.083,0.212,1.487,0.318c0.085,0.043,0.233,0.128,0.425,0.233
			c0.595,0.128,1.168,0.489,1.784,1.084c0.531,0.531,0.892,1.041,1.062,1.551c0.276,0.87,0.425,1.231,0.425,1.083
			C133.354,13.297,133.099,13.849,132.632,14.805z M129.892,13.021c-0.17-0.191-0.403-0.403-0.701-0.595
			c-0.743-0.298-1.614-0.468-2.612-0.51c-0.17-0.064-0.276-0.085-0.297-0.085l-2.103,0.106c-0.361,0.021-1.02,0.19-1.954,0.53v0.34
			c0,0.021,0.021,0.085,0.043,0.17c0.042,0.063,0.063,0.128,0.063,0.149v1.125l0.403,2.783c0.021-0.021,0.064-0.043,0.106-0.043
			c0.021-0.063,0.063-0.127,0.127-0.213c0.531-0.297,1.423-0.7,2.719-1.189c1.189-0.445,1.954-0.785,2.273-1.04
			c0.255-0.043,0.892-0.489,1.933-1.359V13.021z"/>
		<path style="fill:#FFFFFF;" d="M142.935,19.689c-0.106,0.383-0.68,1.976-1.721,4.822c0.043,0.042,0.085,0.042,0.149,0.042h-0.149
			l-0.977,2.315l-1.063,3.398c-0.063,0.042-0.255,0.233-0.595,0.595c-0.063,0-0.17,0.021-0.34,0.085
			c-0.17,0.063-0.276,0.085-0.297,0.085c0,0-0.064-0.021-0.234-0.063c-0.234-0.234-0.552-0.596-0.999-1.084
			c-0.17-0.615-0.276-1.253-0.318-1.571l0.318-1.509l0.999-2.931l1.954-4.651c-0.021-0.064-0.042-0.128-0.085-0.213
			c-0.744,0.234-1.274,0.34-1.593,0.34c-1.125,0-2.039-0.743-2.74-2.209c-0.574-1.189-0.85-2.421-0.85-3.695
			c0-0.318,0.085-0.701,0.234-1.126c0.127-0.148,0.318-0.34,0.595-0.595h0.148c0.127,0,0.446,0.255,0.977,0.765
			c0.149,0.233,0.255,0.531,0.34,0.892c0.021,0.128,0.127,0.574,0.297,1.317c0.17,0.765,0.361,1.147,0.595,1.147
			c0.573,0,1.338-0.426,2.357-1.254c0.808-0.68,1.487-1.359,2.018-2.039c0.106-0.021,0.255-0.085,0.425-0.212
			c0.127,0.042,0.319,0.063,0.552,0.063c0.106,0.127,0.276,0.34,0.531,0.637c0.063,0.021,0.127,0.043,0.212,0.086
			c0.298,0.36,0.446,0.828,0.446,1.359C144.124,15.336,143.721,17.077,142.935,19.689z"/>
	</g>
</g>
</svg>
