<?xml version="1.0" encoding="utf-8"?>
<!-- Generator: Adobe Illustrator 16.0.0, SVG Export Plug-In . SVG Version: 6.00 Build 0)  -->
<!DOCTYPE svg PUBLIC "-//W3C//DTD SVG 1.0//EN" "http://www.w3.org/TR/2001/REC-SVG-20010904/DTD/svg10.dtd">
<svg version="1.0" id="Capa_1" xmlns="http://www.w3.org/2000/svg" xmlns:xlink="http://www.w3.org/1999/xlink" x="0px" y="0px"
	 width="454.535px" height="80.448px" viewBox="0 0 454.535 80.448" style="enable-background:new 0 0 454.535 80.448;"
	 xml:space="preserve">
<g>
	<g>
		<path style="fill:#FFFFFF;" d="M265.69,60.848l-10.867-43.462h6.738l7.909,31.641l10.171-31.641h6.867l10.17,31.641l7.91-31.641
			h6.738l-10.866,43.462h-6.868l-10.518-32.814l-10.518,32.814H265.69z"/>
		<path style="fill:#FFFFFF;" d="M340.369,33.945c-0.088-2.838-1.145-5.274-3.173-7.303c-2.117-2.114-4.68-3.172-7.693-3.172
			s-5.577,1.058-7.693,3.172c-1.361,1.364-2.291,2.911-2.78,4.651l-5.911-2.957c0.84-2.317,2.201-4.416,4.084-6.3
			c3.391-3.391,7.49-5.085,12.301-5.085c4.81,0,8.91,1.694,12.299,5.085c3.393,3.388,5.086,7.488,5.086,12.298v26.513h-6.519v-2.435
			c-3.101,1.913-6.724,2.869-10.866,2.869c-4.811,0-8.91-1.271-12.301-3.821c-3.389-2.553-5.084-5.625-5.084-9.217
			c0-3.593,1.16-6.266,3.477-8.02c2.318-1.752,4.419-2.802,6.301-3.149L340.369,33.945z M340.369,48.289v-7.868l-14.343,2.174
			c-2.291,0.346-4.094,0.933-5.411,1.76c-1.319,0.826-1.979,2.122-1.979,3.89c0,1.796,1.058,3.333,3.173,4.606
			c2.116,1.276,4.68,1.914,7.693,1.914s5.576-0.638,7.693-1.914C339.31,51.577,340.369,50.057,340.369,48.289z"/>
		<path style="fill:#FFFFFF;" d="M351.234,48.244V0h6.52v48.244c0,1.796,0.637,3.333,1.912,4.606
			c1.273,1.276,2.81,1.914,4.606,1.914h2.174l2.172,6.518h-4.346c-3.592,0-6.663-1.271-9.214-3.821
			C352.51,54.908,351.234,51.836,351.234,48.244z"/>
		<path style="fill:#FFFFFF;" d="M370.835,48.244V0h6.521v48.244c0,1.796,0.637,3.333,1.912,4.606
			c1.274,1.276,2.81,1.914,4.607,1.914h2.173l2.174,6.518h-4.347c-3.594,0-6.665-1.271-9.214-3.821
			C372.111,54.908,370.835,51.836,370.835,48.244z"/>
		<path style="fill:#FFFFFF;" d="M386.63,41.726v-5.217c0-5.388,1.912-9.996,5.737-13.82c3.824-3.824,8.721-5.736,14.69-5.736
			c5.504,0,9.995,1.594,13.473,4.781c3.478,3.477,5.217,7.096,5.217,10.863v2.174l-30.686,13.821
			c0.521,0.811,1.157,1.595,1.912,2.347c2.548,2.551,5.911,3.826,10.084,3.826c3.707,0,6.663-0.811,8.865-2.436
			c2-1.681,3.316-3.303,3.956-4.868l5.868,2.956c-0.959,2.144-2.694,4.319-5.217,6.521c-3.478,2.897-7.969,4.345-13.473,4.345
			c-5.97,0-10.866-1.912-14.69-5.736C388.542,51.722,386.63,47.116,386.63,41.726z M393.149,36.509v5.826l25.816-11.214
			c-0.463-1.884-1.522-3.535-3.172-4.956c-2.115-1.795-5.029-2.694-8.736-2.694c-4.173,0-7.536,1.274-10.084,3.824
			C394.423,29.846,393.149,32.916,393.149,36.509z"/>
		<path style="fill:#FFFFFF;" d="M432.804,17.386V8.693h6.518v8.692h15.214v6.521h-15.214v24.338c0,1.796,0.639,3.333,1.913,4.606
			c1.276,1.276,2.812,1.914,4.608,1.914c1.768,0,3.271-0.611,4.518-1.827l3.045,5.912c-2.174,1.623-4.695,2.433-7.563,2.433
			c-3.595,0-6.666-1.271-9.215-3.821c-2.55-2.553-3.824-5.625-3.824-9.217V23.906h-6.521v-6.521H432.804z"/>
	</g>
	<g>
		<path style="fill:#F15A24;" d="M5.488,28.233c0-1.326-0.709-1.947-1.948-1.947H0v-9.557h10c4.159,0,5.664,1.857,5.664,4.336
			c0,1.061,0,1.771,0,1.771h0.177c0,0,3.806-7.17,14.337-7.17c12.212,0,20.089,9.648,20.089,23.629
			c0,14.338-8.85,23.629-20.708,23.629c-8.938,0-12.922-5.93-12.922-5.93h-0.176c0,0,0.176,1.594,0.176,3.894v18.676H5.488V28.233z
			 M27.522,53.457c6.196,0,11.418-5.046,11.418-13.981c0-8.588-4.602-14.16-11.239-14.16c-5.842,0-11.329,4.248-11.329,14.246
			C16.372,46.554,20.089,53.457,27.522,53.457z"/>
		<path style="fill:#F15A24;" d="M55.541,28.233c0-1.326-0.708-1.947-1.948-1.947h-3.54v-9.557h10.709c4.158,0,5.93,1.857,5.93,5.93
			v20.796c0,5.487,1.415,9.204,6.991,9.204c8.142,0,12.657-7.168,12.657-15.22v-20.71h11.238v33.719c0,1.239,0.71,1.945,1.947,1.945
			h3.541v9.469H92.711c-3.895,0-5.932-1.856-5.932-5.042v-1.241c0-1.059,0.09-2.032,0.09-2.032h-0.177
			c-2.124,4.688-7.789,9.378-15.576,9.378c-9.647,0-15.576-4.866-15.576-17.168V28.233z"/>
		<path style="fill:#F15A24;" d="M106.248,28.233c0-1.326-0.709-1.947-1.948-1.947h-3.54v-9.557h10.354
			c3.982,0,5.929,1.857,5.929,5.045v1.328c0,0.973-0.176,1.945-0.176,1.945h0.176c1.947-3.805,6.813-9.381,15.931-9.381
			c10,0,15.752,5.222,15.752,17.17v17.611c0,1.239,0.708,1.945,1.948,1.945h3.542v9.469h-10.709c-4.25,0-6.019-1.767-6.019-6.018
			V35.138c0-5.489-1.416-9.204-7.081-9.204c-6.017,0-10.531,3.805-12.123,9.204c-0.62,1.857-0.886,3.895-0.886,6.018v20.707h-11.15
			V28.233z"/>
		<path style="fill:#F15A24;" d="M173.31,15.667c10.443,0,13.895,6.371,13.895,6.371h0.178c0,0,0-0.531,0-1.149
			c0-2.036,1.415-4.159,4.956-4.159h10.442v9.557h-3.452c-1.15,0-1.948,0.621-1.948,1.77v31.066
			c0,15.483-12.035,21.326-23.806,21.326c-5.665,0-11.682-1.595-16.019-3.894l3.45-8.85c0,0,5.576,3.007,12.479,3.007
			c6.813,0,12.744-2.919,12.744-11.061v-2.124c0-1.062,0.089-2.39,0.089-2.39h-0.178c-2.654,3.808-6.547,5.842-12.566,5.842
			c-12.921,0-20.267-10.443-20.267-22.834S160.299,15.667,173.31,15.667z M186.497,38.236c0-10.268-5.132-13.012-11.24-13.012
			c-6.814,0-10.531,4.956-10.531,12.568c0,7.876,3.983,13.718,11.24,13.718C181.364,51.511,186.497,48.411,186.497,38.236z"/>
		<path style="fill:#F15A24;" d="M225.7,15.667c13.807,0,24.781,9.823,24.781,23.629c0,13.896-10.974,23.629-24.781,23.629
			c-13.716,0-24.69-9.732-24.69-23.629C201.009,25.49,211.984,15.667,225.7,15.667z M225.7,53.367
			c7.346,0,13.452-5.664,13.452-14.071c0-8.32-6.105-14.071-13.452-14.071c-7.256,0-13.364,5.751-13.364,14.071
			C212.336,47.703,218.443,53.367,225.7,53.367z"/>
	</g>
</g>
</svg>
