<?xml version="1.0" encoding="utf-8"?>
<!-- Generator: Adobe Illustrator 16.0.0, SVG Export Plug-In . SVG Version: 6.00 Build 0)  -->
<!DOCTYPE svg PUBLIC "-//W3C//DTD SVG 1.0//EN" "http://www.w3.org/TR/2001/REC-SVG-20010904/DTD/svg10.dtd">
<svg version="1.0" id="Capa_1" xmlns="http://www.w3.org/2000/svg" xmlns:xlink="http://www.w3.org/1999/xlink" x="0px" y="0px"
	 width="25.011px" height="25.01px" viewBox="0 0 25.011 25.01" style="enable-background:new 0 0 25.011 25.01;"
	 xml:space="preserve">
<g>
	<g>
		<path style="fill:#FFFFFF;" d="M16.609,14.771c-0.799,1.37-2.284,2.222-3.876,2.222c-0.725,0-1.41-0.174-2.017-0.48L8.68,18.549
			c1.159,0.779,2.554,1.234,4.054,1.234c1.494,0,2.929-0.446,4.149-1.293c1.219-0.844,2.139-2.024,2.663-3.414l0.181-0.485h-3.014
			L16.609,14.771z"/>
		<path style="fill:#FFFFFF;" d="M8.583,14.209c-0.217-0.525-0.337-1.102-0.337-1.704c0-2.475,2.014-4.489,4.487-4.489
			c0.593,0,1.172,0.119,1.706,0.338l2.075-2.075c-1.138-0.69-2.435-1.056-3.781-1.056c-4.015,0-7.279,3.268-7.279,7.283
			c0,1.381,0.387,2.674,1.058,3.775L8.583,14.209z"/>
		<path style="fill:#FFFFFF;" d="M18.782,8.445l-1.971,1.971h2.915l-0.181-0.484C19.347,9.404,19.09,8.906,18.782,8.445z"/>
	</g>
	<path style="fill:#FFFFFF;" d="M12.505,0C5.61,0,0,5.608,0,12.505C0,19.398,5.61,25.01,12.505,25.01
		c6.896,0,12.506-5.611,12.506-12.505C25.011,5.608,19.4,0,12.505,0z M2.786,12.505c0-5.36,4.36-9.721,9.719-9.721
		c2.177,0,4.188,0.719,5.809,1.931L4.717,18.313C3.504,16.69,2.786,14.681,2.786,12.505z M12.505,22.223
		c-2.175,0-4.186-0.718-5.807-1.929L20.295,6.697c1.212,1.621,1.93,3.632,1.93,5.808C22.225,17.863,17.865,22.223,12.505,22.223z"/>
</g>
</svg>
