<?xml version="1.0" encoding="utf-8"?>
<!-- Generator: Adobe Illustrator 16.0.0, SVG Export Plug-In . SVG Version: 6.00 Build 0)  -->
<!DOCTYPE svg PUBLIC "-//W3C//DTD SVG 1.1//EN" "http://www.w3.org/Graphics/SVG/1.1/DTD/svg11.dtd">
<svg version="1.1" id="Capa_1" xmlns="http://www.w3.org/2000/svg" xmlns:xlink="http://www.w3.org/1999/xlink" x="0px" y="0px"
	 width="452.908px" height="169.444px" viewBox="0 0 452.908 169.444" enable-background="new 0 0 452.908 169.444"
	 xml:space="preserve">
<g>
	<g>
		<path fill="#F15A24" d="M180.686,99.864L165.023,37.21h9.71l11.404,45.611l14.66-45.611h9.897l14.662,45.611l11.404-45.611h9.708
			l-15.662,62.654h-9.897l-15.163-47.302l-15.161,47.302H180.686z"/>
		<path fill="#F15A24" d="M288.337,61.084c-0.127-4.096-1.652-7.603-4.574-10.527c-3.05-3.051-6.746-4.573-11.089-4.573
			c-4.347,0-8.044,1.522-11.089,4.573c-1.964,1.964-3.303,4.195-4.012,6.705l-8.521-4.264c1.213-3.339,3.174-6.369,5.892-9.083
			c4.886-4.889,10.795-7.33,17.73-7.33c6.931,0,12.841,2.441,17.731,7.33c4.886,4.888,7.33,10.8,7.33,17.73v38.219h-9.398v-3.508
			c-4.471,2.757-9.693,4.133-15.663,4.133c-6.936,0-12.845-1.838-17.73-5.514c-4.889-3.675-7.33-8.102-7.33-13.278
			c0-5.182,1.67-9.036,5.009-11.562c3.345-2.525,6.369-4.043,9.086-4.542L288.337,61.084z M288.337,81.755V70.419l-20.677,3.13
			c-3.298,0.504-5.899,1.35-7.8,2.541c-1.9,1.187-2.849,3.056-2.849,5.607c0,2.589,1.522,4.799,4.573,6.637
			c3.045,1.843,6.742,2.757,11.089,2.757c4.343,0,8.039-0.914,11.089-2.757C286.812,86.496,288.337,84.307,288.337,81.755z"/>
		<path fill="#F15A24" d="M303.996,81.697V12.149h9.401v69.548c0,2.589,0.918,4.799,2.756,6.637
			c1.838,1.843,4.051,2.757,6.643,2.757h3.132l3.132,9.398h-6.264c-5.18,0-9.611-1.838-13.284-5.514
			C305.837,91.301,303.996,86.874,303.996,81.697z"/>
		<path fill="#F15A24" d="M332.257,81.697V12.149h9.396v69.548c0,2.589,0.919,4.799,2.757,6.637
			c1.838,1.843,4.051,2.757,6.642,2.757h3.13l3.135,9.398h-6.265c-5.18,0-9.605-1.838-13.281-5.514
			C334.095,91.301,332.257,86.874,332.257,81.697z"/>
		<path fill="#F15A24" d="M355.022,72.299V64.78c0-7.771,2.757-14.412,8.27-19.926c5.514-5.513,12.57-8.27,21.176-8.27
			c7.937,0,14.41,2.3,19.422,6.895c5.014,5.009,7.519,10.232,7.519,15.662v3.129l-44.23,19.926c0.751,1.171,1.67,2.3,2.757,3.381
			c3.676,3.676,8.519,5.514,14.533,5.514c5.345,0,9.608-1.166,12.779-3.508c2.883-2.42,4.783-4.762,5.703-7.015l8.458,4.259
			c-1.378,3.092-3.886,6.227-7.519,9.398c-5.012,4.179-11.485,6.264-19.422,6.264c-8.605,0-15.662-2.757-21.176-8.27
			C357.779,86.706,355.022,80.064,355.022,72.299z M364.421,64.78v8.396l37.216-16.166c-0.672-2.715-2.194-5.093-4.575-7.141
			c-3.049-2.589-7.249-3.886-12.594-3.886c-6.015,0-10.857,1.838-14.533,5.514C366.257,55.172,364.421,59.598,364.421,64.78z"/>
		<path fill="#F15A24" d="M421.584,37.21V24.683h9.396V37.21h21.929v9.398h-21.929v35.089c0,2.589,0.919,4.799,2.756,6.637
			c1.838,1.843,4.054,2.757,6.643,2.757c2.547,0,4.72-0.877,6.516-2.631l4.385,8.521c-3.133,2.342-6.766,3.508-10.9,3.508
			c-5.18,0-9.605-1.838-13.281-5.514c-3.676-3.675-5.513-8.102-5.513-13.278V46.608h-9.398V37.21H421.584z"/>
	</g>
	<g>
		<polygon fill="#F15A24" points="27.746,57.551 0,113.032 55.49,113.032 		"/>
		<polygon fill="#F15A24" points="113.211,0.572 85.465,56.064 140.958,56.064 		"/>
		<polygon fill="#F15A24" points="84.722,57.551 56.979,113.032 112.468,113.032 		"/>
		<polygon fill="#F15A24" points="55.49,113.951 0,113.951 27.746,169.444 		"/>
		<polygon fill="#F15A24" points="140.958,56.983 85.465,56.983 113.211,112.466 		"/>
		<polygon fill="#F15A24" points="83.979,56.983 28.492,56.983 56.232,112.466 		"/>
		<polygon fill="#F15A24" points="112.468,0 56.979,0 84.722,55.492 		"/>
	</g>
	<g>
		<polygon opacity="0.25" points="27.746,57.551 0,113.032 55.49,113.032 		"/>
		<polygon opacity="0.05" points="113.211,0.572 85.465,56.064 140.958,56.064 		"/>
		<polygon opacity="0.15" points="84.722,57.551 56.979,113.032 112.468,113.032 		"/>
		<polygon opacity="0.3" points="55.49,113.951 0,113.951 27.746,169.444 		"/>
		<polygon opacity="0.1" points="140.958,56.983 85.465,56.983 113.211,112.466 		"/>
		<polygon opacity="0.2" points="83.979,56.983 28.492,56.983 56.232,112.466 		"/>
	</g>
</g>
</svg>
