<?xml version="1.0" encoding="utf-8"?>
<!-- Generator: Adobe Illustrator 16.0.0, SVG Export Plug-In . SVG Version: 6.00 Build 0)  -->
<!DOCTYPE svg PUBLIC "-//W3C//DTD SVG 1.1//EN" "http://www.w3.org/Graphics/SVG/1.1/DTD/svg11.dtd">
<svg version="1.1" id="Capa_1" xmlns="http://www.w3.org/2000/svg" xmlns:xlink="http://www.w3.org/1999/xlink" x="0px" y="0px"
	 width="335.674px" height="191.484px" viewBox="0 0 335.674 191.484" enable-background="new 0 0 335.674 191.484"
	 xml:space="preserve">
<g>
	<path fill="#FFFFFF" d="M114.987,5.48c-0.149,0.042-0.213,0.105-0.213,0.19c0,0.043,0.021,0.106,0.064,0.17v0.106
		c-0.276,0.893-0.701,1.656-1.253,2.252h-0.212c-0.021,0.042-0.064,0.127-0.149,0.212v0.318l-1.274,0.786l0.17,0.021
		c0.042,0,0.064-0.021,0.064-0.064c-0.191,0.468-0.425,0.701-0.701,0.701c0.021,0.021,0.042-0.042,0.042-0.17l-0.085-0.085
		l-1.465,1.02l0.106,0.128c-0.042,0.021-0.191,0.042-0.425,0.085l-1.062,0.53c-0.106,0.086-0.255,0.234-0.446,0.404
		c0-0.021-0.021-0.064-0.063-0.106h-0.127c-0.021,0.021-0.042,0.085-0.042,0.212c-0.361,0.128-0.892,0.34-1.572,0.68
		c-0.404,0.128-1.02,0.361-1.848,0.68c-0.063,0.043-0.191,0.128-0.318,0.234c-0.17,0-0.403,0.021-0.701,0.085
		c-0.148,0.085-0.233,0.127-0.276,0.127c-0.021,0-0.064-0.021-0.106-0.021c-0.021-0.021-0.043-0.021-0.043-0.043
		c-0.467,0.297-0.743,0.446-0.85,0.446c-0.042,0-0.085-0.021-0.191-0.063l-2.018,0.743c0-0.043-0.021-0.106-0.085-0.149h-0.34
		c0.043,0.043,0.085,0.106,0.085,0.191c0,0.213-0.042,0.553-0.085,1.041l0.213,1.996v1.02c-0.064,0.021-0.149,0.064-0.276,0.149
		c0.063,0.063,0.106,0.17,0.106,0.34c-0.276,0-0.51,0.085-0.701,0.255c-0.276,0.042-0.616,0.17-1.02,0.382
		c-0.531-0.276-0.956-0.807-1.253-1.571c-0.298-0.765-0.425-1.614-0.361-2.527l0.148-2.677c0-0.021,0.043-0.128,0.106-0.298
		s0.085-0.297,0.085-0.36c0.042-0.255,0.085-0.616,0.148-1.104c0.064-0.17,0.085-0.404,0.106-0.744
		c0.17-0.34,0.233-0.722,0.212-1.125l1.423-4.652c-0.17,0.064-0.404,0.213-0.701,0.468c0.021,0.085,0.063,0.361,0.17,0.828
		c0,0.021-0.085,0.063-0.233,0.149c-0.128,0.063-0.213,0.105-0.276,0.105c-0.063,0.043-0.085,0.128-0.085,0.298
		c-0.255,0.127-0.403,0.19-0.446,0.17l-0.106,0.17L96.507,7.35c0.021,0.021,0.021,0.105,0.021,0.275
		c-0.085-0.042-0.191-0.148-0.34-0.275l-0.106,0.105c-0.552-0.403-0.871-0.955-0.977-1.678c0.021-0.191,0.021-0.361,0.021-0.467
		c0-0.128,0-0.191-0.021-0.213c0.021-0.361,0.318-0.765,0.828-1.189c0.148-0.127,0.51-0.403,1.104-0.828
		c0.148-0.043,0.531-0.213,1.104-0.51c0.042-0.043,0.042-0.064,0.063-0.106l-0.021-0.021c0.149-0.063,0.297-0.106,0.425-0.106
		c0.042,0,0.085,0,0.127,0.021l1.487-0.637c0.042,0.021,0.085,0.042,0.127,0.042s0.382-0.148,1.02-0.467
		c-0.042,0.021-0.063,0.042-0.063,0.106h0.318c0.042,0,0.063-0.043,0.063-0.106c0.276,0,0.425-0.021,0.425-0.043l0.68-0.17
		c0.106,0,0.17,0,0.191,0.043l0.17-0.149l0.255,0.043c0.191-0.085,0.403-0.213,0.637-0.361h0.234l0.106,0.106
		c0.149-0.085,0.297-0.148,0.467-0.17l1.678-0.318c0.234,0,0.404,0,0.553,0.021l0.106-0.105h0.446c0,0.063,0.043,0.127,0.106,0.212
		c-0.021,0,0.042-0.063,0.191-0.148c0.148-0.085,0.34-0.128,0.573-0.128h1.104c1.423,0,2.804,0.383,4.163,1.147
		c0.743,0.722,1.126,1.678,1.126,2.847c0,0.127-0.021,0.254-0.021,0.382l0.106,0.106V5.48z M110.866,3.335
		c-0.148-0.043-0.403-0.063-0.786-0.085c-0.234-0.021-0.382-0.085-0.425-0.191l-1.338-0.106c-0.595-0.063-1.041,0-1.338,0.149
		l-0.106-0.106c-0.106,0.042-0.276,0.063-0.488,0.063c0,0.021-0.021,0.063-0.042,0.106c-0.191-0.063-0.319-0.106-0.382-0.106
		c-0.318,0-1.296,0.17-2.974,0.488c-0.127,0.021-0.616,0.17-1.444,0.425c-0.34,0.106-0.531,0.276-0.595,0.553
		c0.106,0.042,0.17,0.127,0.17,0.276v0.254l0.148,0.149v0.36l-0.531,2.613c-0.064,0.148-0.085,0.275-0.085,0.382
		c0,0.043,0,0.063,0.021,0.106c-0.106,0.106-0.17,0.191-0.148,0.255l-0.467,3.207h0.17c0,0-0.021,0-0.021-0.021
		c0-0.086,0.573-0.446,1.741-1.063c0.786-0.425,2.103-0.977,3.993-1.678l1.104-0.553c1.168-0.382,2.443-1.253,3.866-2.591
		c0.191-0.255,0.361-0.531,0.531-0.786c0.234-0.383,0.361-0.701,0.361-0.956C111.8,3.93,111.482,3.547,110.866,3.335z
		 M102.051,1.189l0.17-0.106L102.051,1.189z M108.7,3.08c0,0,0.085,0,0.191,0.021c0.127,0,0.234,0.021,0.276,0.021
		C108.976,3.122,108.827,3.102,108.7,3.08z M109.421,11.448c0.064-0.127,0.106-0.17,0.106-0.127
		C109.506,11.342,109.485,11.385,109.421,11.448z M111.588,9.771l0.021,0.021c0.021,0,0.064-0.021,0.085-0.043
		c0.042-0.021,0.042-0.042,0.021-0.042C111.694,9.707,111.652,9.729,111.588,9.771z"/>
	<path fill="#FFFFFF" d="M128.603,15.951c-0.021,0.064-0.064,0.213-0.128,0.425c-0.255,0.319-0.637,0.765-1.125,1.339
		c-0.765,0.488-1.487,0.955-2.167,1.38c-1.572,0.531-2.761,0.808-3.59,0.808h-0.701c-0.064,0-0.149-0.021-0.255-0.085
		c-0.149,0.021-0.722-0.128-1.699-0.403c-0.382-0.234-0.935-0.638-1.614-1.232c-0.106-0.191-0.276-0.488-0.51-0.893
		c-0.234-0.828-0.34-1.465-0.34-1.911l0.106-0.978v-1.529c0-0.021,0.064-0.254,0.191-0.68c0.148-0.445,0.233-0.743,0.255-0.87
		c0.148-0.361,0.68-0.85,1.593-1.444c0.149-0.043,0.404-0.106,0.744-0.191c0.085-0.063,0.191-0.127,0.34-0.191
		c0.021,0.021,0.064,0.043,0.127,0.043c0,0,0.191-0.064,0.595-0.191s0.743-0.191,1.041-0.191h1.996c0.234,0,0.468,0.043,0.765,0.148
		c0.468-0.021,1.423,0.426,2.889,1.359v0.213c0.234,0.213,0.553,0.425,0.935,0.658c0.149,0.148,0.446,0.723,0.893,1.699
		c0.085,0.488,0.127,0.956,0.127,1.381C129.07,15.145,128.921,15.59,128.603,15.951z M126.691,13.657
		c-0.573-0.913-1.083-1.359-1.55-1.359c-0.021,0-0.064,0.021-0.085,0.021c-0.021,0.021-0.042,0.042-0.064,0.042h-0.127
		c-0.149-0.233-0.51-0.34-1.104-0.318l-1.147,0.043l-2.549,0.488l-0.127,0.17v0.383c0,0.063,0.042,0.17,0.106,0.318
		c-0.021,0.042-0.106,0.105-0.212,0.212c0.063,0.149,0.106,0.233,0.106,0.255c-0.128,0.106-0.234,0.17-0.319,0.213
		c0,0.021-0.106,0.191-0.297,0.51c-0.191,0.34-0.297,0.552-0.297,0.68c0-0.021,0.021,0.063,0.064,0.212
		c0.212,0.255,0.552,0.468,1.062,0.68c0.489,0.191,0.893,0.298,1.253,0.298c0.807-0.148,1.295-0.234,1.444-0.234l1.678-0.658
		c0.828-0.34,1.38-0.637,1.656-0.892c0.34-0.298,0.51-0.573,0.51-0.786V13.657z"/>
	<path fill="#FFFFFF" d="M148.166,13.254c-0.064,0.17-0.17,0.488-0.34,0.956c-0.106,0.127-0.319,0.573-0.637,1.338
		c-0.361,0.68-0.871,1.466-1.529,2.4c-0.786,1.104-1.423,1.848-1.912,2.229h-0.659c-0.68,0-1.359-0.637-2.06-1.933
		c-0.34-0.51-0.807-1.359-1.38-2.549c-0.128-0.255-0.319-0.573-0.553-0.935c0.043,0,0-0.021-0.127-0.063
		c-0.616,0.913-1.551,2.272-2.783,4.1c-0.701,0.446-1.359,0.722-1.975,0.786c-0.17-0.106-0.383-0.256-0.638-0.489
		c-0.127-0.19-0.34-0.467-0.658-0.786c-0.17-0.34-0.488-0.955-0.892-1.911c-0.744-1.763-1.083-3.037-1.083-3.802v-0.828
		c0-0.234,0.255-0.553,0.765-0.956h0.213c0.148,0,0.425,0.19,0.828,0.573c0.191,0.043,0.318,0.17,0.425,0.361
		c0.127,0.255,0.212,0.403,0.255,0.425c0.191,0.7,0.573,1.784,1.168,3.229c0.234-0.063,0.531-0.361,0.893-0.913
		c0.106-0.043,0.233-0.149,0.382-0.298c0.106-0.191,0.425-0.658,0.999-1.359c0.467-0.595,0.765-1.041,0.892-1.359
		c0.106-0.148,0.148-0.276,0.148-0.382c0.106-0.021,0.255-0.106,0.446-0.256c0.148,0,0.297-0.021,0.425-0.063
		c0.17,0.021,0.425,0.128,0.765,0.298c0.977,0.68,1.997,2.124,2.995,4.396c0.085,0.106,0.255,0.297,0.51,0.573
		c0.17-0.106,0.34-0.255,0.488-0.467c0.425-0.573,1.168-1.614,2.272-3.102c0.149-0.19,0.659-0.743,1.529-1.656
		c0.064,0.042,0.085,0.063,0.128,0.063c0,0-0.021,0.043-0.043,0.127c-0.021,0.064-0.042,0.106-0.042,0.149
		c0.021,0,0.042,0.021,0.085,0.042l0.425-0.382c0,0.063,0.148,0.212,0.382,0.467c-0.021,0.043-0.042,0.085-0.042,0.191
		c0.021,0.021,0.106,0.042,0.212,0.042c0,0.021,0,0.106,0.021,0.213s0.021,0.191,0.021,0.213
		C148.485,12.171,148.378,12.617,148.166,13.254z"/>
	<path fill="#FFFFFF" d="M160.614,17.927c-0.106,0-0.17-0.021-0.212-0.063c-0.085,0.021-0.213,0.085-0.361,0.191
		c0.148,0.063,0.361,0.148,0.595,0.297c-0.085,0.021-0.276,0.17-0.573,0.446c-0.276,0.085-0.723,0.212-1.317,0.34
		c-0.191,0.106-0.318,0.276-0.382,0.467l-2.634,0.34c-1.891-0.127-3.42-0.552-4.546-1.296c-0.807-0.828-1.316-1.783-1.529-2.867
		c-0.063-0.17-0.106-0.275-0.106-0.361c0-0.68,0.297-1.508,0.871-2.463c0.659-1.063,1.359-1.742,2.146-2.061
		c0.042-0.021,0.148-0.021,0.34-0.021c0.34-0.276,0.913-0.531,1.763-0.743c0.744-0.191,1.381-0.276,1.891-0.276
		c0.467,0,0.998,0.17,1.614,0.51c-0.021,0.021-0.021,0.106-0.021,0.255c0.128,0.021,0.276,0.063,0.468,0.106
		c0,0.042,0.042,0.105,0.127,0.212c0,0.255,0.106,0.573,0.298,0.999v0.445c0,0.064-0.043,0.128-0.128,0.213
		c0.043,0.063,0.064,0.148,0.064,0.233c0,0.148-0.064,0.318-0.191,0.51c-0.021,0.106-0.021,0.233-0.043,0.425
		c-0.148,0.213-1.062,1.041-1.848,1.572c-1.147,0.764-3.229,1.486-3.229,1.486c0.233,0.127,1.742,0.425,2.782,0.425
		c1.211,0,3.823-0.892,3.823-0.892c0.128,0.19,0.404,0.722,0.701,0.955C160.89,17.438,160.763,17.629,160.614,17.927z
		 M156.111,12.149c-0.871,0.361-1.146,0.298-1.784,0.68c-0.701,0.446-1.253,0.978-1.55,1.487c0.085,0,0.149,0.021,0.234,0.105
		c0.701-0.275,1.316-0.382,2.018-0.85c0.552-0.382,0.871-0.743,1.232-1.146C156.26,12.468,156.217,12.383,156.111,12.149z"/>
	<path fill="#FFFFFF" d="M176.843,12.149c-0.043,0-0.127,0.042-0.276,0.106c0,0.063-0.021,0.105-0.042,0.148l0.212,0.213
		c-0.063,0.063-0.233,0.148-0.51,0.19c-0.298,0.063-0.446,0.128-0.468,0.149l-1.932-0.426c-0.34,0.043-0.787,0.106-1.359,0.191
		c-0.659,0.234-1.297,0.425-1.869,0.574c-0.68,0.275-1.679,0.68-2.974,1.273c-1.189,0.553-1.912,1.381-2.209,2.465
		c0,0.042,0.042,0.318,0.106,0.828v0.34c-0.064,0.127-0.127,0.233-0.149,0.318c-0.042,0.127,0,0.233,0.128,0.318l-1.063,0.658
		h-0.191c-0.149-0.084-0.34-0.233-0.574-0.424l-0.276,0.042c-0.085-0.128-0.212-0.298-0.361-0.531
		c-0.064-0.19-0.149-0.34-0.213-0.488c-0.085-0.425-0.127-0.638-0.127-0.658v-0.893c0-0.021,0.021-0.063,0.021-0.127
		c0.021-0.063,0.042-0.106,0.042-0.128v-0.955c0-0.276,0.085-0.766,0.297-1.445c0.255-0.87,0.531-1.295,0.85-1.295h0.319
		l0.361,0.318h0.149c0.17,0,0.828-0.34,1.911-1.041c0.765-0.34,1.913-0.828,3.462-1.508c0.042,0.021,0.382-0.127,1.062-0.425
		c0.148,0,0.468-0.063,0.978-0.17c0.489-0.106,0.722-0.17,0.743-0.17h1.041c0.744,0,1.594,0.488,2.57,1.466
		c0.043,0.042,0.063,0.127,0.084,0.255c0.17,0.19,0.256,0.382,0.256,0.53V12.149z"/>
	<path fill="#FFFFFF" d="M188.653,17.927c-0.106,0-0.17-0.021-0.213-0.063c-0.084,0.021-0.213,0.085-0.361,0.191
		c0.148,0.063,0.361,0.148,0.596,0.297c-0.086,0.021-0.277,0.17-0.574,0.446c-0.275,0.085-0.723,0.212-1.316,0.34
		c-0.191,0.106-0.318,0.276-0.383,0.467l-2.633,0.34c-1.891-0.127-3.42-0.552-4.547-1.296c-0.807-0.828-1.316-1.783-1.529-2.867
		c-0.063-0.17-0.105-0.275-0.105-0.361c0-0.68,0.297-1.508,0.871-2.463c0.658-1.063,1.359-1.742,2.145-2.061
		c0.043-0.021,0.148-0.021,0.34-0.021c0.34-0.276,0.914-0.531,1.764-0.743c0.743-0.191,1.381-0.276,1.891-0.276
		c0.467,0,0.998,0.17,1.613,0.51c-0.021,0.021-0.021,0.106-0.021,0.255c0.129,0.021,0.277,0.063,0.469,0.106
		c0,0.042,0.041,0.105,0.127,0.212c0,0.255,0.105,0.573,0.297,0.999v0.445c0,0.064-0.043,0.128-0.127,0.213
		c0.043,0.063,0.063,0.148,0.063,0.233c0,0.148-0.063,0.318-0.19,0.51c-0.021,0.106-0.021,0.233-0.043,0.425
		c-0.148,0.213-1.063,1.041-1.848,1.572c-1.147,0.764-3.229,1.486-3.229,1.486c0.232,0.127,1.741,0.425,2.781,0.425
		c1.211,0,3.824-0.892,3.824-0.892c0.127,0.19,0.403,0.722,0.701,0.955C188.929,17.438,188.802,17.629,188.653,17.927z
		 M184.149,12.149c-0.87,0.361-1.146,0.298-1.783,0.68c-0.701,0.446-1.254,0.978-1.551,1.487c0.085,0,0.148,0.021,0.234,0.105
		c0.7-0.275,1.316-0.382,2.018-0.85c0.552-0.382,0.871-0.743,1.231-1.146C184.299,12.468,184.257,12.383,184.149,12.149z"/>
	<path fill="#FFFFFF" d="M204.966,16.737c-0.211,0.128-0.318,0.276-0.318,0.488c0,0.085,0.021,0.191,0.086,0.319
		c-0.064,0.084-0.277,0.233-0.638,0.424c-0.382,0.191-0.638,0.34-0.722,0.446c-0.426,0.191-1.063,0.468-1.912,0.85
		c0,0-0.105,0-0.34,0.043c-0.213,0.021-0.361,0.042-0.445,0.042l-1.02,0.213c-0.447,0-0.829,0.021-1.084,0.042l-0.425,0.063
		l-1.02-0.063c-0.042,0-0.106,0.021-0.17,0.085c-0.17,0.021-0.446,0.043-0.808,0.064l-0.594,0.021
		c-0.426,0.021-1.297-0.17-2.613-0.51c-0.297-0.085-0.701-0.255-1.232-0.53c-0.297-0.234-0.51-0.51-0.615-0.786
		c-0.275-0.233-0.404-0.531-0.404-0.871c0-0.318,0.107-0.871,0.34-1.657c0.107-0.148,0.277-0.36,0.531-0.637
		c1.551-1.104,3.781-1.976,6.713-2.549c0.402-0.085,1.125-0.191,2.166-0.361c0.148-0.021,0.275-0.085,0.361-0.17l0.297-8.814
		c0,0,0.043-0.085,0.086-0.255c0.063-0.425,0.148-0.935,0.297-1.487c0.531-0.828,1.041-1.125,1.572-1.146
		c0.807,0.383,1.168,1.168,1.104,2.315c0.021,0.085,0.021,0.17,0.043,0.297c0.043,0.021,0.084,0.106,0.148,0.255l-0.085,10.217
		l-0.34,1.338c-0.021,0-0.212,0-0.595,0c-0.191,0.255-0.445,0.383-0.723,0.383c-0.021,0-0.17-0.021-0.424-0.085
		c-0.277-0.063-0.426-0.085-0.447-0.085c-1.21,0.191-2.399,0.105-3.631,0.425c-1.063,0.276-3.145,0.998-3.145,1.529
		c0,0.446,3.377,0.425,5.48,0.106c1.381-0.191,3.463-0.914,3.463-0.914c0.232,0.043,0.424,0.064,0.594,0.064
		c0.106,0,0.191,0,0.276-0.021l0.17,0.191l-0.149,0.254c0.086,0.064,0.234,0.149,0.469,0.213
		C205.265,16.546,205.179,16.631,204.966,16.737z"/>
	<path fill="#FFFFFF" d="M227.78,14.805c-0.213,0.127-0.361,0.318-0.426,0.573c-0.828,0.765-1.826,1.423-3.016,2.018
		c-0.191,0.085-1.211,0.553-3.037,1.339c-0.213,0.042-0.617,0.127-1.168,0.297c-0.51,0.148-0.766,0.233-0.809,0.233
		c-0.021,0-0.105-0.021-0.211-0.021c-0.107-0.021-0.191-0.021-0.234-0.021c-0.213-0.213-0.404-0.318-0.615-0.318
		c-0.043,0-0.086,0-0.129,0c-0.041-0.086-0.127-0.234-0.254-0.383c-0.043,0.043-0.106,0.148-0.191,0.318
		c-0.064,0.17-0.127,0.276-0.17,0.318c-0.148,0.064-0.297,0.086-0.467,0.064l-0.213,0.212h-0.17c-0.043,0-0.234-0.085-0.595-0.276
		c0,0-0.042,0.021-0.128,0.043c-0.084,0.021-0.148,0.021-0.191,0.021c-0.36-0.298-0.53-0.553-0.53-0.765
		c-0.17-0.213-0.276-0.51-0.319-0.913c-0.105-0.191-0.19-0.383-0.232-0.616c-0.021-0.128-0.043-0.34-0.086-0.595
		c-0.084-0.446-0.127-0.595-0.127-0.446v-1.104c-0.064-0.425-0.105-0.701-0.085-0.807c-0.021-0.086-0.021-0.191-0.021-0.298
		c0-0.128,0-0.255,0.041-0.382c-0.063-0.128-0.297-0.276-0.68-0.426c-0.254-0.318-0.381-0.658-0.381-1.04
		c0-0.255,0.105-0.553,0.297-0.893c0.213-0.318,0.424-0.552,0.658-0.7l0.064-5.311c0.041-0.106,0.041-0.276,0.063-0.467
		c0-0.383,0.021-0.956,0.086-1.721c0.042-0.658,0.212-1.189,0.51-1.657c0.042-0.042,0.127-0.127,0.254-0.233
		c0.277-0.127,0.447-0.191,0.51-0.191c0.043,0,0.107,0.021,0.213,0.043c0.127,0.042,0.191,0.063,0.213,0.063
		c0.084,0.191,0.254,0.446,0.51,0.808c0.105,0.254,0.212,0.594,0.318,1.02c0,0.105,0,0.297,0.021,0.573
		c0.042,0.34,0.063,0.595,0.063,0.765l0.213,5.055c0.021,0.043,0.064,0.085,0.127,0.106c0.129-0.063,0.383-0.042,0.744-0.085
		l2.166-0.191l2.104,0.043c0.148,0,0.445,0.021,0.85,0.063c0.573,0.106,1.083,0.212,1.486,0.318
		c0.086,0.043,0.234,0.128,0.426,0.233c0.594,0.128,1.168,0.489,1.783,1.084c0.531,0.531,0.893,1.041,1.063,1.551
		c0.275,0.87,0.424,1.231,0.424,1.083C228.501,13.297,228.247,13.849,227.78,14.805z M225.04,13.021
		c-0.17-0.191-0.404-0.403-0.701-0.595c-0.744-0.298-1.615-0.468-2.613-0.51c-0.17-0.064-0.275-0.085-0.297-0.085l-2.104,0.106
		c-0.36,0.021-1.02,0.19-1.953,0.53v0.34c0,0.021,0.021,0.085,0.043,0.17c0.041,0.063,0.063,0.128,0.063,0.149v1.125l0.404,2.783
		c0.021-0.021,0.063-0.043,0.105-0.043c0.021-0.063,0.064-0.127,0.128-0.213c0.53-0.297,1.423-0.7,2.719-1.189
		c1.189-0.445,1.954-0.785,2.272-1.04c0.256-0.043,0.893-0.489,1.934-1.359V13.021z"/>
	<path fill="#FFFFFF" d="M238.082,19.689c-0.106,0.383-0.68,1.976-1.72,4.822c0.041,0.042,0.084,0.042,0.148,0.042h-0.148
		l-0.979,2.315l-1.061,3.398c-0.064,0.042-0.256,0.233-0.596,0.595c-0.063,0-0.17,0.021-0.34,0.085
		c-0.17,0.063-0.275,0.085-0.297,0.085c0,0-0.064-0.021-0.234-0.063c-0.232-0.234-0.552-0.596-0.998-1.084
		c-0.17-0.615-0.275-1.253-0.318-1.571l0.318-1.509l0.998-2.931l1.955-4.651c-0.021-0.064-0.043-0.128-0.086-0.213
		c-0.742,0.234-1.273,0.34-1.592,0.34c-1.127,0-2.039-0.743-2.74-2.209c-0.574-1.189-0.85-2.421-0.85-3.695
		c0-0.318,0.084-0.701,0.232-1.126c0.129-0.148,0.319-0.34,0.596-0.595h0.148c0.127,0,0.445,0.255,0.977,0.765
		c0.148,0.233,0.256,0.531,0.34,0.892c0.021,0.128,0.128,0.574,0.298,1.317c0.17,0.765,0.36,1.147,0.595,1.147
		c0.574,0,1.338-0.426,2.357-1.254c0.807-0.68,1.486-1.359,2.018-2.039c0.107-0.021,0.256-0.085,0.426-0.212
		c0.127,0.042,0.318,0.063,0.552,0.063c0.106,0.127,0.276,0.34,0.53,0.637c0.064,0.021,0.129,0.043,0.213,0.086
		c0.297,0.36,0.446,0.828,0.446,1.359C239.271,15.336,238.868,17.077,238.082,19.689z"/>
</g>
<g>
	<g>
		<g>
			<g>
				<path fill="#FFFFFF" d="M108.613,92.741c0-1.232-0.657-1.807-1.805-1.807h-3.281v-8.857h9.27c3.855,0,5.25,1.722,5.25,4.02
					c0,0.983,0,1.642,0,1.642h0.162c0,0,3.527-6.644,13.289-6.644c11.319,0,18.619,8.939,18.619,21.898
					c0,13.286-8.203,21.897-19.193,21.897c-8.284,0-11.975-5.495-11.975-5.495h-0.164c0,0,0.164,1.479,0.164,3.612v17.304h-10.334
					V92.741z M129.038,116.118c5.74,0,10.579-4.676,10.579-12.96c0-7.956-4.265-13.124-10.417-13.124
					c-5.412,0-10.499,3.936-10.499,13.205C118.702,109.718,122.148,116.118,129.038,116.118z"/>
				<path fill="#FFFFFF" d="M155.003,92.741c0-1.232-0.657-1.807-1.805-1.807h-3.281v-8.857h9.924c3.855,0,5.496,1.722,5.496,5.495
					v19.275c0,5.084,1.313,8.53,6.48,8.53c7.546,0,11.729-6.643,11.729-14.106V82.077h10.418v31.252
					c0,1.148,0.654,1.803,1.804,1.803h3.282v8.777h-9.598c-3.609,0-5.494-1.722-5.494-4.676v-1.148c0-0.984,0.08-1.887,0.08-1.887
					h-0.164c-1.969,4.349-7.218,8.692-14.436,8.692c-8.94,0-14.436-4.509-14.436-15.909V92.741z"/>
				<path fill="#FFFFFF" d="M201.998,92.741c0-1.232-0.655-1.807-1.804-1.807h-3.28v-8.857h9.595c3.691,0,5.496,1.722,5.496,4.675
					v1.232c0,0.901-0.164,1.803-0.164,1.803h0.164c1.805-3.527,6.314-8.692,14.764-8.692c9.269,0,14.601,4.838,14.601,15.91v16.324
					c0,1.148,0.654,1.803,1.804,1.803h3.281v8.777h-9.924c-3.938,0-5.579-1.641-5.579-5.576V99.138c0-5.084-1.312-8.53-6.563-8.53
					c-5.576,0-9.759,3.527-11.234,8.53c-0.575,1.721-0.82,3.609-0.82,5.576v19.195h-10.336V92.741z"/>
				<path fill="#FFFFFF" d="M264.151,81.095c9.679,0,12.879,5.903,12.879,5.903h0.164c0,0,0-0.492,0-1.065
					c0-1.888,1.311-3.855,4.593-3.855h9.678v8.857h-3.196c-1.066,0-1.807,0.574-1.807,1.641v28.791
					c0,14.355-11.155,19.766-22.064,19.766c-5.248,0-10.825-1.475-14.846-3.608l3.2-8.204c0,0,5.167,2.793,11.565,2.793
					c6.316,0,11.81-2.708,11.81-10.256v-1.969c0-0.981,0.083-2.214,0.083-2.214h-0.166c-2.461,3.528-6.068,5.414-11.646,5.414
					c-11.975,0-18.781-9.678-18.781-21.161C245.616,90.442,252.094,81.095,264.151,81.095z M276.374,102.007
					c0-9.513-4.758-12.055-10.416-12.055c-6.316,0-9.763,4.592-9.763,11.646c0,7.298,3.692,12.713,10.417,12.713
					C271.616,114.312,276.374,111.442,276.374,102.007z"/>
				<path fill="#FFFFFF" d="M312.708,81.095c12.795,0,22.966,9.104,22.966,21.898c0,12.879-10.171,21.897-22.966,21.897
					c-12.713,0-22.884-9.019-22.884-21.897C289.824,90.198,299.995,81.095,312.708,81.095z M312.708,116.033
					c6.808,0,12.467-5.249,12.467-13.04c0-7.711-5.659-13.041-12.467-13.041c-6.728,0-12.385,5.33-12.385,13.041
					C300.323,110.784,305.98,116.033,312.708,116.033z"/>
			</g>
		</g>
		<g>
			<g>
				<polygon fill="#FFFFFF" points="17.837,96.043 0,131.714 35.675,131.714 				"/>
				<polygon fill="#FFFFFF" points="72.787,59.408 54.949,95.087 90.625,95.087 				"/>
				<polygon fill="#FFFFFF" points="54.47,96.043 36.632,131.714 72.309,131.714 				"/>
				<polygon fill="#FFFFFF" points="35.675,132.304 0,132.304 17.837,167.983 				"/>
				<polygon fill="#FFFFFF" points="90.625,95.678 54.949,95.678 72.787,131.349 				"/>
				<polygon fill="#FFFFFF" points="53.992,95.678 18.317,95.678 36.153,131.349 				"/>
				<polygon fill="#FFFFFF" points="72.309,59.041 36.632,59.041 54.47,94.719 				"/>
			</g>
			<g>
				<polygon opacity="0.25" points="17.837,96.043 0,131.714 35.675,131.714 				"/>
				<polygon opacity="0.05" points="72.787,59.408 54.949,95.087 90.625,95.087 				"/>
				<polygon opacity="0.15" points="54.47,96.043 36.632,131.714 72.309,131.714 				"/>
				<polygon opacity="0.3" points="35.675,132.304 0,132.304 17.837,167.983 				"/>
				<polygon opacity="0.1" points="90.625,95.678 54.949,95.678 72.787,131.349 				"/>
				<polygon opacity="0.2" points="53.992,95.678 18.317,95.678 36.153,131.349 				"/>
			</g>
		</g>
	</g>
	<g>
		<g>
			<path fill="#FFFFFF" d="M120.283,167.199c0-5.283,1.874-9.8,5.624-13.55c3.749-3.75,8.549-5.625,14.401-5.625
				c5.396,0,9.8,1.422,13.208,4.262c2.473,2.16,4.176,4.289,5.112,6.389l-5.752,2.9c-0.625-1.536-1.917-3.126-3.875-4.773
				c-2.16-1.59-5.057-2.387-8.692-2.387c-4.092,0-7.386,1.25-9.885,3.751c-2.501,2.498-3.75,5.509-3.75,9.033v5.11
				c0,3.524,1.249,6.536,3.75,9.035c2.499,2.496,5.793,3.75,9.885,3.75c3.635,0,6.532-0.797,8.692-2.387
				c1.958-1.647,3.251-3.238,3.875-4.774l5.752,2.897c-0.937,2.102-2.64,4.232-5.112,6.394c-3.408,2.839-7.812,4.26-13.208,4.26
				c-5.852,0-10.652-1.876-14.401-5.624c-3.75-3.75-5.624-8.268-5.624-13.551V167.199z"/>
			<path fill="#FFFFFF" d="M160.758,167.199c0-5.283,1.876-9.8,5.624-13.55c3.75-3.75,8.267-5.625,13.55-5.625
				s9.799,1.875,13.55,5.625c3.747,3.75,5.624,8.267,5.624,13.55v5.11c0,5.283-1.877,9.801-5.624,13.551
				c-3.751,3.748-8.267,5.624-13.55,5.624s-9.801-1.876-13.55-5.624c-3.748-3.75-5.624-8.268-5.624-13.551V167.199z
				 M192.714,167.199c0-3.524-1.25-6.535-3.748-9.033c-2.502-2.501-5.513-3.751-9.033-3.751c-3.523,0-6.534,1.25-9.033,3.751
				c-2.499,2.498-3.749,5.509-3.749,9.033v5.11c0,3.524,1.25,6.536,3.749,9.035c2.499,2.496,5.51,3.75,9.033,3.75
				c3.521,0,6.531-1.254,9.033-3.75c2.498-2.499,3.748-5.511,3.748-9.035V167.199z"/>
			<path fill="#FFFFFF" d="M203.366,148.451h6.391v3.281c3.038-2.472,6.59-3.708,10.652-3.708c2.812,0,5.369,0.581,7.668,1.746
				l-2.853,5.752c-1.45-0.736-3.056-1.107-4.815-1.107c-2.955,0-5.469,1.037-7.541,3.113c-2.075,2.072-3.111,4.584-3.111,7.542
				v25.989h-6.391V148.451z"/>
			<path fill="#FFFFFF" d="M227.604,172.31v-5.11c0-5.283,1.873-9.8,5.624-13.55c3.748-3.75,8.549-5.625,14.401-5.625
				c5.396,0,9.799,1.564,13.207,4.686c3.407,3.41,5.113,6.962,5.113,10.654v2.13l-30.08,13.548c0.512,0.797,1.136,1.563,1.875,2.303
				c2.498,2.496,5.793,3.75,9.885,3.75c3.635,0,6.531-0.797,8.692-2.387c1.958-1.647,3.251-3.238,3.875-4.774l5.753,2.897
				c-0.938,2.102-2.641,4.232-5.113,6.394c-3.408,2.839-7.812,4.26-13.207,4.26c-5.853,0-10.653-1.876-14.401-5.624
				C229.478,182.11,227.604,177.593,227.604,172.31z M233.995,167.199v5.708l25.308-10.991c-0.454-1.847-1.491-3.467-3.109-4.856
				c-2.074-1.763-4.929-2.645-8.563-2.645c-4.092,0-7.387,1.25-9.885,3.751C235.243,160.664,233.995,163.675,233.995,167.199z"/>
		</g>
	</g>
</g>
</svg>
