<?xml version="1.0" encoding="utf-8"?>
<!-- Generator: Adobe Illustrator 16.0.0, SVG Export Plug-In . SVG Version: 6.00 Build 0)  -->
<!DOCTYPE svg PUBLIC "-//W3C//DTD SVG 1.1//EN" "http://www.w3.org/Graphics/SVG/1.1/DTD/svg11.dtd">
<svg version="1.1" id="Capa_1" xmlns="http://www.w3.org/2000/svg" xmlns:xlink="http://www.w3.org/1999/xlink" x="0px" y="0px"
	 width="335.674px" height="132.443px" viewBox="0 0 335.674 132.443" enable-background="new 0 0 335.674 132.443"
	 xml:space="preserve">
<g>
	<g>
		<g>
			<g>
				<path fill="#FFFFFF" d="M108.613,33.7c0-1.232-0.657-1.807-1.805-1.807h-3.281v-8.857h9.27c3.855,0,5.25,1.722,5.25,4.02
					c0,0.983,0,1.642,0,1.642h0.162c0,0,3.527-6.644,13.289-6.644c11.319,0,18.619,8.939,18.619,21.898
					c0,13.286-8.203,21.897-19.193,21.897c-8.284,0-11.975-5.495-11.975-5.495h-0.164c0,0,0.164,1.479,0.164,3.612v17.304h-10.334
					V33.7z M129.038,57.077c5.74,0,10.579-4.676,10.579-12.96c0-7.956-4.265-13.124-10.417-13.124
					c-5.412,0-10.499,3.936-10.499,13.205C118.702,50.677,122.148,57.077,129.038,57.077z"/>
				<path fill="#FFFFFF" d="M155.003,33.7c0-1.232-0.657-1.807-1.805-1.807h-3.281v-8.857h9.924c3.855,0,5.496,1.722,5.496,5.495
					v19.275c0,5.084,1.313,8.53,6.479,8.53c7.547,0,11.729-6.643,11.729-14.106V23.036h10.417v31.252
					c0,1.148,0.655,1.803,1.805,1.803h3.281v8.777h-9.598c-3.607,0-5.494-1.722-5.494-4.676v-1.148c0-0.984,0.082-1.887,0.082-1.887
					h-0.166c-1.968,4.349-7.217,8.692-14.435,8.692c-8.94,0-14.436-4.509-14.436-15.909V33.7z"/>
				<path fill="#FFFFFF" d="M201.998,33.7c0-1.232-0.655-1.807-1.803-1.807h-3.281v-8.857h9.596c3.691,0,5.496,1.722,5.496,4.675
					v1.232c0,0.901-0.164,1.803-0.164,1.803h0.164c1.804-3.527,6.313-8.692,14.763-8.692c9.269,0,14.601,4.838,14.601,15.91v16.324
					c0,1.148,0.654,1.803,1.805,1.803h3.281v8.777h-9.925c-3.938,0-5.579-1.641-5.579-5.576V40.097c0-5.084-1.311-8.53-6.563-8.53
					c-5.576,0-9.759,3.527-11.234,8.53c-0.575,1.721-0.82,3.609-0.82,5.576v19.195h-10.336V33.7z"/>
				<path fill="#FFFFFF" d="M264.152,22.054c9.678,0,12.878,5.903,12.878,5.903h0.164c0,0,0-0.492,0-1.065
					c0-1.888,1.312-3.855,4.593-3.855h9.678v8.857h-3.197c-1.066,0-1.805,0.574-1.805,1.641v28.791
					c0,14.355-11.156,19.766-22.064,19.766c-5.25,0-10.826-1.475-14.847-3.608l3.2-8.204c0,0,5.166,2.793,11.565,2.793
					c6.315,0,11.81-2.708,11.81-10.256v-1.969c0-0.981,0.083-2.214,0.083-2.214h-0.165c-2.461,3.528-6.07,5.414-11.646,5.414
					c-11.976,0-18.783-9.678-18.783-21.161C245.615,31.401,252.094,22.054,264.152,22.054z M276.374,42.966
					c0-9.513-4.759-12.055-10.416-12.055c-6.316,0-9.763,4.592-9.763,11.646c0,7.298,3.693,12.713,10.417,12.713
					C271.615,55.271,276.374,52.401,276.374,42.966z"/>
				<path fill="#FFFFFF" d="M312.709,22.054c12.793,0,22.965,9.104,22.965,21.898c0,12.879-10.172,21.897-22.965,21.897
					c-12.713,0-22.885-9.019-22.885-21.897C289.824,31.157,299.996,22.054,312.709,22.054z M312.709,56.992
					c6.807,0,12.466-5.249,12.466-13.04c0-7.711-5.659-13.041-12.466-13.041c-6.729,0-12.387,5.33-12.387,13.041
					C300.322,51.743,305.98,56.992,312.709,56.992z"/>
			</g>
		</g>
		<g>
			<g>
				<polygon fill="#FFFFFF" points="17.837,37.002 0,72.673 35.675,72.673 				"/>
				<polygon fill="#FFFFFF" points="72.787,0.367 54.949,36.046 90.625,36.046 				"/>
				<polygon fill="#FFFFFF" points="54.47,37.002 36.632,72.673 72.309,72.673 				"/>
				<polygon fill="#FFFFFF" points="35.675,73.263 0,73.263 17.837,108.942 				"/>
				<polygon fill="#FFFFFF" points="90.625,36.637 54.949,36.637 72.787,72.308 				"/>
				<polygon fill="#FFFFFF" points="53.992,36.637 18.317,36.637 36.153,72.308 				"/>
				<polygon fill="#FFFFFF" points="72.309,0 36.632,0 54.47,35.678 				"/>
			</g>
			<g>
				<polygon opacity="0.25" points="17.837,37.002 0,72.673 35.675,72.673 				"/>
				<polygon opacity="0.05" points="72.787,0.367 54.949,36.046 90.625,36.046 				"/>
				<polygon opacity="0.15" points="54.47,37.002 36.632,72.673 72.309,72.673 				"/>
				<polygon opacity="0.3" points="35.675,73.263 0,73.263 17.837,108.942 				"/>
				<polygon opacity="0.1" points="90.625,36.637 54.949,36.637 72.787,72.308 				"/>
				<polygon opacity="0.2" points="53.992,36.637 18.317,36.637 36.153,72.308 				"/>
			</g>
		</g>
	</g>
	<g>
		<g>
			<path fill="#FFFFFF" d="M120.283,108.158c0-5.283,1.874-9.8,5.624-13.55c3.749-3.75,8.549-5.625,14.401-5.625
				c5.396,0,9.8,1.422,13.208,4.262c2.473,2.16,4.176,4.289,5.112,6.389l-5.752,2.9c-0.625-1.536-1.917-3.126-3.875-4.773
				c-2.16-1.59-5.057-2.387-8.692-2.387c-4.092,0-7.386,1.25-9.885,3.751c-2.501,2.498-3.75,5.509-3.75,9.033v5.11
				c0,3.524,1.249,6.536,3.75,9.035c2.499,2.496,5.793,3.75,9.885,3.75c3.635,0,6.532-0.797,8.692-2.387
				c1.958-1.647,3.251-3.238,3.875-4.774l5.752,2.897c-0.937,2.102-2.64,4.232-5.112,6.394c-3.408,2.839-7.812,4.26-13.208,4.26
				c-5.852,0-10.652-1.876-14.401-5.624c-3.75-3.75-5.624-8.268-5.624-13.551V108.158z"/>
			<path fill="#FFFFFF" d="M160.758,108.158c0-5.283,1.876-9.8,5.624-13.55c3.75-3.75,8.267-5.625,13.549-5.625
				c5.283,0,9.801,1.875,13.551,5.625c3.747,3.75,5.624,8.267,5.624,13.55v5.11c0,5.283-1.877,9.801-5.624,13.551
				c-3.75,3.748-8.268,5.624-13.551,5.624c-5.282,0-9.799-1.876-13.549-5.624c-3.748-3.75-5.624-8.268-5.624-13.551V108.158z
				 M192.715,108.158c0-3.524-1.251-6.535-3.749-9.033c-2.502-2.501-5.513-3.751-9.034-3.751s-6.533,1.25-9.033,3.751
				c-2.498,2.498-3.748,5.509-3.748,9.033v5.11c0,3.524,1.25,6.536,3.748,9.035c2.5,2.496,5.512,3.75,9.033,3.75
				s6.532-1.254,9.034-3.75c2.498-2.499,3.749-5.511,3.749-9.035V108.158z"/>
			<path fill="#FFFFFF" d="M203.366,89.41h6.391v3.281c3.038-2.472,6.589-3.708,10.651-3.708c2.813,0,5.37,0.581,7.669,1.746
				l-2.853,5.752c-1.45-0.736-3.056-1.107-4.816-1.107c-2.955,0-5.468,1.037-7.541,3.113c-2.074,2.072-3.11,4.584-3.11,7.542v25.989
				h-6.391V89.41z"/>
			<path fill="#FFFFFF" d="M227.604,113.269v-5.11c0-5.283,1.874-9.8,5.624-13.55c3.748-3.75,8.549-5.625,14.4-5.625
				c5.396,0,9.8,1.564,13.208,4.686c3.407,3.41,5.112,6.962,5.112,10.654v2.13l-30.079,13.548c0.511,0.797,1.136,1.563,1.875,2.303
				c2.498,2.496,5.793,3.75,9.884,3.75c3.637,0,6.532-0.797,8.693-2.387c1.957-1.647,3.25-3.238,3.875-4.774l5.752,2.897
				c-0.937,2.102-2.64,4.232-5.112,6.394c-3.408,2.839-7.812,4.26-13.208,4.26c-5.852,0-10.652-1.876-14.4-5.624
				C229.479,123.069,227.604,118.552,227.604,113.269z M233.994,108.158v5.708l25.309-10.991c-0.454-1.847-1.49-3.467-3.109-4.856
				c-2.074-1.763-4.928-2.645-8.564-2.645c-4.091,0-7.386,1.25-9.884,3.751C235.244,101.623,233.994,104.634,233.994,108.158z"/>
		</g>
	</g>
</g>
</svg>
