<?xml version="1.0" encoding="utf-8"?>
<!-- Generator: Adobe Illustrator 16.0.0, SVG Export Plug-In . SVG Version: 6.00 Build 0)  -->
<!DOCTYPE svg PUBLIC "-//W3C//DTD SVG 1.1//EN" "http://www.w3.org/Graphics/SVG/1.1/DTD/svg11.dtd">
<svg version="1.1" id="Capa_1" xmlns="http://www.w3.org/2000/svg" xmlns:xlink="http://www.w3.org/1999/xlink" x="0px" y="0px"
	 width="77.094px" height="76.877px" viewBox="0 0 77.094 76.877" enable-background="new 0 0 77.094 76.877" xml:space="preserve">
<g>
	<path fill="#B3B3B3" d="M40.767,49.121c-0.967,0.138-1.952,0.211-2.957,0.211c-3.813,0-7.352-0.989-10.617-2.969
		c-3.268-1.979-5.983-4.639-8.15-7.979c2.477-3.845,5.58-6.721,9.311-8.626c-0.994,1.693-1.49,3.526-1.49,5.498
		c0,3.014,1.07,5.591,3.213,7.733c2.142,2.143,4.721,3.214,7.734,3.214c0.941,0,1.836-0.117,2.693-0.326
		c0.238-5.139,3.592-9.452,8.224-11.102c-0.075-1.787-0.548-3.465-1.46-5.018c2.162,1.104,4.105,2.544,5.847,4.3
		c1.86,0.034,3.616,0.48,5.19,1.247c-2.165-3.091-4.928-5.625-8.288-7.601c-3.853-2.265-7.921-3.396-12.206-3.396
		s-8.354,1.132-12.206,3.396c-3.854,2.265-6.92,5.263-9.201,8.993c-0.325,0.57-0.488,1.132-0.488,1.687
		c0,0.554,0.163,1.115,0.488,1.686c2.281,3.731,5.348,6.729,9.201,8.993c3.853,2.265,7.921,3.396,12.206,3.396
		c1.366,0,2.708-0.128,4.03-0.356C41.362,51.17,40.997,50.172,40.767,49.121z M32.567,30.015c1.458-1.458,3.205-2.188,5.242-2.188
		c0.325,0,0.603,0.114,0.831,0.343c0.228,0.228,0.342,0.505,0.342,0.83c0,0.326-0.114,0.604-0.342,0.831
		c-0.228,0.229-0.505,0.343-0.831,0.343c-1.4,0-2.599,0.497-3.592,1.49c-0.994,0.994-1.49,2.191-1.49,3.593
		c0,0.326-0.115,0.603-0.344,0.831c-0.228,0.228-0.504,0.342-0.83,0.342s-0.604-0.114-0.831-0.342
		c-0.229-0.229-0.343-0.506-0.343-0.831C30.38,33.22,31.11,31.473,32.567,30.015z"/>
	<g>
		<path fill="#B3B3B3" d="M55.909,45.329h-1.895v-1.896c0-0.624-0.506-1.13-1.131-1.13c-0.623,0-1.129,0.506-1.129,1.13v1.896H49.86
			c-0.625,0-1.131,0.506-1.131,1.129c0,0.624,0.506,1.13,1.131,1.13h1.895v1.896c0,0.623,0.506,1.13,1.129,1.13
			c0.625,0,1.131-0.507,1.131-1.13v-1.896h1.895c0.624,0,1.129-0.506,1.129-1.13C57.038,45.835,56.533,45.329,55.909,45.329z"/>
		<path fill="#B3B3B3" d="M52.884,36.255c-5.626,0-10.203,4.577-10.203,10.203c0,5.627,4.577,10.204,10.203,10.204
			c5.627,0,10.205-4.577,10.205-10.204C63.089,40.832,58.511,36.255,52.884,36.255z M52.884,54.403
			c-4.381,0-7.943-3.564-7.943-7.945c0-4.38,3.563-7.944,7.943-7.944s7.945,3.564,7.945,7.944
			C60.829,50.839,57.265,54.403,52.884,54.403z"/>
	</g>
	<path fill="#B3B3B3" d="M39.1,0.191c-10.281-0.01-19.955,3.831-27.234,11.095C4.586,18.55,0.57,28.136,0.561,38.419
		c0,21.247,17.252,38.479,38.459,38.501c10.283,0.011,19.955-4.004,27.234-11.269c7.281-7.264,11.295-16.627,11.307-26.911
		l0.047-0.186l0,0L77.561,39C77.561,18,60.307,0.214,39.1,0.191z M39.061,72.383c-18.748,0-34-15.253-34-34s15.252-34,34-34
		s34,15.253,34,34S57.809,72.383,39.061,72.383z"/>
</g>
</svg>
