<?xml version="1.0" encoding="utf-8"?>
<!-- Generator: Adobe Illustrator 16.0.0, SVG Export Plug-In . SVG Version: 6.00 Build 0)  -->
<!DOCTYPE svg PUBLIC "-//W3C//DTD SVG 1.1//EN" "http://www.w3.org/Graphics/SVG/1.1/DTD/svg11.dtd">
<svg version="1.1" id="Capa_1" xmlns="http://www.w3.org/2000/svg" xmlns:xlink="http://www.w3.org/1999/xlink" x="0px" y="0px"
	 width="77.102px" height="76.876px" viewBox="0 0 77.102 76.876" enable-background="new 0 0 77.102 76.876" xml:space="preserve">
<g>
	<g>
		<path fill="#B3B3B3" d="M28.938,42.654h-5.364l-0.948,2.461h-4.84l6.171-14.117h4.679l6.171,14.117h-4.921L28.938,42.654z
			 M27.626,39.226l-1.371-3.549l-1.371,3.549H27.626z"/>
		<path fill="#B3B3B3" d="M35.571,30.998h4.76v10.425h6.372v3.691H35.571V30.998z"/>
		<path fill="#B3B3B3" d="M48.014,30.998h4.76v10.425h6.372v3.691H48.014V30.998z"/>
	</g>
	<path fill="#B3B3B3" d="M77.102,38.486c0.012-10.281-4.042-19.919-11.306-27.199C58.53,4.008,48.835,0.01,38.554,0
		C17.306,0,0.021,17.261,0,38.468c-0.012,10.284,3.978,19.889,11.241,27.168c7.264,7.281,17.042,11.24,27.325,11.24h0.042l0,0h0.109
		C60.718,76.876,77.08,59.693,77.102,38.486z M4.485,38.518c0-18.748,15.252-34,34-34s34,15.252,34,34c0,18.748-15.252,34-34,34
		S4.485,57.265,4.485,38.518z"/>
</g>
</svg>
