<?xml version="1.0" encoding="utf-8"?>
<!-- Generator: Adobe Illustrator 16.0.0, SVG Export Plug-In . SVG Version: 6.00 Build 0)  -->
<!DOCTYPE svg PUBLIC "-//W3C//DTD SVG 1.1//EN" "http://www.w3.org/Graphics/SVG/1.1/DTD/svg11.dtd">
<svg version="1.1" id="Capa_1" xmlns="http://www.w3.org/2000/svg"  x="0px" y="0px"
	 width="118.141px" height="153.999px" viewBox="0 0 118.141 153.999" enable-background="new 0 0 118.141 153.999"
	 xml:space="preserve">
<g>
	<g>
		<g>
			<g>
				<path fill="#F15A24" d="M59.107,25.963c-9.485,0-17.2,7.717-17.2,17.201c0,9.485,7.715,17.202,17.2,17.202
					c9.484,0,17.204-7.717,17.204-17.202C76.312,33.68,68.592,25.963,59.107,25.963z M59.107,50.629
					c-4.116,0-7.463-3.347-7.463-7.465c0-4.117,3.349-7.464,7.463-7.464c4.117,0,7.466,3.347,7.466,7.464
					C66.573,47.282,63.225,50.629,59.107,50.629z"/>
			</g>
		</g>
		<g>
			<g>
				<path fill="#F15A24" d="M39.992,24.05c1.902-1.899,1.902-4.983,0-6.883c-1.899-1.901-4.984-1.901-6.883,0
					c-14.334,14.334-14.334,37.661,0,51.995c0.949,0.951,2.196,1.428,3.442,1.428c1.245,0,2.49-0.477,3.44-1.426
					c1.9-1.902,1.9-4.984,0-6.887C29.453,51.74,29.453,34.589,39.992,24.05z"/>
			</g>
		</g>
		<g>
			<g>
				<path fill="#F15A24" d="M85.106,17.167c-1.903-1.901-4.981-1.901-6.883,0c-1.903,1.901-1.903,4.983,0,6.885
					c5.121,5.123,7.943,11.911,7.943,19.112c0,7.203-2.822,13.99-7.943,19.113c-1.903,1.902-1.903,4.984,0,6.885
					c0.949,0.951,2.195,1.428,3.44,1.428s2.491-0.477,3.442-1.428c6.963-6.963,10.796-16.195,10.796-25.998
					C95.902,33.362,92.069,24.129,85.106,17.167z"/>
			</g>
		</g>
		<g>
			<g>
				<path fill="#F15A24" d="M9.735,43.244c0-13.165,5.157-25.57,14.518-34.934c1.902-1.901,1.902-4.984,0-6.885
					c-1.899-1.9-4.982-1.9-6.884,0C6.168,12.625,0,27.479,0,43.244c0,15.77,6.168,30.62,17.369,41.82
					c0.949,0.951,2.195,1.426,3.441,1.426c1.245,0,2.493-0.475,3.442-1.426c1.902-1.9,1.902-4.982,0-6.883
					C14.893,68.82,9.735,56.412,9.735,43.244z"/>
			</g>
		</g>
		<g>
			<g>
				<path fill="#F15A24" d="M100.846,1.425c-1.901-1.899-4.979-1.899-6.883,0c-1.902,1.901-1.902,4.984,0,6.884
					c19.262,19.266,19.262,50.61,0,69.873c-1.902,1.898-1.902,4.983,0,6.883c0.95,0.951,2.195,1.426,3.442,1.426
					c1.244,0,2.491-0.475,3.44-1.427C123.905,62.004,123.905,24.482,100.846,1.425z"/>
			</g>
		</g>
		<g>
			<g>
				
					<rect x="63.557" y="76.514" transform="matrix(-0.7137 0.7005 -0.7005 -0.7137 196.0924 144.9401)" fill="#F15A24" width="9.736" height="72.063"/>
			</g>
		</g>
		<g>
			<g>
				
					<rect x="13.771" y="107.68" transform="matrix(-0.7015 0.7127 -0.7127 -0.7015 165.0526 155.9654)" fill="#F15A24" width="72.184" height="9.737"/>
			</g>
		</g>
		<g>
			<g>
				<path fill="#F15A24" d="M102.148,147.482L68.232,53.201c-0.911-2.53-3.693-3.844-6.229-2.935
					c-2.53,0.909-3.842,3.699-2.933,6.229l33.915,94.281c0.715,1.985,2.587,3.222,4.582,3.222c0.548,0,1.103-0.094,1.647-0.287
					C101.744,152.799,103.058,150.014,102.148,147.482z"/>
			</g>
		</g>
		<g>
			<g>
				<path fill="#F15A24" d="M56.38,50.267c-2.521-0.909-5.318,0.394-6.232,2.925l-34.079,94.282
					c-0.912,2.528,0.395,5.319,2.925,6.233c0.548,0.198,1.106,0.292,1.655,0.292c1.99,0,3.862-1.231,4.577-3.215L59.305,56.5
					C60.219,53.973,58.91,51.182,56.38,50.267z"/>
			</g>
		</g>
	</g>
</g>
</svg>
