<?xml version="1.0" encoding="utf-8"?>
<!-- Generator: Adobe Illustrator 16.0.0, SVG Export Plug-In . SVG Version: 6.00 Build 0)  -->
<!DOCTYPE svg PUBLIC "-//W3C//DTD SVG 1.1//EN" "http://www.w3.org/Graphics/SVG/1.1/DTD/svg11.dtd">
<svg version="1.1" id="Capa_1" xmlns="http://www.w3.org/2000/svg" xmlns:xlink="http://www.w3.org/1999/xlink" x="0px" y="0px"
	 width="77.102px" height="76.876px" viewBox="0 0 77.102 76.876" enable-background="new 0 0 77.102 76.876" xml:space="preserve">
<g>
	<path fill="#B3B3B3" d="M54.771,24.104c0-4.069-3.3-7.368-7.369-7.368c-3.259-0.002-6.021,2.111-6.994,5.039l-16.18,0.003
		l-2.336,2.326l4.517,4.53l2.201-2.201l2.2,2.201l2.199-2.201l2.199,2.201l2.2-2.201h2.999c0.973,2.929,3.735,5.041,6.994,5.041
		C51.47,31.472,54.77,28.175,54.771,24.104z M49.23,26.333c-1.23,0-2.23-0.999-2.23-2.229s1-2.228,2.23-2.228
		c1.229,0,2.228,0.998,2.228,2.228S50.462,26.333,49.23,26.333z"/>
	<path fill="#B3B3B3" d="M54.92,45.223c-0.561,0-1.009,0.448-1.009,1.009v9.171c0,2.494-2.03,4.519-4.519,4.519H27.271
		c-2.495,0-4.519-2.031-4.519-4.519v-9.32c0-0.561-0.448-1.009-1.009-1.009c-0.56,0-1.008,0.448-1.008,1.009v9.32
		c0,3.606,2.935,6.535,6.535,6.535h22.121c3.608,0,6.535-2.935,6.535-6.535v-9.171C55.928,45.679,55.48,45.223,54.92,45.223z"/>
	<path fill="#B3B3B3" d="M37.308,55.001c0.261,0.26,0.609,0.399,0.949,0.399c0.339,0,0.689-0.13,0.948-0.399l8.564-8.564
		c0.529-0.529,0.529-1.377,0-1.907C47.24,44,46.393,44,45.863,44.53l-6.26,6.27V34.458c0-0.748-0.599-1.348-1.347-1.348
		c-0.749,0-1.348,0.6-1.348,1.348v16.342l-6.269-6.27c-0.529-0.529-1.378-0.529-1.906,0c-0.529,0.53-0.529,1.378,0,1.907
		L37.308,55.001z"/>
	<path fill="#B3B3B3" d="M77.383,38.549c0.011-10.283-4.042-19.889-11.307-27.169S49.119,0.118,38.836,0.108
		c-21.246,0-38.532,17.269-38.555,38.476c-0.011,10.283,3.977,19.832,11.24,27.111c7.266,7.28,17.043,11.182,27.326,11.182h0.043
		l0,0H39C61,76.876,77.361,59.756,77.383,38.549z M4.767,38.641c0-18.748,15.253-34,34-34c18.748,0,34,15.252,34,34
		s-15.252,34-34,34C20.02,72.64,4.767,57.388,4.767,38.641z"/>
</g>
</svg>
