<?xml version="1.0" encoding="utf-8"?>
<!-- Generator: Adobe Illustrator 16.0.0, SVG Export Plug-In . SVG Version: 6.00 Build 0)  -->
<!DOCTYPE svg PUBLIC "-//W3C//DTD SVG 1.1//EN" "http://www.w3.org/Graphics/SVG/1.1/DTD/svg11.dtd">
<svg version="1.1" id="Capa_1" xmlns="http://www.w3.org/2000/svg" xmlns:xlink="http://www.w3.org/1999/xlink" x="0px" y="0px"
	 width="77.102px" height="76.876px" viewBox="0 0 77.102 76.876" enable-background="new 0 0 77.102 76.876" xml:space="preserve">
<g>
	<g>
		<path fill="#FFFFFF" d="M42.267,55.1l0.008-0.01c0.67,0.613,1.551,0.996,2.527,0.996c2.07,0,3.75-1.68,3.75-3.75
			c0-1.094-0.475-2.07-1.223-2.754l0.008-0.012L35.353,38.586L47.337,27.6l-0.008-0.01c0.748-0.684,1.223-1.658,1.223-2.754
			c0-2.07-1.68-3.75-3.75-3.75c-0.977,0-1.857,0.383-2.527,0.996l-0.008-0.012L27.266,35.823c-0.771,0.711-1.215,1.711-1.215,2.764
			s0.443,2.053,1.215,2.766L42.267,55.1z"/>
	</g>
	<path fill="#FFFFFF" d="M38.591-0.289C28.309-0.301,18.635,3.796,11.355,11.06C4.076,18.326,0.061,28.044,0.051,38.327
		c0,21.247,17.252,38.543,38.46,38.565c10.283,0.012,19.955-3.971,27.233-11.234c7.281-7.266,11.295-17.134,11.307-27.415
		l-0.003-0.178l0,0L77.051,38C77.051,17,59.798-0.268,38.591-0.289z M38.552,72.418c-18.749,0-34.001-15.252-34.001-34
		s15.252-34,34.001-34c18.748,0,33.999,15.252,33.999,34S57.3,72.418,38.552,72.418z"/>
</g>
</svg>
