<?xml version="1.0" encoding="utf-8"?>
<!-- Generator: Adobe Illustrator 16.0.0, SVG Export Plug-In . SVG Version: 6.00 Build 0)  -->
<!DOCTYPE svg PUBLIC "-//W3C//DTD SVG 1.1//EN" "http://www.w3.org/Graphics/SVG/1.1/DTD/svg11.dtd">
<svg version="1.1" id="Capa_1" xmlns="http://www.w3.org/2000/svg" xmlns:xlink="http://www.w3.org/1999/xlink" x="0px" y="0px"
	 width="77.094px" height="76.877px" viewBox="0 0 77.094 76.877" enable-background="new 0 0 77.094 76.877" xml:space="preserve">
<g>
	<g>
		<path fill="#B3B3B3" d="M27.953,39.369c0.488,0.64,0.733,1.427,0.733,2.36c0,1.323-0.515,2.34-1.542,3.051
			c-1.027,0.712-2.525,1.067-4.494,1.067h-7.805V30.756h7.373c1.84,0,3.252,0.353,4.236,1.057s1.477,1.66,1.477,2.867
			c0,0.733-0.176,1.388-0.527,1.962c-0.354,0.575-0.846,1.028-1.478,1.358C26.789,38.273,27.465,38.729,27.953,39.369z
			 M18.316,33.387v3.557h3.471c0.863,0,1.517-0.15,1.963-0.452c0.445-0.302,0.668-0.747,0.668-1.337
			c0-0.589-0.223-1.031-0.668-1.326c-0.446-0.294-1.1-0.441-1.963-0.441H18.316z M24.472,42.765c0.467-0.302,0.7-0.769,0.7-1.401
			c0-1.25-0.927-1.876-2.781-1.876h-4.074v3.73h4.074C23.311,43.218,24.004,43.066,24.472,42.765z"/>
		<path fill="#B3B3B3" d="M41.945,43.045v2.803H30.26V30.756h11.405v2.803H33.73v3.277h7.008v2.717H33.73v3.492H41.945z"/>
		<path fill="#B3B3B3" d="M45.146,45.621c-1.113-0.323-2.008-0.743-2.684-1.261l1.186-2.631c0.646,0.475,1.416,0.855,2.307,1.143
			c0.891,0.288,1.782,0.432,2.674,0.432c0.991,0,1.725-0.147,2.199-0.442c0.474-0.294,0.711-0.686,0.711-1.175
			c0-0.358-0.141-0.657-0.42-0.895c-0.281-0.237-0.641-0.428-1.078-0.571c-0.439-0.144-1.031-0.302-1.779-0.475
			c-1.15-0.272-2.091-0.546-2.824-0.819c-0.732-0.272-1.361-0.711-1.887-1.314c-0.524-0.604-0.787-1.408-0.787-2.415
			c0-0.876,0.238-1.671,0.712-2.382c0.475-0.712,1.189-1.275,2.146-1.692c0.955-0.417,2.123-0.625,3.504-0.625
			c0.962,0,1.903,0.115,2.824,0.345c0.919,0.229,1.725,0.561,2.414,0.991l-1.078,2.652c-1.395-0.791-2.789-1.187-4.183-1.187
			c-0.978,0-1.7,0.159-2.167,0.475c-0.467,0.316-0.7,0.733-0.7,1.251c0,0.517,0.27,0.901,0.809,1.153
			c0.539,0.251,1.361,0.499,2.468,0.743c1.15,0.273,2.092,0.547,2.824,0.819c0.734,0.273,1.362,0.705,1.887,1.294
			c0.525,0.589,0.787,1.387,0.787,2.393c0,0.862-0.24,1.649-0.723,2.361c-0.48,0.711-1.203,1.275-2.166,1.692
			c-0.963,0.416-2.135,0.625-3.514,0.625C47.414,46.106,46.26,45.944,45.146,45.621z"/>
		<path fill="#B3B3B3" d="M59.235,33.603h-4.829v-2.847h13.15v2.847h-4.828v12.245h-3.493V33.603z"/>
	</g>
	<path fill="#B3B3B3" d="M39.102-0.241C28.818-0.253,19.146,3.868,11.865,11.133C4.586,18.397,0.57,28.126,0.561,38.41
		c0,21.247,17.254,38.551,38.461,38.573c10.283,0.01,19.955-3.971,27.234-11.234S77.551,48.571,77.561,38.29l0.077-0.275l0,0
		L77.561,38C77.563,17,60.309-0.22,39.102-0.241z M39.061,72.514c-18.748,0-34-15.254-34-34c0-18.748,15.252-34,34-34
		s34,15.252,34,34C73.061,57.26,57.809,72.514,39.061,72.514z"/>
</g>
</svg>
