<?xml version="1.0" encoding="utf-8"?>
<!-- Generator: Adobe Illustrator 16.0.0, SVG Export Plug-In . SVG Version: 6.00 Build 0)  -->
<!DOCTYPE svg PUBLIC "-//W3C//DTD SVG 1.1//EN" "http://www.w3.org/Graphics/SVG/1.1/DTD/svg11.dtd">
<svg version="1.1" id="Capa_1" xmlns="http://www.w3.org/2000/svg" xmlns:xlink="http://www.w3.org/1999/xlink" x="0px" y="0px"
	 width="77.102px" height="76.876px" viewBox="0 0 77.102 76.876" enable-background="new 0 0 77.102 76.876" xml:space="preserve">
<g>
	<g>
		
			<rect x="34.457" y="19.196" transform="matrix(0.7071 -0.7071 0.7071 0.7071 -16.3973 39.0642)" fill="#B3B3B3" width="8.999" height="40.26"/>
		
			<rect x="34.457" y="19.196" transform="matrix(-0.7071 -0.7071 0.7071 -0.7071 38.6949 94.6788)" fill="#B3B3B3" width="8.999" height="40.26"/>
	</g>
	<path fill="#B3B3B3" d="M77.043,38.549c0.012-10.283-3.711-19.889-10.975-27.169C58.803,4.1,49.275,0.118,38.992,0.108
		c-21.246,0-38.449,17.269-38.471,38.476C0.51,48.867,4.538,58.416,11.802,65.695c7.266,7.28,16.401,11.182,26.685,11.182h-0.596
		l0,0H38C60,76.876,77.021,59.756,77.043,38.549z M5.089,38.641c0-18.748,15.252-34,34-34s34,15.252,34,34s-15.252,34-34,34
		S5.089,57.388,5.089,38.641z"/>
</g>
</svg>
