<?xml version="1.0" encoding="utf-8"?>
<!-- Generator: Adobe Illustrator 16.0.0, SVG Export Plug-In . SVG Version: 6.00 Build 0)  -->
<!DOCTYPE svg PUBLIC "-//W3C//DTD SVG 1.1//EN" "http://www.w3.org/Graphics/SVG/1.1/DTD/svg11.dtd">
<svg version="1.1" id="Capa_1" xmlns="http://www.w3.org/2000/svg" xmlns:xlink="http://www.w3.org/1999/xlink" x="0px" y="0px"
	 width="77.102px" height="76.876px" viewBox="0 0 77.102 76.876" enable-background="new 0 0 77.102 76.876" xml:space="preserve">
<g>
	<g>
		<g>
			<path fill="#B3B3B3" d="M15.811,37.668c-0.182,6.121,2.035,11.951,6.234,16.404c4.277,4.535,10.066,7.092,16.301,7.195
				c0.678,0.014,1.238-0.531,1.26-1.213c0.012-0.678-0.531-1.238-1.217-1.26c-5.564-0.098-10.723-2.375-14.539-6.424
				c-7.75-8.203-7.369-21.176,0.84-28.918c8.211-7.742,21.184-7.361,28.926,0.85s7.361,21.182-0.85,28.924l-0.188,0.178l0.084-2.879
				c0.012-0.336-0.117-0.652-0.336-0.883c-0.221-0.234-0.521-0.373-0.863-0.391c-0.684-0.02-1.252,0.516-1.271,1.199l-0.18,5.854
				c-0.02,0.684,0.516,1.252,1.201,1.273l5.861,0.172c0.682,0.02,1.25-0.516,1.271-1.199c0.01-0.336-0.119-0.652-0.338-0.883
				c-0.219-0.232-0.521-0.373-0.863-0.391l-2.879-0.084l0.188-0.178c4.453-4.199,7.008-9.887,7.188-16.01
				s-2.035-11.949-6.234-16.404c-4.199-4.453-9.889-7.008-16.012-7.188c-6.123-0.18-11.945,2.043-16.398,6.242
				S15.991,31.545,15.811,37.668z"/>
			<g>
				<path fill="#B3B3B3" d="M30.788,38.37l2.539,1.375l-1.141,1.908l-2.563-1.514l0.047,2.818h-2.189l0.023-2.842l-2.561,1.537
					l-1.117-1.908l2.537-1.375l-2.537-1.396l1.117-1.91l2.561,1.537l-0.023-2.84h2.189l-0.047,2.84l2.563-1.537l1.141,1.91
					L30.788,38.37z"/>
				<path fill="#B3B3B3" d="M41.36,38.37l2.537,1.375l-1.141,1.908l-2.561-1.514l0.047,2.818h-2.19l0.023-2.842l-2.563,1.537
					l-1.117-1.908l2.539-1.375l-2.539-1.396l1.117-1.91l2.563,1.537l-0.023-2.84h2.19l-0.047,2.84l2.561-1.537l1.141,1.91
					L41.36,38.37z"/>
				<path fill="#B3B3B3" d="M51.931,38.37l2.537,1.375l-1.141,1.908l-2.561-1.514l0.047,2.818h-2.189l0.023-2.842l-2.563,1.537
					l-1.117-1.908l2.539-1.375l-2.539-1.396l1.117-1.91l2.563,1.537l-0.023-2.84h2.189l-0.047,2.84l2.561-1.537l1.141,1.91
					L51.931,38.37z"/>
			</g>
		</g>
	</g>
	<path fill="#B3B3B3" d="M77.181,38.549c0.011-10.283-3.645-19.889-10.908-27.169C59.007,4.1,49.514,0.118,39.23,0.108
		c-21.246,0-38.434,17.269-38.455,38.476c-0.01,10.283,4.027,19.832,11.291,27.111c7.266,7.28,16.271,11.182,26.553,11.182h-0.729
		l0,0H38C60,76.876,77.159,59.756,77.181,38.549z M5.361,38.641c0-18.748,15.252-34,34-34s34,15.252,34,34s-15.252,34-34,34
		S5.361,57.388,5.361,38.641z"/>
</g>
</svg>
