<?xml version="1.0" encoding="utf-8"?>
<!-- Generator: Adobe Illustrator 16.0.0, SVG Export Plug-In . SVG Version: 6.00 Build 0)  -->
<!DOCTYPE svg PUBLIC "-//W3C//DTD SVG 1.1//EN" "http://www.w3.org/Graphics/SVG/1.1/DTD/svg11.dtd">
<svg version="1.1" id="Capa_1" xmlns="http://www.w3.org/2000/svg" xmlns:xlink="http://www.w3.org/1999/xlink" x="0px" y="0px"
	 width="77.102px" height="76.876px" viewBox="0 0 77.102 76.876" enable-background="new 0 0 77.102 76.876" xml:space="preserve">
<g>
	<path fill="#B3B3B3" d="M77.398,38.549C77.41,28.266,73.364,18.66,66.1,11.38S49.146,0.118,38.863,0.108
		c-21.247,0-38.531,17.269-38.553,38.476C0.3,48.867,4.289,58.416,11.553,65.695c7.264,7.28,17.026,11.182,27.31,11.182h0.028l0,0
		H39C60,76.876,77.377,59.756,77.398,38.549z M4.798,38.641c0-18.748,15.252-34,34-34c18.747,0,34,15.252,34,34s-15.253,34-34,34
		C20.05,72.64,4.798,57.388,4.798,38.641z"/>
	<g>
		<g>
			<g>
				<g>
					<path fill="#B3B3B3" d="M48.222,36.204c0-0.82-0.665-1.486-1.485-1.486H36.189c-0.82,0-1.486,0.666-1.486,1.486
						s0.666,1.488,1.486,1.488h10.547C47.557,37.692,48.222,37.024,48.222,36.204z"/>
				</g>
			</g>
		</g>
		<g>
			<g>
				<g>
					<path fill="#B3B3B3" d="M48.222,42.151c0-0.82-0.665-1.486-1.485-1.486H36.189c-0.82,0-1.486,0.666-1.486,1.486
						s0.666,1.486,1.486,1.486h10.547C47.557,43.637,48.222,42.971,48.222,42.151z"/>
				</g>
			</g>
		</g>
		<g>
			<g>
				<g>
					<path fill="#B3B3B3" d="M42.21,48.094c0-0.82-0.664-1.486-1.486-1.486h-4.534c-0.82,0-1.486,0.666-1.486,1.486
						c0,0.822,0.666,1.488,1.486,1.488h4.534C41.546,49.583,42.21,48.917,42.21,48.094z"/>
				</g>
			</g>
		</g>
		<g>
			<g>
				<g>
					<path fill="#B3B3B3" d="M51.277,38.881v12.781c0,1.641-1.333,2.975-2.975,2.975H34.63c-1.64,0-2.973-1.334-2.973-2.975V31.45
						c0-0.795,0.308-1.541,0.87-2.104c0.563-0.561,1.308-0.869,2.103-0.869l0,0l13.675,0.002c1.64,0.002,2.973,1.334,2.973,2.973
						c0,0.822,0.665,1.486,1.487,1.486c0.82,0,1.485-0.664,1.485-1.486c0-3.025-2.272-5.531-5.203-5.898v-0.045
						c0-3.279-2.668-5.947-5.943-5.947H28.685c-3.278,0-5.946,2.668-5.946,5.947v20.215c0,3.277,2.668,5.945,5.946,5.945
						c0.002,3.277,2.669,5.941,5.945,5.941h13.673c3.28,0,5.947-2.668,5.947-5.947V38.881c0-0.822-0.665-1.488-1.485-1.488
						C51.942,37.393,51.277,38.059,51.277,38.881z M30.427,27.245c-1.124,1.123-1.742,2.617-1.742,4.205v17.246
						c-1.64,0-2.973-1.334-2.973-2.973V25.508c0-1.639,1.333-2.973,2.973-2.973h14.419c1.638,0,2.971,1.332,2.971,2.971
						l-11.443-0.002H34.63C33.041,25.504,31.549,26.122,30.427,27.245z"/>
				</g>
			</g>
		</g>
	</g>
</g>
</svg>
