<?xml version="1.0" encoding="utf-8"?>
<!-- Generator: Adobe Illustrator 16.0.0, SVG Export Plug-In . SVG Version: 6.00 Build 0)  -->
<!DOCTYPE svg PUBLIC "-//W3C//DTD SVG 1.1//EN" "http://www.w3.org/Graphics/SVG/1.1/DTD/svg11.dtd">
<svg version="1.1" id="Capa_1" xmlns="http://www.w3.org/2000/svg" xmlns:xlink="http://www.w3.org/1999/xlink" x="0px" y="0px"
	 width="77.102px" height="76.876px" viewBox="0 0 77.102 76.876" enable-background="new 0 0 77.102 76.876" xml:space="preserve">
<g>
	<g>
		<path fill="#B3B3B3" d="M59.917,37.651c-2.281-3.73-5.348-6.729-9.201-8.993s-7.92-3.396-12.206-3.396
			c-4.285,0-8.354,1.132-12.206,3.396c-3.854,2.265-6.92,5.263-9.201,8.993c-0.325,0.57-0.488,1.132-0.488,1.686
			c0,0.555,0.163,1.116,0.488,1.687c2.281,3.731,5.348,6.729,9.201,8.993c3.853,2.264,7.921,3.396,12.206,3.396
			c4.286,0,8.352-1.128,12.206-3.384s6.92-5.258,9.201-9.005c0.326-0.57,0.488-1.132,0.488-1.687
			C60.405,38.783,60.243,38.221,59.917,37.651z M33.268,30.967c1.458-1.459,3.205-2.188,5.241-2.188
			c0.326,0,0.604,0.114,0.832,0.342c0.228,0.229,0.342,0.506,0.342,0.831c0,0.326-0.114,0.603-0.342,0.831s-0.505,0.342-0.831,0.342
			c-1.4,0-2.599,0.498-3.592,1.491c-0.994,0.993-1.491,2.191-1.491,3.593c0,0.326-0.114,0.602-0.343,0.83
			c-0.228,0.229-0.505,0.343-0.83,0.343c-0.326,0-0.604-0.114-0.831-0.343c-0.229-0.229-0.343-0.505-0.343-0.83
			C31.081,34.172,31.81,32.425,33.268,30.967z M49.128,47.316c-3.266,1.979-6.805,2.969-10.618,2.969
			c-3.812,0-7.352-0.989-10.618-2.969s-5.982-4.64-8.149-7.979c2.477-3.844,5.58-6.721,9.311-8.625
			c-0.994,1.693-1.491,3.526-1.491,5.498c0,3.014,1.071,5.591,3.214,7.733c2.142,2.143,4.721,3.214,7.734,3.214
			c3.014,0,5.592-1.072,7.735-3.214s3.213-4.72,3.213-7.733c0-1.972-0.498-3.805-1.49-5.498c3.73,1.904,6.834,4.781,9.309,8.625
			C55.11,42.676,52.394,45.336,49.128,47.316z"/>
	</g>
	<path fill="#B3B3B3" d="M76.974,38.549c0.01-10.283-3.896-19.889-11.16-27.169C58.548,4.1,48.929,0.118,38.647,0.108
		c-21.248,0-38.497,17.269-38.519,38.476c-0.011,10.283,3.995,19.832,11.26,27.111c7.265,7.28,16.757,11.182,27.04,11.182h-0.242
		l0,0h0.109C60.296,76.876,76.95,59.756,76.974,38.549z M4.651,38.641c0-18.748,15.252-34,34-34c18.747,0,34,15.252,34,34
		s-15.254,34-34,34C19.903,72.64,4.651,57.388,4.651,38.641z"/>
</g>
</svg>
