<?xml version="1.0" encoding="utf-8"?>
<!-- Generator: Adobe Illustrator 16.0.0, SVG Export Plug-In . SVG Version: 6.00 Build 0)  -->
<!DOCTYPE svg PUBLIC "-//W3C//DTD SVG 1.1//EN" "http://www.w3.org/Graphics/SVG/1.1/DTD/svg11.dtd">
<svg version="1.1" id="Capa_1" xmlns="http://www.w3.org/2000/svg" xmlns:xlink="http://www.w3.org/1999/xlink" x="0px" y="0px"
	 width="77.102px" height="76.876px" viewBox="0 0 77.102 76.876" enable-background="new 0 0 77.102 76.876" xml:space="preserve">
<g>
	<g>
		<path fill="#B3B3B3" d="M19.871,58.356l3.695-0.248c0.78-0.053,1.418-0.532,1.693-1.188l16.234,0.699
			c1.808,0.195,3.5-0.026,5.095-0.859l0.462-0.239l12.273-7.178c0.603-0.355,1.027-0.966,1.055-1.64
			c0.026-0.824-0.452-1.737-1.622-1.816c-0.832-0.063-2.553,0.868-3.022,1.107c-1.675,0.842-4.005,2.162-5.538,3.217
			c-0.106,0.07-0.248,0.168-0.354,0.239c-0.691,0.442-1.418,0.735-2.225,0.913C43.169,52.312,36.69,52.41,36.69,52.41l-0.381,0.018
			c-0.283,0.018-0.541-0.187-0.576-0.462c-0.044-0.301,0.178-0.584,0.497-0.61l9.633-0.913c1.063-0.115,1.904-1.107,1.789-2.225
			c-0.114-1.117-1.143-1.932-2.206-1.816l-8.569-0.105c-0.585-0.01-1.516-0.151-2.073-0.32c-5.521-1.613-8.641-0.105-10.298,0.604
			c-0.372-0.612-1.072-1.011-1.853-0.957l-3.695,0.248c-1.231,0.079-2.153,1.107-2.073,2.295l0.594,8.206
			C17.576,57.549,18.648,58.444,19.871,58.356z M21.227,53.987c0.691,0,1.259,0.541,1.259,1.215c0,0.672-0.567,1.213-1.259,1.213
			s-1.258-0.541-1.258-1.213C19.969,54.536,20.527,53.987,21.227,53.987z M49.47,47.136c1.294-0.709,3.828-1.932,5.211-2.473
			c0.691-0.274,1.373-0.257,2.003,0.169c-0.497,0.177-0.957,0.398-1.392,0.611c-1.453,0.727-4.015,2.118-5.264,2.996
			c-0.124,0.088-0.257,0.177-0.382,0.266c0.019-0.223,0.019-0.453-0.008-0.684c-0.027-0.292-0.098-0.566-0.187-0.832
			C49.452,47.172,49.461,47.154,49.47,47.136z M53.343,43.839c-1.002,0.444-2.925,1.116-3.838,1.622l-0.62,0.337
			c-0.063,0.035-0.115,0.071-0.168,0.115c-0.275-0.327-0.603-0.603-0.967-0.824c0.852-0.452,2.747-1.063,3.606-1.4
			C52.049,43.415,52.713,43.432,53.343,43.839z M27.075,38.239c0-0.514,0.417-0.931,0.931-0.931h23.192
			c0.513,0,0.93,0.417,0.93,0.931s-0.417,0.931-0.93,0.931H27.997C27.492,39.169,27.075,38.752,27.075,38.239z M27.075,41.607
			c0-0.515,0.417-0.931,0.931-0.931h23.192c0.513,0,0.93,0.416,0.93,0.931c0,0.514-0.417,0.931-0.93,0.931H27.997
			C27.492,42.538,27.075,42.121,27.075,41.607z M45.207,28.074c0-0.727,0.594-1.32,1.32-1.32c0.728,0,1.32,0.594,1.32,1.32
			c0,0.728-0.593,1.321-1.32,1.321C45.792,29.395,45.207,28.801,45.207,28.074z M31.355,28.074c0-0.727,0.594-1.32,1.321-1.32
			c0.727,0,1.32,0.594,1.32,1.32c0,0.728-0.594,1.321-1.32,1.321C31.94,29.395,31.355,28.801,31.355,28.074z M29.229,35.837h20.736
			c1.197,0,2.172-0.975,2.172-2.171V22.482c0-1.196-0.975-2.171-2.172-2.171H29.229c-1.197,0-2.172,0.975-2.172,2.171v11.185
			C27.058,34.863,28.032,35.837,29.229,35.837z M28.91,24.733c0.124,0.027,0.258,0.036,0.39,0.036c1.214,0,2.198-0.983,2.198-2.198
			c0-0.142-0.019-0.274-0.035-0.407h16.146c-0.044,0.168-0.07,0.354-0.07,0.54c0,1.215,0.983,2.197,2.197,2.197
			c0.187,0,0.373-0.025,0.541-0.07v6.744c-0.178-0.044-0.354-0.07-0.541-0.07c-1.214,0-2.197,0.982-2.197,2.197
			c0,0.089,0.008,0.187,0.018,0.274H31.463c0.025-0.133,0.035-0.266,0.035-0.407c0-1.214-0.984-2.198-2.198-2.198
			c-0.132,0-0.257,0.009-0.39,0.036V24.733z M39.598,32.833c2.623,0,4.741-2.128,4.741-4.76c0-2.631-2.127-4.759-4.741-4.759
			c-2.623,0-4.741,2.128-4.741,4.759C34.856,30.706,36.975,32.833,39.598,32.833z M36.815,28.332c0-0.089,0.07-0.169,0.168-0.169
			h0.452c0-0.097,0-0.194,0-0.301h-0.452c-0.089,0-0.168-0.071-0.168-0.169v-0.372c0-0.089,0.07-0.168,0.168-0.168h0.576
			l0.018-0.054c0.15-0.496,0.417-0.912,0.833-1.231c0.327-0.248,0.7-0.39,1.099-0.452c0.576-0.088,1.126-0.009,1.666,0.195
			c0.035,0.018,0.071,0.026,0.098,0.044c0.133,0.08,0.16,0.178,0.106,0.311c-0.062,0.142-0.124,0.292-0.187,0.434
			c-0.053,0.125-0.133,0.16-0.266,0.134c-0.178-0.045-0.363-0.098-0.541-0.134c-0.381-0.079-0.762-0.079-1.134,0.063
			c-0.318,0.124-0.515,0.372-0.647,0.673v0.01h1.1c0.088,0,0.168,0.07,0.168,0.168v0.372c0,0.089-0.071,0.168-0.168,0.168h-1.276
			c0,0.099,0,0.195,0,0.302h1.276c0.088,0,0.168,0.071,0.168,0.168v0.372c0,0.089-0.071,0.169-0.168,0.169h-1.161
			c0.142,0.398,0.372,0.718,0.798,0.851c0.346,0.106,0.69,0.098,1.037,0.027c0.177-0.036,0.354-0.089,0.531-0.134
			c0.142-0.035,0.212,0.009,0.274,0.134c0.063,0.142,0.124,0.292,0.187,0.442c0.053,0.133,0.018,0.239-0.115,0.302
			c-0.142,0.062-0.292,0.115-0.443,0.159c-0.576,0.159-1.161,0.168-1.728-0.018c-0.691-0.23-1.152-0.7-1.437-1.365
			c-0.053-0.133-0.088-0.266-0.123-0.398h-0.541c-0.089,0-0.168-0.071-0.168-0.169V28.332L36.815,28.332z"/>
	</g>
	<path fill="#B3B3B3" d="M76.93,38.549c0.01-10.282-3.847-19.889-11.11-27.169C58.555,4.1,48.96,0.118,38.677,0.108
		c-21.247,0-38.483,17.269-38.505,38.476C0.16,48.867,4.174,58.416,11.438,65.695c7.265,7.28,16.66,11.182,26.943,11.182h-0.338l0,0
		h0.109C59.152,76.876,76.908,59.756,76.93,38.549z M4.706,38.641c0-18.748,15.252-34,34-34c18.747,0,34,15.252,34,34
		c0,18.748-15.253,34-34,34C19.958,72.64,4.706,57.388,4.706,38.641z"/>
</g>
</svg>
