<?xml version="1.0"?>
<svg width="80" height="80" xmlns="http://www.w3.org/2000/svg" xmlns:svg="http://www.w3.org/2000/svg">
 <g class="layer">
  <title>Layer 1</title>
  <g id="svg_1" transform="rotate(180 40 40)">
   <g id="Right_40_">
    <g id="svg_2">
     <path d="m43.715,56.513l0.008,-0.01c0.67,0.614 1.549,0.997 2.527,0.997c2.07,0 3.75,-1.68 3.75,-3.75c0,-1.095 -0.475,-2.07 -1.223,-2.755l0.008,-0.011l-11.984,-10.984l11.984,-10.987l-0.008,-0.01c0.748,-0.683 1.223,-1.658 1.223,-2.753c0,-2.07 -1.68,-3.75 -3.75,-3.75c-0.979,0 -1.857,0.383 -2.527,0.995l-0.008,-0.011l-15,13.751c-0.772,0.712 -1.215,1.712 -1.215,2.765s0.443,2.053 1.215,2.766l15,13.747zm-3.715,23.487c22.09,0 40,-17.91 40,-40s-17.91,-40 -40,-40s-40,17.91 -40,40s17.91,40 40,40zm0,-72.5c17.92,0 32.5,14.58 32.5,32.5s-14.58,32.5 -32.5,32.5s-32.5,-14.58 -32.5,-32.5s14.58,-32.5 32.5,-32.5z" fill="#B3B3B3" id="svg_3"/>
    </g>
   </g>
  </g>
 </g>
</svg>