<?xml version="1.0" encoding="utf-8"?>
<!-- Generator: Adobe Illustrator 16.0.0, SVG Export Plug-In . SVG Version: 6.00 Build 0)  -->
<!DOCTYPE svg PUBLIC "-//W3C//DTD SVG 1.1//EN" "http://www.w3.org/Graphics/SVG/1.1/DTD/svg11.dtd">
<svg version="1.1" id="Capa_1" xmlns="http://www.w3.org/2000/svg" xmlns:xlink="http://www.w3.org/1999/xlink" x="0px" y="0px"
	 width="243.07px" height="42.828px" viewBox="0 0 243.07 42.828" enable-background="new 0 0 243.07 42.828" xml:space="preserve">
<g>
	<g>
		<path fill="#333333" d="M2.942,14.828c0-0.711-0.38-1.044-1.044-1.044H0V8.659h5.362c2.23,0,3.037,0.996,3.037,2.325
			c0,0.57,0,0.949,0,0.949h0.095c0,0,2.041-3.844,7.688-3.844c6.549,0,10.772,5.173,10.772,12.671
			c0,7.688-4.746,12.671-11.104,12.671c-4.794,0-6.929-3.18-6.929-3.18H8.826c0,0,0.096,0.854,0.096,2.088v10.013H2.942V14.828z
			 M14.759,28.354c3.322,0,6.122-2.705,6.122-7.498c0-4.604-2.468-7.593-6.027-7.593c-3.132,0-6.074,2.278-6.074,7.641
			C8.779,24.652,10.772,28.354,14.759,28.354z"/>
		<path fill="#333333" d="M29.782,14.828c0-0.711-0.38-1.044-1.044-1.044H26.84V8.659h5.742c2.23,0,3.18,0.996,3.18,3.18v11.152
			c0,2.942,0.76,4.935,3.749,4.935c4.366,0,6.786-3.844,6.786-8.162V8.659h6.027V26.74c0,0.664,0.379,1.044,1.043,1.044h1.898v5.077
			h-5.552c-2.089,0-3.18-0.996-3.18-2.705v-0.664c0-0.569,0.048-1.091,0.048-1.091h-0.096c-1.139,2.515-4.176,5.03-8.352,5.03
			c-5.173,0-8.353-2.61-8.353-9.207V14.828z"/>
		<path fill="#333333" d="M56.973,14.828c0-0.711-0.379-1.044-1.044-1.044H54.03V8.659h5.553c2.136,0,3.18,0.996,3.18,2.705v0.712
			c0,0.521-0.095,1.044-0.095,1.044h0.095c1.044-2.041,3.653-5.03,8.542-5.03c5.362,0,8.447,2.8,8.447,9.207v9.443
			c0,0.664,0.379,1.044,1.044,1.044h1.897v5.077h-5.742c-2.277,0-3.227-0.949-3.227-3.227V18.53c0-2.942-0.76-4.936-3.797-4.936
			c-3.227,0-5.646,2.041-6.501,4.936c-0.332,0.996-0.475,2.088-0.475,3.227v11.104h-5.979V14.828z"/>
		<path fill="#333333" d="M92.934,8.09c5.6,0,7.451,3.417,7.451,3.417h0.094c0,0,0-0.285,0-0.617c0-1.092,0.76-2.23,2.658-2.23h5.6
			v5.125h-1.851c-0.616,0-1.044,0.333-1.044,0.949v16.657c0,8.305-6.454,11.438-12.766,11.438c-3.037,0-6.264-0.854-8.59-2.089
			l1.852-4.745c0,0,2.989,1.613,6.691,1.613c3.653,0,6.833-1.566,6.833-5.932v-1.14c0-0.569,0.048-1.281,0.048-1.281h-0.096
			c-1.424,2.041-3.512,3.133-6.738,3.133c-6.929,0-10.867-5.601-10.867-12.244S85.957,8.09,92.934,8.09z M100.005,20.191
			c0-5.505-2.753-6.977-6.027-6.977c-3.653,0-5.647,2.658-5.647,6.738c0,4.225,2.136,7.356,6.027,7.356
			C97.252,27.31,100.005,25.648,100.005,20.191z"/>
		<path fill="#333333" d="M121.026,8.09c7.403,0,13.288,5.268,13.288,12.671c0,7.45-5.885,12.671-13.288,12.671
			c-7.355,0-13.239-5.221-13.239-12.671C107.787,13.357,113.671,8.09,121.026,8.09z M121.026,28.306c3.94,0,7.213-3.037,7.213-7.545
			c0-4.461-3.273-7.546-7.213-7.546c-3.891,0-7.166,3.085-7.166,7.546C113.86,25.269,117.136,28.306,121.026,28.306z"/>
	</g>
	<g>
		<path fill="#FFFFFF" d="M141.806,32.629L135.98,9.322h3.611l4.242,16.967l5.453-16.967h3.684l5.453,16.967l4.242-16.967h3.611
			l-5.826,23.307h-3.682l-5.641-17.597l-5.641,17.597H141.806z"/>
		<path fill="#FFFFFF" d="M181.851,18.202c-0.047-1.522-0.615-2.827-1.701-3.915c-1.135-1.135-2.51-1.701-4.125-1.701
			c-1.617,0-2.992,0.566-4.125,1.701c-0.73,0.73-1.229,1.561-1.492,2.493l-3.17-1.585c0.451-1.242,1.18-2.369,2.191-3.379
			c1.816-1.818,4.016-2.727,6.596-2.727c2.578,0,4.777,0.908,6.596,2.727c1.816,1.817,2.727,4.017,2.727,6.596v14.217h-3.496v-1.306
			c-1.664,1.025-3.605,1.538-5.826,1.538c-2.58,0-4.779-0.684-6.596-2.051c-1.818-1.367-2.727-3.014-2.727-4.94
			s0.621-3.36,1.863-4.3c1.244-0.94,2.369-1.504,3.379-1.69L181.851,18.202z M181.851,25.893v-4.218l-7.691,1.165
			c-1.227,0.187-2.195,0.501-2.902,0.944c-0.707,0.442-1.059,1.138-1.059,2.086c0,0.963,0.566,1.786,1.701,2.47
			c1.133,0.685,2.508,1.025,4.125,1.025c1.615,0,2.99-0.341,4.125-1.025C181.283,27.656,181.851,26.841,181.851,25.893z"/>
		<path fill="#FFFFFF" d="M187.677,25.87V0h3.496v25.87c0,0.963,0.342,1.786,1.025,2.47c0.684,0.685,1.506,1.025,2.471,1.025h1.164
			L197,32.861h-2.33c-1.928,0-3.574-0.684-4.941-2.051S187.677,27.797,187.677,25.87z"/>
		<path fill="#FFFFFF" d="M198.189,25.87V0h3.494v25.87c0,0.963,0.342,1.786,1.025,2.47c0.684,0.685,1.508,1.025,2.471,1.025h1.166
			l1.166,3.496h-2.332c-1.926,0-3.572-0.684-4.939-2.051S198.189,27.797,198.189,25.87z"/>
		<path fill="#FFFFFF" d="M206.658,22.374v-2.797c0-2.89,1.025-5.36,3.076-7.411s4.676-3.076,7.877-3.076
			c2.951,0,5.359,0.854,7.225,2.563c1.865,1.864,2.797,3.807,2.797,5.826v1.165l-16.453,7.412c0.279,0.435,0.621,0.854,1.025,1.258
			c1.367,1.367,3.168,2.051,5.406,2.051c1.988,0,3.574-0.435,4.754-1.305c1.072-0.901,1.779-1.771,2.121-2.61l3.146,1.585
			c-0.514,1.149-1.445,2.315-2.797,3.496c-1.865,1.554-4.273,2.33-7.225,2.33c-3.201,0-5.826-1.025-7.877-3.076
			S206.658,25.264,206.658,22.374z M210.154,19.577V22.7l13.844-6.013c-0.25-1.01-0.816-1.896-1.703-2.657
			c-1.133-0.963-2.695-1.444-4.684-1.444c-2.238,0-4.039,0.684-5.406,2.051C210.835,16.004,210.154,17.65,210.154,19.577z"/>
		<path fill="#FFFFFF" d="M231.417,9.322V4.661h3.494v4.661h8.158v3.496h-8.158V25.87c0,0.963,0.342,1.786,1.025,2.47
			c0.684,0.685,1.508,1.025,2.471,1.025c0.947,0,1.756-0.326,2.424-0.979l1.631,3.17c-1.164,0.87-2.516,1.305-4.055,1.305
			c-1.926,0-3.572-0.684-4.939-2.051s-2.051-3.014-2.051-4.94V12.818h-3.496V9.322H231.417z"/>
	</g>
</g>
</svg>
