<?xml version="1.0" encoding="utf-8"?>
<!-- Generator: Adobe Illustrator 16.0.0, SVG Export Plug-In . SVG Version: 6.00 Build 0)  -->
<!DOCTYPE svg PUBLIC "-//W3C//DTD SVG 1.1//EN" "http://www.w3.org/Graphics/SVG/1.1/DTD/svg11.dtd">
<svg version="1.1" id="Capa_1" xmlns="http://www.w3.org/2000/svg" xmlns:xlink="http://www.w3.org/1999/xlink" x="0px" y="0px"
	 width="77.102px" height="76.876px" viewBox="0 0 77.102 76.876" enable-background="new 0 0 77.102 76.876" xml:space="preserve">
<g>
	<path fill="#B3B3B3" d="M17.457,64.412c-1.847,1.846-4.11,2.576-5.056,1.63l0,0c-0.947-0.946-0.217-3.21,1.63-5.056l47.75-47.751
		c1.847-1.846,4.11-2.576,5.057-1.63l0,0c0.946,0.946,0.216,3.209-1.63,5.056L17.457,64.412z"/>
	<g>
		<path fill="#B3B3B3" d="M39.829,17.213c7.806,0,15.609,5.27,15.543,15.742v12.075c0.066,10.54-7.737,15.81-15.543,15.81
			c-7.804,0-15.609-5.27-15.476-15.81V32.956C24.22,22.483,32.025,17.213,39.829,17.213z M39.763,21.549
			c-5.403,0-10.873,3.202-10.807,11.406v12.075c-0.066,7.871,5.403,11.474,10.807,11.474c5.47,0,11.007-3.202,10.94-11.474V32.956
			C50.77,24.751,45.232,21.549,39.763,21.549z"/>
	</g>
	<path fill="#B3B3B3" d="M77.725,38.549c0.012-10.283-3.872-19.889-11.137-27.169S49.717,0.118,39.434,0.108
		c-21.248,0-38.49,17.269-38.512,38.476C0.911,48.867,4.92,58.416,12.184,65.695c7.266,7.28,16.711,11.182,26.994,11.182h-0.287l0,0
		H39C61,76.876,77.703,59.756,77.725,38.549z M5.449,38.641c0-18.748,15.253-34,34-34c18.748,0,34,15.252,34,34s-15.252,34-34,34
		C20.702,72.64,5.449,57.388,5.449,38.641z"/>
</g>
</svg>
