<?xml version="1.0" encoding="utf-8"?>
<!-- Generator: Adobe Illustrator 16.0.0, SVG Export Plug-In . SVG Version: 6.00 Build 0)  -->
<!DOCTYPE svg PUBLIC "-//W3C//DTD SVG 1.1//EN" "http://www.w3.org/Graphics/SVG/1.1/DTD/svg11.dtd">
<svg version="1.1" id="Capa_1" xmlns="http://www.w3.org/2000/svg" xmlns:xlink="http://www.w3.org/1999/xlink" x="0px" y="0px"
	 width="77.039px" height="77px" viewBox="0 0 77.039 77" enable-background="new 0 0 77.039 77" xml:space="preserve">
<g>
	<path fill="#B3B3B3" d="M16.894,64.006c-1.829,1.828-4.078,2.544-5.025,1.598l0,0c-0.946-0.946-0.229-3.195,1.599-5.023
		l47.29-47.292c1.83-1.828,4.08-2.543,5.025-1.598l0,0c0.947,0.946,0.23,3.195-1.598,5.023L16.894,64.006z"/>
	<g>
		<g>
			<g>
				<path fill="#B3B3B3" d="M21.155,56.398h15.59V40.807h-15.59V56.398z M24.272,43.926h9.354v9.331h-9.354V43.926z"/>
				<rect x="27.394" y="47.045" fill="#B3B3B3" width="3.117" height="3.119"/>
				<rect x="46.101" y="53.28" fill="#B3B3B3" width="3.119" height="3.118"/>
				<rect x="52.335" y="53.28" fill="#B3B3B3" width="3.119" height="3.118"/>
				<polygon fill="#B3B3B3" points="52.335,43.926 49.22,43.926 49.22,40.807 39.862,40.807 39.862,56.398 42.981,56.398 
					42.981,47.045 46.101,47.045 46.101,50.164 55.454,50.164 55.454,40.807 55.454,40.807 52.335,40.807 				"/>
				<path fill="#B3B3B3" d="M21.155,37.691h15.59V22.1h-15.59V37.691z M24.272,25.218h9.354v9.354h-9.354V25.218z"/>
				<rect x="27.394" y="28.335" fill="#B3B3B3" width="3.117" height="3.118"/>
				<path fill="#B3B3B3" d="M39.862,22.1v15.592h15.592V22.1H39.862z M52.335,34.572h-9.354v-9.354h9.354V34.572z"/>
				<rect x="46.101" y="28.335" fill="#B3B3B3" width="3.119" height="3.118"/>
			</g>
		</g>
		<path fill="#B3B3B3" d="M77.057,38.539c0.014-10.281-3.998-19.955-11.262-27.234C58.529,4.025,48.855,0.01,38.574,0
			C17.326,0,0.053,17.252,0.031,38.459C0.02,48.742,4.013,58.414,11.279,65.693C18.542,72.975,28.234,76.988,38.518,77l0.069-0.022
			l0,0V77C60.587,77,77.037,59.746,77.057,38.539z M4.527,38.5c0-18.748,15.252-34,34-34c18.748,0,34,15.252,34,34s-15.252,34-34,34
			C19.779,72.5,4.527,57.248,4.527,38.5z"/>
	</g>
</g>
</svg>
