<?xml version="1.0" encoding="utf-8"?>
<!-- Generator: Adobe Illustrator 16.0.0, SVG Export Plug-In . SVG Version: 6.00 Build 0)  -->
<!DOCTYPE svg PUBLIC "-//W3C//DTD SVG 1.1//EN" "http://www.w3.org/Graphics/SVG/1.1/DTD/svg11.dtd">
<svg version="1.1" id="Capa_1" xmlns="http://www.w3.org/2000/svg" xmlns:xlink="http://www.w3.org/1999/xlink" x="0px" y="0px"
	 width="80px" height="80px" viewBox="0 0 80 80" enable-background="new 0 0 80 80" xml:space="preserve">
<g>
	<g>
		<g>
			<g>
				<g id="Right_5_">
					<g>
						<path fill="#B3B3B3" d="M80,40.001c0-22.09-17.91-40-40-40s-40,17.91-40,40s17.91,39.998,40,39.998S80,62.091,80,40.001z
							 M7.5,40.001c0-17.92,14.58-32.5,32.5-32.5s32.5,14.58,32.5,32.5s-14.58,32.5-32.5,32.5S7.5,57.921,7.5,40.001z"/>
					</g>
				</g>
			</g>
		</g>
	</g>
	<g>
		<path fill="#B3B3B3" d="M61.407,38.313c-2.281-3.73-5.349-6.728-9.201-8.992S44.285,25.925,40,25.925s-8.354,1.132-12.206,3.396
			c-3.854,2.265-6.92,5.262-9.201,8.992c-0.325,0.57-0.488,1.133-0.488,1.688c0,0.554,0.163,1.115,0.488,1.686
			c2.281,3.73,5.348,6.729,9.201,8.992c3.853,2.266,7.921,3.396,12.206,3.396s8.354-1.127,12.206-3.384
			c3.853-2.256,6.921-5.258,9.201-9.005c0.325-0.57,0.488-1.132,0.488-1.686C61.896,39.446,61.732,38.884,61.407,38.313z
			 M34.758,31.63c1.458-1.458,3.205-2.187,5.242-2.187c0.325,0,0.603,0.114,0.831,0.342c0.228,0.228,0.342,0.505,0.342,0.831
			c0,0.326-0.114,0.603-0.342,0.831S40.326,31.79,40,31.79c-1.4,0-2.599,0.497-3.592,1.491c-0.994,0.994-1.49,2.191-1.49,3.592
			c0,0.326-0.115,0.604-0.344,0.832c-0.228,0.228-0.504,0.342-0.83,0.342s-0.604-0.114-0.831-0.342
			c-0.229-0.229-0.343-0.506-0.343-0.832C32.57,34.836,33.301,33.089,34.758,31.63z M50.618,47.979
			c-3.267,1.979-6.806,2.969-10.618,2.969s-7.352-0.989-10.617-2.969c-3.268-1.979-5.983-4.639-8.15-7.979
			c2.477-3.845,5.58-6.721,9.311-8.626c-0.994,1.694-1.49,3.527-1.49,5.498c0,3.014,1.07,5.592,3.213,7.734
			c2.142,2.143,4.721,3.214,7.734,3.214s5.592-1.071,7.734-3.214c2.143-2.142,3.213-4.721,3.213-7.734
			c0-1.971-0.496-3.804-1.49-5.498c3.73,1.905,6.834,4.781,9.311,8.626C56.601,43.341,53.885,46,50.618,47.979z"/>
	</g>
	<path fill="#B3B3B3" d="M19.529,63.47c-1.715,1.716-3.873,2.34-4.818,1.394l0,0c-0.947-0.946-0.323-3.104,1.393-4.819L60.47,15.678
		c1.716-1.715,3.873-2.339,4.819-1.393l0,0c0.945,0.946,0.322,3.103-1.393,4.818L19.529,63.47z"/>
</g>
</svg>
