<?xml version="1.0" encoding="UTF-8" standalone="no"?>
<!-- Created with Inkscape (http://www.inkscape.org/) -->

<svg
   xmlns:dc="http://purl.org/dc/elements/1.1/"
   xmlns:cc="http://creativecommons.org/ns#"
   xmlns:rdf="http://www.w3.org/1999/02/22-rdf-syntax-ns#"
   xmlns:svg="http://www.w3.org/2000/svg"
   xmlns="http://www.w3.org/2000/svg"
   xmlns:sodipodi="http://sodipodi.sourceforge.net/DTD/sodipodi-0.dtd"
   xmlns:inkscape="http://www.inkscape.org/namespaces/inkscape"
   width="56mm"
   height="56mm"
   viewBox="0 0 72 72"
   version="1.1"
   id="svg102"
   inkscape:version="0.92.3 (d244b95, 2018-08-02)"
   sodipodi:docname="drawing2.svg">
  <defs
     id="defs96" />
  <sodipodi:namedview
     id="base"
     pagecolor="#ffffff"
     bordercolor="#666666"
     borderopacity="1.0"
     inkscape:pageopacity="0.0"
     inkscape:pageshadow="2"
     inkscape:zoom="1.979899"
     inkscape:cx="78.123282"
     inkscape:cy="123.14384"
     inkscape:document-units="mm"
     inkscape:current-layer="layer1"
     showgrid="false"
     inkscape:pagecheckerboard="true"
     inkscape:window-width="1855"
     inkscape:window-height="1056"
     inkscape:window-x="65"
     inkscape:window-y="24"
     inkscape:window-maximized="1" />
  <metadata
     id="metadata99">
    <rdf:RDF>
      <cc:Work
         rdf:about="">
        <dc:format>image/svg+xml</dc:format>
        <dc:type
           rdf:resource="http://purl.org/dc/dcmitype/StillImage" />
        <dc:title></dc:title>
      </cc:Work>
    </rdf:RDF>
  </metadata>
  <g
     inkscape:label="Layer 1"
     inkscape:groupmode="layer"
     id="layer1"
     transform="translate(0,-257)">
    <g
       id="g128"
       transform="matrix(0.96857152,0,0,0.97053064,-494.01298,126.87135)">
	<g
   id="g108">
		<g
   id="g106">
			<path
   id="path104"
   d="m 540.654,152.184 c 0,-0.82 -0.665,-1.486 -1.485,-1.486 h -10.546 c -0.82,0 -1.486,0.666 -1.486,1.486 0,0.821 0.666,1.488 1.486,1.488 h 10.546 c 0.82,0 1.485,-0.667 1.485,-1.488 z"
   inkscape:connector-curvature="0"
   style="fill:#ffffff" />

		</g>

	</g>

	<g
   id="g114">
		<g
   id="g112">
			<path
   id="path110"
   d="m 540.654,158.131 c 0,-0.821 -0.665,-1.487 -1.485,-1.487 h -10.546 c -0.82,0 -1.486,0.667 -1.486,1.487 0,0.819 0.666,1.486 1.486,1.486 h 10.546 c 0.82,0.001 1.485,-0.666 1.485,-1.486 z"
   inkscape:connector-curvature="0"
   style="fill:#ffffff" />

		</g>

	</g>

	<g
   id="g120">
		<g
   id="g118">
			<path
   id="path116"
   d="m 534.643,164.075 c 0,-0.82 -0.664,-1.486 -1.486,-1.486 h -4.533 c -0.82,0 -1.486,0.666 -1.486,1.486 0,0.821 0.666,1.488 1.486,1.488 h 4.533 c 0.822,0 1.486,-0.667 1.486,-1.488 z"
   inkscape:connector-curvature="0"
   style="fill:#ffffff" />

		</g>

	</g>

	<g
   id="g126">
		<g
   id="g124">
			<path
   id="path122"
   d="m 543.71,154.861 v 12.782 c 0,1.641 -1.333,2.974 -2.974,2.974 h -13.674 c -1.64,0 -2.973,-1.333 -2.973,-2.974 V 147.43 c 0,-0.794 0.308,-1.541 0.87,-2.104 0.563,-0.561 1.308,-0.869 2.103,-0.869 v 0 l 13.675,0.002 c 1.64,0.001 2.973,1.334 2.973,2.973 0,0.821 0.665,1.486 1.487,1.486 0.82,0 1.485,-0.666 1.485,-1.486 0,-3.027 -2.272,-5.532 -5.202,-5.899 v -0.044 c 0,-3.279 -2.668,-5.947 -5.944,-5.947 h -14.419 c -3.278,0 -5.946,2.667 -5.946,5.947 v 20.214 c 0,3.278 2.668,5.946 5.946,5.946 0.002,3.277 2.669,5.942 5.945,5.942 h 13.674 c 3.279,0 5.946,-2.667 5.946,-5.948 v -12.782 c 0,-0.822 -0.665,-1.487 -1.485,-1.487 -0.822,0 -1.487,0.665 -1.487,1.487 z m -20.851,-11.636 c -1.124,1.123 -1.742,2.617 -1.742,4.205 v 17.246 c -1.64,0 -2.973,-1.333 -2.973,-2.973 v -20.214 c 0,-1.639 1.333,-2.973 2.973,-2.973 h 14.419 c 1.638,0 2.971,1.333 2.971,2.971 l -11.443,-0.002 h -10e-4 c -1.589,-0.001 -3.081,0.617 -4.204,1.74 z"
   inkscape:connector-curvature="0"
   style="fill:#ffffff" />

		</g>

	</g>

</g>
  </g>
</svg>
