<?xml version="1.0" encoding="utf-8"?>
<!-- Generator: Adobe Illustrator 16.0.0, SVG Export Plug-In . SVG Version: 6.00 Build 0)  -->
<!DOCTYPE svg PUBLIC "-//W3C//DTD SVG 1.1//EN" "http://www.w3.org/Graphics/SVG/1.1/DTD/svg11.dtd">
<svg version="1.1" id="Capa_1" xmlns="http://www.w3.org/2000/svg" xmlns:xlink="http://www.w3.org/1999/xlink" x="0px" y="0px"
	 width="77.102px" height="76.876px" viewBox="0 0 77.102 76.876" enable-background="new 0 0 77.102 76.876" xml:space="preserve">
<g>
	<g>
		<path fill="#B3B3B3" d="M31.677,27.187h1.519v4.557h-1.519V27.187z"/>
		<path fill="#B3B3B3" d="M31.677,36.299h1.519v4.556h-1.519V36.299z"/>
		<path fill="#B3B3B3" d="M49.9,24.91c0-0.419-0.34-0.76-0.76-0.76h-2.277v36.446h2.277c0.42,0,0.76-0.339,0.76-0.758V24.91z"/>
		<path fill="#B3B3B3" d="M51.418,24.91v0.759h0.76v-4.556H24.843v4.556h0.76V24.91c0-1.258,1.021-2.278,2.277-2.278h21.261
			C50.398,22.631,51.418,23.652,51.418,24.91z"/>
		<path fill="#B3B3B3" d="M34.714,55.282c0,1.258-1.02,2.277-2.277,2.277c-1.259,0-2.278-1.02-2.278-2.277s1.02-2.277,2.278-2.277
			C33.694,53.004,34.714,54.024,34.714,55.282z"/>
		<path fill="#B3B3B3" d="M27.88,24.15c-0.419,0-0.759,0.341-0.759,0.76v34.929c0,0.419,0.34,0.758,0.759,0.758h12.149V24.15H27.88z
			 M30.158,26.428c0-0.419,0.34-0.76,0.76-0.76h3.037c0.419,0,0.759,0.341,0.759,0.76v6.074c0,0.42-0.34,0.76-0.759,0.76h-3.037
			c-0.42,0-0.76-0.34-0.76-0.76V26.428z M30.158,35.54c0-0.419,0.34-0.759,0.76-0.759h3.037c0.419,0,0.759,0.34,0.759,0.759v6.075
			c0,0.419-0.34,0.759-0.759,0.759h-3.037c-0.42,0-0.76-0.34-0.76-0.759V35.54z M36.232,55.282c0.009,1.791-1.236,3.344-2.986,3.727
			c-1.75,0.382-3.529-0.511-4.268-2.143c-0.739-1.631-0.238-3.558,1.203-4.621c-1.319-0.974-1.864-2.684-1.352-4.242
			c0.512-1.557,1.967-2.609,3.606-2.609s3.094,1.053,3.605,2.609c0.513,1.559-0.032,3.269-1.352,4.242
			C35.657,52.956,36.229,54.083,36.232,55.282z"/>
		<path fill="#B3B3B3" d="M55.215,27.947v-9.112c0-0.418-0.34-0.759-0.759-0.759H22.565c-0.42,0-0.76,0.341-0.76,0.759v9.112
			c0,0.42,0.34,0.759,0.76,0.759h3.037v-1.519h-1.519c-0.419,0-0.76-0.339-0.76-0.759v-6.075c0-0.418,0.341-0.759,0.76-0.759h28.853
			c0.42,0,0.76,0.341,0.76,0.759v6.075c0,0.42-0.34,0.759-0.76,0.759h-1.519v1.519h3.038C54.875,28.706,55.215,28.367,55.215,27.947
			z"/>
	</g>
	<path fill="#B3B3B3" d="M77.293,38.549c0.012-10.282-4.088-19.889-11.352-27.169C58.677,4.1,48.962,0.118,38.679,0.108
		c-21.247,0-38.544,17.269-38.566,38.476C0.102,48.867,4.085,58.416,11.349,65.695c7.265,7.28,17.128,11.182,27.411,11.182h0.131
		l0,0H39C60,76.876,77.271,59.756,77.293,38.549z M4.587,38.641c0-18.748,15.252-34,34-34c18.747,0,34,15.252,34,34
		c0,18.748-15.253,34-34,34C19.839,72.64,4.587,57.388,4.587,38.641z"/>
</g>
</svg>
