<?xml version="1.0" encoding="utf-8"?>
<!-- Generator: Adobe Illustrator 16.0.0, SVG Export Plug-In . SVG Version: 6.00 Build 0)  -->
<!DOCTYPE svg PUBLIC "-//W3C//DTD SVG 1.1//EN" "http://www.w3.org/Graphics/SVG/1.1/DTD/svg11.dtd">
<svg version="1.1" id="Capa_1" xmlns="http://www.w3.org/2000/svg" xmlns:xlink="http://www.w3.org/1999/xlink" x="0px" y="0px"
	 width="77.094px" height="76.877px" viewBox="0 0 77.094 76.877" enable-background="new 0 0 77.094 76.877" xml:space="preserve">
<g>
	<g>
		<path fill="#B3B3B3" d="M37.411,48.947c0-6.846,5.552-12.398,12.399-12.398c0.614,0,1.214,0.06,1.805,0.146
			c-1.09-2.885-3.15-6.39-6.196-10.5c-3.454-4.658-6.957-8.428-6.992-8.465c-0.179-0.191-0.429-0.301-0.69-0.301
			s-0.513,0.109-0.69,0.301c-0.035,0.037-3.539,3.807-6.992,8.465c-4.718,6.365-7.11,11.305-7.11,14.683
			c0,8.156,6.636,14.793,14.793,14.793c0.545,0,1.08-0.033,1.609-0.092C38.127,53.661,37.411,51.391,37.411,48.947z"/>
		<g>
			<path fill="#B3B3B3" d="M52.836,47.98H50.94v-1.896c0-0.623-0.506-1.129-1.13-1.129s-1.129,0.506-1.129,1.129v1.896h-1.896
				c-0.624,0-1.13,0.506-1.13,1.129c0,0.625,0.506,1.131,1.13,1.131h1.896v1.895c0,0.623,0.505,1.129,1.129,1.129
				s1.13-0.506,1.13-1.129V50.24h1.896c0.624,0,1.129-0.506,1.129-1.131C53.965,48.486,53.46,47.98,52.836,47.98z"/>
			<path fill="#B3B3B3" d="M49.811,38.906c-5.626,0-10.204,4.576-10.204,10.203s4.578,10.205,10.204,10.205
				c5.627,0,10.204-4.578,10.204-10.205S55.438,38.906,49.811,38.906z M49.811,57.055c-4.381,0-7.944-3.564-7.944-7.945
				s3.563-7.945,7.944-7.945s7.945,3.564,7.945,7.945S54.191,57.055,49.811,57.055z"/>
		</g>
	</g>
	<path fill="#B3B3B3" d="M77.326,38.548c0.012-10.281-4.071-19.889-11.335-27.168C58.727,4.101,49.02,0.118,38.736,0.108
		c-21.247,0-38.539,17.268-38.562,38.475C0.164,48.867,4.148,58.415,11.412,65.694c7.266,7.281,17.097,11.183,27.38,11.183h0.099
		l0,0H39C60,76.877,77.305,59.755,77.326,38.548z M4.653,38.641c0-18.748,15.252-34,34-34c18.747,0,34,15.252,34,34
		c0,18.748-15.253,34-34,34C19.905,72.641,4.653,57.389,4.653,38.641z"/>
</g>
</svg>
