<?xml version="1.0" encoding="utf-8"?>
<!-- Generator: Adobe Illustrator 16.0.0, SVG Export Plug-In . SVG Version: 6.00 Build 0)  -->
<!DOCTYPE svg PUBLIC "-//W3C//DTD SVG 1.1//EN" "http://www.w3.org/Graphics/SVG/1.1/DTD/svg11.dtd">
<svg version="1.1" id="Capa_1" xmlns="http://www.w3.org/2000/svg" xmlns:xlink="http://www.w3.org/1999/xlink" x="0px" y="0px"
	 width="77.102px" height="76.876px" viewBox="0 0 77.102 76.876" enable-background="new 0 0 77.102 76.876" xml:space="preserve">
<g>
	<g>
		<g>
			<path fill="#B3B3B3" d="M27.165,31.617v4.037h-0.269c-1.691,0-3.066,1.375-3.066,3.068v16.883c0,1.689,1.375,3.064,3.066,3.064
				h23.561c1.691,0,3.065-1.375,3.065-3.064V38.712c0-1.691-1.374-3.066-3.065-3.066h-0.079v-4.037
				c0-6.4-5.207-11.607-11.606-11.607C32.371,20.009,27.165,25.216,27.165,31.617z M40.494,47.908
				c-0.237,0.174-0.301,0.34-0.301,0.617c0.008,1.242,0.008,2.473,0.008,3.713l0,0c0.024,0.514-0.236,1.02-0.695,1.248
				c-1.082,0.555-2.164-0.219-2.164-1.248V52.23c0-1.24,0-2.48,0.008-3.721c0-0.254-0.056-0.42-0.277-0.586
				c-1.121-0.826-1.493-2.24-0.932-3.484c0.545-1.207,1.88-1.92,3.137-1.666c1.398,0.285,2.37,1.408,2.386,2.805
				C41.663,46.55,41.276,47.339,40.494,47.908z M32.245,31.617c0-3.602,2.932-6.527,6.526-6.527c3.603,0,6.526,2.932,6.526,6.527
				v4.037H32.245V31.617z"/>
		</g>
	</g>
	<path fill="#B3B3B3" d="M77.377,38.548c0.01-10.281-4.047-19.889-11.311-27.168C58.802,4.101,49.106,0.118,38.823,0.108
		c-21.247,0-38.532,17.269-38.555,38.476c-0.011,10.283,3.977,19.831,11.24,27.11c7.265,7.281,17.049,11.183,27.332,11.183h0.05l0,0
		H39C60,76.876,77.355,59.754,77.377,38.548z M4.753,38.641c0-18.748,15.252-34,34-34c18.747,0,34,15.252,34,34s-15.253,34-34,34
		C20.005,72.641,4.753,57.389,4.753,38.641z"/>
</g>
</svg>
