<?xml version="1.0" encoding="utf-8"?>
<!-- Generator: Adobe Illustrator 16.0.0, SVG Export Plug-In . SVG Version: 6.00 Build 0)  -->
<!DOCTYPE svg PUBLIC "-//W3C//DTD SVG 1.1//EN" "http://www.w3.org/Graphics/SVG/1.1/DTD/svg11.dtd">
<svg version="1.1" id="Capa_1" xmlns="http://www.w3.org/2000/svg" xmlns:xlink="http://www.w3.org/1999/xlink" x="0px" y="0px"
	 width="77.102px" height="76.876px" viewBox="0 0 77.102 76.876" enable-background="new 0 0 77.102 76.876" xml:space="preserve">
<g>
	<g>
		<g>
			<g>
				<path fill="#B3B3B3" d="M53.244,20.004H24.727c-2.25,0-4.072,1.823-4.072,4.073v8.147h4.072v-8.147h28.518v28.518H24.727v-8.148
					h-4.072v8.148c0,2.25,1.822,4.073,4.072,4.073h28.518c2.25,0,4.074-1.823,4.074-4.073V24.078
					C57.318,21.828,55.494,20.004,53.244,20.004z"/>
				<polygon fill="#B3B3B3" points="35.084,45.639 37.969,48.521 48.152,38.336 37.969,28.152 35.084,31.034 40.352,36.299 
					20.654,36.299 20.654,40.374 40.352,40.374 				"/>
			</g>
		</g>
	</g>
	<path fill="#B3B3B3" d="M77.208,38.549c0.01-10.283-3.632-19.889-10.896-27.169C59.047,4.1,49.561,0.118,39.277,0.108
		c-21.246,0-38.431,17.269-38.452,38.476c-0.01,10.283,4.028,19.832,11.292,27.111c7.266,7.28,16.247,11.182,26.528,11.182h-0.755
		l0,0H38C60,76.876,77.187,59.756,77.208,38.549z M5.414,38.641c0-18.748,15.252-34,34-34s34,15.252,34,34s-15.252,34-34,34
		S5.414,57.388,5.414,38.641z"/>
</g>
</svg>
