<?xml version="1.0" encoding="utf-8"?>
<!-- Generator: Adobe Illustrator 16.0.0, SVG Export Plug-In . SVG Version: 6.00 Build 0)  -->
<!DOCTYPE svg PUBLIC "-//W3C//DTD SVG 1.1//EN" "http://www.w3.org/Graphics/SVG/1.1/DTD/svg11.dtd">
<svg version="1.1" id="Capa_1" xmlns="http://www.w3.org/2000/svg" xmlns:xlink="http://www.w3.org/1999/xlink" x="0px" y="0px"
	 width="77.094px" height="76.877px" viewBox="0 0 77.094 76.877" enable-background="new 0 0 77.094 76.877" xml:space="preserve">
<g>
	<g>
		<path fill="#B3B3B3" d="M30.107,45.848l-0.021-9.055l-4.441,7.459h-1.573l-4.419-7.265v8.86h-3.277V30.756h2.889l5.648,9.379
			l5.563-9.379h2.867l0.043,15.092H30.107z"/>
		<path fill="#B3B3B3" d="M45.824,42.614h-7.007l-1.337,3.233h-3.578l6.727-15.092h3.449l6.748,15.092h-3.665L45.824,42.614z
			 M44.725,39.962l-2.393-5.777l-2.394,5.777H44.725z"/>
		<path fill="#B3B3B3" d="M60.053,45.848l-3.643-5.239l-3.579,5.239H48.82l5.584-7.675l-5.303-7.417h3.967l3.471,4.895l3.406-4.895
			h3.773l-5.261,7.287l5.627,7.805H60.053z"/>
	</g>
	<path fill="#B3B3B3" d="M39.119-0.241C28.836-0.253,19.164,3.868,11.883,11.133C4.604,18.397,0.588,28.126,0.578,38.41
		c0,21.247,17.254,38.551,38.461,38.573c10.283,0.01,19.955-3.971,27.234-11.234S77.568,48.571,77.578,38.29l-0.077,0.012l0,0
		L77.578,38C77.58,17,60.326-0.22,39.119-0.241z M39.078,72.514c-18.748,0-34-15.254-34-34c0-18.748,15.252-34,34-34
		s34,15.252,34,34C73.078,57.26,57.826,72.514,39.078,72.514z"/>
</g>
</svg>
