<?xml version="1.0" encoding="utf-8"?>
<!-- Generator: Adobe Illustrator 16.0.0, SVG Export Plug-In . SVG Version: 6.00 Build 0)  -->
<!DOCTYPE svg PUBLIC "-//W3C//DTD SVG 1.1//EN" "http://www.w3.org/Graphics/SVG/1.1/DTD/svg11.dtd">
<svg version="1.1" id="Capa_1" xmlns="http://www.w3.org/2000/svg" xmlns:xlink="http://www.w3.org/1999/xlink" x="0px" y="0px"
	 width="77.094px" height="76.877px" viewBox="0 0 77.094 76.877" enable-background="new 0 0 77.094 76.877" xml:space="preserve">
<g>
	<g>
		<path fill="#FFFFFF" d="M56.539,30.877H20.282c-1.306,0-2.364-1.194-2.364-2.5s1.059-2.5,2.364-2.5h36.257
			c1.306,0,2.364,1.194,2.364,2.5S57.845,30.877,56.539,30.877z"/>
	</g>
	<g>
		<path fill="#FFFFFF" d="M56.539,41.877H20.282c-1.306,0-2.364-1.195-2.364-2.5s1.059-2.5,2.364-2.5h36.257
			c1.306,0,2.364,1.195,2.364,2.5S57.845,41.877,56.539,41.877z"/>
	</g>
	<g>
		<path fill="#FFFFFF" d="M56.539,52.877H20.282c-1.306,0-2.364-1.195-2.364-2.5c0-1.307,1.059-2.5,2.364-2.5h36.257
			c1.306,0,2.364,1.193,2.364,2.5C58.903,51.682,57.845,52.877,56.539,52.877z"/>
	</g>
	<path fill="#FFFFFF" d="M77.094,38.487c0.012-10.282-4.038-19.92-11.302-27.2C58.527,4.008,48.837,0.01,38.554,0
		C17.307,0,0.023,17.262,0,38.469c-0.01,10.283,3.979,19.889,11.242,27.168c7.265,7.281,17.032,11.24,27.315,11.24h0.034l0,0h0.109
		C59.701,76.877,77.072,59.694,77.094,38.487z M4.487,38.518c0-18.748,15.252-34,34-34c18.747,0,34,15.252,34,34s-15.253,34-34,34
		C19.739,72.518,4.487,57.266,4.487,38.518z"/>
</g>
</svg>
