<?xml version="1.0" encoding="utf-8"?>
<!-- Generator: Adobe Illustrator 16.0.0, SVG Export Plug-In . SVG Version: 6.00 Build 0)  -->
<!DOCTYPE svg PUBLIC "-//W3C//DTD SVG 1.1//EN" "http://www.w3.org/Graphics/SVG/1.1/DTD/svg11.dtd">
<svg version="1.1" id="Capa_1" xmlns="http://www.w3.org/2000/svg" xmlns:xlink="http://www.w3.org/1999/xlink" x="0px" y="0px"
	 width="77.102px" height="76.876px" viewBox="0 0 77.102 76.876" enable-background="new 0 0 77.102 76.876" xml:space="preserve">
<g>
	<g>
		<path fill="#666666" d="M56.838,30.876H20.581c-1.306,0-2.364-1.194-2.364-2.5s1.059-2.5,2.364-2.5h36.257
			c1.306,0,2.364,1.194,2.364,2.5S58.144,30.876,56.838,30.876z"/>
	</g>
	<g>
		<path fill="#666666" d="M56.838,41.876H20.581c-1.306,0-2.364-1.195-2.364-2.5s1.059-2.5,2.364-2.5h36.257
			c1.306,0,2.364,1.195,2.364,2.5S58.144,41.876,56.838,41.876z"/>
	</g>
	<g>
		<path fill="#666666" d="M56.838,52.876H20.581c-1.306,0-2.364-1.195-2.364-2.5c0-1.307,1.059-2.5,2.364-2.5h36.257
			c1.306,0,2.364,1.193,2.364,2.5C59.202,51.681,58.144,52.876,56.838,52.876z"/>
	</g>
	<path fill="#666666" d="M77.393,38.549c0.012-10.282-4.038-19.889-11.302-27.169C58.826,4.1,49.136,0.118,38.853,0.108
		c-21.247,0-38.53,17.269-38.554,38.476c-0.01,10.283,3.979,19.832,11.242,27.111c7.265,7.28,17.032,11.182,27.315,11.182h0.034l0,0
		H39C60,76.876,77.371,59.756,77.393,38.549z M4.786,38.641c0-18.748,15.252-34,34-34c18.747,0,34,15.252,34,34
		c0,18.748-15.253,34-34,34C20.038,72.64,4.786,57.388,4.786,38.641z"/>
</g>
</svg>
