<?xml version="1.0" encoding="utf-8"?>
<!-- Generator: Adobe Illustrator 16.0.0, SVG Export Plug-In . SVG Version: 6.00 Build 0)  -->
<!DOCTYPE svg PUBLIC "-//W3C//DTD SVG 1.1//EN" "http://www.w3.org/Graphics/SVG/1.1/DTD/svg11.dtd">
<svg version="1.1" id="Capa_1" xmlns="http://www.w3.org/2000/svg" xmlns:xlink="http://www.w3.org/1999/xlink" x="0px" y="0px"
	 width="77.094px" height="76.877px" viewBox="0 0 77.094 76.877" enable-background="new 0 0 77.094 76.877" xml:space="preserve">
<g>
	<g>
		<path fill="#B3B3B3" d="M33.91,45.848l-0.021-9.055l-4.441,7.459h-1.574l-4.419-7.265v8.86h-3.276V30.756h2.889l5.648,9.379
			l5.563-9.379h2.867l0.043,15.092H33.91z"/>
		<path fill="#B3B3B3" d="M39.688,30.756h3.492v15.092h-3.492V30.756z"/>
		<path fill="#B3B3B3" d="M59.521,30.756v15.092h-2.867l-7.523-9.162v9.162h-3.449V30.756h2.889l7.502,9.163v-9.163H59.521z"/>
	</g>
	<path fill="#B3B3B3" d="M39.602-0.241C29.318-0.253,19.646,3.868,12.365,11.133C5.086,18.397,1.07,28.126,1.061,38.41
		c0,21.247,17.254,38.551,38.461,38.573c10.283,0.01,19.955-3.971,27.234-11.234S78.051,48.571,78.061,38.29l-0.069,0.012l0,0
		L78.061,38C78.063,17,60.809-0.22,39.602-0.241z M39.561,72.514c-18.748,0-34-15.254-34-34c0-18.748,15.252-34,34-34
		s34,15.252,34,34C73.561,57.26,58.309,72.514,39.561,72.514z"/>
</g>
</svg>
