<?xml version="1.0" encoding="utf-8"?>
<!-- Generator: Adobe Illustrator 16.0.0, SVG Export Plug-In . SVG Version: 6.00 Build 0)  -->
<!DOCTYPE svg PUBLIC "-//W3C//DTD SVG 1.1//EN" "http://www.w3.org/Graphics/SVG/1.1/DTD/svg11.dtd">
<svg version="1.1" id="Capa_1" xmlns="http://www.w3.org/2000/svg" xmlns:xlink="http://www.w3.org/1999/xlink" x="0px" y="0px"
	 width="77.094px" height="76.877px" viewBox="0 0 77.094 76.877" enable-background="new 0 0 77.094 76.877" xml:space="preserve">
<g>
	<g>
		<path fill="#B3B3B3" d="M43.832,18.768v9.018h9.019L43.832,18.768z"/>
		<path fill="#B3B3B3" d="M39.919,46.458c0-6.872,5.591-12.463,12.463-12.463c0.381,0,0.758,0.019,1.13,0.052v-4.003H42.703
			c-0.624,0-1.13-0.506-1.13-1.129v-10.81H25.159c-0.624,0-1.13,0.506-1.13,1.13v36.298c0,0.623,0.506,1.129,1.13,1.129h20.075
			C42.022,54.405,39.919,50.674,39.919,46.458z"/>
		<path fill="#B3B3B3" d="M55.407,45.329h-1.896v-1.896c0-0.624-0.506-1.13-1.13-1.13s-1.129,0.506-1.129,1.13v1.896h-1.896
			c-0.624,0-1.13,0.506-1.13,1.129c0,0.624,0.506,1.13,1.13,1.13h1.896v1.896c0,0.623,0.505,1.13,1.129,1.13s1.13-0.507,1.13-1.13
			v-1.896h1.896c0.623,0,1.129-0.506,1.129-1.13C56.536,45.835,56.03,45.329,55.407,45.329z"/>
		<path fill="#B3B3B3" d="M52.382,36.255c-5.627,0-10.204,4.577-10.204,10.203c0,5.627,4.577,10.204,10.204,10.204
			s10.204-4.577,10.204-10.204C62.586,40.832,58.009,36.255,52.382,36.255z M52.382,54.403c-4.381,0-7.944-3.564-7.944-7.945
			c0-4.38,3.563-7.944,7.944-7.944s7.945,3.564,7.945,7.944C60.327,50.839,56.763,54.403,52.382,54.403z"/>
	</g>
	<path fill="#B3B3B3" d="M39.598,0.191c-10.281-0.01-19.955,3.831-27.234,11.095C5.084,18.55,1.068,28.136,1.059,38.419
		c0,21.247,17.252,38.479,38.459,38.501c10.283,0.011,19.955-4.004,27.234-11.269c7.281-7.264,11.295-16.627,11.307-26.911
		l-0.01,0.204l0,0L78.059,39C78.059,18,60.805,0.214,39.598,0.191z M39.559,72.383c-18.748,0-34-15.253-34-34s15.252-34,34-34
		s34,15.253,34,34S58.307,72.383,39.559,72.383z"/>
</g>
</svg>
