<?xml version="1.0" encoding="utf-8"?>
<!-- Generator: Adobe Illustrator 16.0.0, SVG Export Plug-In . SVG Version: 6.00 Build 0)  -->
<!DOCTYPE svg PUBLIC "-//W3C//DTD SVG 1.1//EN" "http://www.w3.org/Graphics/SVG/1.1/DTD/svg11.dtd">
<svg version="1.1" id="Capa_1" xmlns="http://www.w3.org/2000/svg" xmlns:xlink="http://www.w3.org/1999/xlink" x="0px" y="0px"
	 width="77.094px" height="76.877px" viewBox="0 0 77.094 76.877" enable-background="new 0 0 77.094 76.877" xml:space="preserve">
<g>
	<g>
		<path fill="#B3B3B3" d="M19.559,31.265h5.067c0.663,0,1.277,0.108,1.844,0.327c0.565,0.22,1.04,0.483,1.425,0.792
			c0.385,0.311,0.77,0.734,1.153,1.279c0.385,0.543,0.69,1.021,0.916,1.436c0.227,0.416,0.506,0.962,0.837,1.641
			c1.162-2.729,2.194-4.788,3.1-6.177c-2.413-3.394-5.504-5.089-9.274-5.089h-5.067c-0.211,0-0.385,0.066-0.521,0.203
			c-0.136,0.135-0.204,0.309-0.204,0.52v4.345c0,0.211,0.068,0.384,0.204,0.519C19.174,31.197,19.348,31.265,19.559,31.265z"/>
		<path fill="#B3B3B3" d="M39.194,35.767c0.362-0.695,0.702-1.279,1.019-1.754c0.316-0.476,0.701-0.938,1.153-1.392
			c0.452-0.452,0.973-0.986,1.562-1.21c0.588-0.229,1.243-0.534,1.968-0.534h4.806v3.488c1,0.131,2.111,0.342,2.873,0.627
			l6.35-6.102c0.135-0.136,0.326-0.311,0.326-0.521s-0.007-0.384-0.143-0.521l-7.186-7.217c-0.181-0.149-0.348-0.226-0.528-0.226
			c-0.211,0-0.868,0.068-1.004,0.204s-0.688,0.308-0.688,0.521v4.747h-4.806c-1.026,0-1.991-0.077-2.896,0.172
			c-0.904,0.248-1.708,0.463-2.409,0.85c-0.701,0.383-1.38,0.851-2.035,1.499c-0.657,0.646-1.215,1.248-1.675,1.852
			s-0.942,1.345-1.447,2.249c-0.506,0.906-0.913,1.69-1.222,2.369c-0.31,0.678-0.683,1.513-1.12,2.509
			c-0.693,1.643-1.282,2.933-1.765,3.866c-0.361,0.693-0.701,1.277-1.018,1.754c-0.316,0.473-0.701,0.938-1.154,1.391
			c-0.452,0.451-0.973,0.858-1.561,1.085c-0.588,0.225-1.244,0.405-1.968,0.405h-5.067c-0.211,0-0.951,0.001-1.087,0.138
			c-0.136,0.135-0.771,0.239-0.771,0.45v4.346c0,0.211,0.635,0.556,0.771,0.692c0.136,0.135,0.877,0.374,1.088,0.374h5.066
			c1.026,0,1.991-0.297,2.896-0.544c0.904-0.25,1.708-0.653,2.409-1.036c0.701-0.387,1.38-0.945,2.035-1.596
			c0.656-0.646,1.215-1.294,1.675-1.898c0.46-0.603,0.942-1.367,1.448-2.271c0.505-0.906,0.912-1.703,1.221-2.381
			c0.31-0.678,0.683-1.518,1.12-2.513C38.124,37.994,38.712,36.701,39.194,35.767z"/>
		<g>
			<path fill="#B3B3B3" d="M51.751,45.449h-1.895v-1.896c0-0.623-0.506-1.129-1.13-1.129s-1.13,0.506-1.13,1.129v1.896h-1.895
				c-0.624,0-1.13,0.506-1.13,1.129s0.506,1.129,1.13,1.129h1.895v1.896c0,0.623,0.506,1.129,1.13,1.129s1.13-0.506,1.13-1.129
				v-1.896h1.895c0.624,0,1.13-0.506,1.13-1.129S52.375,45.449,51.751,45.449z"/>
			<path fill="#B3B3B3" d="M48.727,36.375c-5.627,0-10.204,4.577-10.204,10.204S43.1,56.781,48.727,56.781
				s10.204-4.576,10.204-10.203S54.354,36.375,48.727,36.375z M48.727,54.523c-4.381,0-7.944-3.564-7.944-7.945
				s3.563-7.946,7.944-7.946s7.944,3.565,7.944,7.946S53.107,54.523,48.727,54.523z"/>
		</g>
	</g>
	<path fill="#B3B3B3" d="M77.377,37.792c0.011-10.282-3.896-19.955-11.16-27.234S49.333-0.737,39.05-0.747
		c-21.247,0-38.497,17.252-38.519,38.459C0.521,47.996,4.527,57.668,11.791,64.947c7.266,7.281,16.758,11.295,27.041,11.307
		l-0.13,0.012l0,0v-0.012C60.701,76.254,77.355,59,77.377,37.792z M5.053,37.753c0-18.748,15.253-34,34-34c18.748,0,34,15.252,34,34
		c0,18.749-15.252,34-34,34C20.306,71.754,5.053,56.502,5.053,37.753z"/>
</g>
</svg>
