<?xml version="1.0" encoding="utf-8"?>
<!-- Generator: Adobe Illustrator 16.0.0, SVG Export Plug-In . SVG Version: 6.00 Build 0)  -->
<!DOCTYPE svg PUBLIC "-//W3C//DTD SVG 1.1//EN" "http://www.w3.org/Graphics/SVG/1.1/DTD/svg11.dtd">
<svg version="1.1" id="Capa_1" xmlns="http://www.w3.org/2000/svg" xmlns:xlink="http://www.w3.org/1999/xlink" x="0px" y="0px"
	 width="77.094px" height="76.877px" viewBox="0 0 77.094 76.877" enable-background="new 0 0 77.094 76.877" xml:space="preserve">
<g>
	<g>
		<g>
			<g>
				<path fill="#4D4D4D" d="M37.41,39.637c0.694-1.646,1.283-2.938,1.767-3.875c0.362-0.693,0.703-1.279,1.021-1.756
					c0.316-0.475,0.701-0.939,1.154-1.393c0.454-0.453,0.975-0.793,1.564-1.02c0.589-0.227,1.245-0.34,1.971-0.34h5.8v4.35
					c0,0.195,0.071,0.365,0.215,0.51s0.313,0.215,0.51,0.215c0.212,0,0.386-0.068,0.521-0.203l7.25-7.25
					c0.137-0.137,0.205-0.311,0.205-0.521c0-0.213-0.068-0.385-0.205-0.521l-7.227-7.227c-0.182-0.152-0.363-0.227-0.544-0.227
					c-0.212,0-0.386,0.068-0.521,0.203c-0.136,0.137-0.203,0.309-0.203,0.521v4.35h-5.8c-1.027,0-1.994,0.125-2.9,0.375
					c-0.906,0.248-1.711,0.566-2.413,0.951s-1.382,0.9-2.039,1.551s-1.216,1.277-1.677,1.881s-0.943,1.359-1.449,2.266
					s-0.914,1.699-1.224,2.379s-0.684,1.518-1.122,2.516c-0.694,1.646-1.283,2.938-1.767,3.873c-0.362,0.695-0.702,1.281-1.02,1.756
					c-0.317,0.477-0.702,0.941-1.155,1.395s-0.975,0.793-1.563,1.02s-1.246,0.34-1.972,0.34h-5.074
					c-0.212,0-0.386,0.068-0.521,0.203c-0.136,0.137-0.204,0.311-0.204,0.521v4.35c0,0.213,0.068,0.385,0.204,0.521
					c0.137,0.137,0.311,0.203,0.521,0.203h5.075c1.027,0,1.994-0.123,2.9-0.373s1.71-0.566,2.413-0.951
					c0.702-0.385,1.381-0.902,2.038-1.553c0.657-0.648,1.217-1.275,1.677-1.881c0.461-0.604,0.944-1.359,1.451-2.266
					c0.505-0.906,0.913-1.699,1.223-2.379S36.973,40.633,37.41,39.637z"/>
				<path fill="#4D4D4D" d="M19.511,31.254h5.075c0.664,0,1.28,0.107,1.847,0.328c0.566,0.219,1.042,0.484,1.428,0.793
					c0.385,0.311,0.771,0.736,1.155,1.279c0.385,0.545,0.691,1.025,0.918,1.439c0.227,0.416,0.505,0.963,0.838,1.643
					c1.163-2.734,2.197-4.795,3.104-6.186c-2.416-3.398-5.513-5.098-9.289-5.098h-5.075c-0.212,0-0.385,0.068-0.521,0.205
					c-0.137,0.135-0.204,0.309-0.204,0.52v4.352c0,0.211,0.067,0.385,0.204,0.52C19.126,31.186,19.3,31.254,19.511,31.254z"/>
				<path fill="#4D4D4D" d="M51.955,40.904c-0.182-0.15-0.362-0.225-0.544-0.225c-0.211,0-0.385,0.068-0.521,0.203
					c-0.136,0.135-0.203,0.311-0.203,0.521v4.35h-5.8c-0.665,0-1.28-0.109-1.847-0.328s-1.042-0.484-1.428-0.793
					c-0.385-0.311-0.771-0.736-1.155-1.281c-0.385-0.543-0.691-1.023-0.918-1.438c-0.227-0.416-0.506-0.963-0.838-1.643
					c-1.163,2.719-2.19,4.779-3.081,6.184c0.407,0.59,0.831,1.115,1.269,1.576c0.438,0.459,0.854,0.863,1.246,1.211
					s0.838,0.65,1.337,0.906c0.498,0.256,0.937,0.471,1.313,0.646c0.379,0.174,0.854,0.313,1.428,0.418
					c0.574,0.105,1.058,0.186,1.45,0.238s0.929,0.09,1.608,0.113s1.231,0.029,1.654,0.023c0.423-0.008,1.035-0.016,1.835-0.023
					c0.801-0.008,1.442-0.012,1.926-0.012v4.352c0,0.195,0.072,0.365,0.216,0.51c0.143,0.143,0.313,0.215,0.51,0.215
					c0.211,0,0.385-0.068,0.521-0.205l7.25-7.25c0.136-0.135,0.204-0.309,0.204-0.52c0-0.213-0.068-0.387-0.205-0.521L51.955,40.904
					z"/>
			</g>
		</g>
		<path fill="#4D4D4D" d="M18.774,64.197c-1.816,1.816-4.496,2.086-5.98,0.597l0,0c-1.487-1.486-1.221-4.163,0.597-5.979
			l46.982-46.982c1.816-1.816,4.494-2.085,5.98-0.599l0,0c1.486,1.487,1.219,4.165-0.597,5.981L18.774,64.197z"/>
	</g>
	<path fill="#4D4D4D" d="M77.411,37.793c0.01-10.282-3.88-19.955-11.144-27.235C59.002,3.278,49.391-0.737,39.107-0.747
		c-21.247,0-38.491,17.253-38.514,38.46C0.583,47.996,4.591,57.668,11.855,64.947c7.266,7.28,16.726,11.295,27.008,11.306
		l-0.162,0.013l0,0v-0.013C59.701,76.254,77.389,59,77.411,37.793z M5.12,37.753c0-18.748,15.253-34,34-34s34,15.252,34,34
		c0,18.749-15.253,34-34,34S5.12,56.502,5.12,37.753z"/>
</g>
</svg>
