<?xml version="1.0" encoding="utf-8"?>
<!-- Generator: Adobe Illustrator 16.0.0, SVG Export Plug-In . SVG Version: 6.00 Build 0)  -->
<!DOCTYPE svg PUBLIC "-//W3C//DTD SVG 1.1//EN" "http://www.w3.org/Graphics/SVG/1.1/DTD/svg11.dtd">
<svg version="1.1" id="Capa_1" xmlns="http://www.w3.org/2000/svg" xmlns:xlink="http://www.w3.org/1999/xlink" x="0px" y="0px"
	 width="77.094px" height="76.877px" viewBox="0 0 77.094 76.877" enable-background="new 0 0 77.094 76.877" xml:space="preserve">
<g>
	<polygon fill="#49B24D" points="60.848,32.024 36.18,56.691 18.457,39.012 24.436,33.033 36.18,44.82 40.387,40.611 54.912,26.089 
			"/>
	<path fill="#49B24D" d="M77.863,38.548c0.01-10.282-3.804-19.889-11.067-27.168C59.53,4.101,49.957,0.118,39.676,0.108
		c-21.248,0-38.475,17.268-38.496,38.475C1.17,48.867,5.188,58.415,12.452,65.694c7.266,7.281,16.578,11.183,26.859,11.183h-0.421
		l0,0H39C61,76.877,77.842,59.755,77.863,38.548z M5.727,38.641c0-18.748,15.252-34,34-34s34,15.252,34,34c0,18.748-15.252,34-34,34
		S5.727,57.389,5.727,38.641z"/>
</g>
</svg>
