<?xml version="1.0" encoding="utf-8"?>
<!-- Generator: Adobe Illustrator 16.0.0, SVG Export Plug-In . SVG Version: 6.00 Build 0)  -->
<!DOCTYPE svg PUBLIC "-//W3C//DTD SVG 1.1//EN" "http://www.w3.org/Graphics/SVG/1.1/DTD/svg11.dtd">
<svg version="1.1" id="Capa_1" xmlns="http://www.w3.org/2000/svg" xmlns:xlink="http://www.w3.org/1999/xlink" x="0px" y="0px"
	 width="77.094px" height="76.877px" viewBox="0 0 77.094 76.877" enable-background="new 0 0 77.094 76.877" xml:space="preserve">
<g>
	<polygon fill="#B3B3B3" points="60.458,32.024 35.79,56.691 18.067,39.012 24.046,33.033 35.79,44.82 39.997,40.611 54.522,26.089 
			"/>
	<path fill="#B3B3B3" d="M77.668,38.548c0.01-10.282-3.9-19.889-11.164-27.168C59.238,4.101,49.616,0.118,39.335,0.108
		c-21.248,0-38.499,17.268-38.521,38.475c-0.01,10.284,3.997,19.832,11.261,27.111c7.266,7.281,16.766,11.183,27.047,11.183h-0.231
		l0,0H39C61,76.877,77.646,59.755,77.668,38.548z M5.337,38.641c0-18.748,15.252-34,34-34s34,15.252,34,34c0,18.748-15.252,34-34,34
		S5.337,57.389,5.337,38.641z"/>
</g>
</svg>
