<?xml version="1.0" encoding="utf-8"?>
<!-- Generator: Adobe Illustrator 16.0.0, SVG Export Plug-In . SVG Version: 6.00 Build 0)  -->
<!DOCTYPE svg PUBLIC "-//W3C//DTD SVG 1.1//EN" "http://www.w3.org/Graphics/SVG/1.1/DTD/svg11.dtd">
<svg version="1.1" id="Capa_1" xmlns="http://www.w3.org/2000/svg" xmlns:xlink="http://www.w3.org/1999/xlink" x="0px" y="0px"
	 width="77.094px" height="76.877px" viewBox="0 0 77.094 76.877" enable-background="new 0 0 77.094 76.877" xml:space="preserve">
<g>
	<polygon fill="#F15A24" points="60.625,32.024 35.957,56.691 18.234,39.012 24.213,33.033 35.957,44.82 40.164,40.611 
		54.689,26.089 	"/>
	<path fill="#F15A24" d="M77.752,38.548c0.01-10.282-3.859-19.889-11.123-27.168C59.363,4.101,49.764,0.118,39.482,0.108
		c-21.248,0-38.489,17.268-38.511,38.475c-0.01,10.284,4.001,19.832,11.265,27.111c7.266,7.281,16.686,11.183,26.967,11.183h-0.313
		l0,0H39C61,76.877,77.73,59.755,77.752,38.548z M5.504,38.641c0-18.748,15.252-34,34-34s34,15.252,34,34c0,18.748-15.252,34-34,34
		S5.504,57.389,5.504,38.641z"/>
</g>
</svg>
