<?xml version="1.0" encoding="utf-8"?>
<!-- Generator: Adobe Illustrator 16.0.0, SVG Export Plug-In . SVG Version: 6.00 Build 0)  -->
<!DOCTYPE svg PUBLIC "-//W3C//DTD SVG 1.1//EN" "http://www.w3.org/Graphics/SVG/1.1/DTD/svg11.dtd">
<svg version="1.1" id="Capa_1" xmlns="http://www.w3.org/2000/svg" xmlns:xlink="http://www.w3.org/1999/xlink" x="0px" y="0px"
	 width="77.094px" height="76.877px" viewBox="0 0 77.094 76.877" enable-background="new 0 0 77.094 76.877" xml:space="preserve">
<g>
	<g>
		<g>
			<path fill="#B3B3B3" d="M39.444,29.924L24.841,41.962c0,0.018-0.004,0.043-0.013,0.076s-0.013,0.059-0.013,0.076v12.189
				c0,0.441,0.161,0.823,0.482,1.145c0.322,0.32,0.703,0.482,1.143,0.482h9.753v-9.753h6.502v9.753h9.752
				c0.44,0,0.822-0.16,1.144-0.482c0.321-0.321,0.483-0.703,0.483-1.145V42.114c0-0.067-0.01-0.119-0.026-0.152L39.444,29.924z"/>
			<path fill="#B3B3B3" d="M59.635,39.22l-5.562-4.623V24.234c0-0.236-0.076-0.432-0.229-0.583
				c-0.151-0.152-0.346-0.229-0.583-0.229h-4.876c-0.238,0-0.433,0.076-0.585,0.229c-0.152,0.151-0.229,0.347-0.229,0.583v4.952
				l-6.196-5.181c-0.542-0.44-1.186-0.66-1.931-0.66c-0.744,0-1.388,0.22-1.93,0.66L19.253,39.22
				c-0.169,0.135-0.262,0.316-0.279,0.545c-0.017,0.229,0.042,0.428,0.178,0.598l1.575,1.88c0.136,0.151,0.313,0.245,0.533,0.278
				c0.203,0.018,0.406-0.042,0.609-0.177l17.575-14.655L57.02,42.344c0.136,0.118,0.313,0.177,0.533,0.177h0.076
				c0.22-0.033,0.397-0.127,0.533-0.279l1.575-1.879c0.135-0.17,0.194-0.369,0.177-0.598C59.897,39.536,59.804,39.354,59.635,39.22z
				"/>
		</g>
	</g>
	<path fill="#B3B3B3" d="M77.61,38.43c0.012-10.282-3.78-19.955-11.044-27.235C59.303,3.916,49.741-0.1,39.458-0.11
		C18.211-0.11,0.991,17.143,0.97,38.35C0.958,48.633,4.98,58.305,12.244,65.584c7.265,7.281,16.531,11.295,26.814,11.307
		l-0.356-0.015l0,0v0.015C59.701,76.891,77.589,59.637,77.61,38.43z M5.521,38.39c0-18.748,15.252-34,34-34
		c18.747,0,34,15.252,34,34c0,18.749-15.253,34-34,34C20.772,72.391,5.521,57.139,5.521,38.39z"/>
</g>
</svg>
