<?xml version="1.0" encoding="utf-8"?>
<!-- Generator: Adobe Illustrator 16.0.0, SVG Export Plug-In . SVG Version: 6.00 Build 0)  -->
<!DOCTYPE svg PUBLIC "-//W3C//DTD SVG 1.1//EN" "http://www.w3.org/Graphics/SVG/1.1/DTD/svg11.dtd">
<svg version="1.1" id="Capa_1" xmlns="http://www.w3.org/2000/svg" xmlns:xlink="http://www.w3.org/1999/xlink" x="0px" y="0px"
	 width="77.106px" height="77.011px" viewBox="0 0 77.106 77.011" enable-background="new 0 0 77.106 77.011" xml:space="preserve">
<g>
	<g>
		<g>
			<path fill="#B4B4B4" d="M54.229,31.705c0.052-0.045,0.104-0.092,0.152-0.142l2.054-2.054c1.216-1.216,1.216-3.187,0-4.402
				l-3.814-3.813c-1.216-1.216-3.185-1.216-4.401,0l-2.054,2.054c-0.05,0.049-0.095,0.1-0.142,0.152L54.229,31.705z"/>
			<polygon fill="#B4B4B4" points="25.112,52.616 29.169,56.673 24.389,57.395 19.61,58.117 20.334,53.339 21.057,48.56 			"/>
			<polygon fill="#B4B4B4" points="47.266,26.942 25.553,48.654 24.379,47.481 46.092,25.768 44.918,24.595 22.031,47.481 
				30.248,55.696 53.134,32.81 			"/>
		</g>
		<g>
			<path fill="#B4B4B4" d="M77.106,38.54c0.01-10.283-4.047-19.955-11.31-27.235C58.531,4.025,48.837,0.01,38.555,0
				C17.308,0,0.021,17.253,0,38.46c-0.012,10.283,3.977,19.955,11.239,27.234c7.265,7.28,17.047,11.295,27.33,11.306l0.158,0.011
				l0,0V77C60.728,77.001,77.085,59.747,77.106,38.54z M4.484,38.5c0-18.748,15.252-34,34-34c18.747,0,34,15.252,34,34
				c0,18.748-15.253,34-34,34C19.736,72.5,4.484,57.248,4.484,38.5z"/>
		</g>
	</g>
	<path fill="#B4B4B4" d="M17.457,63.772c-1.808,1.807-4.041,2.506-4.986,1.56l0,0c-0.947-0.946-0.248-3.179,1.56-4.985
		l46.754-46.756c1.809-1.808,4.041-2.506,4.987-1.56l0,0c0.946,0.946,0.247,3.178-1.561,4.986L17.457,63.772z"/>
</g>
</svg>
