<?xml version="1.0" encoding="utf-8"?>
<!-- Generator: Adobe Illustrator 16.0.0, SVG Export Plug-In . SVG Version: 6.00 Build 0)  -->
<!DOCTYPE svg PUBLIC "-//W3C//DTD SVG 1.1//EN" "http://www.w3.org/Graphics/SVG/1.1/DTD/svg11.dtd">
<svg version="1.1" id="Capa_1" xmlns="http://www.w3.org/2000/svg" xmlns:xlink="http://www.w3.org/1999/xlink" x="0px" y="0px"
	 width="77.094px" height="76.877px" viewBox="0 0 77.094 76.877" enable-background="new 0 0 77.094 76.877" xml:space="preserve">
<g>
	<g>
		<path fill="#B3B3B3" d="M54.402,30.975c0.052-0.045,0.104-0.092,0.152-0.142l2.054-2.054c1.216-1.216,1.216-3.187,0-4.402
			l-3.814-3.813c-1.216-1.217-3.185-1.217-4.401,0l-2.054,2.053c-0.05,0.05-0.095,0.101-0.142,0.152L54.402,30.975z"/>
		<polygon fill="#B3B3B3" points="25.286,51.886 29.343,55.943 24.563,56.664 19.784,57.387 20.508,52.608 21.23,47.83 		"/>
		<polygon fill="#B3B3B3" points="47.439,26.212 25.727,47.924 24.553,46.752 46.266,25.038 45.092,23.865 22.205,46.752 
			30.422,54.967 53.308,32.08 		"/>
	</g>
	<g>
		<path fill="#B3B3B3" d="M77.18,37.811c0.011-10.283-3.996-19.955-11.258-27.235C58.656,3.295,48.986-0.72,38.704-0.73
			C17.457-0.73,0.183,16.523,0.161,37.73C0.149,48.014,4.144,57.686,11.407,64.965c7.265,7.279,16.951,11.295,27.234,11.305
			l0.061,0.002l0,0V76.27C60.701,76.271,77.158,59.018,77.18,37.811z M4.658,37.77c0-18.747,15.252-34,34-34
			c18.747,0,34,15.253,34,34c0,18.748-15.253,34-34,34C19.91,71.77,4.658,56.518,4.658,37.77z"/>
	</g>
</g>
</svg>
