<?xml version="1.0" encoding="utf-8"?>
<!-- Generator: Adobe Illustrator 16.0.0, SVG Export Plug-In . SVG Version: 6.00 Build 0)  -->
<!DOCTYPE svg PUBLIC "-//W3C//DTD SVG 1.1//EN" "http://www.w3.org/Graphics/SVG/1.1/DTD/svg11.dtd">
<svg version="1.1" id="Capa_1" xmlns="http://www.w3.org/2000/svg" xmlns:xlink="http://www.w3.org/1999/xlink" x="0px" y="0px"
	 width="191.809px" height="33.949px" viewBox="201.937 403.178 191.809 33.949"
	 enable-background="new 201.937 403.178 191.809 33.949" xml:space="preserve">
<g>
	<g>
		<path fill="#FFFFFF" d="M314.055,428.855l-4.585-18.341h2.844l3.338,13.353l4.292-13.353h2.896l4.293,13.353l3.339-13.353h2.843
			l-4.585,18.341h-2.897l-4.438-13.848l-4.438,13.848H314.055z"/>
		<path fill="#FFFFFF" d="M345.568,417.503c-0.035-1.198-0.482-2.226-1.338-3.081c-0.893-0.894-1.977-1.339-3.246-1.339
			c-1.271,0-2.354,0.446-3.247,1.339c-0.575,0.574-0.966,1.229-1.174,1.962l-2.493-1.248c0.354-0.979,0.928-1.864,1.723-2.659
			c1.433-1.43,3.162-2.146,5.191-2.146s3.76,0.716,5.189,2.146c1.432,1.43,2.146,3.161,2.146,5.191v11.188h-2.752v-1.027
			c-1.308,0.809-2.836,1.211-4.584,1.211c-2.03,0-3.761-0.536-5.19-1.613c-1.431-1.075-2.146-2.372-2.146-3.889
			c0-1.516,0.488-2.645,1.468-3.384c0.978-0.74,1.864-1.183,2.659-1.33L345.568,417.503z M345.568,423.555v-3.319l-6.052,0.917
			c-0.966,0.147-1.728,0.396-2.283,0.743c-0.558,0.349-0.835,0.896-0.835,1.642c0,0.759,0.446,1.406,1.339,1.943
			c0.894,0.538,1.976,0.808,3.247,0.808s2.354-0.27,3.246-0.808S345.568,424.302,345.568,423.555z"/>
		<path fill="#FFFFFF" d="M350.154,423.537v-20.358h2.752v20.358c0,0.759,0.268,1.406,0.807,1.943
			c0.537,0.538,1.187,0.808,1.943,0.808h0.918l0.916,2.751h-1.834c-1.516,0-2.813-0.536-3.889-1.613
			C350.692,426.35,350.154,425.053,350.154,423.537z"/>
		<path fill="#FFFFFF" d="M358.425,423.537v-20.358h2.753v20.358c0,0.759,0.268,1.406,0.807,1.943
			c0.538,0.538,1.187,0.808,1.944,0.808h0.917l0.916,2.751h-1.833c-1.518,0-2.813-0.536-3.891-1.613
			C358.964,426.35,358.425,425.053,358.425,423.537z"/>
		<path fill="#FFFFFF" d="M365.089,420.786v-2.2c0-2.273,0.809-4.22,2.423-5.832c1.612-1.615,3.68-2.421,6.198-2.421
			c2.322,0,4.219,0.673,5.687,2.018c1.468,1.467,2.201,2.996,2.201,4.585v0.917l-12.949,5.833c0.222,0.342,0.489,0.673,0.808,0.99
			c1.076,1.075,2.494,1.613,4.256,1.613c1.564,0,2.812-0.343,3.742-1.025c0.844-0.71,1.398-1.396,1.668-2.056l2.477,1.246
			c-0.404,0.906-1.137,1.822-2.201,2.752c-1.468,1.224-3.363,1.834-5.686,1.834c-2.521,0-4.586-0.807-6.199-2.421
			C365.897,425.005,365.089,423.061,365.089,420.786z M367.841,418.585v2.458l10.896-4.731c-0.194-0.794-0.642-1.492-1.34-2.091
			c-0.892-0.758-2.12-1.137-3.687-1.137c-1.76,0-3.18,0.537-4.256,1.612C368.38,415.772,367.841,417.068,367.841,418.585z"/>
		<path fill="#FFFFFF" d="M384.576,410.515v-3.668h2.75v3.668h6.42v2.751h-6.42v10.271c0,0.759,0.271,1.406,0.807,1.943
			c0.539,0.538,1.188,0.808,1.945,0.808c0.746,0,1.381-0.257,1.907-0.771l1.284,2.494c-0.918,0.686-1.98,1.026-3.191,1.026
			c-1.518,0-2.813-0.536-3.889-1.613c-1.076-1.075-1.613-2.372-1.613-3.889v-10.271h-2.752v-2.751L384.576,410.515L384.576,410.515z
			"/>
	</g>
	<g>
		<path fill="#F15A24" d="M204.253,415.094c0-0.562-0.299-0.822-0.822-0.822h-1.494v-4.033h4.22c1.756,0,2.39,0.784,2.39,1.83
			c0,0.448,0,0.747,0,0.747h0.075c0,0,1.606-3.025,6.05-3.025c5.154,0,8.478,4.071,8.478,9.972c0,6.05-3.734,9.972-8.739,9.972
			c-3.772,0-5.453-2.502-5.453-2.502h-0.074c0,0,0.074,0.672,0.074,1.643v7.882h-4.705V415.094z M213.552,425.736
			c2.614,0,4.818-2.129,4.818-5.899c0-3.624-1.942-5.977-4.743-5.977c-2.465,0-4.78,1.793-4.78,6.012
			C208.847,422.824,210.414,425.736,213.552,425.736z"/>
		<path fill="#F15A24" d="M225.375,415.094c0-0.562-0.299-0.822-0.822-0.822h-1.494v-4.033h4.519c1.754,0,2.502,0.784,2.502,2.501
			v8.776c0,2.315,0.597,3.884,2.95,3.884c3.436,0,5.341-3.025,5.341-6.424v-8.738h4.743v14.229c0,0.521,0.299,0.82,0.821,0.82h1.494
			v3.997h-4.369c-1.644,0-2.502-0.785-2.502-2.13v-0.521c0-0.448,0.038-0.859,0.038-0.859h-0.075
			c-0.896,1.98-3.287,3.959-6.573,3.959c-4.071,0-6.573-2.054-6.573-7.246V415.094z"/>
		<path fill="#F15A24" d="M246.772,415.094c0-0.562-0.299-0.822-0.822-0.822h-1.494v-4.033h4.37c1.679,0,2.501,0.784,2.501,2.128
			v0.561c0,0.411-0.074,0.821-0.074,0.821h0.074c0.822-1.605,2.875-3.958,6.722-3.958c4.22,0,6.648,2.204,6.648,7.245v7.434
			c0,0.521,0.299,0.82,0.821,0.82h1.494v3.997h-4.519c-1.793,0-2.54-0.748-2.54-2.541v-8.737c0-2.316-0.598-3.886-2.988-3.886
			c-2.54,0-4.445,1.606-5.116,3.886c-0.262,0.784-0.374,1.643-0.374,2.539v8.739h-4.706v-14.192H246.772z"/>
		<path fill="#F15A24" d="M275.071,409.79c4.407,0,5.864,2.688,5.864,2.688h0.075c0,0,0-0.224,0-0.485
			c0-0.858,0.597-1.755,2.091-1.755h4.407v4.033h-1.457c-0.485,0-0.821,0.261-0.821,0.747v13.109c0,6.534-5.08,9-10.046,9
			c-2.391,0-4.93-0.673-6.76-1.645l1.456-3.734c0,0,2.353,1.271,5.266,1.271c2.876,0,5.378-1.232,5.378-4.668v-0.896
			c0-0.448,0.038-1.01,0.038-1.01h-0.075c-1.12,1.605-2.763,2.465-5.303,2.465c-5.453,0-8.553-4.405-8.553-9.635
			C266.631,414.047,269.582,409.79,275.071,409.79z M280.637,419.313c0-4.332-2.167-5.49-4.744-5.49
			c-2.876,0-4.444,2.092-4.444,5.304c0,3.322,1.681,5.788,4.744,5.788C278.471,424.915,280.637,423.607,280.637,419.313z"/>
		<path fill="#F15A24" d="M297.181,409.79c5.826,0,10.456,4.146,10.456,9.972c0,5.864-4.63,9.972-10.456,9.972
			c-5.79,0-10.419-4.107-10.419-9.972C286.761,413.935,291.391,409.79,297.181,409.79z M297.181,425.699
			c3.099,0,5.676-2.391,5.676-5.938c0-3.51-2.577-5.938-5.676-5.938c-3.063,0-5.64,2.429-5.64,5.938
			C291.541,423.309,294.117,425.699,297.181,425.699z"/>
	</g>
</g>
</svg>
