<?xml version="1.0" encoding="utf-8"?>
<!-- Generator: Adobe Illustrator 16.0.0, SVG Export Plug-In . SVG Version: 6.00 Build 0)  -->
<!DOCTYPE svg PUBLIC "-//W3C//DTD SVG 1.1//EN" "http://www.w3.org/Graphics/SVG/1.1/DTD/svg11.dtd">
<svg version="1.1" id="Capa_1" xmlns="http://www.w3.org/2000/svg" xmlns:xlink="http://www.w3.org/1999/xlink" x="0px" y="0px"
	 width="416.125px" height="190.842px" viewBox="88.937 324.748 416.125 190.842"
	 enable-background="new 88.937 324.748 416.125 190.842" xml:space="preserve">
<g>
	<g>
		<path fill="#FFFFFF" d="M98.052,345.626c0-2.206-1.177-3.235-3.234-3.235h-5.881v-15.878h16.614c6.91,0,9.41,3.087,9.41,7.204
			c0,1.765,0,2.94,0,2.94h0.293c0,0,6.322-11.908,23.818-11.908c20.29,0,33.375,16.024,33.375,39.255
			c0,23.818-14.703,39.256-34.404,39.256c-14.85,0-21.466-9.852-21.466-9.852h-0.294c0,0,0.294,2.646,0.294,6.47V430.9H98.052
			V345.626z M134.662,387.528c10.291,0,18.965-8.38,18.965-23.229c0-14.262-7.645-23.524-18.672-23.524
			c-9.703,0-18.818,7.059-18.818,23.672C116.137,376.06,122.313,387.528,134.662,387.528z"/>
		<path fill="#FFFFFF" d="M181.206,345.626c0-2.206-1.177-3.235-3.233-3.235h-5.883v-15.878h17.791c6.91,0,9.852,3.087,9.852,9.851
			v34.551c0,9.115,2.352,15.291,11.614,15.291c13.526,0,21.024-11.908,21.024-25.288v-34.404h18.673v56.017
			c0,2.059,1.177,3.234,3.234,3.234h5.881v15.731h-17.202c-6.469,0-9.851-3.088-9.851-8.38v-2.059c0-1.764,0.147-3.381,0.147-3.381
			h-0.295c-3.528,7.792-12.938,15.585-25.877,15.585c-16.025,0-25.876-8.086-25.876-28.523L181.206,345.626L181.206,345.626z"/>
		<path fill="#FFFFFF" d="M265.447,345.626c0-2.206-1.176-3.235-3.234-3.235h-5.882v-15.878h17.202c6.616,0,9.851,3.087,9.851,8.38
			v2.206c0,1.617-0.294,3.234-0.294,3.234h0.294c3.235-6.322,11.321-15.584,26.466-15.584c16.612,0,26.17,8.674,26.17,28.522v29.258
			c0,2.059,1.176,3.234,3.233,3.234h5.882v15.731h-17.789c-7.06,0-9.999-2.94-9.999-9.998v-34.403
			c0-9.116-2.354-15.291-11.764-15.291c-9.997,0-17.496,6.322-20.142,15.291c-1.029,3.087-1.47,6.469-1.47,9.997v34.404h-18.525
			L265.447,345.626L265.447,345.626z"/>
		<path fill="#FFFFFF" d="M376.859,324.748c17.35,0,23.084,10.585,23.084,10.585h0.293c0,0,0-0.882,0-1.91
			c0-3.383,2.354-6.91,8.232-6.91h17.35v15.878h-5.732c-1.912,0-3.234,1.028-3.234,2.94v51.606
			c0,25.729-19.995,35.434-39.551,35.434c-9.409,0-19.407-2.646-26.611-6.469l5.732-14.703c0,0,9.265,4.999,20.73,4.999
			c11.322,0,21.174-4.852,21.174-18.378v-3.529c0-1.764,0.146-3.97,0.146-3.97h-0.295c-4.41,6.322-10.879,9.704-20.877,9.704
			c-21.467,0-33.67-17.349-33.67-37.933S355.248,324.748,376.859,324.748z M398.767,362.239c0-17.055-8.527-21.612-18.674-21.612
			c-11.319,0-17.495,8.232-17.495,20.877c0,13.085,6.616,22.79,18.672,22.79C390.238,384.294,398.767,379.147,398.767,362.239z"/>
		<path fill="#FFFFFF" d="M463.896,324.748c22.936,0,41.166,16.319,41.166,39.256c0,23.083-18.23,39.256-41.166,39.256
			c-22.789,0-41.021-16.173-41.021-39.256C422.876,341.067,441.107,324.748,463.896,324.748z M463.896,387.382
			c12.203,0,22.348-9.41,22.348-23.377c0-13.82-10.145-23.377-22.348-23.377c-12.057,0-22.201,9.557-22.201,23.377
			C441.695,377.971,451.839,387.382,463.896,387.382z"/>
	</g>
	<g>
		<path fill="#333333" d="M149.16,514.866l-18.052-72.206H142.3l13.141,52.566l16.896-52.566h11.408l16.896,52.566l13.142-52.566
			h11.192l-18.053,72.206h-11.408l-17.475-54.516l-17.473,54.516H149.16z"/>
		<path fill="#333333" d="M273.225,470.172c-0.145-4.719-1.902-8.762-5.271-12.131c-3.515-3.514-7.774-5.271-12.781-5.271
			c-5.007,0-9.266,1.758-12.779,5.271c-2.263,2.264-3.804,4.838-4.622,7.727l-9.819-4.91c1.396-3.851,3.657-7.341,6.786-10.47
			c5.633-5.632,12.445-8.448,20.435-8.448c7.99,0,14.804,2.816,20.435,8.448c5.633,5.632,8.448,12.442,8.448,20.434v44.046h-10.831
			v-4.044c-5.15,3.178-11.168,4.767-18.052,4.767c-7.989,0-14.802-2.117-20.435-6.354c-5.631-4.234-8.446-9.337-8.446-15.308
			c0-5.968,1.923-10.408,5.776-13.321c3.85-2.911,7.34-4.657,10.469-5.235L273.225,470.172z M273.225,493.998V480.93l-23.828,3.608
			c-3.802,0.578-6.799,1.554-8.988,2.926c-2.191,1.372-3.285,3.525-3.285,6.462c0,2.984,1.756,5.537,5.271,7.653
			c3.514,2.119,7.772,3.179,12.779,3.179c5.007,0,9.267-1.06,12.781-3.179C271.468,499.464,273.225,496.936,273.225,493.998z"/>
		<path fill="#333333" d="M291.277,493.927v-80.147h10.83v80.147c0,2.984,1.059,5.537,3.176,7.653
			c2.119,2.119,4.67,3.179,7.655,3.179h3.61l3.609,10.83h-7.221c-5.971,0-11.073-2.117-15.308-6.354
			C293.394,504.999,291.277,499.896,291.277,493.927z"/>
		<path fill="#333333" d="M323.841,493.927v-80.147h10.83v80.147c0,2.984,1.059,5.537,3.178,7.653
			c2.117,2.119,4.669,3.179,7.652,3.179h3.611l3.609,10.83h-7.221c-5.969,0-11.071-2.117-15.308-6.354
			C325.958,504.999,323.841,499.896,323.841,493.927z"/>
		<path fill="#333333" d="M350.08,483.096v-8.664c0-8.954,3.176-16.607,9.529-22.962c6.355-6.354,14.489-9.531,24.405-9.531
			c9.146,0,16.608,2.648,22.385,7.942c5.776,5.775,8.665,11.795,8.665,18.052v3.61l-50.977,22.961
			c0.865,1.349,1.924,2.647,3.177,3.897c4.233,4.237,9.819,6.355,16.75,6.355c6.161,0,11.071-1.349,14.731-4.043
			c3.319-2.793,5.51-5.488,6.569-8.089l9.748,4.909c-1.589,3.563-4.478,7.173-8.665,10.831c-5.775,4.814-13.238,7.222-22.385,7.222
			c-9.916,0-18.051-3.178-24.405-9.531C353.255,499.703,350.08,492.05,350.08,483.096z M360.91,474.432v9.675l42.891-18.629
			c-0.771-3.128-2.526-5.872-5.271-8.231c-3.516-2.983-8.353-4.477-14.515-4.477c-6.932,0-12.518,2.119-16.75,6.354
			C363.027,463.359,360.91,468.464,360.91,474.432z"/>
		<path fill="#333333" d="M426.789,442.66v-14.44h10.83v14.44h25.271v10.831h-25.271v40.436c0,2.984,1.059,5.537,3.178,7.653
			c2.115,2.119,4.668,3.179,7.652,3.179c2.936,0,5.439-1.013,7.51-3.033l5.055,9.82c-3.609,2.696-7.797,4.043-12.563,4.043
			c-5.969,0-11.072-2.117-15.309-6.354c-4.234-4.233-6.354-9.337-6.354-15.308v-40.436h-10.832V442.66H426.789z"/>
	</g>
</g>
</svg>
