<?xml version="1.0" encoding="utf-8"?>
<!-- Generator: Adobe Illustrator 16.0.0, SVG Export Plug-In . SVG Version: 6.00 Build 0)  -->
<!DOCTYPE svg PUBLIC "-//W3C//DTD SVG 1.1//EN" "http://www.w3.org/Graphics/SVG/1.1/DTD/svg11.dtd">
<svg version="1.1" id="Capa_1" xmlns="http://www.w3.org/2000/svg" xmlns:xlink="http://www.w3.org/1999/xlink" x="0px" y="0px"
	 width="960px" height="560px" viewBox="0 0 960 560" enable-background="new 0 0 960 560" xml:space="preserve">
<g>
	<path fill="#FFFFFF" d="M173.131,310.728h-38.92l23.516-166.625c0.809-4.459-2.434-8.109-6.893-8.109s-8.918,3.65-9.73,8.109
		l-2.029,12.568h-12.16l2.025-12.568c3.242-18.652,19.865-33.649,38.516-33.649c15.406,0,23.92,8.512,28.379,20.673
		c13.785-16.621,27.973-24.729,42.975-24.729c30,0,49.461,34.865,43.785,77.03c-6.084,42.567-35.678,77.433-65.271,77.433
		c-14.191,0-25.947-8.107-34.057-21.485L173.131,310.728z M191.375,183.428c-4.055,28.784,3.242,51.893,16.621,51.893
		c13.377,0,27.57-23.108,31.623-51.488c4.055-28.784-3.65-52.298-17.029-52.298C209.619,131.534,195.023,155.048,191.375,183.428z"
		/>
	<path fill="#FFFFFF" d="M387.164,232.888c-8.92,11.759-21.893,27.973-42.568,27.973c-21.082,0-35.676-17.025-32.432-38.108
		l10.945-78.649c0.809-4.459-2.434-8.109-6.893-8.109s-8.92,3.65-9.729,8.109l-2.029,12.568h-12.164l2.029-12.568
		c3.242-18.652,19.865-33.649,38.514-33.649c18.65,0,31.621,14.997,29.191,33.649l-10.947,76.624
		c-0.811,6.893,3.65,11.756,10.135,11.756c6.488,0,12.568-4.863,24.326-20.675l9.322-12.569l12.164-86.758h38.92l-16.217,114.326
		c-0.811,4.459,2.432,8.106,7.299,8.106c4.051,0,8.514-3.647,8.918-8.106l2.025-12.973h12.568l-2.025,12.973
		c-3.242,18.649-20.27,34.054-38.516,34.054c-18.244,0-31.621-14.595-29.596-32.433L387.164,232.888z"/>
	<path fill="#FFFFFF" d="M533.072,133.968c8.922-12.569,21.893-27.57,42.57-27.57c20.676,0,35.674,16.623,32.838,37.706
		l-12.162,82.704c-0.406,4.459,2.432,8.106,7.703,8.106c4.053,0,8.107-3.647,8.92-8.106l2.025-12.973h12.164l-2.029,12.973
		c-2.838,18.649-19.863,34.054-38.516,34.054c-18.646,0-31.621-15.404-29.188-34.054l11.758-80.678
		c0.811-6.485-3.65-11.756-10.137-11.756c-6.488,0-12.162,5.271-24.326,20.675l-10.135,13.378l-11.758,87.166h-38.92l15.408-111.489
		c0.811-4.459-2.434-8.109-6.893-8.109c-4.461,0-8.92,3.65-9.73,8.109l-2.027,12.568h-12.16l2.025-12.568
		c3.242-18.652,19.863-33.649,38.516-33.649c17.43,0,29.998,12.971,29.594,29.594L533.072,133.968z"/>
	<path fill="#FFFFFF" d="M658.279,239.375c-0.08,0-0.156-0.011-0.234-0.012c-0.057,0.002-0.117,0.012-0.174,0.012H658.279z"/>
	<path fill="#FFFFFF" d="M840.287,106.397c-25.586,0-50.283,18.786-63.869,45.603h-27.367c-0.453-3.682-1.367-7.262-2.797-10.737
		c6.08-4.862,12.568-12.279,14.188-23.632L763.686,94h-12.566l-1.215,11.824c-0.408,4.461-4.867,8.176-9.326,8.176
		c0,0-38.516,0-40.541,0c-30.406,0-58.787,21.943-62.436,49.106c-2.432,15.812,4.459,30.836,17.027,39.35
		c-6.893,3.243-12.162,10.148-12.971,17.85c-1.611,10.463,5.965,18.925,16.387,19.052c4.453-0.129,10.91-5.256,21.721-5.256
		c18.646,0,29.998,12.569,27.973,28.381c-2.025,15.811-19.461,28.381-38.92,28.381c-18.242,0-27.16-11.759-31.217-22.299
		l-17.838,9.323c2.434,13.381,20.678,34.056,54.73,34.056s66.084-27.973,70.949-62.028c2.836-22.296-6.486-39.324-23.111-48.65
		c5.938-3.792,11.119-8.266,15.336-13.265h28.326c-4.023,40.268,18.703,72.86,52.805,72.86c34.865,0,65.271-34.865,71.355-77.433
		C895.83,140.86,875.152,106.397,840.287,106.397z M871.205,163.039c-2.434,16.621-16.623,30.811-31.623,30.811
		c-10.793,0-19.188-6.966-22.418-16.85h-92.523c-5.941,9.946-16.082,16.968-26.631,16.968c-15.408,0-25.945-14.19-23.516-30.811
		c2.434-17.028,17.027-30.813,32.436-30.813c13.141,0,22.549,10.583,23.041,24.656h87.504c4.586-14.132,17.49-24.774,31.027-24.774
		C863.5,132.226,873.637,146.011,871.205,163.039z"/>
</g>
</svg>
