<?xml version="1.0" encoding="utf-8"?>
<!-- Generator: Adobe Illustrator 16.0.0, SVG Export Plug-In . SVG Version: 6.00 Build 0)  -->
<!DOCTYPE svg PUBLIC "-//W3C//DTD SVG 1.1//EN" "http://www.w3.org/Graphics/SVG/1.1/DTD/svg11.dtd">
<svg version="1.1" id="Capa_1" xmlns="http://www.w3.org/2000/svg" xmlns:xlink="http://www.w3.org/1999/xlink" x="0px" y="0px"
	 width="26.184px" height="26.184px" viewBox="0 0 26.184 26.184" enable-background="new 0 0 26.184 26.184" xml:space="preserve">
<path fill="#B3B3B3" d="M26.184,13.091c0-7.219-5.873-13.092-13.092-13.092S0,5.872,0,13.091c0,7.219,5.873,13.092,13.092,13.092
	S26.184,20.31,26.184,13.091z M12.731,19.882l-6.546-9.6c-0.051-0.074-0.076-0.16-0.076-0.246c0-0.07,0.017-0.141,0.051-0.203
	c0.076-0.145,0.225-0.233,0.387-0.233h13.091c0.163,0,0.312,0.089,0.386,0.233c0.076,0.143,0.065,0.315-0.025,0.449l-6.546,9.601
	c-0.081,0.119-0.215,0.19-0.36,0.19C12.948,20.073,12.813,20.002,12.731,19.882z"/>
</svg>
