<?xml version="1.0" encoding="utf-8"?>
<!-- Generator: Adobe Illustrator 16.0.0, SVG Export Plug-In . SVG Version: 6.00 Build 0)  -->
<!DOCTYPE svg PUBLIC "-//W3C//DTD SVG 1.1//EN" "http://www.w3.org/Graphics/SVG/1.1/DTD/svg11.dtd">
<svg version="1.1" id="Capa_1" xmlns="http://www.w3.org/2000/svg" xmlns:xlink="http://www.w3.org/1999/xlink" x="0px" y="0px"
	 width="77.094px" height="76.877px" viewBox="0 0 77.094 76.877" enable-background="new 0 0 77.094 76.877" xml:space="preserve">
<g>
	<g>
		<g>
			<path fill="#B3B3B3" d="M30.608,23.459l2.539,1.375l-1.141,1.908l-2.563-1.514l0.047,2.818h-2.189l0.023-2.842l-2.561,1.537
				l-1.117-1.908l2.537-1.375l-2.537-1.396l1.117-1.91l2.561,1.537l-0.023-2.84h2.189l-0.047,2.84l2.563-1.537l1.141,1.91
				L30.608,23.459z"/>
			<path fill="#B3B3B3" d="M41.181,23.459l2.537,1.375l-1.141,1.908l-2.561-1.514l0.047,2.818h-2.189l0.023-2.842l-2.563,1.537
				l-1.117-1.908l2.539-1.375l-2.539-1.396l1.117-1.91l2.563,1.537l-0.023-2.84h2.189l-0.047,2.84l2.561-1.537l1.141,1.91
				L41.181,23.459z"/>
			<path fill="#B3B3B3" d="M51.751,23.459l2.537,1.375l-1.141,1.908l-2.561-1.514l0.047,2.818h-2.189l0.023-2.842l-2.563,1.537
				l-1.117-1.908l2.539-1.375l-2.539-1.396l1.117-1.91l2.563,1.537l-0.023-2.84h2.189l-0.047,2.84l2.561-1.537l1.141,1.91
				L51.751,23.459z"/>
		</g>
		<path fill="#B3B3B3" d="M55.134,43.928c-0.561,0-1.009,0.447-1.009,1.008v9.172c0,2.494-2.03,4.518-4.519,4.518H27.485
			c-2.495,0-4.519-2.031-4.519-4.518v-9.32c0-0.561-0.448-1.01-1.009-1.01c-0.56,0-1.008,0.449-1.008,1.01v9.32
			c0,3.605,2.935,6.535,6.535,6.535h22.121c3.608,0,6.535-2.936,6.535-6.535v-9.172C56.142,44.383,55.694,43.928,55.134,43.928z"/>
		<path fill="#B3B3B3" d="M37.521,53.705c0.261,0.26,0.609,0.4,0.949,0.4c0.339,0,0.689-0.131,0.948-0.4l8.564-8.564
			c0.529-0.529,0.529-1.377,0-1.906s-1.377-0.529-1.906,0l-6.26,6.27V33.162c0-0.748-0.599-1.348-1.347-1.348
			c-0.749,0-1.348,0.6-1.348,1.348v16.342l-6.269-6.27c-0.529-0.529-1.378-0.529-1.906,0c-0.529,0.529-0.529,1.377,0,1.906
			L37.521,53.705z"/>
	</g>
	<path fill="#B3B3B3" d="M77.35,38.549c0.012-10.283-4.06-19.889-11.324-27.169S49.06,0.118,38.777,0.107
		c-21.247,0-38.537,17.27-38.56,38.477c-0.011,10.283,3.976,19.831,11.239,27.11c7.266,7.281,17.075,11.183,27.358,11.183h0.075l0,0
		H39C61,76.877,77.328,59.756,77.35,38.549z M4.699,38.641c0-18.748,15.253-34,34-34c18.748,0,34,15.252,34,34
		c0,18.748-15.252,34-34,34C19.952,72.641,4.699,57.389,4.699,38.641z"/>
</g>
</svg>
