<?xml version="1.0" encoding="utf-8"?>
<!-- Generator: Adobe Illustrator 16.0.0, SVG Export Plug-In . SVG Version: 6.00 Build 0)  -->
<!DOCTYPE svg PUBLIC "-//W3C//DTD SVG 1.1//EN" "http://www.w3.org/Graphics/SVG/1.1/DTD/svg11.dtd">
<svg version="1.1" id="Capa_1" xmlns="http://www.w3.org/2000/svg" xmlns:xlink="http://www.w3.org/1999/xlink" x="0px" y="0px"
	 width="77.094px" height="76.877px" viewBox="0 0 77.094 76.877" enable-background="new 0 0 77.094 76.877" xml:space="preserve">
<g>
	<g>
		<g>
			<path fill="#B3B3B3" d="M22.131,56.539h15.59V40.947h-15.59V56.539z M25.248,44.066h9.354v9.332h-9.354V44.066z"/>
			<rect x="28.369" y="47.186" fill="#B3B3B3" width="3.117" height="3.119"/>
			<rect x="47.076" y="53.422" fill="#B3B3B3" width="3.119" height="3.117"/>
			<rect x="53.311" y="53.422" fill="#B3B3B3" width="3.119" height="3.117"/>
			<polygon fill="#B3B3B3" points="53.311,44.066 50.195,44.066 50.195,40.947 40.838,40.947 40.838,56.539 43.957,56.539 
				43.957,47.186 47.076,47.186 47.076,50.305 56.43,50.305 56.43,40.947 56.43,40.947 53.311,40.947 			"/>
			<path fill="#B3B3B3" d="M22.131,37.833h15.59V22.241h-15.59V37.833z M25.248,25.359h9.354v9.354h-9.354V25.359z"/>
			<rect x="28.369" y="28.476" fill="#B3B3B3" width="3.117" height="3.118"/>
			<path fill="#B3B3B3" d="M40.838,22.241v15.592H56.43V22.241H40.838z M53.311,34.713h-9.354v-9.354h9.354V34.713z"/>
			<rect x="47.076" y="28.476" fill="#B3B3B3" width="3.119" height="3.118"/>
		</g>
	</g>
	<path fill="#B3B3B3" d="M77.707,38.548c0.012-10.281-3.881-19.889-11.145-27.168C59.297,4.101,49.684,0.118,39.402,0.108
		c-21.248,0-38.492,17.268-38.514,38.475C0.877,48.867,4.887,58.415,12.15,65.694c7.264,7.281,16.727,11.183,27.01,11.183h-0.27l0,0
		H39C61,76.877,77.686,59.755,77.707,38.548z M5.414,38.641c0-18.748,15.252-34,34-34s34,15.252,34,34c0,18.748-15.252,34-34,34
		S5.414,57.389,5.414,38.641z"/>
</g>
</svg>
