<?xml version="1.0" encoding="utf-8"?>
<!-- Generator: Adobe Illustrator 16.0.0, SVG Export Plug-In . SVG Version: 6.00 Build 0)  -->
<!DOCTYPE svg PUBLIC "-//W3C//DTD SVG 1.1//EN" "http://www.w3.org/Graphics/SVG/1.1/DTD/svg11.dtd">
<svg version="1.1" id="Capa_1" xmlns="http://www.w3.org/2000/svg" xmlns:xlink="http://www.w3.org/1999/xlink" x="0px" y="0px"
	 width="77.094px" height="76.877px" viewBox="0 0 77.094 76.877" enable-background="new 0 0 77.094 76.877" xml:space="preserve">
<g>
	<g>
		<g>
			<g>
				<rect x="40.439" y="27.838" fill="#B3B3B3" width="9.125" height="3.442"/>
				<path fill="#B3B3B3" d="M24.947,56.242v-33.74c0-0.949,0.773-1.722,1.721-1.722h24.607c0.949,0,1.721,0.772,1.721,1.722v16.863
					l3.443-3.541V22.502c0-2.849-2.316-5.165-5.164-5.165H26.668c-2.846,0-5.162,2.316-5.162,5.165v33.74
					c0,2.848,2.316,5.164,5.162,5.164h13.143l0.783-3.443H26.668C25.721,57.963,24.947,57.191,24.947,56.242z"/>
				<rect x="40.439" y="38.167" fill="#B3B3B3" width="9.125" height="3.443"/>
				<path fill="#B3B3B3" d="M58.25,38.9L46.684,50.795c-0.66,0.664-1.166,1.482-1.459,2.371l-0.027,0.08l-1.863,8.197l8.219-1.84
					l0.082-0.027c0.893-0.295,1.717-0.803,2.383-1.469l11.564-11.891L58.25,38.9z M51.576,55.68
					c-0.064,0.064-0.133,0.125-0.203,0.182l-2.432-2.434c0.059-0.072,0.119-0.143,0.186-0.207l9.16-9.42l2.455,2.451L51.576,55.68z"
					/>
				<polygon fill="#B3B3B3" points="37.084,34.619 32.871,39.396 30.773,37.428 28.416,39.938 33.104,44.338 39.666,36.895 				"/>
				<polygon fill="#B3B3B3" points="37.084,24.204 32.871,28.982 30.773,27.014 28.416,29.523 33.104,33.924 39.666,26.481 				"/>
				<polygon fill="#B3B3B3" points="30.773,47.756 28.416,50.268 33.104,54.668 39.666,47.225 37.084,44.947 32.871,49.725 				"/>
			</g>
		</g>
	</g>
	<path fill="#B3B3B3" d="M77.777,38.548c0.01-10.282-3.847-19.889-11.11-27.168C59.401,4.101,49.807,0.118,39.525,0.108
		c-21.248,0-38.485,17.268-38.507,38.475c-0.01,10.284,4.004,19.832,11.268,27.111c7.266,7.281,16.66,11.183,26.941,11.183h-0.337
		l0,0H39C61,76.877,77.756,59.755,77.777,38.548z M5.555,38.641c0-18.748,15.252-34,34-34s34,15.252,34,34c0,18.748-15.252,34-34,34
		S5.555,57.389,5.555,38.641z"/>
</g>
</svg>
