<?xml version="1.0" encoding="utf-8"?>
<!-- Generator: Adobe Illustrator 16.0.0, SVG Export Plug-In . SVG Version: 6.00 Build 0)  -->
<!DOCTYPE svg PUBLIC "-//W3C//DTD SVG 1.1//EN" "http://www.w3.org/Graphics/SVG/1.1/DTD/svg11.dtd">
<svg version="1.1" id="Capa_1" xmlns="http://www.w3.org/2000/svg" xmlns:xlink="http://www.w3.org/1999/xlink" x="0px" y="0px"
	 width="77.094px" height="76.877px" viewBox="0 0 77.094 76.877" enable-background="new 0 0 77.094 76.877" xml:space="preserve">
<g>
	<g>
		<path fill="#B3B3B3" d="M22.543,42.355l0.01,0.008c-0.614,0.67-0.997,1.551-0.997,2.527c0,2.07,1.68,3.75,3.75,3.75
			c1.095,0,2.07-0.475,2.755-1.223l0.011,0.008l10.984-11.984l10.987,11.984l0.01-0.008c0.683,0.748,1.658,1.223,2.753,1.223
			c2.07,0,3.75-1.68,3.75-3.75c0-0.977-0.383-1.857-0.995-2.527l0.011-0.008l-13.751-15c-0.712-0.771-1.712-1.215-2.765-1.215
			s-2.053,0.443-2.765,1.215L22.543,42.355z"/>
	</g>
	<path fill="#B3B3B3" d="M77.527,38.549c0.012-10.283-3.97-19.889-11.234-27.169S49.371,0.118,39.089,0.107
		c-21.247,0-38.515,17.27-38.537,38.477c-0.011,10.283,3.986,19.831,11.25,27.11c7.265,7.281,16.902,11.183,27.185,11.183h-0.096
		l0,0H39C60,76.877,77.506,59.756,77.527,38.549z M5.056,38.641c0-18.748,15.252-34,34-34c18.747,0,34,15.252,34,34
		c0,18.748-15.253,34-34,34C20.308,72.641,5.056,57.389,5.056,38.641z"/>
</g>
</svg>
