<?xml version="1.0" encoding="utf-8"?>
<!-- Generator: Adobe Illustrator 16.0.0, SVG Export Plug-In . SVG Version: 6.00 Build 0)  -->
<!DOCTYPE svg PUBLIC "-//W3C//DTD SVG 1.1//EN" "http://www.w3.org/Graphics/SVG/1.1/DTD/svg11.dtd">
<svg version="1.1" id="Capa_1" xmlns="http://www.w3.org/2000/svg" xmlns:xlink="http://www.w3.org/1999/xlink" x="0px" y="0px"
	 width="77.094px" height="76.877px" viewBox="0 0 77.094 76.877" enable-background="new 0 0 77.094 76.877" xml:space="preserve">
<g>
	<g>
		<g>
			<path fill="#F15A24" d="M53.695,21.651c-0.826-0.287-1.727-0.287-2.553,0L20.34,32.364c-2.029,0.705-3.103,2.922-2.397,4.951
				c0.358,1.033,1.137,1.869,2.143,2.301l12.632,5.412l5.413,12.631c0.853,1.979,3.149,2.889,5.125,2.037
				c0.447-0.193,0.855-0.469,1.201-0.811c0.416-0.418,0.732-0.924,0.926-1.479l10.711-30.803
				C56.799,24.573,55.725,22.356,53.695,21.651z M42.932,56.552c-0.234,0.678-0.975,1.033-1.65,0.799
				c-0.344-0.119-0.623-0.379-0.768-0.715l-5.272-12.299l18.305-18.305L42.932,56.552z M33.409,42.503l-12.3-5.273
				c-0.496-0.203-0.811-0.699-0.783-1.234c0.008-0.539,0.357-1.014,0.869-1.18l30.518-10.617L33.409,42.503L33.409,42.503z"/>
		</g>
	</g>
	<path fill="#F15A24" d="M39.067-0.251C28.786-0.263,19.112,3.853,11.833,11.116C4.553,18.382,0.538,28.111,0.528,38.394
		c0,21.247,17.252,38.547,38.459,38.569c10.283,0.012,19.955-3.968,27.234-11.231c7.281-7.266,11.295-17.171,11.307-27.452
		l0.021-0.215l0,0L77.527,38C77.527,17,60.273-0.23,39.067-0.251z M39.028,72.493c-18.748,0-34-15.252-34-34s15.252-34,34-34
		c18.748,0,34,15.252,34,34S57.775,72.493,39.028,72.493z"/>
</g>
</svg>
