<?xml version="1.0" encoding="utf-8"?>
<!-- Generator: Adobe Illustrator 16.0.0, SVG Export Plug-In . SVG Version: 6.00 Build 0)  -->
<!DOCTYPE svg PUBLIC "-//W3C//DTD SVG 1.1//EN" "http://www.w3.org/Graphics/SVG/1.1/DTD/svg11.dtd">
<svg version="1.1" id="Capa_1" xmlns="http://www.w3.org/2000/svg" xmlns:xlink="http://www.w3.org/1999/xlink" x="0px" y="0px"
	 width="26.184px" height="26.184px" viewBox="0 0 26.184 26.184" enable-background="new 0 0 26.184 26.184" xml:space="preserve">
<path fill="#B3B3B3" d="M0,13.092c0,7.219,5.873,13.092,13.092,13.092s13.092-5.873,13.092-13.092S20.311,0,13.092,0
	S0,5.873,0,13.092z M13.452,6.301l6.546,9.6c0.051,0.074,0.076,0.16,0.076,0.246c0,0.07-0.017,0.141-0.051,0.203
	c-0.076,0.145-0.225,0.233-0.387,0.233H6.546c-0.163,0-0.312-0.089-0.386-0.233c-0.076-0.143-0.065-0.315,0.025-0.449L12.731,6.3
	c0.081-0.119,0.215-0.19,0.36-0.19C13.235,6.109,13.371,6.181,13.452,6.301z"/>
</svg>
