<?xml version="1.0" encoding="utf-8"?>
<!-- Generator: Adobe Illustrator 16.0.0, SVG Export Plug-In . SVG Version: 6.00 Build 0)  -->
<!DOCTYPE svg PUBLIC "-//W3C//DTD SVG 1.1//EN" "http://www.w3.org/Graphics/SVG/1.1/DTD/svg11.dtd">
<svg version="1.1" id="Capa_1" xmlns="http://www.w3.org/2000/svg" xmlns:xlink="http://www.w3.org/1999/xlink" x="0px" y="0px"
	 width="77.094px" height="76.877px" viewBox="0 0 77.094 76.877" enable-background="new 0 0 77.094 76.877" xml:space="preserve">
<g>
	<g>
		<g id="settings_1_">
			<path fill="#B3B3B3" d="M54.188,41.613c0-0.637,0.212-1.271,0.212-2.119c0-0.845,0-1.482-0.212-2.119l4.449-3.602
				c0.424-0.424,0.424-0.848,0.212-1.27l-4.237-7.416c-0.212-0.213-0.636-0.422-1.272-0.213l-5.296,2.121
				c-1.059-0.848-2.33-1.484-3.601-2.121l-0.849-5.508c0.212-0.635-0.424-1.059-0.847-1.059h-8.475c-0.424,0-1.06,0.424-1.06,0.85
				l-0.847,5.717c-1.271,0.426-2.331,1.273-3.603,2.121l-5.084-2.121c-0.636-0.209-1.06,0-1.483,0.426l-4.237,7.416
				c-0.212,0.209,0,0.848,0.424,1.27l4.449,3.389c0,0.637-0.212,1.273-0.212,2.119c0,0.848,0,1.482,0.212,2.119l-4.449,3.602
				c-0.424,0.424-0.424,0.848-0.212,1.271l4.237,7.416c0.212,0.211,0.636,0.422,1.271,0.211l5.296-2.119
				c1.06,0.848,2.331,1.482,3.602,2.119l0.848,5.508c0,0.424,0.424,0.85,1.06,0.85h8.475c0.423,0,1.06-0.426,1.06-0.85l0.846-5.508
				c1.272-0.637,2.543-1.271,3.604-2.119l5.295,2.119c0.425,0.211,1.061,0,1.272-0.422l4.236-7.416
				c0.212-0.426,0.212-1.061-0.211-1.273L54.188,41.613z M38.51,46.91c-4.025,0-7.415-3.391-7.415-7.416
				c0-4.025,3.39-7.414,7.415-7.414s7.415,3.389,7.415,7.414C45.925,43.52,42.535,46.91,38.51,46.91z"/>
		</g>
	</g>
	<path fill="#B3B3B3" d="M77.359,38.548c0.012-10.281-4.055-19.889-11.318-27.168C58.776,4.101,49.078,0.118,38.795,0.108
		c-21.247,0-38.535,17.268-38.558,38.475C0.227,48.867,4.213,58.415,11.477,65.694c7.265,7.281,17.064,11.183,27.348,11.183h0.066
		l0,0H39C60,76.877,77.338,59.755,77.359,38.548z M4.72,38.641c0-18.748,15.252-34,34-34c18.747,0,34,15.252,34,34
		c0,18.748-15.253,34-34,34C19.972,72.641,4.72,57.389,4.72,38.641z"/>
</g>
</svg>
