<?xml version="1.0" encoding="utf-8"?>
<!-- Generator: Adobe Illustrator 16.0.0, SVG Export Plug-In . SVG Version: 6.00 Build 0)  -->
<!DOCTYPE svg PUBLIC "-//W3C//DTD SVG 1.1//EN" "http://www.w3.org/Graphics/SVG/1.1/DTD/svg11.dtd">
<svg version="1.1" id="Capa_1" xmlns="http://www.w3.org/2000/svg" xmlns:xlink="http://www.w3.org/1999/xlink" x="0px" y="0px"
	 width="77.094px" height="76.877px" viewBox="0 0 77.094 76.877" enable-background="new 0 0 77.094 76.877" xml:space="preserve">
<g>
	<g>
		<path fill="#B3B3B3" d="M39.867,17.268c7.806,0,15.609,5.27,15.543,15.742v12.074c0.066,10.539-7.737,15.809-15.543,15.809
			c-7.804,0-15.609-5.27-15.476-15.809V33.01C24.258,22.538,32.063,17.268,39.867,17.268z M39.801,21.603
			c-5.403,0-10.873,3.202-10.807,11.407v12.074c-0.066,7.871,5.403,11.475,10.807,11.475c5.47,0,11.007-3.203,10.94-11.475V33.01
			C50.808,24.805,45.271,21.603,39.801,21.603z"/>
	</g>
	<path fill="#B3B3B3" d="M77.744,38.548c0.011-10.282-3.863-19.889-11.127-27.168C59.352,4.101,49.75,0.118,39.467,0.108
		c-21.247,0-38.488,17.268-38.51,38.475c-0.011,10.284,4,19.832,11.264,27.111c7.265,7.281,16.692,11.183,26.975,11.183h-0.305l0,0
		H39C61,76.877,77.722,59.755,77.744,38.548z M5.487,38.641c0-18.748,15.253-34,34-34c18.748,0,34,15.252,34,34
		c0,18.748-15.252,34-34,34C20.74,72.641,5.487,57.389,5.487,38.641z"/>
</g>
</svg>
