<?xml version="1.0" encoding="utf-8"?>
<!-- Generator: Adobe Illustrator 16.0.0, SVG Export Plug-In . SVG Version: 6.00 Build 0)  -->
<!DOCTYPE svg PUBLIC "-//W3C//DTD SVG 1.1//EN" "http://www.w3.org/Graphics/SVG/1.1/DTD/svg11.dtd">
<svg version="1.1" id="Capa_1" xmlns="http://www.w3.org/2000/svg" xmlns:xlink="http://www.w3.org/1999/xlink" x="0px" y="0px"
	 width="77.039px" height="77px" viewBox="0 0 77.039 77" enable-background="new 0 0 77.039 77" xml:space="preserve">
<g>
	<g>
		<g>
			<path fill="#B3B3B3" d="M21.21,56.398H36.8V40.807H21.21V56.398z M24.327,43.926h9.354v9.331h-9.354V43.926z"/>
			<rect x="27.448" y="47.045" fill="#B3B3B3" width="3.117" height="3.119"/>
			<rect x="46.155" y="53.28" fill="#B3B3B3" width="3.119" height="3.118"/>
			<rect x="52.39" y="53.28" fill="#B3B3B3" width="3.119" height="3.118"/>
			<polygon fill="#B3B3B3" points="52.39,43.926 49.274,43.926 49.274,40.807 39.917,40.807 39.917,56.398 43.036,56.398 
				43.036,47.045 46.155,47.045 46.155,50.164 55.509,50.164 55.509,40.807 55.509,40.807 52.39,40.807 			"/>
			<path fill="#B3B3B3" d="M21.21,37.691H36.8V22.1H21.21V37.691z M24.327,25.218h9.354v9.354h-9.354V25.218z"/>
			<rect x="27.448" y="28.335" fill="#B3B3B3" width="3.117" height="3.118"/>
			<path fill="#B3B3B3" d="M39.917,22.1v15.592h15.592V22.1H39.917z M52.39,34.572h-9.354v-9.354h9.354V34.572z"/>
			<rect x="46.155" y="28.335" fill="#B3B3B3" width="3.119" height="3.118"/>
		</g>
	</g>
	<path fill="#B3B3B3" d="M77.039,38.539c0.014-10.281-4.007-19.955-11.271-27.234C58.503,4.025,48.826,0.01,38.545,0
		C17.297,0,0.021,17.252,0,38.459c-0.012,10.283,3.979,19.955,11.245,27.234C18.509,72.975,28.218,76.988,38.501,77l0.086-0.021l0,0
		V77C60.587,77,77.02,59.746,77.039,38.539z M4.493,38.5c0-18.748,15.252-34,34-34s34,15.252,34,34s-15.252,34-34,34
		S4.493,57.248,4.493,38.5z"/>
</g>
</svg>
