<?xml version="1.0" encoding="utf-8"?>
<!-- Generator: Adobe Illustrator 16.0.0, SVG Export Plug-In . SVG Version: 6.00 Build 0)  -->
<!DOCTYPE svg PUBLIC "-//W3C//DTD SVG 1.1//EN" "http://www.w3.org/Graphics/SVG/1.1/DTD/svg11.dtd">
<svg version="1.1" id="Capa_1" xmlns="http://www.w3.org/2000/svg" xmlns:xlink="http://www.w3.org/1999/xlink" x="0px" y="0px"
	 width="77.094px" height="76.877px" viewBox="0 0 77.094 76.877" enable-background="new 0 0 77.094 76.877" xml:space="preserve">
<g>
	<g>
		<path fill="#333333" d="M35.317,21.975l-0.008,0.01c-0.67-0.613-1.551-0.996-2.527-0.996c-2.07,0-3.75,1.68-3.75,3.75
			c0,1.094,0.475,2.07,1.223,2.754l-0.008,0.012l11.984,10.984L30.247,49.475l0.008,0.01c-0.748,0.684-1.223,1.658-1.223,2.754
			c0,2.07,1.68,3.75,3.75,3.75c0.977,0,1.857-0.383,2.527-0.996l0.008,0.012l15-13.752c0.771-0.711,1.215-1.711,1.215-2.764
			s-0.443-2.053-1.215-2.766L35.317,21.975z"/>
	</g>
	<path fill="#333333" d="M38.993,76.682c10.281,0.012,19.955-3.83,27.234-11.094c7.279-7.266,11.295-16.854,11.305-27.137
		c0-21.246-17.252-38.479-38.459-38.5C28.79-0.061,19.118,3.953,11.839,11.216C4.558,18.482,0.544,27.852,0.532,38.133l0.052-0.256
		l0,0H0.532C0.532,58.877,17.786,76.66,38.993,76.682z M39.032,4.488c18.748,0,34,15.252,34,34s-15.252,34-34,34s-34-15.252-34-34
		S20.284,4.488,39.032,4.488z"/>
</g>
</svg>
