<?xml version="1.0" encoding="utf-8"?>
<!-- Generator: Adobe Illustrator 16.0.0, SVG Export Plug-In . SVG Version: 6.00 Build 0)  -->
<!DOCTYPE svg PUBLIC "-//W3C//DTD SVG 1.1//EN" "http://www.w3.org/Graphics/SVG/1.1/DTD/svg11.dtd">
<svg version="1.1" id="Capa_1" xmlns="http://www.w3.org/2000/svg" xmlns:xlink="http://www.w3.org/1999/xlink" x="0px" y="0px"
	 width="72.997px" height="64.308px" viewBox="0 0 72.997 64.308" enable-background="new 0 0 72.997 64.308" xml:space="preserve">
<g>
	<path fill="#333333" d="M41.145,57H10.301C7.026,57,3,54.107,3,50.834V19.149C6,20.394,8.075,20,10.301,20H59v6.715
		c0,0,0.62-0.008,0.67-0.008c1.303,0,2.33,0.127,4.33,0.332V17h-5v-7h-4V0H10.301C4.843,0,0,5.774,0,11.234v39.6
		C0,56.293,4.843,60,10.301,60h33.878C43.013,60,41.98,58,41.145,57z M55,17H12v-4h43V17z M10.301,5H52v5H7v6.833
		c-1-0.817-3.298-3.164-3.298-5.746C3.702,7.814,7.026,5,10.301,5z"/>
	<g>
		<path fill="#333333" d="M62.044,47.018h-2.891v-2.893c0-0.949-0.771-1.723-1.723-1.723c-0.953,0-1.723,0.773-1.723,1.723v2.893
			h-2.893c-0.949,0-1.721,0.773-1.721,1.723c0,0.953,0.771,1.725,1.721,1.725h2.893v2.891c0,0.951,0.77,1.723,1.723,1.723
			c0.951,0,1.723-0.771,1.723-1.723v-2.891h2.891c0.953,0,1.725-0.771,1.725-1.725C63.769,47.791,62.997,47.018,62.044,47.018z"/>
		<path fill="#333333" d="M57.431,33.176c-8.582,0-15.566,6.98-15.566,15.564s6.984,15.566,15.566,15.566
			c8.584,0,15.566-6.982,15.566-15.566S66.015,33.176,57.431,33.176z M57.431,60.861c-6.684,0-12.119-5.438-12.119-12.121
			c0-6.682,5.436-12.119,12.119-12.119S69.55,42.059,69.55,48.74C69.55,55.424,64.114,60.861,57.431,60.861z"/>
	</g>
</g>
</svg>
