<?xml version="1.0" encoding="utf-8"?>
<!-- Generator: Adobe Illustrator 16.0.0, SVG Export Plug-In . SVG Version: 6.00 Build 0)  -->
<!DOCTYPE svg PUBLIC "-//W3C//DTD SVG 1.1//EN" "http://www.w3.org/Graphics/SVG/1.1/DTD/svg11.dtd">
<svg version="1.1" id="Capa_1" xmlns="http://www.w3.org/2000/svg" xmlns:xlink="http://www.w3.org/1999/xlink" x="0px" y="0px"
	 width="69.943px" height="69.964px" viewBox="0 0 69.943 69.964" enable-background="new 0 0 69.943 69.964" xml:space="preserve">
<g>
	<g>
		<path fill="#FFFFFF" d="M0.016,33.963c-0.277,9.337,3.104,18.23,9.51,25.024c6.525,6.918,15.355,10.818,24.867,10.976
			c1.033,0.021,1.889-0.81,1.922-1.85c0.018-1.034-0.811-1.889-1.857-1.922c-8.488-0.149-16.357-3.623-22.178-9.8
			C0.455,43.878,1.037,24.089,13.561,12.278C26.086,0.467,45.875,1.048,57.686,13.575c11.811,12.525,11.23,32.313-1.297,44.123
			l-0.285,0.271l0.129-4.392c0.018-0.513-0.18-0.995-0.514-1.347c-0.336-0.357-0.795-0.569-1.316-0.596
			c-1.043-0.03-1.91,0.786-1.939,1.829l-0.275,8.93c-0.029,1.043,0.787,1.91,1.834,1.942l8.941,0.263
			c1.039,0.029,1.906-0.787,1.939-1.83c0.014-0.512-0.182-0.995-0.516-1.347c-0.334-0.354-0.795-0.568-1.316-0.596l-4.393-0.128
			l0.285-0.271c6.795-6.405,10.691-15.082,10.965-24.422c0.275-9.341-3.104-18.229-9.51-25.025
			C54.012,4.186,45.332,0.289,35.992,0.015c-9.34-0.274-18.223,3.116-25.016,9.522C4.184,15.943,0.289,24.623,0.016,33.963z"/>
		<g>
			<path fill="#FFFFFF" d="M22.861,35.033l3.873,2.098l-1.74,2.911l-3.908-2.31l0.072,4.3h-3.342l0.037-4.336l-3.906,2.346
				l-1.705-2.911l3.871-2.098l-3.871-2.131l1.705-2.913l3.906,2.345L17.816,28h3.342l-0.072,4.333l3.908-2.345l1.74,2.913
				L22.861,35.033z"/>
			<path fill="#FFFFFF" d="M38.99,35.033l3.869,2.098l-1.74,2.911l-3.906-2.31l0.072,4.3h-3.34l0.035-4.336l-3.908,2.346
				l-1.705-2.911l3.873-2.098l-3.873-2.131l1.705-2.913l3.908,2.345L33.945,28h3.34l-0.072,4.333l3.906-2.345l1.74,2.913
				L38.99,35.033z"/>
			<path fill="#FFFFFF" d="M55.113,35.033l3.871,2.098l-1.74,2.911l-3.906-2.31l0.072,4.3h-3.34l0.035-4.336l-3.908,2.346
				l-1.705-2.911l3.873-2.098l-3.873-2.131l1.705-2.913l3.908,2.345L50.07,28h3.34l-0.072,4.333l3.906-2.345l1.74,2.913
				L55.113,35.033z"/>
		</g>
	</g>
</g>
</svg>
