<?xml version="1.0" encoding="utf-8"?>
<!-- Generator: Adobe Illustrator 16.0.0, SVG Export Plug-In . SVG Version: 6.00 Build 0)  -->
<!DOCTYPE svg PUBLIC "-//W3C//DTD SVG 1.1//EN" "http://www.w3.org/Graphics/SVG/1.1/DTD/svg11.dtd">
<svg version="1.1" id="Capa_1" xmlns="http://www.w3.org/2000/svg" xmlns:xlink="http://www.w3.org/1999/xlink" x="0px" y="0px"
	 width="72.996px" height="64.308px" viewBox="0 0 72.996 64.308" enable-background="new 0 0 72.996 64.308" xml:space="preserve">
<g>
	<path fill="#FFFFFF" d="M41.144,57H10.3C7.025,57,3,54.107,3,50.834V19.149C6,20.394,8.074,20,10.3,20H59v6.715
		c0,0,0.62-0.008,0.67-0.008c1.303,0,2.33,0.127,4.33,0.332V17h-5v-7h-4V0H10.3C4.842,0,0,5.774,0,11.234v39.6
		C0,56.293,4.842,60,10.3,60h33.878C43.012,60,41.979,58,41.144,57z M55,17H12v-4h43V17z M10.3,5H52v5H7v6.833
		c-1-0.817-3.299-3.162-3.299-5.744C3.701,7.816,7.025,5,10.3,5z"/>
	<g>
		<path fill="#FFFFFF" d="M62.043,47.018h-2.891v-2.893c0-0.949-0.771-1.723-1.723-1.723c-0.953,0-1.723,0.773-1.723,1.723v2.893
			h-2.893c-0.949,0-1.721,0.773-1.721,1.723c0,0.953,0.771,1.725,1.721,1.725h2.893v2.891c0,0.951,0.77,1.723,1.723,1.723
			c0.951,0,1.723-0.771,1.723-1.723v-2.891h2.891c0.953,0,1.725-0.771,1.725-1.725C63.768,47.791,62.996,47.018,62.043,47.018z"/>
		<path fill="#FFFFFF" d="M57.43,33.176c-8.582,0-15.566,6.98-15.566,15.564s6.984,15.566,15.566,15.566
			c8.584,0,15.566-6.982,15.566-15.566S66.014,33.176,57.43,33.176z M57.43,60.861c-6.684,0-12.119-5.438-12.119-12.121
			c0-6.682,5.436-12.119,12.119-12.119s12.119,5.438,12.119,12.119C69.549,55.424,64.113,60.861,57.43,60.861z"/>
	</g>
</g>
</svg>
