<?xml version="1.0" encoding="utf-8"?>
<!-- Generator: Adobe Illustrator 16.0.0, SVG Export Plug-In . SVG Version: 6.00 Build 0)  -->
<!DOCTYPE svg PUBLIC "-//W3C//DTD SVG 1.1//EN" "http://www.w3.org/Graphics/SVG/1.1/DTD/svg11.dtd">
<svg version="1.1" id="Capa_1" xmlns="http://www.w3.org/2000/svg" xmlns:xlink="http://www.w3.org/1999/xlink" x="0px" y="0px"
	 width="408.492px" height="422.777px" viewBox="0 0 408.492 422.777" enable-background="new 0 0 408.492 422.777"
	 xml:space="preserve">
<g>
	<g>
		<path fill="#333333" d="M8.947,255.933c0-2.162-1.156-3.176-3.173-3.176H0v-15.586h16.307c6.785,0,9.237,3.03,9.237,7.071
			c0,1.733,0,2.888,0,2.888h0.288c0,0,6.209-11.69,23.383-11.69c19.916,0,32.762,15.731,32.762,38.536
			c0,23.381-14.434,38.536-33.771,38.536c-14.58,0-21.071-9.671-21.071-9.671H26.84c0,0,0.295,2.596,0.295,6.35v30.451H8.947
			V255.933z M44.887,297.067c10.102,0,18.619-8.227,18.619-22.805c0-14.001-7.506-23.092-18.334-23.092
			c-9.525,0-18.473,6.93-18.473,23.238C26.699,285.81,32.76,297.067,44.887,297.067z"/>
		<path fill="#333333" d="M90.574,255.933c0-2.162-1.153-3.176-3.174-3.176h-5.773v-15.586h17.465c6.783,0,9.668,3.03,9.668,9.67
			v33.918c0,8.949,2.309,15.008,11.404,15.008c13.279,0,20.639-11.689,20.639-24.824v-33.771h18.326v54.989
			c0,2.021,1.158,3.175,3.178,3.175h5.773v15.442h-16.887c-6.353,0-9.668-3.03-9.668-8.228v-2.02c0-1.731,0.141-3.318,0.141-3.318
			h-0.288c-3.464,7.648-12.698,15.3-25.397,15.3c-15.734,0-25.406-7.938-25.406-28.001V255.933z"/>
		<path fill="#333333" d="M173.273,255.933c0-2.162-1.158-3.176-3.176-3.176h-5.775v-15.586h16.888c6.491,0,9.671,3.03,9.671,8.227
			v2.165c0,1.586-0.294,3.175-0.294,3.175h0.294c3.174-6.207,11.109-15.298,25.975-15.298c16.311,0,25.691,8.515,25.691,28.001
			v28.72c0,2.021,1.154,3.175,3.177,3.175h5.772v15.442h-17.465c-6.924,0-9.813-2.888-9.813-9.813v-33.771
			c0-8.949-2.312-15.01-11.549-15.01c-9.811,0-17.172,6.207-19.769,15.01c-1.012,3.029-1.445,6.35-1.445,9.813v33.772h-18.183
			V255.933z"/>
		<path fill="#333333" d="M282.64,235.439c17.029,0,22.658,10.393,22.658,10.393h0.288c0,0,0-0.868,0-1.878
			c0-3.32,2.311-6.783,8.083-6.783h17.03v15.586h-5.627c-1.877,0-3.176,1.014-3.176,2.888v50.659
			c0,25.258-19.627,34.785-38.822,34.785c-9.24,0-19.054-2.599-26.125-6.353l5.627-14.433c0,0,9.096,4.908,20.352,4.908
			c11.112,0,20.783-4.764,20.783-18.04v-3.466c0-1.732,0.143-3.898,0.143-3.898h-0.289c-4.328,6.208-10.679,9.529-20.49,9.529
			c-21.074,0-33.055-17.034-33.055-37.238C250.02,251.894,261.423,235.439,282.64,235.439z M304.145,272.243
			c0-16.742-8.37-21.217-18.33-21.217c-11.115,0-17.177,8.084-17.177,20.493c0,12.849,6.497,22.374,18.331,22.374
			C295.774,293.894,304.145,288.841,304.145,272.243z"/>
		<path fill="#333333" d="M368.078,235.439c22.517,0,40.414,16.021,40.414,38.536c0,22.658-17.897,38.536-40.414,38.536
			c-22.371,0-40.269-15.878-40.269-38.536C327.81,251.46,345.707,235.439,368.078,235.439z M368.078,296.921
			c11.979,0,21.939-9.236,21.939-22.945c0-13.566-9.96-22.949-21.939-22.949c-11.832,0-21.795,9.383-21.795,22.949
			C346.283,287.685,356.246,296.921,368.078,296.921z"/>
	</g>
	<g>
		<path fill="#FFFFFF" d="M54.72,422.069l-17.722-70.882h10.986l12.901,51.602l16.588-51.602h11.194l16.59,51.602l12.898-51.602
			h10.986l-17.719,70.882h-11.2l-17.151-53.516L65.92,422.069H54.72z"/>
		<path fill="#FFFFFF" d="M176.51,378.194c-0.145-4.631-1.869-8.599-5.178-11.907c-3.447-3.451-7.63-5.175-12.547-5.175
			c-4.912,0-9.096,1.724-12.545,5.175c-2.221,2.222-3.732,4.745-4.535,7.582l-9.641-4.82c1.369-3.776,3.592-7.205,6.661-10.276
			c5.53-5.531,12.216-8.292,20.06-8.292c7.845,0,14.531,2.761,20.061,8.292c5.531,5.527,8.291,12.217,8.291,20.061v43.236H176.51
			v-3.971c-5.061,3.119-10.967,4.679-17.725,4.679c-7.844,0-14.529-2.079-20.06-6.237c-5.526-4.158-8.292-9.165-8.292-15.025
			c0-5.859,1.891-10.22,5.67-13.076c3.781-2.861,7.205-4.574,10.281-5.143L176.51,378.194z M176.51,401.583v-12.828l-23.393,3.544
			c-3.734,0.567-6.676,1.523-8.826,2.871c-2.15,1.347-3.225,3.461-3.225,6.345c0,2.928,1.727,5.433,5.174,7.511
			c3.449,2.082,7.633,3.118,12.545,3.118c4.917,0,9.1-1.036,12.547-3.118C174.783,406.947,176.51,404.466,176.51,401.583z"/>
		<path fill="#FFFFFF" d="M194.229,401.515v-78.68h10.632v78.68c0,2.928,1.034,5.433,3.119,7.511
			c2.078,2.082,4.583,3.118,7.514,3.118h3.544l3.543,10.634h-7.087c-5.86,0-10.87-2.079-15.028-6.237
			S194.229,407.375,194.229,401.515z"/>
		<path fill="#FFFFFF" d="M226.196,401.515v-78.68h10.63v78.68c0,2.928,1.041,5.433,3.119,7.511
			c2.077,2.082,4.584,3.118,7.516,3.118h3.543l3.543,10.634h-7.086c-5.861,0-10.871-2.079-15.029-6.237
			S226.196,407.375,226.196,401.515z"/>
		<path fill="#FFFFFF" d="M251.949,390.882v-8.506c0-8.789,3.12-16.303,9.355-22.541c6.241-6.236,14.224-9.354,23.959-9.354
			c8.979,0,16.305,2.599,21.974,7.796c5.671,5.67,8.507,11.578,8.507,17.72v3.542l-50.043,22.543c0.852,1.322,1.891,2.6,3.117,3.826
			c4.16,4.158,9.641,6.236,16.445,6.236c6.049,0,10.867-1.32,14.461-3.967c3.258-2.742,5.41-5.388,6.449-7.939l9.57,4.82
			c-1.561,3.496-4.396,7.043-8.507,10.633c-5.669,4.725-12.994,7.087-21.974,7.087c-9.735,0-17.718-3.119-23.959-9.356
			C255.069,407.185,251.949,399.67,251.949,390.882z M262.582,382.376v9.498l42.103-18.287c-0.757-3.071-2.479-5.766-5.171-8.08
			c-3.451-2.929-8.201-4.395-14.25-4.395c-6.805,0-12.285,2.08-16.445,6.238C264.662,371.509,262.582,376.516,262.582,382.376z"/>
		<path fill="#FFFFFF" d="M327.252,351.188v-14.177h10.633v14.177h24.811v10.633h-24.811v39.694c0,2.928,1.039,5.433,3.119,7.511
			c2.078,2.082,4.584,3.118,7.514,3.118c2.881,0,5.34-0.991,7.372-2.976l4.958,9.642c-3.543,2.646-7.652,3.968-12.33,3.968
			c-5.859,0-10.869-2.079-15.027-6.237s-6.238-9.165-6.238-15.025V361.82h-10.635v-10.633H327.252z"/>
	</g>
	<g>
		<g>
			<polygon fill="#FFFFFF" points="155.902,65.109 124.512,127.878 187.287,127.878 			"/>
			<polygon fill="#FFFFFF" points="252.59,0.646 221.202,63.425 283.98,63.425 			"/>
			<polygon fill="#FFFFFF" points="220.359,65.109 188.971,127.878 251.75,127.878 			"/>
			<polygon fill="#FFFFFF" points="187.287,128.917 124.512,128.917 155.902,191.694 			"/>
			<polygon fill="#FFFFFF" points="283.98,64.465 221.202,64.465 252.59,127.233 			"/>
			<polygon fill="#FFFFFF" points="219.518,64.465 156.746,64.465 188.129,127.233 			"/>
			<polygon fill="#FFFFFF" points="251.75,0 188.971,0 220.359,62.78 			"/>
		</g>
		<g>
			<polygon opacity="0.25" fill="#F15A24" points="155.902,65.109 124.512,127.878 187.287,127.878 			"/>
			<polygon opacity="0.05" fill="#F15A24" points="252.59,0.646 221.202,63.425 283.98,63.425 			"/>
			<polygon opacity="0.15" fill="#F15A24" points="220.359,65.109 188.971,127.878 251.75,127.878 			"/>
			<polygon opacity="0.3" fill="#F15A24" points="187.287,128.917 124.512,128.917 155.902,191.694 			"/>
			<polygon opacity="0.1" fill="#F15A24" points="283.98,64.465 221.202,64.465 252.59,127.233 			"/>
			<polygon opacity="0.2" fill="#F15A24" points="219.518,64.465 156.746,64.465 188.129,127.233 			"/>
		</g>
	</g>
</g>
</svg>
