<?xml version="1.0" encoding="utf-8"?>
<!-- Generator: Adobe Illustrator 16.0.0, SVG Export Plug-In . SVG Version: 6.00 Build 0)  -->
<!DOCTYPE svg PUBLIC "-//W3C//DTD SVG 1.1//EN" "http://www.w3.org/Graphics/SVG/1.1/DTD/svg11.dtd">
<svg version="1.1" id="Capa_1" xmlns="http://www.w3.org/2000/svg" xmlns:xlink="http://www.w3.org/1999/xlink" x="0px" y="0px"
	 width="67.586px" height="59.398px" viewBox="0 0 67.586 59.398" enable-background="new 0 0 67.586 59.398" xml:space="preserve">
<g>
	<g>
		<g>
			<path fill="#FFFFFF" d="M63.623,27.72V15.839h-3.959v-7.92h-3.961V0H9.9C4.441,0,0,4.439,0,9.899v39.6
				c0,5.46,4.441,9.899,9.9,9.899h53.723V47.52h3.963v-19.8H63.623z M9.9,3.96h41.844v3.959H7.92v7.58
				c-2.305-0.818-3.961-3.019-3.961-5.6C3.959,6.625,6.625,3.96,9.9,3.96z M55.703,11.879v3.96H11.881v-3.96H55.703z M59.664,55.438
				H9.9c-3.275,0-5.941-2.665-5.941-5.939V17.814c1.656,1.245,3.715,1.984,5.941,1.984h49.764v7.921h-5.939
				c-5.459,0-9.9,4.44-9.9,9.898c0,5.46,4.441,9.901,9.9,9.901h5.939V55.438z M63.623,43.56h-9.898
				c-3.273,0-5.941-2.665-5.941-5.941c0-3.273,2.668-5.939,5.941-5.939h9.898V43.56z"/>
		</g>
	</g>
	<g>
		<g>
			<rect x="51.744" y="35.639" fill="#FFFFFF" width="3.959" height="3.961"/>
		</g>
	</g>
</g>
</svg>
