<?xml version="1.0" encoding="utf-8"?>
<!-- Generator: Adobe Illustrator 16.0.0, SVG Export Plug-In . SVG Version: 6.00 Build 0)  -->
<!DOCTYPE svg PUBLIC "-//W3C//DTD SVG 1.1//EN" "http://www.w3.org/Graphics/SVG/1.1/DTD/svg11.dtd">
<svg version="1.1" id="Capa_1" xmlns="http://www.w3.org/2000/svg" xmlns:xlink="http://www.w3.org/1999/xlink" x="0px" y="0px"
	 width="77.009px" height="77.008px" viewBox="0 0 77.009 77.008" enable-background="new 0 0 77.009 77.008" xml:space="preserve">
<g>
	<path fill="#B3B3B3" d="M77.009,38.539c0.012-10.281-3.988-19.955-11.253-27.234S48.824,0.01,38.541,0
		C17.294,0,0.022,17.252,0,38.459c-0.011,10.283,3.984,19.955,11.248,27.234C18.514,72.975,28.187,76.988,38.47,77l0.049,0.008l0,0
		V77C59.519,77,76.987,59.746,77.009,38.539z M4.5,38.5c0-18.748,15.252-34,34-34c18.747,0,34,15.252,34,34s-15.253,34-34,34
		C19.752,72.5,4.5,57.248,4.5,38.5z"/>
	<g>
		<path fill="#B3B3B3" d="M38.479,13.504c-10.541,0-19.118,8.576-19.118,19.119V50.27c0,2.432,1.979,4.412,4.411,4.412
			c2.434,0,4.412-1.98,4.412-4.412V35.563c0-2.432-1.979-4.41-4.412-4.41c-0.494,0-0.963,0.1-1.408,0.25
			c0.627-8.35,7.607-14.957,16.115-14.957c8.502,0,15.48,6.602,16.113,14.945c-0.442-0.15-0.914-0.238-1.408-0.238
			c-2.433,0-4.412,1.979-4.412,4.41V50.27c0,2.432,1.979,4.412,4.412,4.412c0.519,0,1.009-0.107,1.471-0.271v1.742
			c0,0.811-0.66,1.471-1.471,1.471H42.619c-0.609-1.709-2.227-2.941-4.141-2.941c-2.434,0-4.412,1.979-4.412,4.41
			c0,2.434,1.979,4.412,4.412,4.412c1.914,0,3.531-1.232,4.141-2.941h10.564c2.434,0,4.412-1.979,4.412-4.41
			c0-8.846,0-14.676,0-23.529C57.596,22.08,49.02,13.504,38.479,13.504z"/>
		<path fill="#B3B3B3" d="M60.537,34.363v17.105c1.707-0.609,2.941-2.227,2.941-4.141v-8.824
			C63.479,36.59,62.244,34.973,60.537,34.363z"/>
		<path fill="#B3B3B3" d="M13.479,38.504v8.824c0,1.914,1.232,3.531,2.941,4.141V34.363C14.711,34.973,13.479,36.59,13.479,38.504z"
			/>
	</g>
</g>
</svg>
