<?xml version="1.0" encoding="utf-8"?>
<!-- Generator: Adobe Illustrator 16.0.0, SVG Export Plug-In . SVG Version: 6.00 Build 0)  -->
<!DOCTYPE svg PUBLIC "-//W3C//DTD SVG 1.1//EN" "http://www.w3.org/Graphics/SVG/1.1/DTD/svg11.dtd">
<svg version="1.1" id="Capa_1" xmlns="http://www.w3.org/2000/svg" xmlns:xlink="http://www.w3.org/1999/xlink" x="0px" y="0px"
	 width="77.094px" height="76.877px" viewBox="0 0 77.094 76.877" enable-background="new 0 0 77.094 76.877" xml:space="preserve">
<g>
	<g>
		<g>
			<path fill="#B3B3B3" d="M36.868,40.523c0.694-1.647,1.283-2.938,1.767-3.875c0.362-0.693,0.702-1.279,1.02-1.756
				c0.317-0.475,0.702-0.939,1.155-1.393s0.975-0.793,1.564-1.02c0.588-0.227,1.245-0.34,1.971-0.34h5.8v4.35
				c0,0.195,0.071,0.365,0.215,0.51s0.313,0.215,0.51,0.215c0.211,0,0.385-0.068,0.521-0.203l7.25-7.25
				c0.137-0.137,0.204-0.311,0.204-0.521c0-0.213-0.067-0.385-0.204-0.521l-7.228-7.227c-0.181-0.152-0.362-0.227-0.544-0.227
				c-0.212,0-0.385,0.068-0.521,0.203c-0.136,0.137-0.203,0.309-0.203,0.521v4.35h-5.8c-1.027,0-1.994,0.125-2.9,0.375
				c-0.907,0.248-1.711,0.566-2.413,0.951c-0.703,0.385-1.383,0.9-2.04,1.551c-0.656,0.65-1.216,1.277-1.676,1.881
				c-0.461,0.604-0.944,1.359-1.45,2.266s-0.913,1.699-1.224,2.379c-0.31,0.68-0.683,1.518-1.121,2.516
				c-0.694,1.647-1.284,2.938-1.767,3.874c-0.363,0.695-0.703,1.281-1.02,1.756c-0.317,0.477-0.703,0.941-1.156,1.395
				s-0.975,0.793-1.563,1.02s-1.246,0.34-1.971,0.34h-5.075c-0.211,0-0.385,0.068-0.521,0.203c-0.135,0.137-0.203,0.311-0.203,0.521
				v4.35c0,0.213,0.068,0.385,0.204,0.521c0.137,0.137,0.311,0.203,0.521,0.203h5.075c1.027,0,1.993-0.123,2.9-0.373
				c0.906-0.25,1.71-0.566,2.412-0.951c0.703-0.385,1.382-0.902,2.039-1.553c0.657-0.648,1.217-1.275,1.677-1.881
				c0.461-0.604,0.944-1.359,1.45-2.266s0.914-1.699,1.224-2.379S36.43,41.52,36.868,40.523z"/>
			<path fill="#B3B3B3" d="M18.969,32.14h5.075c0.664,0,1.28,0.107,1.847,0.328c0.566,0.219,1.042,0.484,1.427,0.793
				c0.386,0.311,0.771,0.736,1.155,1.279c0.386,0.545,0.691,1.025,0.918,1.439c0.227,0.416,0.506,0.963,0.838,1.643
				c1.164-2.734,2.198-4.795,3.104-6.186c-2.417-3.398-5.514-5.098-9.289-5.098h-5.075c-0.212,0-0.386,0.068-0.521,0.205
				c-0.136,0.135-0.203,0.309-0.203,0.52v4.352c0,0.211,0.067,0.385,0.203,0.52C18.584,32.072,18.758,32.14,18.969,32.14z"/>
			<path fill="#B3B3B3" d="M51.413,41.791c-0.182-0.15-0.363-0.225-0.544-0.225c-0.212,0-0.386,0.068-0.521,0.203
				s-0.203,0.311-0.203,0.521v4.35h-5.801c-0.665,0-1.28-0.109-1.847-0.328s-1.042-0.484-1.427-0.793
				c-0.385-0.311-0.771-0.736-1.155-1.281c-0.386-0.543-0.691-1.023-0.918-1.438c-0.227-0.416-0.506-0.963-0.839-1.643
				c-1.162,2.719-2.189,4.779-3.08,6.184c0.407,0.59,0.83,1.115,1.268,1.576c0.438,0.459,0.854,0.863,1.246,1.211
				c0.394,0.348,0.839,0.65,1.337,0.906c0.499,0.256,0.937,0.471,1.314,0.646c0.379,0.174,0.854,0.313,1.428,0.418
				c0.574,0.105,1.058,0.186,1.45,0.238s0.929,0.09,1.608,0.113s1.23,0.029,1.653,0.023c0.423-0.008,1.035-0.016,1.836-0.023
				s1.442-0.012,1.926-0.012v4.352c0,0.195,0.072,0.365,0.215,0.51c0.144,0.143,0.313,0.215,0.51,0.215
				c0.212,0,0.386-0.068,0.521-0.205l7.251-7.25c0.136-0.135,0.203-0.309,0.203-0.52c0-0.213-0.067-0.387-0.204-0.521L51.413,41.791
				z"/>
		</g>
	</g>
	<path fill="#B3B3B3" d="M77.311,38.549c0.01-10.282-4.08-19.889-11.344-27.169C58.702,4.101,48.99,0.118,38.707,0.108
		c-21.247,0-38.541,17.269-38.563,38.476c-0.011,10.283,3.974,19.831,11.237,27.11c7.265,7.281,17.112,11.183,27.396,11.183h0.114
		l0,0H39C60,76.877,77.289,59.755,77.311,38.549z M4.62,38.641c0-18.748,15.252-34,34-34c18.747,0,34,15.252,34,34
		c0,18.748-15.253,34-34,34C19.872,72.641,4.62,57.389,4.62,38.641z"/>
</g>
</svg>
