<?xml version="1.0" encoding="utf-8"?>
<!-- Generator: Adobe Illustrator 16.0.0, SVG Export Plug-In . SVG Version: 6.00 Build 0)  -->
<!DOCTYPE svg PUBLIC "-//W3C//DTD SVG 1.1//EN" "http://www.w3.org/Graphics/SVG/1.1/DTD/svg11.dtd">
<svg version="1.1" id="Capa_1" xmlns="http://www.w3.org/2000/svg" xmlns:xlink="http://www.w3.org/1999/xlink" x="0px" y="0px"
	 width="77.094px" height="76.877px" viewBox="0 0 77.094 76.877" enable-background="new 0 0 77.094 76.877" xml:space="preserve">
<g>
	<path fill="#B3B3B3" d="M77.398,38.549C77.41,28.266,73.364,18.66,66.1,11.38S49.146,0.118,38.863,0.107
		c-21.247,0-38.531,17.27-38.553,38.477C0.3,48.867,4.289,58.415,11.553,65.694c7.264,7.281,17.026,11.183,27.31,11.183h0.028l0,0
		H39C60,76.877,77.377,59.756,77.398,38.549z M4.798,38.641c0-18.748,15.252-34,34-34c18.747,0,34,15.252,34,34
		c0,18.748-15.253,34-34,34C20.05,72.641,4.798,57.389,4.798,38.641z"/>
	<g>
		<g>
			<g>
				<path fill="#B3B3B3" d="M26.453,36.02c1.026,0,1.954-0.617,2.352-1.564c1.64-3.908,5.497-6.662,9.993-6.662
					c2.479,0,4.75,0.85,6.571,2.258l-1.428,0.223c-0.488,0.074-0.867,0.461-0.933,0.949c-0.066,0.49,0.197,0.963,0.646,1.168
					l7.853,3.531c0.344,0.152,0.742,0.125,1.06-0.08c0.316-0.205,0.509-0.555,0.511-0.932l0.041-8.65
					c0.003-0.492-0.317-0.928-0.788-1.07c-0.472-0.143-0.979,0.039-1.253,0.447l-1.082,1.627c-2.886-2.84-6.838-4.596-11.197-4.596
					c-6.609,0-12.292,4.037-14.716,9.773c-0.336,0.795-0.251,1.705,0.225,2.424C24.783,35.586,25.589,36.02,26.453,36.02z"/>
			</g>
			<g>
				<path fill="#B3B3B3" d="M53.288,42.414c-0.477-0.721-1.281-1.152-2.146-1.152c-1.027,0-1.954,0.615-2.352,1.563
					c-1.641,3.908-5.497,6.662-9.993,6.662c-2.479,0-4.75-0.848-6.571-2.258l1.428-0.221c0.487-0.074,0.866-0.463,0.933-0.951
					c0.066-0.49-0.197-0.963-0.646-1.166l-7.852-3.531c-0.344-0.154-0.742-0.125-1.06,0.078c-0.316,0.205-0.51,0.557-0.511,0.932
					l-0.041,8.65c-0.003,0.494,0.317,0.928,0.788,1.072c0.471,0.143,0.979-0.039,1.253-0.449l1.082-1.625
					c2.885,2.84,6.838,4.594,11.197,4.594c6.609,0,12.292-4.035,14.715-9.771C53.85,44.045,53.765,43.135,53.288,42.414z"/>
			</g>
		</g>
	</g>
</g>
</svg>
