<?xml version="1.0" encoding="utf-8"?>
<!-- Generator: Adobe Illustrator 16.0.0, SVG Export Plug-In . SVG Version: 6.00 Build 0)  -->
<!DOCTYPE svg PUBLIC "-//W3C//DTD SVG 1.1//EN" "http://www.w3.org/Graphics/SVG/1.1/DTD/svg11.dtd">
<svg version="1.1" id="Capa_1" xmlns="http://www.w3.org/2000/svg" xmlns:xlink="http://www.w3.org/1999/xlink" x="0px" y="0px"
	 width="77.094px" height="76.877px" viewBox="0 0 77.094 76.877" enable-background="new 0 0 77.094 76.877" xml:space="preserve">
<g>
	<g>
		<g>
			<path fill="#B3B3B3" d="M26.452,47.701h11.191V36.508H26.452V47.701z M28.689,38.748h6.715v6.698h-6.715V38.748z"/>
			<rect x="30.931" y="40.986" fill="#B3B3B3" width="2.237" height="2.238"/>
			<rect x="44.358" y="45.463" fill="#B3B3B3" width="2.24" height="2.238"/>
			<rect x="48.834" y="45.463" fill="#B3B3B3" width="2.239" height="2.238"/>
			<polygon fill="#B3B3B3" points="48.834,38.748 46.599,38.748 46.599,36.508 39.881,36.508 39.881,47.701 42.12,47.701 
				42.12,40.986 44.358,40.986 44.358,43.225 51.073,43.225 51.073,36.508 51.073,36.508 48.834,36.508 			"/>
			<path fill="#B3B3B3" d="M26.452,34.272h11.191V23.08H26.452V34.272z M28.689,25.318h6.715v6.716h-6.715V25.318z"/>
			<rect x="30.931" y="27.555" fill="#B3B3B3" width="2.237" height="2.238"/>
			<path fill="#B3B3B3" d="M39.881,23.08v11.192h11.192V23.08H39.881z M48.834,32.034H42.12v-6.716h6.714V32.034z"/>
			<rect x="44.358" y="27.555" fill="#B3B3B3" width="2.24" height="2.238"/>
		</g>
	</g>
	<g>
		<path fill="#B3B3B3" d="M58.974,36.586c-0.682,0-1.229,0.547-1.229,1.229V48.99c0,3.039-2.475,5.506-5.506,5.506H25.286
			c-3.039,0-5.506-2.475-5.506-5.506V37.634c0-0.684-0.545-1.229-1.229-1.229c-0.682,0-1.229,0.546-1.229,1.229V48.99
			c0,4.395,3.576,7.963,7.963,7.963h26.953c4.396,0,7.963-3.576,7.963-7.963V37.816C60.202,37.143,59.657,36.586,58.974,36.586z"/>
	</g>
	<path fill="#B3B3B3" d="M77.4,38.548c0.012-10.281-4.034-19.889-11.298-27.168C58.837,4.101,49.146,0.118,38.864,0.108
		c-21.248,0-38.53,17.268-38.552,38.475C0.301,48.867,4.292,58.415,11.556,65.694c7.264,7.281,17.024,11.183,27.308,11.183h0.027
		l0,0H39C61,76.877,77.379,59.755,77.4,38.548z M4.8,38.641c0-18.748,15.252-34,34-34s34,15.252,34,34c0,18.748-15.252,34-34,34
		S4.8,57.389,4.8,38.641z"/>
</g>
</svg>
