<?xml version="1.0" encoding="utf-8"?>
<!-- Generator: Adobe Illustrator 16.0.0, SVG Export Plug-In . SVG Version: 6.00 Build 0)  -->
<!DOCTYPE svg PUBLIC "-//W3C//DTD SVG 1.1//EN" "http://www.w3.org/Graphics/SVG/1.1/DTD/svg11.dtd">
<svg version="1.1" id="Capa_1" xmlns="http://www.w3.org/2000/svg" xmlns:xlink="http://www.w3.org/1999/xlink" x="0px" y="0px"
	 width="63.993px" height="64px" viewBox="0 0 63.993 64" enable-background="new 0 0 63.993 64" xml:space="preserve">
<g>
	<path fill="#F7931A" d="M63.036,39.74c-4.274,17.145-21.638,27.576-38.782,23.303C7.116,58.769-3.318,41.404,0.958,24.263
		C5.23,7.116,22.593-3.316,39.733,0.958C56.877,5.231,67.309,22.598,63.036,39.74z"/>
	<path fill="#FFFFFF" d="M46.105,27.441c0.638-4.258-2.604-6.547-7.038-8.074l1.438-5.768l-3.511-0.875l-1.4,5.616
		c-0.923-0.23-1.871-0.447-2.812-0.662l1.409-5.653l-3.509-0.875l-1.438,5.766c-0.765-0.174-1.515-0.346-2.242-0.527l0.004-0.018
		l-4.842-1.209l-0.935,3.75c0,0,2.605,0.597,2.55,0.634c1.423,0.355,1.68,1.296,1.637,2.042l-1.639,6.571
		c0.099,0.025,0.226,0.063,0.365,0.117c-0.117-0.029-0.242-0.061-0.371-0.092l-2.296,9.205c-0.174,0.432-0.615,1.079-1.608,0.834
		c0.034,0.051-2.553-0.638-2.553-0.638l-1.743,4.021l4.569,1.14c0.85,0.213,1.683,0.436,2.503,0.646l-1.453,5.834l3.507,0.875
		l1.438-5.773c0.958,0.261,1.888,0.5,2.798,0.728L27.5,50.799l3.511,0.875l1.453-5.822c5.986,1.133,10.489,0.676,12.384-4.738
		c1.527-4.359-0.076-6.875-3.226-8.516C43.917,32.067,45.644,30.559,46.105,27.441z M38.083,38.689
		c-1.085,4.359-8.426,2.004-10.807,1.412l1.929-7.729C31.585,32.967,39.217,34.144,38.083,38.689z M39.169,27.378
		c-0.99,3.966-7.101,1.951-9.082,1.457l1.748-7.01C33.817,22.319,40.201,23.241,39.169,27.378z"/>
		c-0.99,3.966-7.101,1.951-9.082,1.457l1.748-7.01C33.817,22.319,40.201,23.241,39.169,27.378z"/>
</g>
</svg>
