<svg id="svg" version="1.1" width="400" height="400" viewBox="0 0 400 400" xmlns="http://www.w3.org/2000/svg" xmlns:xlink="http://www.w3.org/1999/xlink" ><g id="svgg"><path id="path0" d="M189.750 37.670 C 187.534 37.856,186.001 37.997,185.250 38.082 C 184.883 38.124,184.133 38.202,183.583 38.255 C 183.033 38.309,181.496 38.503,180.167 38.688 C 178.838 38.873,177.525 39.025,177.250 39.027 C 176.606 39.031,173.446 39.551,170.832 40.084 C 169.708 40.313,168.585 40.500,168.337 40.500 C 168.089 40.500,166.513 40.839,164.834 41.254 C 163.156 41.669,161.536 42.040,161.235 42.079 C 160.934 42.117,159.614 42.464,158.302 42.850 C 156.990 43.236,155.804 43.549,155.667 43.545 C 155.529 43.542,154.442 43.871,153.250 44.278 C 152.058 44.684,150.858 45.042,150.583 45.072 C 150.308 45.103,149.258 45.442,148.250 45.827 C 147.242 46.211,146.304 46.531,146.167 46.538 C 146.029 46.545,145.204 46.846,144.333 47.208 C 143.462 47.569,142.525 47.920,142.250 47.989 C 141.975 48.057,141.002 48.433,140.087 48.823 C 139.172 49.214,138.310 49.556,138.170 49.583 C 138.030 49.610,137.353 49.893,136.666 50.212 C 135.979 50.531,135.229 50.848,135.000 50.917 C 134.545 51.052,132.253 52.123,129.959 53.271 C 129.158 53.672,128.424 54.000,128.329 54.000 C 128.233 54.000,127.560 54.337,126.833 54.750 C 126.106 55.163,125.407 55.500,125.278 55.500 C 125.150 55.500,124.866 55.639,124.647 55.810 C 124.429 55.980,123.612 56.456,122.833 56.867 C 120.829 57.924,119.766 58.540,119.648 58.713 C 119.592 58.795,119.498 58.855,119.440 58.848 C 119.139 58.807,119.003 58.854,118.783 59.074 C 118.651 59.206,118.102 59.552,117.563 59.843 C 117.024 60.135,116.176 60.643,115.678 60.973 C 115.180 61.303,114.675 61.587,114.556 61.604 C 114.437 61.622,114.228 61.748,114.091 61.885 C 113.954 62.022,113.559 62.306,113.213 62.517 C 112.867 62.727,112.528 62.978,112.461 63.075 C 112.394 63.171,112.337 63.187,112.336 63.110 C 112.334 63.034,111.851 63.315,111.262 63.735 C 110.672 64.156,110.122 64.500,110.038 64.500 C 109.954 64.500,109.667 64.692,109.401 64.926 C 109.135 65.161,108.710 65.463,108.458 65.597 C 108.206 65.732,108.000 65.927,108.000 66.032 C 108.000 66.137,107.952 66.174,107.894 66.116 C 107.775 65.998,106.961 66.525,106.352 67.115 C 106.134 67.327,105.856 67.500,105.736 67.500 C 105.616 67.500,105.313 67.689,105.063 67.921 C 104.813 68.153,104.022 68.765,103.304 69.281 C 102.587 69.798,102.000 70.283,102.000 70.360 C 102.000 70.437,101.900 70.500,101.778 70.500 C 101.656 70.500,101.225 70.802,100.820 71.171 C 100.415 71.540,99.840 71.961,99.542 72.107 C 99.244 72.252,99.000 72.427,99.000 72.495 C 99.000 72.563,98.400 73.090,97.667 73.667 C 96.933 74.243,96.333 74.779,96.333 74.857 C 96.333 74.936,96.240 75.001,96.125 75.002 C 96.010 75.003,95.542 75.356,95.083 75.786 C 94.625 76.216,94.198 76.572,94.134 76.576 C 94.070 76.580,93.732 76.862,93.384 77.202 C 93.035 77.543,92.513 78.030,92.223 78.286 C 89.729 80.485,89.156 81.011,88.500 81.706 C 88.087 82.143,87.697 82.500,87.633 82.500 C 87.481 82.500,82.500 87.481,82.500 87.633 C 82.500 87.697,82.143 88.087,81.706 88.500 C 81.011 89.156,80.485 89.729,78.286 92.223 C 78.030 92.513,77.543 93.035,77.202 93.384 C 76.862 93.732,76.580 94.070,76.576 94.134 C 76.572 94.198,76.216 94.625,75.786 95.083 C 75.356 95.542,75.003 96.010,75.002 96.125 C 75.001 96.240,74.936 96.333,74.857 96.333 C 74.779 96.333,74.243 96.933,73.667 97.667 C 73.090 98.400,72.567 99.000,72.504 99.000 C 72.441 99.000,72.285 99.206,72.156 99.458 C 72.028 99.710,71.603 100.281,71.211 100.726 C 70.820 101.172,70.500 101.640,70.500 101.768 C 70.500 101.896,70.437 102.000,70.360 102.000 C 70.283 102.000,69.802 102.582,69.290 103.292 C 68.778 104.003,68.166 104.809,67.930 105.084 C 67.694 105.359,67.500 105.667,67.500 105.769 C 67.500 105.871,67.327 106.134,67.115 106.352 C 66.525 106.961,65.998 107.775,66.116 107.894 C 66.174 107.952,66.137 108.000,66.032 108.000 C 65.927 108.000,65.732 108.206,65.597 108.458 C 65.463 108.710,65.161 109.135,64.926 109.401 C 64.692 109.667,64.500 109.954,64.500 110.038 C 64.500 110.122,64.156 110.672,63.735 111.262 C 63.315 111.851,63.034 112.334,63.110 112.336 C 63.187 112.337,63.171 112.394,63.075 112.461 C 62.978 112.528,62.727 112.867,62.517 113.213 C 62.306 113.559,62.022 113.954,61.885 114.091 C 61.748 114.228,61.622 114.436,61.605 114.554 C 61.588 114.671,61.219 115.305,60.787 115.962 C 60.354 116.619,60.000 117.216,60.000 117.290 C 60.000 117.364,59.733 117.830,59.407 118.325 C 59.081 118.820,58.799 119.306,58.782 119.404 C 58.764 119.503,58.708 119.621,58.657 119.667 C 58.528 119.782,57.756 121.147,56.867 122.833 C 56.456 123.612,55.980 124.429,55.810 124.647 C 55.639 124.866,55.500 125.150,55.500 125.278 C 55.500 125.407,55.162 126.106,54.750 126.833 C 54.337 127.560,54.000 128.233,54.000 128.329 C 54.000 128.424,53.672 129.158,53.271 129.959 C 52.123 132.253,51.052 134.545,50.917 135.000 C 50.848 135.229,50.531 135.979,50.212 136.666 C 49.893 137.353,49.610 138.030,49.583 138.170 C 49.556 138.310,49.214 139.172,48.823 140.087 C 48.433 141.002,48.057 141.975,47.989 142.250 C 47.920 142.525,47.569 143.462,47.208 144.333 C 46.846 145.204,46.546 146.029,46.540 146.167 C 46.533 146.304,46.178 147.341,45.749 148.471 C 45.321 149.601,45.009 150.564,45.055 150.611 C 45.102 150.658,44.780 151.758,44.340 153.056 C 43.900 154.354,43.543 155.529,43.546 155.667 C 43.549 155.804,43.236 156.990,42.850 158.302 C 42.464 159.614,42.117 160.934,42.079 161.235 C 42.040 161.536,41.669 163.156,41.254 164.834 C 40.839 166.513,40.500 168.089,40.500 168.337 C 40.500 168.585,40.313 169.708,40.084 170.832 C 39.551 173.446,39.031 176.606,39.027 177.250 C 39.025 177.525,38.873 178.838,38.688 180.167 C 38.503 181.496,38.309 183.033,38.255 183.583 C 38.202 184.133,38.124 184.883,38.082 185.250 C 37.999 185.981,37.887 187.205,37.672 189.750 C 37.445 192.431,37.541 211.042,37.782 211.122 C 37.892 211.158,37.940 211.295,37.891 211.425 C 37.772 211.734,38.074 214.943,38.604 219.000 C 38.837 220.787,39.030 222.512,39.032 222.833 C 39.037 223.445,39.996 228.920,40.410 230.693 C 40.542 231.260,40.615 231.782,40.571 231.853 C 40.528 231.923,40.831 233.382,41.246 235.095 C 41.661 236.807,42.000 238.358,42.000 238.540 C 42.000 238.722,42.337 239.988,42.750 241.351 C 43.162 242.715,43.500 243.973,43.500 244.146 C 43.500 244.319,43.844 245.490,44.264 246.747 C 44.684 248.005,45.062 249.219,45.103 249.446 C 45.144 249.673,45.479 250.659,45.846 251.637 C 46.214 252.616,46.556 253.679,46.607 254.000 C 46.657 254.321,46.754 254.658,46.822 254.750 C 46.890 254.842,47.106 255.329,47.301 255.833 C 47.497 256.337,47.746 256.975,47.855 257.250 C 47.964 257.525,48.038 257.844,48.019 257.958 C 48.001 258.073,48.068 258.167,48.169 258.167 C 48.270 258.167,48.309 258.239,48.254 258.327 C 48.200 258.414,48.231 258.621,48.323 258.785 C 48.648 259.363,49.446 261.264,49.569 261.752 C 49.637 262.024,50.017 262.898,50.413 263.695 C 50.809 264.492,51.098 265.180,51.054 265.224 C 51.011 265.267,51.318 265.963,51.738 266.771 C 52.157 267.579,52.500 268.348,52.500 268.479 C 52.500 268.610,52.838 269.302,53.250 270.018 C 53.663 270.733,54.000 271.424,54.000 271.554 C 54.000 271.685,54.341 272.358,54.757 273.051 C 55.174 273.745,55.547 274.476,55.585 274.677 C 55.624 274.877,55.958 275.524,56.328 276.114 C 56.697 276.703,57.000 277.278,57.000 277.390 C 57.000 277.502,57.337 278.116,57.749 278.755 C 58.161 279.394,58.499 279.992,58.500 280.083 C 58.501 280.175,58.839 280.773,59.251 281.412 C 59.663 282.051,60.000 282.631,60.000 282.702 C 60.000 282.772,60.338 283.323,60.750 283.926 C 61.163 284.528,61.500 285.115,61.500 285.229 C 61.500 285.344,61.649 285.597,61.831 285.793 C 62.014 285.989,62.515 286.734,62.945 287.449 C 63.375 288.165,63.901 288.962,64.113 289.221 C 64.326 289.480,64.500 289.790,64.500 289.909 C 64.500 290.028,64.606 290.214,64.735 290.321 C 64.865 290.428,65.402 291.169,65.929 291.967 C 66.457 292.764,67.062 293.594,67.275 293.812 C 67.487 294.029,67.631 294.257,67.593 294.318 C 67.555 294.379,67.818 294.763,68.176 295.173 C 68.535 295.582,68.829 295.960,68.831 296.013 C 68.834 296.148,70.332 298.062,70.531 298.185 C 70.621 298.241,70.689 298.354,70.681 298.435 C 70.673 298.517,70.959 298.921,71.317 299.333 C 71.675 299.746,71.969 300.145,71.972 300.220 C 71.974 300.295,72.300 300.719,72.696 301.162 C 73.092 301.605,73.494 302.069,73.588 302.192 C 74.693 303.635,77.719 307.151,77.923 307.229 C 78.068 307.285,78.144 307.402,78.091 307.488 C 78.037 307.574,78.333 307.928,78.747 308.274 C 79.161 308.621,79.500 308.997,79.500 309.110 C 79.500 309.224,79.837 309.599,80.250 309.944 C 80.662 310.288,81.000 310.623,81.000 310.688 C 81.000 310.849,89.157 319.000,89.318 319.000 C 89.390 319.000,89.765 319.376,90.153 319.836 C 90.540 320.295,90.914 320.636,90.983 320.594 C 91.053 320.551,91.390 320.851,91.732 321.261 C 92.075 321.671,92.423 321.964,92.505 321.913 C 92.588 321.862,92.752 321.979,92.870 322.173 C 92.987 322.367,94.096 323.355,95.333 324.368 C 96.571 325.382,97.643 326.314,97.717 326.439 C 97.790 326.564,97.944 326.667,98.059 326.667 C 98.174 326.667,98.582 326.978,98.967 327.359 C 99.352 327.740,99.667 328.000,99.667 327.936 C 99.667 327.813,99.676 327.821,100.819 328.834 C 101.223 329.193,101.617 329.447,101.694 329.400 C 101.771 329.352,101.833 329.380,101.833 329.462 C 101.833 329.543,102.168 329.851,102.578 330.145 C 102.987 330.439,103.419 330.770,103.536 330.881 C 103.654 330.992,103.942 331.182,104.176 331.303 C 104.410 331.423,104.883 331.779,105.227 332.094 C 105.571 332.409,105.930 332.667,106.024 332.667 C 106.119 332.667,106.501 332.927,106.873 333.245 C 107.244 333.563,107.612 333.784,107.691 333.735 C 107.769 333.687,107.833 333.708,107.834 333.782 C 107.834 333.856,108.159 334.122,108.556 334.373 C 108.953 334.623,109.414 334.980,109.581 335.164 C 109.748 335.349,110.009 335.500,110.161 335.500 C 110.313 335.500,110.583 335.633,110.760 335.796 C 111.314 336.304,112.167 336.863,112.169 336.720 C 112.171 336.645,112.227 336.662,112.294 336.757 C 112.362 336.853,112.773 337.153,113.208 337.424 C 113.643 337.695,114.000 337.967,114.000 338.028 C 114.000 338.089,114.338 338.268,114.750 338.426 C 115.163 338.583,115.500 338.777,115.500 338.856 C 115.500 338.935,115.578 339.000,115.673 339.000 C 115.871 339.000,116.888 339.685,116.972 339.875 C 117.003 339.944,117.137 340.000,117.270 340.000 C 117.504 340.000,118.331 340.461,118.500 340.687 C 118.546 340.748,119.071 341.043,119.667 341.343 C 120.263 341.644,121.124 342.139,121.581 342.445 C 122.038 342.750,122.498 343.000,122.602 343.000 C 122.836 343.000,124.337 343.824,124.637 344.118 C 124.758 344.236,125.050 344.381,125.287 344.441 C 125.524 344.500,126.298 344.875,127.008 345.274 C 127.717 345.674,128.374 346.000,128.466 346.000 C 128.559 346.000,129.088 346.256,129.642 346.569 C 130.542 347.078,131.343 347.426,131.458 347.358 C 131.481 347.345,132.006 347.601,132.625 347.927 C 133.244 348.253,134.422 348.788,135.243 349.116 C 136.064 349.444,137.069 349.890,137.476 350.106 C 137.883 350.323,138.322 350.500,138.451 350.500 C 138.580 350.500,139.000 350.641,139.384 350.814 C 139.769 350.987,140.430 351.285,140.853 351.475 C 141.277 351.666,141.914 351.892,142.270 351.979 C 142.626 352.065,143.654 352.442,144.556 352.818 C 145.457 353.193,146.283 353.500,146.390 353.500 C 146.497 353.500,147.371 353.800,148.334 354.167 C 149.296 354.534,150.346 354.879,150.667 354.934 C 150.987 354.988,152.150 355.331,153.250 355.694 C 154.350 356.057,155.475 356.386,155.750 356.424 C 156.025 356.462,157.150 356.766,158.250 357.100 C 159.350 357.434,160.662 357.783,161.167 357.875 C 161.671 357.967,163.283 358.330,164.750 358.682 C 166.217 359.034,168.129 359.431,169.000 359.565 C 170.312 359.765,173.795 360.400,175.500 360.750 C 175.729 360.797,176.667 360.905,177.583 360.991 C 178.500 361.077,180.862 361.335,182.833 361.566 C 189.086 362.296,190.560 362.373,199.167 362.421 C 208.123 362.471,210.977 362.330,217.833 361.500 C 219.438 361.306,221.492 361.074,222.398 360.985 C 223.305 360.896,225.442 360.556,227.148 360.230 C 228.854 359.903,230.745 359.572,231.350 359.493 C 231.955 359.414,233.680 359.041,235.183 358.664 C 236.687 358.288,238.067 357.974,238.250 357.967 C 238.433 357.960,239.729 357.627,241.130 357.227 C 242.530 356.827,243.812 356.500,243.978 356.500 C 244.144 356.500,245.286 356.161,246.515 355.746 C 247.744 355.332,248.938 354.966,249.167 354.934 C 249.396 354.902,250.435 354.560,251.476 354.174 C 252.518 353.787,253.568 353.439,253.810 353.400 C 254.227 353.331,254.714 353.149,256.250 352.487 C 256.617 352.329,257.233 352.115,257.619 352.012 C 258.005 351.908,258.968 351.526,259.760 351.162 C 260.552 350.798,261.298 350.500,261.418 350.500 C 261.538 350.500,262.358 350.162,263.241 349.750 C 264.124 349.337,264.923 349.000,265.018 349.000 C 265.112 349.000,265.915 348.652,266.803 348.227 C 267.691 347.801,269.129 347.118,270.000 346.709 C 272.241 345.655,274.015 344.780,275.000 344.242 C 275.229 344.117,276.129 343.631,277.000 343.163 C 280.187 341.448,281.455 340.726,281.912 340.367 C 282.168 340.165,282.442 340.000,282.521 340.000 C 282.599 340.000,283.175 339.672,283.800 339.271 C 284.426 338.870,285.088 338.494,285.273 338.436 C 285.457 338.377,285.752 338.197,285.929 338.034 C 286.106 337.872,286.550 337.561,286.917 337.344 C 287.283 337.127,287.985 336.679,288.475 336.349 C 288.965 336.020,289.572 335.637,289.823 335.500 C 290.075 335.362,290.573 335.021,290.932 334.741 C 291.290 334.461,291.966 333.991,292.434 333.697 C 292.902 333.403,293.418 333.015,293.581 332.835 C 293.745 332.655,293.932 332.542,293.999 332.583 C 294.066 332.624,294.449 332.362,294.852 332.002 C 295.254 331.641,295.771 331.249,296.000 331.131 C 296.229 331.013,296.513 330.826,296.630 330.715 C 296.748 330.604,297.179 330.272,297.589 329.978 C 297.998 329.684,298.333 329.377,298.333 329.295 C 298.333 329.214,298.394 329.184,298.467 329.230 C 298.541 329.275,298.883 329.055,299.227 328.740 C 299.570 328.424,299.905 328.167,299.970 328.167 C 300.035 328.167,300.499 327.792,301.000 327.333 C 301.501 326.875,301.987 326.499,302.081 326.497 C 302.174 326.496,302.544 326.196,302.904 325.831 C 303.264 325.465,303.658 325.167,303.779 325.167 C 303.901 325.167,304.000 325.106,304.000 325.031 C 304.000 324.957,304.881 324.153,305.958 323.245 C 307.035 322.337,308.217 321.316,308.583 320.975 C 311.206 318.541,312.377 317.412,314.895 314.895 C 317.412 312.377,318.541 311.206,320.975 308.583 C 321.316 308.217,322.337 307.035,323.245 305.958 C 324.153 304.881,324.957 304.000,325.031 304.000 C 325.106 304.000,325.167 303.901,325.167 303.779 C 325.167 303.658,325.465 303.264,325.831 302.904 C 326.196 302.544,326.496 302.174,326.497 302.081 C 326.499 301.987,326.875 301.501,327.333 301.000 C 327.792 300.499,328.167 300.035,328.167 299.970 C 328.167 299.905,328.424 299.570,328.740 299.227 C 329.055 298.883,329.275 298.541,329.230 298.467 C 329.184 298.394,329.214 298.333,329.295 298.333 C 329.377 298.333,329.684 297.998,329.978 297.589 C 330.272 297.179,330.604 296.748,330.715 296.630 C 330.826 296.513,331.013 296.229,331.131 296.000 C 331.249 295.771,331.641 295.254,332.002 294.852 C 332.362 294.449,332.621 294.061,332.576 293.988 C 332.531 293.916,332.572 293.808,332.668 293.749 C 332.878 293.620,334.167 291.891,334.167 291.739 C 334.167 291.680,334.410 291.327,334.708 290.956 C 335.006 290.584,335.362 290.075,335.500 289.823 C 335.637 289.572,336.020 288.965,336.349 288.475 C 336.679 287.985,337.127 287.283,337.344 286.917 C 337.561 286.550,337.872 286.106,338.034 285.929 C 338.197 285.752,338.377 285.457,338.436 285.273 C 338.494 285.088,338.870 284.426,339.271 283.800 C 339.672 283.175,340.000 282.599,340.000 282.521 C 340.000 282.442,340.165 282.168,340.367 281.912 C 340.726 281.455,341.448 280.187,343.163 277.000 C 343.631 276.129,344.117 275.229,344.242 275.000 C 344.780 274.015,345.655 272.241,346.709 270.000 C 347.118 269.129,347.801 267.691,348.227 266.803 C 348.652 265.915,349.000 265.112,349.000 265.018 C 349.000 264.923,349.337 264.124,349.750 263.241 C 350.162 262.358,350.500 261.538,350.500 261.418 C 350.500 261.298,350.798 260.552,351.162 259.760 C 351.526 258.968,351.908 258.005,352.012 257.619 C 352.115 257.233,352.329 256.617,352.487 256.250 C 353.149 254.714,353.331 254.227,353.400 253.810 C 353.439 253.568,353.787 252.518,354.174 251.476 C 354.560 250.435,354.902 249.396,354.934 249.167 C 354.966 248.938,355.332 247.744,355.746 246.515 C 356.161 245.286,356.500 244.144,356.500 243.978 C 356.500 243.812,356.827 242.530,357.227 241.130 C 357.627 239.729,357.960 238.433,357.967 238.250 C 357.974 238.067,358.288 236.687,358.664 235.183 C 359.041 233.680,359.414 231.955,359.493 231.350 C 359.572 230.745,359.903 228.854,360.230 227.148 C 360.556 225.442,360.896 223.305,360.985 222.398 C 361.074 221.492,361.306 219.438,361.500 217.833 C 362.330 210.977,362.471 208.123,362.421 199.167 C 362.373 190.560,362.296 189.086,361.566 182.833 C 361.335 180.862,361.077 178.500,360.991 177.583 C 360.905 176.667,360.798 175.729,360.752 175.500 C 360.706 175.271,360.586 174.633,360.486 174.083 C 360.386 173.533,360.123 172.158,359.902 171.026 C 359.681 169.894,359.500 168.713,359.500 168.401 C 359.500 168.089,359.427 167.833,359.339 167.833 C 359.250 167.833,359.213 167.739,359.257 167.625 C 359.301 167.510,359.069 166.328,358.742 165.000 C 358.414 163.671,358.045 162.058,357.922 161.417 C 357.677 160.146,357.582 159.789,356.927 157.667 C 356.687 156.887,356.459 156.025,356.422 155.750 C 356.385 155.475,356.057 154.350,355.694 153.250 C 355.331 152.150,354.988 150.987,354.934 150.667 C 354.879 150.346,354.534 149.296,354.167 148.334 C 353.800 147.371,353.500 146.500,353.500 146.396 C 353.500 146.186,352.423 143.408,352.170 142.967 C 352.081 142.811,351.966 142.444,351.914 142.152 C 351.862 141.859,351.682 141.312,351.512 140.935 C 351.343 140.558,351.046 139.898,350.852 139.467 C 350.659 139.037,350.500 138.594,350.500 138.482 C 350.500 138.370,350.230 137.710,349.899 137.014 C 349.569 136.319,349.144 135.337,348.956 134.833 C 348.767 134.329,348.326 133.372,347.976 132.707 C 347.626 132.041,347.337 131.441,347.335 131.373 C 347.322 131.080,347.101 130.583,346.553 129.616 C 346.231 129.048,345.944 128.471,345.915 128.333 C 345.886 128.196,345.556 127.529,345.181 126.852 C 344.806 126.175,344.500 125.535,344.500 125.430 C 344.500 125.326,344.163 124.717,343.751 124.078 C 343.339 123.439,343.002 122.808,343.001 122.676 C 343.000 122.458,342.700 121.944,341.807 120.632 C 341.638 120.383,341.500 120.106,341.500 120.016 C 341.500 119.846,340.839 118.646,340.665 118.500 C 340.512 118.372,339.746 117.083,339.822 117.083 C 339.919 117.083,338.992 115.635,338.724 115.367 C 338.601 115.244,338.500 115.012,338.500 114.853 C 338.500 114.693,338.358 114.411,338.185 114.225 C 338.012 114.039,337.479 113.256,337.001 112.485 C 336.523 111.714,336.068 111.043,335.989 110.994 C 335.911 110.945,335.732 110.631,335.592 110.297 C 335.453 109.963,335.258 109.640,335.160 109.579 C 335.062 109.519,334.587 108.857,334.103 108.110 C 333.620 107.362,333.099 106.647,332.945 106.521 C 332.792 106.395,332.667 106.195,332.667 106.077 C 332.667 105.958,332.329 105.465,331.917 104.982 C 331.504 104.499,331.167 104.005,331.167 103.885 C 331.167 103.765,331.110 103.665,331.042 103.663 C 330.973 103.661,330.622 103.249,330.263 102.746 C 329.903 102.244,329.542 101.833,329.461 101.833 C 329.380 101.833,329.352 101.771,329.400 101.694 C 329.447 101.617,329.193 101.223,328.834 100.819 C 327.821 99.676,327.813 99.667,327.936 99.667 C 328.000 99.667,327.740 99.352,327.359 98.967 C 326.978 98.582,326.664 98.189,326.661 98.092 C 326.658 97.996,326.358 97.619,325.995 97.254 C 325.631 96.890,325.333 96.546,325.333 96.489 C 325.333 96.432,325.141 96.167,324.905 95.901 C 324.670 95.635,324.027 94.879,323.477 94.222 C 322.927 93.565,322.370 92.986,322.239 92.935 C 322.107 92.885,322.000 92.735,322.000 92.602 C 322.000 92.468,321.700 92.103,321.333 91.789 C 320.967 91.475,320.667 91.136,320.667 91.036 C 320.667 90.935,320.294 90.539,319.837 90.154 C 319.381 89.769,319.039 89.405,319.076 89.345 C 319.114 89.284,318.399 88.532,317.489 87.673 C 316.578 86.814,315.833 86.054,315.833 85.983 C 315.833 85.799,314.126 84.076,313.986 84.119 C 313.921 84.139,313.204 83.446,312.392 82.579 C 311.581 81.711,310.846 81.002,310.760 81.001 C 310.674 81.000,310.224 80.621,309.760 80.158 C 307.907 78.307,307.579 77.998,307.465 77.999 C 307.399 77.999,306.987 77.651,306.548 77.224 C 306.109 76.798,304.719 75.624,303.458 74.616 C 302.198 73.608,301.167 72.719,301.167 72.642 C 301.167 72.564,301.062 72.500,300.934 72.500 C 300.807 72.500,300.659 72.387,300.606 72.248 C 300.553 72.110,300.437 72.016,300.350 72.040 C 300.262 72.064,299.941 71.854,299.637 71.574 C 299.114 71.093,297.072 69.542,295.868 68.712 C 295.566 68.504,295.121 68.150,294.879 67.926 C 294.637 67.701,294.387 67.550,294.323 67.590 C 294.259 67.629,294.029 67.487,293.812 67.275 C 293.594 67.062,292.827 66.492,292.106 66.009 C 291.385 65.526,290.651 65.008,290.476 64.857 C 290.300 64.707,290.140 64.621,290.120 64.666 C 290.081 64.754,289.069 64.076,288.693 63.710 C 288.569 63.590,288.232 63.372,287.943 63.225 C 287.653 63.078,286.953 62.630,286.387 62.229 C 285.820 61.828,285.244 61.500,285.105 61.500 C 284.966 61.500,284.807 61.426,284.752 61.336 C 284.696 61.246,284.110 60.859,283.450 60.476 C 282.790 60.093,281.867 59.524,281.399 59.212 C 280.931 58.900,280.443 58.628,280.316 58.607 C 280.086 58.571,279.646 58.317,278.485 57.552 C 278.155 57.335,277.714 57.124,277.503 57.084 C 277.293 57.043,277.000 56.908,276.852 56.783 C 276.402 56.403,275.010 55.649,274.619 55.574 C 274.417 55.535,274.226 55.428,274.195 55.335 C 274.164 55.242,274.047 55.167,273.935 55.167 C 273.822 55.167,273.294 54.904,272.762 54.583 C 272.229 54.262,271.658 54.000,271.494 54.000 C 271.329 54.000,271.169 53.944,271.139 53.875 C 271.049 53.673,265.448 51.000,265.115 51.000 C 264.997 51.000,264.298 50.705,263.561 50.343 C 262.824 49.982,262.005 49.632,261.740 49.566 C 261.289 49.453,259.392 48.661,258.831 48.352 C 258.693 48.276,258.132 48.083,257.584 47.924 C 257.037 47.765,256.118 47.421,255.543 47.160 C 254.968 46.900,254.283 46.652,254.020 46.611 C 253.758 46.570,252.705 46.229,251.681 45.853 C 250.656 45.478,249.641 45.138,249.426 45.099 C 249.210 45.060,248.005 44.684,246.747 44.264 C 245.490 43.844,244.319 43.500,244.146 43.500 C 243.973 43.500,242.715 43.163,241.351 42.750 C 239.988 42.337,238.722 42.000,238.540 42.000 C 238.358 42.000,236.807 41.661,235.095 41.246 C 233.382 40.831,231.923 40.528,231.853 40.571 C 231.782 40.615,231.264 40.543,230.701 40.412 C 228.729 39.952,224.241 39.151,223.250 39.082 C 222.700 39.044,220.787 38.825,219.000 38.596 C 214.869 38.067,211.728 37.774,211.425 37.891 C 211.295 37.940,211.158 37.892,211.122 37.782 C 211.045 37.551,192.333 37.452,189.750 37.670 M210.833 68.402 C 279.754 74.428,331.925 131.132,331.910 200.000 C 331.892 283.212,256.011 345.562,174.333 329.478 C 99.508 314.744,52.732 239.454,72.509 165.583 C 86.926 111.737,135.039 71.998,190.250 68.336 C 191.717 68.239,193.329 68.132,193.833 68.099 C 196.096 67.950,208.109 68.164,210.833 68.402 M202.708 118.958 C 205.160 118.984,209.173 118.984,211.625 118.958 C 214.077 118.932,212.071 118.911,207.167 118.911 C 202.262 118.911,200.256 118.932,202.708 118.958 M230.542 118.958 C 232.994 118.984,237.006 118.984,239.458 118.958 C 241.910 118.932,239.904 118.911,235.000 118.911 C 230.096 118.911,228.090 118.932,230.542 118.958 M165.083 133.167 L 137.417 133.251 165.032 133.292 C 183.306 133.319,192.682 133.277,192.750 133.167 C 192.807 133.075,192.830 133.018,192.802 133.041 C 192.773 133.063,180.300 133.120,165.083 133.167 M214.884 133.291 C 215.967 133.320,217.692 133.320,218.718 133.291 C 219.744 133.262,218.858 133.238,216.750 133.238 C 214.642 133.238,213.802 133.262,214.884 133.291 M275.583 147.667 C 276.035 148.125,276.442 148.500,276.487 148.500 C 276.533 148.500,276.201 148.125,275.750 147.667 C 275.299 147.208,274.892 146.833,274.846 146.833 C 274.800 146.833,275.132 147.208,275.583 147.667 M144.638 160.792 C 158.877 160.815,182.127 160.815,196.305 160.792 C 210.483 160.768,198.833 160.749,170.417 160.749 C 142.000 160.749,130.400 160.768,144.638 160.792 M236.917 167.000 C 237.368 167.458,237.775 167.833,237.821 167.833 C 237.867 167.833,237.535 167.458,237.083 167.000 C 236.632 166.542,236.225 166.167,236.179 166.167 C 236.133 166.167,236.465 166.542,236.917 167.000 M284.539 168.333 C 284.539 168.654,284.573 168.785,284.615 168.625 C 284.657 168.465,284.657 168.202,284.615 168.042 C 284.573 167.881,284.539 168.012,284.539 168.333 M284.545 172.833 C 284.545 173.246,284.578 173.415,284.618 173.208 C 284.657 173.002,284.657 172.665,284.618 172.458 C 284.578 172.252,284.545 172.421,284.545 172.833 M221.248 221.542 L 219.083 223.750 221.292 221.586 C 222.506 220.395,223.500 219.402,223.500 219.377 C 223.500 219.258,223.258 219.490,221.248 221.542 M217.991 224.625 L 217.417 225.250 218.042 224.676 C 218.623 224.141,218.743 224.000,218.616 224.000 C 218.588 224.000,218.307 224.281,217.991 224.625 M257.240 229.708 L 256.750 230.250 257.292 229.760 C 257.797 229.304,257.910 229.167,257.781 229.167 C 257.752 229.167,257.509 229.410,257.240 229.708 M254.491 232.625 L 253.917 233.250 254.542 232.676 C 255.123 232.141,255.243 232.000,255.116 232.000 C 255.088 232.000,254.807 232.281,254.491 232.625 M177.127 241.951 C 177.334 241.991,177.634 241.990,177.794 241.948 C 177.953 241.906,177.783 241.874,177.417 241.875 C 177.050 241.877,176.920 241.911,177.127 241.951 M170.500 242.207 C 170.500 242.277,171.006 242.323,171.625 242.311 C 172.791 242.287,172.661 242.217,171.292 242.131 C 170.856 242.103,170.500 242.138,170.500 242.207 M175.127 242.118 C 175.334 242.158,175.634 242.156,175.794 242.115 C 175.953 242.073,175.783 242.040,175.417 242.042 C 175.050 242.044,174.920 242.078,175.127 242.118 M121.542 270.448 C 121.702 270.490,121.965 270.490,122.125 270.448 C 122.285 270.406,122.154 270.372,121.833 270.372 C 121.513 270.372,121.381 270.406,121.542 270.448 M123.377 270.620 C 123.631 270.658,124.006 270.657,124.211 270.617 C 124.416 270.578,124.208 270.546,123.750 270.548 C 123.292 270.549,123.124 270.581,123.377 270.620 M125.960 270.785 C 126.168 270.824,126.468 270.823,126.627 270.781 C 126.786 270.739,126.617 270.707,126.250 270.709 C 125.883 270.711,125.753 270.745,125.960 270.785 M129.208 270.953 C 129.460 270.991,129.873 270.991,130.125 270.953 C 130.377 270.915,130.171 270.883,129.667 270.883 C 129.162 270.883,128.956 270.915,129.208 270.953 M133.542 271.123 C 133.977 271.157,134.690 271.157,135.125 271.123 C 135.560 271.088,135.204 271.060,134.333 271.060 C 133.462 271.060,133.106 271.088,133.542 271.123 M183.906 280.208 L 183.417 280.750 183.958 280.260 C 184.463 279.804,184.577 279.667,184.448 279.667 C 184.419 279.667,184.175 279.910,183.906 280.208 M163.810 281.210 C 163.879 281.279,168.019 281.317,173.010 281.293 L 182.083 281.250 172.883 281.167 C 167.823 281.121,163.740 281.140,163.810 281.210 M140.553 281.292 C 143.104 281.317,147.229 281.317,149.720 281.292 C 152.212 281.266,150.125 281.244,145.083 281.244 C 140.042 281.244,138.003 281.266,140.553 281.292 " stroke="none" fill="#0464cb" fill-rule="evenodd"></path><path id="path1" d="M399.875 199.875 L 399.833 399.833 199.875 399.875 L -0.083 399.917 199.880 399.958 C 359.728 399.992,399.860 399.958,399.923 399.792 C 399.966 399.677,399.983 309.658,399.959 199.750 L 399.917 -0.083 399.875 199.875 M312.667 82.800 C 312.667 82.873,312.979 83.229,313.361 83.591 L 314.054 84.250 313.409 83.458 C 312.742 82.641,312.667 82.574,312.667 82.800 M315.833 85.959 C 315.833 86.036,316.133 86.392,316.500 86.750 C 316.867 87.108,317.167 87.360,317.167 87.311 C 317.167 87.261,316.867 86.906,316.500 86.520 C 316.133 86.135,315.833 85.882,315.833 85.959 M196.753 122.792 C 194.785 127.901,193.368 131.592,193.024 132.500 L 192.740 133.250 164.661 133.333 C 133.839 133.425,136.185 133.343,134.561 134.385 C 133.154 135.287,133.033 135.468,128.628 143.250 C 127.850 144.625,126.426 147.137,125.463 148.833 C 124.501 150.529,123.014 153.154,122.160 154.667 C 121.306 156.179,120.208 158.113,119.720 158.964 C 119.232 159.815,118.833 160.545,118.833 160.587 C 118.833 160.628,142.365 160.683,171.125 160.709 C 229.580 160.761,224.386 160.649,228.386 161.940 C 240.835 165.956,244.647 175.936,239.683 191.516 C 231.582 216.940,210.696 235.806,185.093 240.826 C 180.827 241.662,170.944 242.667,170.579 242.301 C 170.543 242.265,171.003 240.963,171.603 239.409 C 172.202 237.855,172.904 236.021,173.162 235.333 C 173.421 234.646,174.081 232.921,174.628 231.500 C 177.915 222.975,178.890 220.440,181.166 214.500 C 182.553 210.879,183.864 207.467,184.079 206.917 C 184.294 206.367,185.073 204.342,185.810 202.417 C 186.548 200.492,187.671 197.567,188.306 195.917 C 194.829 178.984,194.834 178.969,194.830 178.030 C 194.823 176.620,194.014 175.289,192.750 174.609 L 192.083 174.250 175.328 174.205 L 158.573 174.160 157.678 176.372 C 156.062 180.368,150.493 194.058,150.000 195.250 C 149.734 195.892,148.423 199.117,147.085 202.417 C 145.748 205.717,144.435 208.942,144.168 209.583 C 143.901 210.225,142.590 213.450,141.255 216.750 C 139.920 220.050,138.533 223.463,138.173 224.333 C 137.812 225.204,136.422 228.617,135.083 231.917 C 132.785 237.579,131.784 240.033,130.664 242.750 C 130.400 243.392,129.351 245.979,128.333 248.500 C 127.316 251.021,126.267 253.608,126.003 254.250 C 125.098 256.444,124.023 259.084,122.337 263.250 C 121.410 265.542,120.398 268.016,120.088 268.748 C 119.778 269.481,119.550 270.106,119.582 270.138 C 119.751 270.307,128.202 270.834,133.500 271.007 C 136.846 271.116,139.602 271.221,139.625 271.241 C 139.668 271.279,138.790 273.626,136.958 278.375 L 135.881 281.167 145.112 281.167 C 156.848 281.167,155.983 281.464,157.719 276.833 C 158.722 274.159,160.153 270.458,160.203 270.412 C 160.229 270.388,161.862 270.206,163.833 270.008 C 165.804 269.810,167.585 269.606,167.792 269.556 C 168.299 269.431,168.424 269.029,166.000 275.333 C 164.808 278.433,163.833 281.014,163.833 281.068 C 163.833 281.366,182.256 281.157,182.917 280.851 C 184.216 280.249,184.372 279.950,187.110 272.807 C 188.528 269.109,189.748 266.022,189.822 265.948 C 189.895 265.873,191.671 265.375,193.769 264.842 C 229.205 255.831,254.341 238.672,269.710 213.000 C 289.766 179.498,289.562 155.547,269.111 142.554 C 262.340 138.252,251.517 134.816,241.860 133.903 C 240.407 133.766,240.424 134.040,241.671 130.833 C 242.153 129.596,242.863 127.758,243.250 126.750 C 245.705 120.352,245.678 120.478,244.767 119.567 L 244.200 119.000 235.111 119.000 L 226.022 119.000 225.908 119.375 C 225.808 119.704,224.936 121.998,221.650 130.583 C 221.194 131.775,220.759 132.862,220.684 133.000 C 220.570 133.209,219.922 133.257,216.755 133.295 L 212.962 133.340 213.076 132.888 C 213.179 132.476,215.796 125.567,217.029 122.453 C 217.652 120.877,217.606 120.152,216.836 119.458 L 216.328 119.000 207.271 119.000 L 198.214 119.000 196.753 122.792 M362.372 192.500 C 362.372 192.821,362.406 192.952,362.448 192.792 C 362.490 192.631,362.490 192.369,362.448 192.208 C 362.406 192.048,362.372 192.179,362.372 192.500 M318.407 311.236 C 318.229 311.366,318.128 311.517,318.182 311.571 C 318.236 311.625,318.416 311.518,318.582 311.334 C 318.936 310.943,318.864 310.902,318.407 311.236 M83.000 312.895 C 83.000 312.990,86.032 316.032,86.588 316.495 C 86.861 316.721,86.185 315.990,85.086 314.870 C 83.172 312.918,83.000 312.756,83.000 312.895 M311.148 318.542 C 310.953 318.915,310.953 318.915,311.309 318.599 C 311.706 318.246,311.743 318.167,311.506 318.167 C 311.417 318.167,311.257 318.335,311.148 318.542 M192.208 362.448 C 192.369 362.490,192.631 362.490,192.792 362.448 C 192.952 362.406,192.821 362.372,192.500 362.372 C 192.179 362.372,192.048 362.406,192.208 362.448 " stroke="none" fill="#fbfbfb" fill-rule="evenodd"></path><path id="path2" d="M193.833 68.099 C 193.329 68.132,191.717 68.239,190.250 68.336 C 147.957 71.141,108.715 95.399,86.526 132.452 C 62.333 172.855,61.820 224.422,85.207 265.250 C 128.753 341.272,232.412 354.921,293.838 292.721 C 346.924 238.967,344.267 151.993,288.000 101.616 C 266.499 82.365,239.979 70.950,210.833 68.402 C 208.109 68.164,196.096 67.950,193.833 68.099 M216.411 119.070 C 217.473 119.514,217.773 120.775,217.173 122.269 C 216.993 122.717,216.089 125.071,215.165 127.500 C 214.241 129.929,213.376 132.198,213.243 132.542 L 213.003 133.167 216.793 133.163 L 220.583 133.159 221.364 131.121 C 222.320 128.629,225.443 120.439,225.702 119.750 C 225.805 119.475,225.961 119.156,226.048 119.042 C 226.297 118.716,243.459 118.742,244.242 119.069 C 245.557 119.619,245.673 120.654,244.700 123.167 C 244.327 124.129,243.298 126.792,242.414 129.083 C 241.529 131.375,240.769 133.337,240.724 133.443 C 240.632 133.662,241.072 133.766,242.750 133.920 C 247.343 134.343,255.014 136.167,259.951 138.009 C 283.161 146.673,290.232 165.455,280.244 191.917 C 276.121 202.840,268.555 216.218,261.769 224.583 C 245.750 244.332,223.000 257.676,192.390 265.275 L 189.864 265.903 189.110 267.826 C 188.695 268.884,188.056 270.537,187.690 271.500 C 185.835 276.375,184.960 278.643,184.711 279.222 C 184.351 280.061,183.329 280.920,182.416 281.149 C 181.637 281.346,163.978 281.423,163.786 281.231 C 163.675 281.119,163.637 281.222,166.303 274.355 L 168.139 269.626 167.028 269.741 C 166.417 269.804,164.644 269.984,163.089 270.142 L 160.262 270.428 159.293 272.922 C 156.364 280.462,156.546 280.096,155.385 280.779 L 154.583 281.250 145.347 281.297 C 140.267 281.323,136.050 281.284,135.977 281.210 C 135.861 281.094,137.100 277.678,139.075 272.667 L 139.633 271.250 135.176 271.141 C 128.270 270.973,119.941 270.456,119.624 270.176 C 119.555 270.115,120.257 268.194,121.185 265.908 C 122.112 263.621,123.189 260.962,123.579 260.000 C 123.968 259.037,124.792 257.012,125.410 255.500 C 126.469 252.907,128.375 248.221,129.580 245.250 C 129.878 244.517,130.840 242.154,131.717 240.000 C 133.503 235.619,135.834 229.892,137.415 226.000 C 138.591 223.106,139.876 219.953,141.269 216.542 C 141.784 215.281,142.861 212.637,143.662 210.667 C 147.323 201.657,148.418 198.963,149.083 197.333 C 149.476 196.371,150.437 194.008,151.218 192.083 C 151.999 190.158,153.025 187.646,153.497 186.500 C 153.969 185.354,154.607 183.779,154.916 183.000 C 155.225 182.221,156.151 179.933,156.975 177.917 L 158.473 174.250 175.028 174.201 C 186.719 174.167,191.770 174.206,192.219 174.336 C 193.067 174.581,194.144 175.578,194.551 176.495 C 195.204 177.968,195.081 178.532,192.828 184.333 C 192.347 185.571,191.672 187.333,191.326 188.250 C 190.736 189.817,190.099 191.474,188.248 196.250 C 186.905 199.716,185.820 202.540,185.335 203.833 C 185.076 204.521,184.401 206.283,183.833 207.750 C 183.266 209.217,182.509 211.185,182.151 212.125 C 181.793 213.065,181.207 214.602,180.849 215.542 C 180.140 217.404,179.311 219.554,176.084 227.917 C 174.917 230.942,173.677 234.167,173.330 235.083 C 172.982 236.000,172.241 237.941,171.682 239.398 C 171.124 240.854,170.667 242.073,170.667 242.106 C 170.667 242.368,177.899 241.931,180.891 241.488 C 203.573 238.129,221.185 226.135,233.371 205.750 C 237.843 198.269,241.418 187.561,241.773 180.583 C 242.271 170.773,236.474 163.744,225.866 161.297 L 224.250 160.924 171.542 160.877 C 127.118 160.836,118.833 160.793,118.833 160.601 C 118.833 160.476,119.852 158.583,121.097 156.395 C 122.342 154.207,124.082 151.142,124.964 149.583 C 125.846 148.025,127.099 145.813,127.748 144.667 C 128.397 143.521,129.751 141.121,130.756 139.333 C 133.190 135.005,134.098 134.109,136.743 133.424 C 137.619 133.197,140.989 133.167,165.199 133.167 L 192.662 133.167 192.924 132.542 C 193.068 132.198,193.603 130.829,194.111 129.500 C 197.819 119.815,198.027 119.284,198.214 119.042 C 198.465 118.715,215.626 118.742,216.411 119.070 " stroke="none" fill="#042454" fill-rule="evenodd"></path></g></svg>