<svg id="svg" version="1.1" width="400" height="400" viewBox="0 0 400 400" xmlns="http://www.w3.org/2000/svg" xmlns:xlink="http://www.w3.org/1999/xlink" ><g id="svgg"><path id="path0" d="M185.352 48.873 C 85.387 58.242,21.661 161.104,58.030 254.387 C 98.047 357.029,229.496 384.036,307.305 305.601 C 311.001 301.876,314.121 298.828,314.239 298.828 C 314.357 298.828,314.453 310.605,314.453 325.000 L 314.453 351.172 333.203 351.172 L 351.953 351.172 351.953 284.961 L 351.953 218.750 285.742 218.750 L 219.531 218.750 219.531 237.500 L 219.531 256.250 258.594 256.250 C 280.078 256.250,297.656 256.395,297.656 256.571 C 297.656 258.372,287.114 272.248,280.871 278.663 C 220.983 340.211,117.585 316.191,91.029 234.563 C 69.115 167.205,114.140 96.236,184.712 86.898 C 241.366 79.402,296.392 116.977,309.585 172.168 L 310.262 175.000 329.350 175.000 C 348.194 175.000,348.438 174.990,348.438 174.217 C 348.437 173.786,347.917 170.976,347.280 167.972 C 331.462 93.348,261.313 41.753,185.352 48.873 " stroke="none" fill="#fbfbfb" fill-rule="evenodd"></path><path id="path1" d="M181.445 0.619 C 103.092 7.671,37.775 57.958,11.371 131.560 C -3.397 172.725,-4.008 221.220,9.717 262.813 C 33.976 336.335,96.303 387.656,175.000 398.911 L 181.055 399.777 290.527 399.896 L 400.000 400.015 400.000 295.593 C 400.000 227.387,399.860 189.350,399.596 185.918 C 391.064 74.860,291.952 -9.327,181.445 0.619 M216.602 48.996 C 283.400 57.134,338.505 109.031,348.636 173.344 L 348.898 175.007 329.480 174.906 L 310.061 174.805 308.772 170.117 C 285.602 85.922,180.806 57.956,119.097 119.501 C 83.209 155.293,75.417 211.349,100.236 255.183 C 142.520 329.863,249.851 332.710,295.114 260.352 L 297.313 256.836 258.325 256.641 L 219.336 256.445 219.336 237.500 L 219.336 218.555 285.742 218.555 L 352.148 218.555 352.247 284.863 L 352.346 351.172 333.204 351.172 L 314.063 351.172 314.063 325.012 L 314.063 298.852 310.117 303.148 C 239.339 380.237,110.659 361.695,63.675 267.637 C 16.412 173.022,79.082 58.688,183.594 48.855 C 186.064 48.623,188.789 48.363,189.648 48.279 C 193.292 47.920,211.817 48.413,216.602 48.996 " stroke="none" fill="#9bc31c" fill-rule="evenodd"></path><path id="path2" d="M195.020 48.338 C 197.329 48.407,201.108 48.407,203.418 48.338 C 205.728 48.269,203.838 48.213,199.219 48.213 C 194.600 48.213,192.710 48.269,195.020 48.338 M186.230 48.713 C 186.714 48.806,187.505 48.806,187.988 48.713 C 188.472 48.620,188.076 48.544,187.109 48.544 C 186.143 48.544,185.747 48.620,186.230 48.713 M210.844 48.714 C 211.330 48.807,212.033 48.804,212.407 48.706 C 212.780 48.608,212.383 48.532,211.523 48.536 C 210.664 48.540,210.358 48.620,210.844 48.714 M182.129 49.097 C 182.505 49.196,183.120 49.196,183.496 49.097 C 183.872 48.999,183.564 48.919,182.813 48.919 C 182.061 48.919,181.753 48.999,182.129 49.097 M214.941 49.097 C 215.317 49.196,215.933 49.196,216.309 49.097 C 216.685 48.999,216.377 48.919,215.625 48.919 C 214.873 48.919,214.565 48.999,214.941 49.097 M134.766 62.305 C 134.229 62.612,133.965 62.863,134.180 62.863 C 134.395 62.863,135.010 62.612,135.547 62.305 C 136.084 61.998,136.348 61.746,136.133 61.746 C 135.918 61.746,135.303 61.998,134.766 62.305 M128.027 65.652 C 127.222 66.077,126.563 66.512,126.563 66.619 C 126.563 66.725,127.266 66.454,128.125 66.016 C 128.984 65.577,129.688 65.134,129.688 65.031 C 129.688 64.776,129.685 64.777,128.027 65.652 M269.531 65.410 C 269.531 65.517,270.059 65.878,270.703 66.211 C 271.348 66.544,271.875 66.729,271.875 66.622 C 271.875 66.514,271.348 66.154,270.703 65.820 C 270.059 65.487,269.531 65.302,269.531 65.410 M282.031 72.778 C 282.031 72.869,282.778 73.436,283.691 74.038 C 284.604 74.640,285.145 74.883,284.893 74.578 C 284.409 73.991,282.031 72.496,282.031 72.778 M99.780 85.254 L 98.633 86.523 99.902 85.376 C 101.086 84.307,101.351 83.984,101.050 83.984 C 100.982 83.984,100.411 84.556,99.780 85.254 M195.996 86.228 C 197.769 86.301,200.669 86.301,202.441 86.228 C 204.214 86.156,202.764 86.097,199.219 86.097 C 195.674 86.097,194.224 86.156,195.996 86.228 M188.579 86.604 C 189.065 86.698,189.768 86.694,190.141 86.597 C 190.515 86.499,190.117 86.422,189.258 86.427 C 188.398 86.431,188.093 86.511,188.579 86.604 M208.501 86.604 C 208.987 86.698,209.690 86.694,210.063 86.597 C 210.437 86.499,210.039 86.422,209.180 86.427 C 208.320 86.431,208.015 86.511,208.501 86.604 M301.758 88.281 C 302.816 89.355,303.769 90.234,303.877 90.234 C 303.984 90.234,303.207 89.355,302.148 88.281 C 301.090 87.207,300.137 86.328,300.029 86.328 C 299.922 86.328,300.700 87.207,301.758 88.281 M95.496 89.160 L 93.164 91.602 95.605 89.270 C 96.948 87.988,98.047 86.889,98.047 86.829 C 98.047 86.540,97.661 86.892,95.496 89.160 M88.464 96.191 L 86.133 98.633 88.574 96.301 C 89.917 95.019,91.016 93.920,91.016 93.860 C 91.016 93.571,90.630 93.924,88.464 96.191 M310.352 96.875 C 311.410 97.949,312.363 98.828,312.471 98.828 C 312.578 98.828,311.800 97.949,310.742 96.875 C 309.684 95.801,308.731 94.922,308.623 94.922 C 308.516 94.922,309.293 95.801,310.352 96.875 M246.908 96.634 C 247.305 97.000,253.516 99.988,253.516 99.813 C 253.516 99.596,247.439 96.484,247.014 96.484 C 246.866 96.484,246.818 96.552,246.908 96.634 M147.949 98.072 C 146.714 98.710,145.703 99.319,145.703 99.426 C 145.703 99.600,150.352 97.388,150.749 97.024 C 151.260 96.556,149.900 97.065,147.949 98.072 M84.546 100.488 L 83.398 101.758 84.668 100.611 C 85.851 99.541,86.117 99.219,85.815 99.219 C 85.748 99.219,85.177 99.790,84.546 100.488 M312.891 99.732 C 312.891 99.799,313.462 100.370,314.160 101.001 L 315.430 102.148 314.282 100.879 C 313.213 99.696,312.891 99.430,312.891 99.732 M272.266 112.622 C 272.266 112.689,272.837 113.261,273.535 113.892 L 274.805 115.039 273.657 113.770 C 272.588 112.586,272.266 112.320,272.266 112.622 M323.828 113.672 C 324.287 114.316,324.750 114.844,324.858 114.844 C 324.965 114.844,324.678 114.316,324.219 113.672 C 323.760 113.027,323.296 112.500,323.189 112.500 C 323.082 112.500,323.369 113.027,323.828 113.672 M124.389 114.160 L 123.242 115.430 124.512 114.282 C 125.695 113.213,125.961 112.891,125.659 112.891 C 125.592 112.891,125.021 113.462,124.389 114.160 M73.528 114.746 C 72.517 116.207,72.188 116.797,72.386 116.797 C 72.478 116.797,73.018 116.094,73.586 115.234 C 74.742 113.488,74.692 113.065,73.528 114.746 M279.290 119.238 C 283.093 123.139,283.594 123.615,283.594 123.333 C 283.594 123.275,281.704 121.386,279.395 119.134 L 275.195 115.039 279.290 119.238 M118.742 119.434 L 115.039 123.242 118.848 119.539 C 122.385 116.099,122.834 115.625,122.551 115.625 C 122.493 115.625,120.779 117.339,118.742 119.434 M283.984 124.341 C 283.984 124.408,284.556 124.979,285.254 125.611 L 286.523 126.758 285.376 125.488 C 284.307 124.305,283.984 124.039,283.984 124.341 M61.392 136.150 C 60.737 137.586,60.862 137.892,61.570 136.587 C 61.900 135.977,62.097 135.405,62.008 135.315 C 61.919 135.226,61.641 135.601,61.392 136.150 M299.023 145.703 C 299.357 146.348,299.717 146.875,299.825 146.875 C 299.932 146.875,299.747 146.348,299.414 145.703 C 299.081 145.059,298.720 144.531,298.613 144.531 C 298.505 144.531,298.690 145.059,299.023 145.703 M97.636 148.478 C 96.761 150.219,96.107 151.706,96.185 151.784 C 96.262 151.861,97.063 150.436,97.964 148.618 C 98.866 146.800,99.519 145.313,99.416 145.313 C 99.312 145.313,98.511 146.737,97.636 148.478 M48.528 182.813 C 48.528 183.564,48.609 183.872,48.707 183.496 C 48.805 183.120,48.805 182.505,48.707 182.129 C 48.609 181.753,48.528 182.061,48.528 182.813 M48.153 186.719 C 48.153 187.686,48.229 188.081,48.323 187.598 C 48.416 187.114,48.416 186.323,48.323 185.840 C 48.229 185.356,48.153 185.752,48.153 186.719 M86.036 189.258 C 86.040 190.117,86.120 190.423,86.214 189.937 C 86.307 189.451,86.304 188.748,86.206 188.374 C 86.108 188.001,86.032 188.398,86.036 189.258 M47.790 193.164 C 47.792 194.883,47.860 195.537,47.943 194.619 C 48.025 193.700,48.024 192.294,47.940 191.494 C 47.856 190.694,47.789 191.445,47.790 193.164 M85.710 199.805 C 85.710 203.887,85.768 205.504,85.838 203.398 C 85.909 201.292,85.908 197.952,85.838 195.976 C 85.767 194.000,85.709 195.723,85.710 199.805 M47.788 206.250 C 47.788 207.861,47.857 208.521,47.941 207.715 C 48.025 206.909,48.025 205.591,47.941 204.785 C 47.857 203.979,47.788 204.639,47.788 206.250 M86.036 210.352 C 86.040 211.211,86.120 211.517,86.214 211.031 C 86.307 210.545,86.304 209.842,86.206 209.468 C 86.108 209.095,86.032 209.492,86.036 210.352 M48.145 212.695 C 48.150 213.555,48.230 213.860,48.323 213.374 C 48.417 212.888,48.413 212.185,48.315 211.812 C 48.217 211.438,48.141 211.836,48.145 212.695 M219.320 218.847 C 219.217 219.116,219.178 227.686,219.234 237.891 L 219.336 256.445 258.314 256.545 L 297.291 256.644 296.866 257.521 C 296.458 258.364,296.465 258.369,297.049 257.640 C 297.383 257.223,297.656 256.740,297.656 256.566 C 297.656 256.392,280.078 256.250,258.594 256.250 L 219.531 256.250 219.531 237.500 L 219.531 218.750 285.741 218.750 L 351.951 218.750 352.051 284.863 L 352.152 350.977 352.150 284.766 L 352.148 218.555 285.828 218.456 C 232.978 218.377,219.469 218.457,219.320 218.847 M115.625 276.758 C 116.792 277.939,117.835 278.906,117.942 278.906 C 118.049 278.906,117.183 277.939,116.016 276.758 C 114.849 275.576,113.806 274.609,113.699 274.609 C 113.591 274.609,114.458 275.576,115.625 276.758 M282.813 276.367 C 281.864 277.334,281.175 278.125,281.283 278.125 C 281.390 278.125,282.254 277.334,283.203 276.367 C 284.152 275.400,284.840 274.609,284.733 274.609 C 284.626 274.609,283.761 275.400,282.813 276.367 M122.070 283.203 C 123.128 284.277,124.082 285.156,124.189 285.156 C 124.297 285.156,123.519 284.277,122.461 283.203 C 121.403 282.129,120.449 281.250,120.342 281.250 C 120.234 281.250,121.012 282.129,122.070 283.203 M275.781 283.398 C 274.832 284.365,274.144 285.156,274.251 285.156 C 274.359 285.156,275.223 284.365,276.172 283.398 C 277.121 282.432,277.809 281.641,277.702 281.641 C 277.594 281.641,276.730 282.432,275.781 283.398 M314.247 325.000 C 314.247 339.502,314.296 345.435,314.355 338.184 C 314.415 330.933,314.415 319.067,314.355 311.816 C 314.296 304.565,314.247 310.498,314.247 325.000 M312.088 300.684 L 310.742 302.148 312.207 300.802 C 313.570 299.549,313.851 299.219,313.553 299.219 C 313.488 299.219,312.829 299.878,312.088 300.684 M86.328 300.977 C 87.057 301.729,87.741 302.344,87.849 302.344 C 87.956 302.344,87.448 301.729,86.719 300.977 C 85.990 300.225,85.306 299.609,85.198 299.609 C 85.091 299.609,85.599 300.225,86.328 300.977 M249.609 301.367 C 248.643 301.885,247.990 302.316,248.160 302.326 C 248.575 302.350,251.563 300.815,251.563 300.578 C 251.563 300.319,251.579 300.313,249.609 301.367 M306.242 306.934 L 302.539 310.742 306.348 307.039 C 309.885 303.599,310.334 303.125,310.051 303.125 C 309.993 303.125,308.279 304.839,306.242 306.934 M91.992 307.031 C 93.701 308.750,95.187 310.156,95.294 310.156 C 95.402 310.156,94.091 308.750,92.383 307.031 C 90.674 305.313,89.188 303.906,89.081 303.906 C 88.973 303.906,90.284 305.313,91.992 307.031 M97.852 312.500 C 98.691 313.359,99.465 314.063,99.573 314.063 C 99.680 314.063,99.081 313.359,98.242 312.500 C 97.403 311.641,96.629 310.938,96.521 310.938 C 96.414 310.938,97.012 311.641,97.852 312.500 M299.979 312.793 L 298.633 314.258 300.098 312.912 C 301.461 311.659,301.742 311.328,301.444 311.328 C 301.379 311.328,300.719 311.987,299.979 312.793 M186.816 312.769 C 187.192 312.868,187.808 312.868,188.184 312.769 C 188.560 312.671,188.252 312.591,187.500 312.591 C 186.748 312.591,186.440 312.671,186.816 312.769 M210.254 312.769 C 210.630 312.868,211.245 312.868,211.621 312.769 C 211.997 312.671,211.689 312.591,210.938 312.591 C 210.186 312.591,209.878 312.671,210.254 312.769 M191.706 313.174 C 192.408 313.261,193.463 313.259,194.050 313.170 C 194.637 313.081,194.063 313.009,192.773 313.012 C 191.484 313.014,191.004 313.087,191.706 313.174 M204.597 313.174 C 205.299 313.261,206.354 313.259,206.941 313.170 C 207.528 313.081,206.953 313.009,205.664 313.012 C 204.375 313.014,203.895 313.087,204.597 313.174 M113.935 325.031 C 114.419 325.618,116.797 327.114,116.797 326.832 C 116.797 326.741,116.050 326.174,115.137 325.571 C 114.224 324.969,113.683 324.726,113.935 325.031 M127.734 333.397 C 127.734 333.657,134.813 337.192,134.986 337.019 C 135.063 336.942,133.462 336.054,131.430 335.044 C 129.397 334.034,127.734 333.293,127.734 333.397 M269.043 334.011 C 268.237 334.436,267.578 334.872,267.578 334.978 C 267.578 335.085,268.281 334.813,269.141 334.375 C 270.000 333.937,270.703 333.494,270.703 333.390 C 270.703 333.135,270.700 333.136,269.043 334.011 M264.844 336.133 C 263.877 336.651,263.262 337.074,263.477 337.074 C 263.691 337.074,264.658 336.651,265.625 336.133 C 266.592 335.615,267.207 335.192,266.992 335.192 C 266.777 335.192,265.811 335.615,264.844 336.133 M184.473 350.660 C 184.849 350.758,185.464 350.758,185.840 350.660 C 186.216 350.562,185.908 350.481,185.156 350.481 C 184.404 350.481,184.097 350.562,184.473 350.660 M212.598 350.660 C 212.974 350.758,213.589 350.758,213.965 350.660 C 214.341 350.562,214.033 350.481,213.281 350.481 C 212.529 350.481,212.222 350.562,212.598 350.660 M189.362 351.064 C 190.065 351.151,191.119 351.149,191.706 351.060 C 192.293 350.971,191.719 350.900,190.430 350.902 C 189.141 350.904,188.660 350.977,189.362 351.064 M206.941 351.064 C 207.643 351.151,208.697 351.149,209.284 351.060 C 209.871 350.971,209.297 350.900,208.008 350.902 C 206.719 350.904,206.238 350.977,206.941 351.064 " stroke="none" fill="#bfd873" fill-rule="evenodd"></path></g></svg>