<?xml version="1.0" encoding="utf-8"?>
<!-- Generator: Adobe Illustrator 16.0.0, SVG Export Plug-In . SVG Version: 6.00 Build 0)  -->
<!DOCTYPE svg PUBLIC "-//W3C//DTD SVG 1.1//EN" "http://www.w3.org/Graphics/SVG/1.1/DTD/svg11.dtd">
<svg version="1.1" id="Capa_1" xmlns="http://www.w3.org/2000/svg" xmlns:xlink="http://www.w3.org/1999/xlink" x="0px" y="0px"
	 width="84.336px" height="84.333px" viewBox="0 0 84.336 84.333" enable-background="new 0 0 84.336 84.333" xml:space="preserve">
<g>
	<path fill="#598282" d="M11.709,70.354l2.137,2.137c9.435,3.947,18.866,7.941,28.346,11.842V67.152l-17.659-7.294l-7.294-17.645
		l7.294-17.647L11.709,13.979L0,42.166L11.709,70.354z"/>
	<path fill="#FBBB31" d="M42.191,0c-9.433,3.9-18.91,7.894-28.345,11.842l-2.137,2.137l12.824,10.54l17.657-7.29V0z"/>
	<path fill="#598282" d="M42.191,24.519l-12.499,5.202l-5.158,12.445l5.158,12.493l12.499,5.154V24.521V24.519z"/>
	<path fill="#326464" d="M42.191,84.333c9.432-3.9,18.866-7.895,28.297-11.842l2.139-2.137l11.709-28.188L72.627,13.979
		l-12.825,10.54l7.295,17.646l-7.295,17.647l-17.657,7.291v17.229H42.191z"/>
	<path fill="#FAAA00" d="M72.673,13.979l-2.138-2.184C61.057,7.896,51.607,3.962,42.191,0v17.182l17.657,7.29L72.673,13.979
		L72.673,13.979L72.673,13.979z"/>
	<path fill="#326464" d="M42.191,59.813l12.5-5.154l5.156-12.493l-5.156-12.445l-12.5-5.202V59.813z"/>
</g>
</svg>
