<?xml version="1.0" encoding="utf-8"?>
<!-- Generator: Adobe Illustrator 16.0.0, SVG Export Plug-In . SVG Version: 6.00 Build 0)  -->
<!DOCTYPE svg PUBLIC "-//W3C//DTD SVG 1.1//EN" "http://www.w3.org/Graphics/SVG/1.1/DTD/svg11.dtd">
<svg version="1.1" id="Capa_1" xmlns="http://www.w3.org/2000/svg" xmlns:xlink="http://www.w3.org/1999/xlink" x="0px" y="0px"
	 width="672.474px" height="672.475px" viewBox="0 0 672.474 672.475" enable-background="new 0 0 672.474 672.475"
	 xml:space="preserve">
<path fill="#22B573" d="M336.236,643.237c-169.553,0-306.999-137.445-306.999-307.005c0-169.546,137.446-306.995,306.999-306.995
	c169.547,0,307,137.449,307,307.002S505.783,643.237,336.236,643.237z"/>
<path fill="#333333" d="M672.474,336.235C672.474,150.54,521.938,0.003,336.236,0C150.536,0,0,150.536,0,336.239
	c0,185.699,150.536,336.235,336.236,336.235C521.938,672.472,672.474,521.938,672.474,336.235z M29.237,336.232
	c0-169.546,137.446-306.995,306.999-306.995c169.547,0,307,137.449,307,307.002s-137.452,306.998-307,306.998
	C166.683,643.237,29.237,505.792,29.237,336.232z"/>
<g>
	<path fill="#FFFFFF" d="M282.77,524.926c33.821,9.619,70.641,10.273,106.954-0.021c104.198-29.54,164.721-137.957,135.18-242.154
		v-0.001L460.458,55.431c-32.175-14.255-67.253-23.136-104.106-25.521l33.352,117.639c-33.82-9.619-70.642-10.273-106.954,0.021
		c-104.198,29.54-164.72,137.956-135.18,242.154l64.446,227.322c32.174,14.253,67.252,23.133,104.105,25.518L282.77,524.926z
		 M237.234,364.305c-15.501-54.678,16.257-111.568,70.935-127.07c54.678-15.501,111.569,16.258,127.07,70.936
		s-16.258,111.568-70.936,127.07C309.626,450.741,252.735,418.982,237.234,364.305z"/>
</g>
</svg>
