<?xml version="1.0" encoding="utf-8"?>
<!-- Generator: Adobe Illustrator 16.0.0, SVG Export Plug-In . SVG Version: 6.00 Build 0)  -->
<!DOCTYPE svg PUBLIC "-//W3C//DTD SVG 1.1//EN" "http://www.w3.org/Graphics/SVG/1.1/DTD/svg11.dtd">
<svg version="1.1"
	 id="svg2" xmlns:dc="http://purl.org/dc/elements/1.1/" xmlns:svg="http://www.w3.org/2000/svg" xmlns:rdf="http://www.w3.org/1999/02/22-rdf-syntax-ns#" xmlns:cc="http://creativecommons.org/ns#"
	 xmlns="http://www.w3.org/2000/svg" xmlns:xlink="http://www.w3.org/1999/xlink" x="0px" y="0px" width="657.672px"
	 height="804.805px" viewBox="0 0 657.672 804.805" enable-background="new 0 0 657.672 804.805" xml:space="preserve">
<g id="g10" transform="matrix(1.3333333,0,0,-1.3333333,0,1333.3333)">
	<g id="g12" transform="scale(0.1)">
		<path id="path14" fill="#54437D" d="M4736.044,6071.07c0-744.932-1602.042-1533.047-2269.765-1795.328c0,0-0.015,0-0.022-0.015
			c-10.496,4.131-21.211,8.379-32.153,12.744c-3.743,1.494-7.646,3.091-11.448,4.629c-7.28,2.915-14.509,5.815-21.958,8.848
			c-3.86,1.567-7.881,3.237-11.792,4.834c-7.676,3.149-15.337,6.27-23.203,9.536c-2.585,1.069-5.295,2.212-7.917,3.296
			c-9.265,3.853-18.582,7.72-28.088,11.733c-2.542,1.055-5.171,2.197-7.734,3.252c-9.778,4.131-19.607,8.291-29.634,12.568
			c-1.685,0.718-3.413,1.465-5.112,2.212c-11.008,4.688-22.09,9.478-33.369,14.37c-0.959,0.396-1.948,0.85-2.915,1.26
			c-12.041,5.215-24.207,10.532-36.555,15.981c-0.579,0.249-1.179,0.513-1.765,0.776
			c-332.402,146.455-765.945,364.688-1145.867,619.966l-0.022,0.015c-0.015,0.015-0.037,0.015-0.059,0.044
			c-14.854,9.976-29.604,20.01-44.282,30.103c-0.19,0.117-0.381,0.249-0.557,0.381c-14.509,9.961-28.909,19.98-43.213,30.073
			c-0.41,0.278-0.806,0.571-1.208,0.835c-14.077,9.932-28.059,19.893-41.938,29.927c-0.652,0.454-1.282,0.908-1.919,1.377
			c-13.66,9.873-27.224,19.79-40.671,29.736c-0.776,0.586-1.538,1.143-2.322,1.729c-13.25,9.814-26.389,19.688-39.419,29.604
			c-1.077,0.82-2.146,1.641-3.23,2.461c-12.708,9.712-25.342,19.424-37.83,29.18c-1.282,1.011-2.542,2.021-3.816,3.032
			c-12.231,9.58-24.36,19.175-36.365,28.843c-1.56,1.274-3.091,2.534-4.658,3.779c-11.667,9.463-23.254,18.911-34.68,28.403
			c-1.78,1.479-3.523,2.974-5.288,4.438c-11.14,9.302-22.178,18.618-33.083,27.949c-2.051,1.772-4.058,3.56-6.108,5.317
			c-10.554,9.097-21.021,18.223-31.333,27.378c-2.227,1.978-4.409,3.955-6.628,5.962c-10.042,8.965-20.01,17.944-29.817,26.982
			c-2.336,2.153-4.614,4.307-6.936,6.46c-9.551,8.862-19.036,17.725-28.337,26.631c-2.549,2.432-5.039,4.907-7.566,7.354
			c-8.95,8.628-17.827,17.256-26.536,25.928c-2.747,2.739-5.398,5.479-8.115,8.203c-8.386,8.438-16.721,16.875-24.851,25.356
			c-2.827,2.93-5.537,5.859-8.313,8.789c-7.881,8.276-15.725,16.582-23.35,24.902c-2.922,3.164-5.735,6.357-8.606,9.536
			c-7.332,8.101-14.641,16.201-21.746,24.316c-2.996,3.428-5.859,6.855-8.818,10.298c-6.79,7.896-13.579,15.791-20.142,23.716
			c-3.04,3.662-5.947,7.368-8.936,11.03c-6.262,7.72-12.532,15.41-18.582,23.13c-3.076,3.94-5.999,7.881-9.009,11.821
			c-5.728,7.485-11.484,14.956-16.992,22.456c-3.076,4.204-5.999,8.423-9.023,12.612c-5.208,7.28-10.444,14.531-15.447,21.797
			c-3.01,4.395-5.823,8.789-8.752,13.169c-4.761,7.148-9.565,14.268-14.121,21.401c-2.886,4.541-5.574,9.097-8.379,13.638
			c-4.299,6.987-8.665,13.96-12.766,20.962c-2.834,4.819-5.427,9.639-8.159,14.487c-3.794,6.709-7.661,13.433-11.272,20.186
			c-2.695,5.068-5.171,10.166-7.771,15.249c-3.318,6.504-6.738,12.993-9.858,19.512c-2.549,5.303-4.841,10.62-7.258,15.923
			c-2.864,6.284-5.845,12.583-8.525,18.867c-2.344,5.522-4.409,11.001-6.599,16.509c-2.446,6.123-5.017,12.246-7.288,18.384
			c-2.102,5.684-3.896,11.367-5.837,17.065c-2.029,5.918-4.204,11.865-6.042,17.783c-1.875,5.977-3.413,11.938-5.098,17.93
			c-1.597,5.654-3.347,11.309-4.783,16.978c-1.582,6.226-2.813,12.451-4.182,18.662c-1.201,5.405-2.556,10.811-3.596,16.216
			c-1.267,6.636-2.19,13.271-3.223,19.922c-0.769,4.98-1.758,9.976-2.41,14.956c-0.959,7.383-1.523,14.736-2.183,22.119
			c-0.381,4.233-0.952,8.481-1.238,12.729c-0.769,11.602-1.165,23.188-1.165,34.79v3230.373l2258.767,362.809h5.149l5.596,0.897
			l0.278-0.044l5.321-0.854h5.698l2258.746-362.809V6071.07L4736.044,6071.07z M2466.279,9999.953l-0.249,0.044L0.002,9485.918
			V6071.07c0-498.955,512.41-973.081,1066.714-1339.79c627.107-414.888,1307.82-732.202,1360.884-752.505l38.672-14.81l38.698,14.81
			c99.932,38.232,2427.569,1028.863,2427.569,2092.295v3414.848L2466.279,9999.953"/>
		<path id="path16" fill="#54437D" d="M3814.188,7747.536c0-593.569-412.324-974.22-983.262-974.22h-364.647h-423.838v-146.88
			v-1103.76h-312.612v1392.188v138.864l736.45,0.352l323.852,0.161c425.962,0,702.349,258.296,702.349,693.296
			c0,430.474-276.387,679.739-697.808,679.739l-328.393-1.575l-790.562-3.75v286.237h790.562h364.647
			C3401.864,8708.188,3814.188,8336.645,3814.188,7747.536L3814.188,7747.536z M1468.178,7863.933h1203.637v-252.195H1468.178
			V7863.933z M2466.279,9414.858L754.338,9141.313l-351.694-56.199V6157.276c0-677.769,1456.575-1394.004,2063.606-1632.276
			c0.007,0,0.029,0.015,0.029,0.015c352.724,138.545,992.172,438.516,1466.122,798.37c36.196,27.495,71.47,55.313,105.542,83.452
			c161.47,133.389,296.719,273.604,384.273,415.84c68.364,111.064,107.681,223.374,107.681,334.6v2927.842l-2062.988,329.835
			L2466.279,9414.858"/>
		<path id="path18" fill="#54437D" d="M2466.279,9999.946V9665.09l5.321-0.85h5.684l2258.76-362.805V6071.07
			c0-744.932-1602.042-1533.047-2269.765-1795.328v-311.777l38.69,14.824c99.932,38.218,2427.569,1028.848,2427.569,2092.281
			v3414.84L2466.279,9999.946"/>
		<path id="path20" fill="#54437D" d="M2466.279,7863.94h205.536v-252.202H1468.178v252.202H2466.279z M2830.926,6773.316h-788.485
			v-146.88c128.555-103.315,269.458-199.878,423.838-287.769c498.271-283.696,1137.221-476.938,1955.937-515.991
			c68.364,111.05,107.681,223.374,107.681,334.6v2927.853l-2062.988,329.839l-0.63-0.109L754.33,9141.32
			c80.244-641.953,316.179-1529.575,975.498-2226.457v138.849l736.458,0.366l323.844,0.161
			c425.962,0,702.349,258.296,702.349,693.303c0,430.466-276.387,679.732-697.808,679.732l-328.385-1.575l-790.569-3.765v286.249
			h790.569h364.64c570.938,0,983.262-371.54,983.262-960.641C3814.188,7153.959,3401.864,6773.316,2830.926,6773.316"/>
		<path id="path22" fill="#322A3F" d="M2434.111,4288.472c-3.75,1.494-7.661,3.091-11.455,4.629
			c-7.28,2.915-14.509,5.815-21.958,8.848c-3.867,1.567-7.881,3.237-11.777,4.849c-7.69,3.135-15.344,6.255-23.218,9.521
			c-2.585,1.069-5.295,2.212-7.917,3.296c-9.265,3.853-18.582,7.72-28.088,11.733c-2.542,1.055-5.171,2.197-7.734,3.252
			c-9.778,4.131-19.607,8.291-29.634,12.568c-1.685,0.718-3.42,1.465-5.112,2.212c-11.008,4.702-22.09,9.478-33.369,14.37
			c-0.959,0.41-1.948,0.85-2.915,1.26c-12.034,5.229-24.214,10.547-36.555,15.996c-0.579,0.249-1.179,0.513-1.765,0.762
			c-332.402,146.47-765.945,364.703-1145.867,619.981c-0.007,0-0.007,0.015-0.022,0.015c-0.015,0.015-0.044,0.029-0.066,0.044
			c-14.839,9.961-29.597,20.01-44.275,30.103c-0.19,0.117-0.381,0.249-0.557,0.381c-14.509,9.961-28.901,19.98-43.22,30.059
			c-0.403,0.278-0.798,0.571-1.201,0.85c-14.077,9.917-28.059,19.878-41.938,29.912c-0.652,0.454-1.282,0.908-1.919,1.377
			c-13.66,9.873-27.224,19.79-40.679,29.751c-0.769,0.571-1.545,1.128-2.314,1.714c-13.25,9.814-26.396,19.688-39.419,29.59
			c-1.077,0.82-2.146,1.655-3.23,2.476c-12.708,9.712-25.342,19.409-37.83,29.18c-1.282,1.011-2.542,2.021-3.816,3.032
			c-12.231,9.58-24.375,19.189-36.365,28.857c-1.56,1.26-3.091,2.52-4.651,3.779c-11.675,9.463-23.262,18.911-34.688,28.418
			c-1.78,1.465-3.516,2.959-5.288,4.424c-11.14,9.302-22.178,18.618-33.083,27.949c-2.051,1.772-4.058,3.545-6.108,5.317
			c-10.554,9.097-21.021,18.223-31.326,27.378c-2.234,1.978-4.417,3.955-6.636,5.947c-10.034,8.979-20.01,17.959-29.817,26.997
			c-2.336,2.153-4.614,4.307-6.936,6.46c-9.543,8.862-19.036,17.739-28.337,26.631c-2.549,2.432-5.039,4.893-7.566,7.354
			c-8.95,8.628-17.834,17.256-26.528,25.928c-2.754,2.725-5.405,5.479-8.123,8.203c-8.386,8.438-16.721,16.875-24.851,25.342
			c-2.82,2.944-5.53,5.874-8.32,8.804c-7.866,8.276-15.718,16.567-23.342,24.902c-2.922,3.164-5.735,6.357-8.621,9.536
			c-7.317,8.101-14.626,16.201-21.724,24.316c-2.996,3.428-5.867,6.855-8.826,10.298c-6.79,7.896-13.579,15.791-20.127,23.716
			c-3.054,3.662-5.962,7.368-8.95,11.045c-6.262,7.705-12.532,15.396-18.582,23.115c-3.076,3.94-5.999,7.881-9.009,11.821
			c-5.728,7.485-11.484,14.956-16.992,22.456c-3.091,4.204-5.999,8.408-9.023,12.627c-5.208,7.266-10.444,14.517-15.447,21.797
			c-3.01,4.38-5.823,8.774-8.752,13.169c-4.761,7.134-9.565,14.253-14.114,21.387c-2.893,4.541-5.581,9.097-8.386,13.638
			c-4.292,6.987-8.672,13.96-12.766,20.962c-2.834,4.834-5.427,9.653-8.159,14.487c-3.787,6.709-7.661,13.433-11.272,20.186
			c-2.695,5.083-5.171,10.151-7.771,15.234c-3.318,6.519-6.738,13.008-9.858,19.526c-2.549,5.303-4.841,10.605-7.258,15.923
			c-2.864,6.284-5.845,12.568-8.525,18.867c-2.344,5.522-4.409,11.001-6.592,16.509c-2.454,6.123-5.024,12.246-7.295,18.384
			c-2.102,5.684-3.896,11.367-5.837,17.065c-2.029,5.918-4.204,11.851-6.05,17.783c-1.875,5.977-3.406,11.938-5.09,17.93
			c-1.597,5.654-3.354,11.309-4.783,16.978c-1.582,6.226-2.805,12.451-4.189,18.662c-1.194,5.405-2.549,10.811-3.589,16.216
			c-1.282,6.636-2.19,13.271-3.223,19.907c-0.776,4.995-1.758,9.99-2.41,14.971c-0.959,7.368-1.516,14.751-2.183,22.119
			c-0.374,4.233-0.952,8.481-1.238,12.729c-0.769,11.602-1.165,23.188-1.165,34.79v3230.373l2258.767,362.806h5.149l5.61,0.886
			l0.271-0.036v334.855l-0.256,0.052L0.002,9485.914V6071.07c0-498.955,512.41-973.081,1066.714-1339.79
			c627.107-414.888,1307.82-732.202,1360.884-752.49l38.679-14.824v311.777c0,0-0.022,0-0.029-0.015
			C2455.754,4279.858,2445.039,4284.106,2434.111,4288.472"/>
		<path id="path24" fill="#322A3F" d="M2466.279,6338.667c-154.38,87.891-295.269,184.453-423.838,287.769v-1103.76h-312.62
			v1392.188C1070.51,7611.745,834.567,8499.367,754.33,9141.32l-351.694-56.191V6157.276
			c0-677.769,1456.575-1394.004,2063.613-1632.276c0.007,0,0.022,0.015,0.029,0.015
			c352.724,138.545,992.172,438.516,1466.122,798.37c36.196,27.495,71.47,55.298,105.542,83.452
			c161.47,133.374,296.719,273.589,384.273,415.84C3603.5,5861.729,2964.549,6054.986,2466.279,6338.667"/>
	</g>
</g>
</svg>
