<?xml version="1.0" encoding="utf-8"?>
<!-- Generator: Adobe Illustrator 16.0.0, SVG Export Plug-In . SVG Version: 6.00 Build 0)  -->
<!DOCTYPE svg PUBLIC "-//W3C//DTD SVG 1.1//EN" "http://www.w3.org/Graphics/SVG/1.1/DTD/svg11.dtd">
<svg version="1.1" id="Capa_1" xmlns="http://www.w3.org/2000/svg" xmlns:xlink="http://www.w3.org/1999/xlink" x="0px" y="0px"
	 width="96px" height="96px" viewBox="0 0 96 96" enable-background="new 0 0 96 96" xml:space="preserve">
<path fill="#3CB054" d="M96,48c0,26.512-21.488,48-48,48S0,74.512,0,48C0,21.492,21.488,0,48,0S96,21.492,96,48L96,48z M96,48"/>
<path fill="#FFFFFF" d="M28.07,22.531c35.664,1.278,49.418,22.016,42.512,40.52c-1.957,5.148-4.035,7.969-8.406,10.902
	c0.179-0.742,0.363-1.484,0.5-2.246c2.586-14.438-2.313-31.809-26.278-41.402C55.465,41.297,63.16,60.855,54.27,73.484
	c-15.137,2.305-26.2-10.219-26.2-24.645V22.531z M28.07,22.531"/>
</svg>
