<?xml version="1.0" encoding="utf-8"?>
<!-- Generator: Adobe Illustrator 16.0.0, SVG Export Plug-In . SVG Version: 6.00 Build 0)  -->
<!DOCTYPE svg PUBLIC "-//W3C//DTD SVG 1.1//EN" "http://www.w3.org/Graphics/SVG/1.1/DTD/svg11.dtd">
<svg version="1.1" id="Capa_1" xmlns="http://www.w3.org/2000/svg" xmlns:xlink="http://www.w3.org/1999/xlink" x="0px" y="0px"
	 width="1956.394px" height="2259.048px" viewBox="0 0 1956.394 2259.048" enable-background="new 0 0 1956.394 2259.048"
	 xml:space="preserve">
<polygon fill-rule="evenodd" clip-rule="evenodd" fill="#FEC60C" stroke="#000000" stroke-width="50" stroke-miterlimit="22.9256" points="
	978.197,28.868 1454.795,304.032 1931.394,579.196 1931.394,1129.525 1931.394,1679.853 1454.795,1955.017 978.197,2230.181 
	501.598,1955.017 25,1679.853 25,1129.525 25,579.196 501.598,304.032 "/>
<g>
	<path fill-rule="evenodd" clip-rule="evenodd" fill="#050707" d="M894.315,614.181l-264.649,0.284
		c-1.36,9.872-0.37,186.017-0.403,201.29c-0.031,14.216-1.284,11.093,5.805,19.233l61.098,65.313
		c4.597,4.323,7.431,9.003,11.944,13.148l182.902,196.358c4.446,4.345,7.13,8.729,11.96,13.13
		c4.825,4.396,8.129,8.845,12.262,13.588c-1.718,3.365-53.109,57.389-59.898,65.221l-97.298,104.353
		c-3.967,4.59-8.173,8.317-12.162,12.906l-109.434,117.292c-6.662,6.794-7.254,6.053-7.183,18.905l0.005,151.509
		c0,15.841-0.961,35.021,0.137,50.42c12.559,1.477,172.243,0.324,199.382,0.324c10.19,0,60.896-1.597,66.186,1.138l0.307,75.853
		l138.924,0.012c0.052-9.783-1.699-71.865,0.754-74.986c1.363-1.703-2.471-0.982,3.746-1.452l283.337,0.083l-0.013-213.838
		l-394.823,0.088c1.892-4.063,12.762-14.762,16.606-19.373l200.985-220.059c9.113-10.738,57.174-61.984,61.466-68.395
		c-1.989-3.422-5.714-6.306-8.423-9.618l-51.852-56.803c-3.351-3.956-5.203-5.754-9.008-9.796l-52.229-57.485
		c-3.306-3.243-4.996-6.257-8.298-9.49L954.314,859.498c-3.165-3.824-5.563-5.94-9.022-9.773
		c-5.733-6.354-11.678-12.942-16.998-19.341c-1.991-1.759-0.729,2.308-1.854-2.307l395.905-0.008l-0.025-214.909
		c-7.568-0.02-280.838,0.939-286.433-0.395l-1.548-0.769l0.043-85.3l-91.01-0.535l-48.11-0.454c0,18.334,0.896,66.689,0.072,84.277
		C895.151,613.895,895.528,611.931,894.315,614.181z"/>
	<path fill-rule="evenodd" clip-rule="evenodd" fill="#9A7A09" d="M928.294,830.383c1.187-2.378,2.546-1.357,10.195-1.313
		l334.355,0.002c14.326,0,36.195,1.292,49.61-0.273c2.287-4.754,2.07-211.762,0.071-216.32l-288.188-0.483l1.548,0.769
		c5.595,1.334,278.864,0.375,286.433,0.395l0.025,214.909l-395.905,0.008C927.565,832.691,926.304,828.625,928.294,830.383z"/>
	<path fill-rule="evenodd" clip-rule="evenodd" fill="#9A7A09" d="M1034.953,1659.47c20.257-1.648,115.511-0.215,143.856-0.215
		c17.196,0,137.518,1.101,143.771-0.722c1.766-7.795,0.483-175.292,0.603-207.524c0.014-3.682,0.354-3.976-1.159-6.746
		l0.013,213.838l-283.337-0.083C1032.482,1658.488,1036.316,1657.767,1034.953,1659.47z"/>
	<path fill-rule="evenodd" clip-rule="evenodd" fill="#655108" d="M1034.953,1659.47c-2.453,3.121-0.702,65.203-0.754,74.986
		l-138.924-0.012l-0.307-75.853c-5.291-2.734-55.996-1.138-66.186-1.138c-27.139,0-186.823,1.152-199.382-0.324
		c1.395,2.828,7.214,1.534,14.443,1.534c81.744-0.005,170.651-1.329,250.492,0.045l0.029,76.442l140.354,0.291L1034.953,1659.47z"/>
	<path fill-rule="evenodd" clip-rule="evenodd" fill="#655108" d="M894.315,614.181c1.213-2.25,0.836-0.286,1.02-4.197
		c0.823-17.587-0.072-65.943-0.072-84.277l48.11,0.454c-6.157-2.107-40.286-1.917-48.837-0.928L894.315,614.181z"/>
</g>
</svg>
