<?xml version="1.0" encoding="utf-8"?>
<!-- Generator: Adobe Illustrator 16.0.0, SVG Export Plug-In . SVG Version: 6.00 Build 0)  -->
<!DOCTYPE svg PUBLIC "-//W3C//DTD SVG 1.1//EN" "http://www.w3.org/Graphics/SVG/1.1/DTD/svg11.dtd">
<svg version="1.1" id="Capa_1" xmlns="http://www.w3.org/2000/svg" xmlns:xlink="http://www.w3.org/1999/xlink" x="0px" y="0px"
	 width="254px" height="240px" viewBox="0 0 254 240" enable-background="new 0 0 254 240" xml:space="preserve">
<path fill="#01386E" d="M105.8,17C78.9,36.2,59.9,52.1,41.9,70.2c-14.2,14.3-23,25.7-28,36.4c-3.5,7.4-3.9,9-4,16.9
	c-0.1,8.1,0.1,9.2,3.6,16.2c10.2,20.6,36.3,45.2,79,74.5C104,222.1,121.4,233,122.4,233c0.3,0,0.6-19.2,0.6-42.8l-0.1-42.7l-7.2-4.4
	C94,129.7,74.9,112.3,69.1,100.6c-2.9-6-3.3-7.5-2.9-12.9c0.9-14.9,17.4-39.1,49.5-72.9C127.5,2.3,125.8,2.7,105.8,17z"/>
<path fill="#E76B38" d="M148.429,221.826c26.899-19.2,45.899-35.1,63.899-53.2c14.2-14.3,23-25.699,28-36.399c3.5-7.4,3.9-9,4-16.9
	c0.101-8.1-0.1-9.2-3.6-16.2c-10.2-20.6-36.3-45.2-79-74.5c-11.5-7.899-28.9-18.8-29.9-18.8c-0.3,0-0.6,19.2-0.6,42.8l0.1,42.7
	l7.2,4.4c21.7,13.399,40.8,30.8,46.601,42.5c2.899,6,3.3,7.5,2.899,12.899c-0.899,14.9-17.399,39.101-49.5,72.9
	C126.729,236.526,128.429,236.126,148.429,221.826z"/>
</svg>
