<?xml version="1.0" encoding="utf-8"?>
<!-- Generator: Adobe Illustrator 16.0.0, SVG Export Plug-In . SVG Version: 6.00 Build 0)  -->
<!DOCTYPE svg PUBLIC "-//W3C//DTD SVG 1.1//EN" "http://www.w3.org/Graphics/SVG/1.1/DTD/svg11.dtd">
<svg version="1.1" id="Layer_1" xmlns="http://www.w3.org/2000/svg" xmlns:xlink="http://www.w3.org/1999/xlink" x="0px" y="0px"
	 width="73.887px" height="73.836px" viewBox="0 0.741 73.887 73.836" enable-background="new 0 0.741 73.887 73.836"
	 xml:space="preserve">
<g>
	<path fill="#3158A6" d="M36.892,74.574C17.048,74.801-0.314,58.301,0.004,37.072C0.296,17.644,15.925,0.73,36.992,0.741
		c21.029,0.011,37.209,17.179,36.89,37.542C73.562,58.698,56.694,74.816,36.892,74.574z M36.939,72.094
		c18.46,0.144,34.474-14.938,34.445-34.475C71.356,18.655,56.051,3.332,37.159,3.246C17.977,3.159,2.449,18.622,2.493,37.697
		C2.539,57.186,18.489,72.231,36.939,72.094z"/>
	<path fill="#FFFFFF" d="M36.939,72.094C18.49,72.231,2.539,57.186,2.494,37.697C2.449,18.622,17.977,3.159,37.159,3.246
		c18.892,0.086,34.197,15.409,34.225,34.373C71.411,57.156,55.399,72.237,36.939,72.094z M36.932,69.828
		C54.524,69.875,68.64,55.71,69.094,38.569C69.568,20.68,55.376,5.685,37.336,5.528C19.23,5.37,4.766,19.793,4.79,37.693
		C4.813,55.477,19.164,69.824,36.932,69.828z"/>
	<path fill="#3158A6" d="M36.932,69.828C19.164,69.824,4.813,55.477,4.79,37.693C4.766,19.793,19.23,5.37,37.336,5.528
		c18.04,0.157,32.231,15.153,31.758,33.041C68.64,55.71,54.524,69.875,36.932,69.828z M29.204,30.822
		c-0.014,0.301,0.008,0.528-0.038,0.739c-0.59,2.692-1.214,5.378-1.779,8.076c-0.692,3.308-1.424,6.611-1.973,9.944
		c-0.42,2.548,0.965,4.992,3.262,6.272c1.496,0.834,3.118,1.276,4.813,1.324c3.077,0.085,6.156,0.091,9.235,0.111
		c2.211,0.017,2.211,0.003,2.727-2.106c0.007-0.028,0.022-0.054,0.028-0.08c0.43-1.876,0.857-3.752,1.309-5.731
		c-0.46-0.035-0.816-0.085-1.174-0.086c-2.651-0.014-5.306,0.036-7.956-0.044c-1.995-0.06-3.031-1.394-2.629-3.337
		c0.992-4.786,2.05-9.559,3.055-14.343c0.125-0.596,0.385-0.751,0.975-0.744c2.995,0.032,5.99-0.018,8.984,0.036
		c0.795,0.014,1.091-0.262,1.238-0.995c0.321-1.587,0.716-3.16,1.078-4.739c0.145-0.626,0.282-1.252,0.458-2.034
		c-3.636,0-7.125,0-10.717,0c0.664-3.073,1.297-6,1.926-8.914c-0.216-0.078-0.296-0.131-0.375-0.131
		c-2.681-0.009-5.361-0.03-8.042,0.012c-0.23,0.005-0.596,0.395-0.659,0.661c-0.594,2.488-1.163,4.983-1.673,7.489
		c-0.145,0.715-0.455,0.908-1.145,0.898c-2.481-0.035-4.964,0.02-7.444-0.032c-0.86-0.019-1.326,0.184-1.404,1.115
		c-0.053,0.615-0.281,1.216-0.417,1.825c-0.351,1.568-0.693,3.139-1.062,4.811C23.012,30.822,26.081,30.822,29.204,30.822z
		 M53.3,22.645c-0.141,0.42-0.24,0.651-0.298,0.893c-0.69,2.902-1.399,5.799-2.042,8.711c-0.154,0.698-0.436,0.893-1.135,0.882
		c-2.993-0.042-5.986,0.001-8.979-0.032c-0.634-0.008-0.904,0.191-1.031,0.805c-0.48,2.308-1.015,4.604-1.506,6.911
		c-0.378,1.776-0.737,3.558-1.063,5.345c-0.071,0.388-0.144,0.971,0.535,0.906c0.586-0.057,1.409,0.449,1.623-0.678
		c0.352-1.842,0.785-3.666,1.188-5.497c0.408-1.854,0.82-3.704,1.241-5.605c0.384,0,0.691,0,1.001,0
		c2.993,0,5.985-0.015,8.979,0.013c0.564,0.006,0.803-0.185,0.924-0.724c0.555-2.438,1.018-4.906,1.755-7.289
		C55.063,25.441,53.995,24.235,53.3,22.645z M49.394,49.094c-0.086,0.012-0.171,0.023-0.257,0.034
		c-0.085,0.326-0.178,0.65-0.255,0.979c-0.677,2.905-1.369,5.806-2.009,8.718c-0.12,0.546-0.355,0.674-0.861,0.671
		c-3.905-0.018-7.811,0.048-11.713-0.038c-2.524-0.055-4.968-0.597-7.15-1.977c-0.419-0.266-0.82-0.56-1.229-0.84
		c0.06,0.412,0.224,0.728,0.442,1c2.176,2.711,5.191,3.796,8.482,3.954c4.293,0.206,8.601,0.104,12.903,0.154
		c0.598,0.007,0.828-0.22,0.956-0.806c0.55-2.525,1.05-5.069,1.777-7.544C51.003,51.623,49.946,50.471,49.394,49.094z
		 M44.631,13.756c-0.08,0.004-0.16,0.009-0.239,0.013c-0.513,2.326-1.025,4.652-1.571,7.125c0.582,0,1.031-0.028,1.475,0.007
		c0.572,0.046,0.878-0.109,0.976-0.748c0.155-1.007,0.432-1.994,0.641-2.993c0.044-0.213,0.094-0.473,0.013-0.655
		C45.516,15.579,45.066,14.671,44.631,13.756z M18.819,33.161c0.804,0.655,1.427,1.192,2.083,1.687
		c0.261,0.195,0.591,0.404,0.896,0.417c1.253,0.047,2.509,0.04,3.763,0.001c0.213-0.008,0.54-0.222,0.604-0.411
		c0.177-0.523,0.241-1.083,0.363-1.692C23.981,33.161,21.538,33.161,18.819,33.161z"/>
	<path fill="#FFFFFF" d="M29.204,30.822c-3.122,0-6.191,0-9.397,0c0.368-1.672,0.711-3.242,1.062-4.81
		c0.136-0.61,0.364-1.211,0.417-1.826c0.078-0.932,0.544-1.134,1.404-1.115c2.48,0.053,4.963-0.003,7.444,0.032
		c0.69,0.01,1-0.184,1.145-0.898c0.51-2.506,1.079-5.001,1.673-7.489c0.063-0.268,0.429-0.657,0.659-0.66
		c2.681-0.042,5.361-0.021,8.042-0.013c0.08,0,0.159,0.054,0.375,0.131c-0.63,2.914-1.262,5.841-1.926,8.914
		c3.591,0,7.081,0,10.717,0c-0.176,0.782-0.313,1.409-0.458,2.034c-0.362,1.579-0.757,3.151-1.077,4.739
		c-0.148,0.733-0.444,1.009-1.239,0.995c-2.994-0.055-5.99-0.004-8.984-0.036c-0.59-0.006-0.85,0.148-0.975,0.744
		c-1.005,4.784-2.063,9.556-3.055,14.343c-0.402,1.943,0.635,3.277,2.629,3.337c2.649,0.08,5.304,0.03,7.957,0.044
		c0.356,0.002,0.713,0.051,1.173,0.086c-0.452,1.979-0.88,3.855-1.309,5.731c-0.006,0.027-0.021,0.053-0.028,0.08
		c-0.517,2.109-0.517,2.122-2.727,2.106c-3.078-0.021-6.158-0.026-9.234-0.111c-1.695-0.048-3.317-0.49-4.813-1.324
		c-2.297-1.281-3.682-3.726-3.262-6.272c0.55-3.333,1.28-6.637,1.973-9.944c0.565-2.698,1.19-5.384,1.779-8.076
		C29.212,31.349,29.19,31.123,29.204,30.822z"/>
	<path fill="#FFFFFF" d="M53.3,22.645c0.695,1.59,1.764,2.796,1.193,4.64c-0.737,2.383-1.201,4.851-1.755,7.289
		c-0.121,0.538-0.359,0.729-0.924,0.724c-2.993-0.026-5.985-0.013-8.979-0.013c-0.31,0-0.618,0-1.001,0
		c-0.421,1.9-0.834,3.752-1.241,5.605c-0.403,1.831-0.838,3.655-1.188,5.497c-0.215,1.127-1.038,0.622-1.622,0.678
		c-0.68,0.064-0.607-0.518-0.536-0.906c0.327-1.787,0.686-3.568,1.063-5.345c0.49-2.307,1.025-4.604,1.506-6.911
		c0.128-0.613,0.398-0.813,1.031-0.805c2.993,0.033,5.986-0.01,8.979,0.032c0.699,0.011,0.98-0.184,1.135-0.882
		c0.644-2.912,1.352-5.81,2.042-8.711C53.059,23.297,53.158,23.065,53.3,22.645z"/>
	<path fill="#FFFFFF" d="M49.394,49.094c0.552,1.377,1.609,2.528,1.085,4.308c-0.728,2.475-1.229,5.019-1.777,7.544
		c-0.129,0.586-0.358,0.813-0.956,0.806c-4.302-0.05-8.609,0.051-12.903-0.154c-3.291-0.158-6.308-1.243-8.482-3.954
		c-0.219-0.273-0.383-0.589-0.442-1c0.41,0.28,0.811,0.574,1.229,0.84c2.184,1.38,4.626,1.922,7.15,1.977
		c3.903,0.086,7.809,0.021,11.713,0.038c0.506,0.002,0.741-0.125,0.861-0.671c0.64-2.913,1.333-5.813,2.009-8.718
		c0.076-0.328,0.169-0.652,0.255-0.979C49.223,49.117,49.308,49.106,49.394,49.094z"/>
	<path fill="#FFFFFF" d="M44.631,13.756c0.436,0.914,0.886,1.822,1.294,2.749c0.08,0.183,0.031,0.442-0.013,0.655
		c-0.209,0.999-0.485,1.986-0.641,2.993c-0.098,0.639-0.403,0.794-0.976,0.748c-0.444-0.035-0.893-0.007-1.475-0.007
		c0.546-2.473,1.059-4.8,1.571-7.125C44.471,13.764,44.551,13.76,44.631,13.756z"/>
	<path fill="#FFFFFF" d="M18.819,33.161c2.72,0,5.162,0,7.709,0c-0.122,0.609-0.187,1.169-0.363,1.692
		c-0.064,0.189-0.392,0.404-0.604,0.411c-1.253,0.037-2.51,0.046-3.763-0.001c-0.305-0.012-0.635-0.222-0.896-0.417
		C20.245,34.353,19.621,33.816,18.819,33.161z"/>
</g>
</svg>
