<?xml version="1.0" encoding="utf-8"?>
<!-- Generator: Adobe Illustrator 16.0.0, SVG Export Plug-In . SVG Version: 6.00 Build 0)  -->
<!DOCTYPE svg PUBLIC "-//W3C//DTD SVG 1.1//EN" "http://www.w3.org/Graphics/SVG/1.1/DTD/svg11.dtd">
<svg version="1.1" id="Capa_1" xmlns="http://www.w3.org/2000/svg"  x="0px" y="0px"
	 width="50px" height="50px" viewBox="0 0 50 50" enable-background="new 0 0 50 50" xml:space="preserve">
<circle cx="25" cy="25" r="23"/>
<g id="surface1">
	<path fill="#AFAFAF" d="M25,2c12.695,0,23,10.305,23,23S37.695,48,25,48S2,37.695,2,25S12.305,2,25,2z M33.395,20L37,11h-2l-6,15
		h-8l-6-15h-2.039l3.605,9H12v2h5.367l1.602,4H12v2h7.77l5.211,13l5.207-13H38v-2h-7.012l1.605-4H38v-2H33.395z M25,36l-3.199-8
		h6.398L25,36z"/>
</g>
</svg>
