<?xml version="1.0" encoding="utf-8"?>
<!-- Generator: Adobe Illustrator 16.0.0, SVG Export Plug-In . SVG Version: 6.00 Build 0)  -->
<!DOCTYPE svg PUBLIC "-//W3C//DTD SVG 1.1//EN" "http://www.w3.org/Graphics/SVG/1.1/DTD/svg11.dtd">
<svg version="1.1" id="Capa_1" xmlns="http://www.w3.org/2000/svg" xmlns:xlink="http://www.w3.org/1999/xlink" x="0px" y="0px"
	 width="500px" height="500px" viewBox="0 0 500 500" enable-background="new 0 0 500 500" xml:space="preserve">
<g>
	<g id="_x23_ffffffff">
		<path fill="#FFFFFF" d="M217.552,73.259c0.53-6.137,9.698-6.198,10.517-0.151c2.97,27.006,3.669,54.255,5.835,81.367
			c0.394,8.108,0.666,16.292,2.439,24.264c4.063-5.32,2.759-14.746,10.261-16.958c6.123-2.061,13.139,1.349,19.004-2.288
			c8.063-4.835,11.017-14.443,16.049-21.869c2.909-4.865,9.486-8.29,14.927-5.517c5.411,2.046,7.639,7.805,10.458,12.382
			c3.167,5.213,6.032,11.078,11.244,14.579c4.593,1.94,9.729,2.304,14.67,2.182c10.048-22.626,20.384-45.131,30.599-67.697
			c17.868,22.415,34.796,45.556,52.572,68.031c-27.96-0.304-55.921,0.167-83.868-0.243c-1.029,2.5-2.06,5-3.061,7.517
			c-6.698-0.758-13.912-1.515-19.505-5.623c-7.698-6.668-10.638-16.958-17.474-24.354c-8.078,8.729-10.91,22.823-22.974,27.309
			c-6.2,3.016-13.61,0.5-19.718,2.789c-5.319,10.518-4.651,22.929-8.774,33.872c-2.757,5.152-11.078,2.576-11.078-3.077
			c-3.517-29.673-3.774-59.62-6.973-89.309c-3.364,26.688-4.243,53.664-8.486,80.261c0,6.804-10.776,7.957-11.821,1.061
			c-2.091-7.714-2.591-15.913-6.411-23.096c-6.728-0.137-13.458-0.105-20.186,0.045c-30.478,0.136-60.938,0.015-91.416,0.015
			c-0.894-1.728-1.773-3.44-2.667-5.152c0.743-0.455,2.242-1.364,2.985-1.819c29.325-0.364,58.68-0.03,88.021-0.136
			c9.547-0.016,19.111,0.197,28.659-0.379c3.5,3.258,5.379,7.668,6.789,12.139c1.743-4.591,2.455-9.472,2.729-14.351
			C213.946,130.53,214.429,101.766,217.552,73.259z"/>
		<path fill="#FFFFFF" d="M413.793,168.585c1.41-0.152,2.744-0.591,4.017-1.289c-1.047,1.591-2.045,3.212-2.895,4.925
			c-35.812,75.411-71.623,150.838-107.434,226.265c-5.198,10.82-10.291,21.701-16.156,32.188
			c-13.472-29.839-26.111-60.06-39.735-89.823c25.627-57.377,52.073-114.391,77.533-171.828
			C357.325,168.084,385.574,168.964,413.793,168.585z"/>
	</g>
	<g id="_x23_659ddaff">
		<path fill="#659DDA" d="M226.478,7.123c44.555-4.335,90.263,3.85,130.468,23.551c29.963,14.655,57.028,35.402,78.595,60.878
			c30.932,36.022,50.859,81.321,56.604,128.454c5.851,46.541-2.167,94.704-22.776,136.849
			c-16.369,33.614-40.54,63.439-70.199,86.233c-41.873,32.522-94.612,50.708-147.64,50.905
			c-68.394,0.772-136.456-29.037-182.132-79.958c-31.932-34.934-53.195-79.428-60.438-126.18
			C1.168,238.934,8.838,187.71,30.599,143.2c13.428-27.492,31.962-52.588,54.634-73.154
			C123.818,34.463,174.239,12.094,226.478,7.123 M217.552,73.259c-3.123,28.507-3.607,57.271-6.653,85.793
			c-0.274,4.879-0.986,9.76-2.729,14.351c-1.409-4.471-3.289-8.88-6.789-12.139c-9.547,0.576-19.111,0.363-28.659,0.379
			c-9.396-21.247-18.808-42.495-28.083-63.788c-0.894-1.925-1.924-3.758-3.046-5.531c-2.44,2.425-4.774,4.94-6.895,7.638
			c-16.595,20.656-33.417,41.146-49.997,61.817c-0.743,0.455-2.242,1.364-2.985,1.819c0.894,1.712,1.773,3.425,2.667,5.152
			c42.509,87.217,84.717,174.571,127.12,261.849c26.613,0.015,53.209-0.137,79.82,0.075c5.865-10.487,10.958-21.368,16.156-32.188
			c35.811-75.427,71.622-150.854,107.434-226.265c0.85-1.713,1.848-3.334,2.895-4.925c1.484-2.622,0.925-4.532-1.683-5.713
			c-17.776-22.475-34.704-45.617-52.572-68.031c-10.215,22.566-20.551,45.071-30.599,67.697c-4.94,0.122-10.077-0.242-14.67-2.182
			c-5.212-3.501-8.077-9.366-11.244-14.579c-2.819-4.577-5.047-10.335-10.458-12.382c-5.44-2.773-12.018,0.652-14.927,5.517
			c-5.032,7.426-7.986,17.034-16.049,21.869c-5.865,3.637-12.882,0.227-19.004,2.288c-7.502,2.212-6.198,11.639-10.261,16.958
			c-1.773-7.972-2.045-16.156-2.439-24.264c-2.167-27.112-2.865-54.36-5.835-81.367C227.251,67.061,218.082,67.122,217.552,73.259z"
			/>
		<path fill="#659DDA" d="M222.704,110.465c3.198,29.688,3.456,59.635,6.973,89.309c0,5.652,8.32,8.229,11.078,3.077
			c4.123-10.942,3.456-23.354,8.774-33.872c6.107-2.288,13.518,0.227,19.718-2.789c12.063-4.486,14.896-18.58,22.974-27.309
			c6.836,7.396,9.775,17.686,17.474,24.354c5.593,4.107,12.807,4.865,19.505,5.623l-0.075,0.167
			c-25.46,57.438-51.906,114.451-77.533,171.828c-25.309-57.348-50.512-114.754-75.79-172.116
			c6.728-0.151,13.458-0.182,20.186-0.045c3.82,7.183,4.32,15.382,6.411,23.096c1.045,6.896,11.821,5.744,11.821-1.061
			C218.461,164.128,219.34,137.153,222.704,110.465z"/>
	</g>
	<g id="_x23_ffb400ff">
		<path fill="#FFB400" d="M141.595,92.324c1.122,1.773,2.152,3.606,3.046,5.531c9.275,21.293,18.686,42.541,28.083,63.788
			c-29.34,0.106-58.696-0.228-88.021,0.136c16.581-20.672,33.402-41.161,49.997-61.817
			C136.821,97.264,139.155,94.749,141.595,92.324z"/>
		<path fill="#FFB400" d="M332.259,161.34c27.947,0.409,55.908-0.061,83.868,0.243c2.607,1.182,3.167,3.092,1.683,5.713
			c-1.272,0.697-2.606,1.137-4.017,1.289c-28.219,0.379-56.468-0.5-84.67,0.438l0.075-0.167
			C330.199,166.341,331.23,163.841,332.259,161.34z"/>
		<path fill="#FFB400" d="M84.385,168.751c30.477,0,60.938,0.121,91.416-0.015c25.278,57.362,50.48,114.768,75.79,172.116
			c13.624,29.764,26.264,59.984,39.735,89.823c-26.611-0.212-53.208-0.061-79.82-0.075
			C169.102,343.322,126.894,255.968,84.385,168.751z"/>
	</g>
</g>
</svg>
