<svg id="svg" version="1.1" width="400" height="400.3333333333333" viewBox="0 0 400 400.3333333333333" xmlns="http://www.w3.org/2000/svg" xmlns:xlink="http://www.w3.org/1999/xlink" ><g id="svgg"><path id="path0" d="M189.658 0.354 C 169.115 1.447,153.392 4.637,130.859 12.285 C 115.308 17.563,96.015 27.971,80.567 39.416 C 49.825 62.193,23.952 96.713,12.343 130.442 C 12.138 131.038,11.411 133.140,10.728 135.113 C 5.048 151.514,1.738 168.056,0.298 187.239 C 0.007 191.114,0.007 209.242,0.297 213.094 C 1.284 226.179,2.901 236.697,5.649 247.898 C 7.358 254.864,8.667 259.172,12.259 269.641 C 21.506 296.595,40.845 325.614,63.720 346.862 C 97.670 378.397,138.988 396.273,186.572 400.014 C 190.133 400.294,205.864 400.405,210.132 400.180 C 311.495 394.839,392.593 315.252,399.749 214.095 C 400.042 209.962,400.099 191.068,399.831 187.156 C 395.978 130.910,369.940 80.453,326.355 44.772 C 288.479 13.764,239.110 -2.278,189.658 0.354 M206.839 44.876 C 289.927 48.611,355.457 117.081,355.462 200.167 C 355.467 280.367,294.120 347.615,214.262 354.952 C 117.358 363.854,36.185 282.361,45.296 185.321 C 52.998 103.292,124.449 41.172,206.839 44.876 M178.482 88.073 L 178.482 106.255 153.795 106.255 L 129.108 106.255 129.108 128.190 L 129.108 150.125 170.576 150.125 L 212.045 150.125 210.818 151.489 C 210.143 152.239,206.551 156.201,202.836 160.295 C 191.660 172.606,181.816 183.884,161.478 207.673 C 159.243 210.288,157.285 212.540,157.127 212.677 C 156.829 212.937,147.596 223.755,141.966 230.442 C 140.189 232.552,137.252 235.892,135.439 237.865 C 126.955 247.094,126.088 248.824,125.008 258.664 C 124.647 261.953,124.506 273.604,124.752 279.907 C 124.854 282.518,124.987 286.774,125.047 289.366 L 125.158 294.078 151.820 294.078 L 178.482 294.078 178.482 312.093 L 178.482 330.108 201.074 330.108 L 223.665 330.108 223.592 329.566 C 223.510 328.956,223.095 322.099,222.342 308.924 C 222.062 304.016,221.742 298.593,221.631 296.872 L 221.430 293.745 248.080 293.745 L 274.729 293.745 274.729 271.726 L 274.729 249.708 231.679 249.708 L 188.630 249.708 189.185 249.059 C 189.491 248.701,191.700 246.318,194.094 243.763 C 196.488 241.207,198.870 238.628,199.388 238.032 C 199.905 237.435,201.025 236.159,201.877 235.196 C 202.729 234.233,205.227 231.343,207.428 228.774 C 212.479 222.878,227.785 205.154,230.403 202.168 C 233.389 198.763,250.468 178.858,256.165 172.143 C 258.929 168.887,262.672 164.683,264.484 162.802 C 272.347 154.639,274.122 151.865,275.049 146.289 C 276.391 138.210,276.461 133.620,275.628 108.465 L 275.527 105.421 248.689 105.421 L 221.852 105.421 221.852 87.656 L 221.852 69.892 200.167 69.892 L 178.482 69.892 178.482 88.073 " stroke="none" fill="#040404" fill-rule="evenodd"></path><path id="path1" d="" stroke="none" fill="#080404" fill-rule="evenodd"></path><path id="path2" d="" stroke="none" fill="#080404" fill-rule="evenodd"></path></g></svg>