<?xml version="1.0" encoding="utf-8"?>
<!-- Generator: Adobe Illustrator 16.0.0, SVG Export Plug-In . SVG Version: 6.00 Build 0)  -->
<!DOCTYPE svg PUBLIC "-//W3C//DTD SVG 1.1//EN" "http://www.w3.org/Graphics/SVG/1.1/DTD/svg11.dtd">
<svg xmlns="http://www.w3.org/2000/svg" xmlns:xlink="http://www.w3.org/1999/xlink" version="1.1" id="Capa_1" x="0px" y="0px" width="26.184px" height="26.185px" viewBox="518.004 141.475 26.184 26.185" enable-background="new 518.004 141.475 26.184 26.185" xml:space="preserve">
<path fill="#FFFFFF" d="M544.188,154.567c0-7.219-5.872-13.092-13.092-13.092c-7.219,0-13.092,5.873-13.092,13.092  c0,7.22,5.873,13.093,13.092,13.093C538.315,167.659,544.188,161.786,544.188,154.567z M530.735,161.358l-6.546-9.601  c-0.052-0.073-0.076-0.159-0.076-0.245c0-0.07,0.017-0.141,0.051-0.204c0.076-0.144,0.225-0.231,0.387-0.231h13.091  c0.163,0,0.313,0.089,0.387,0.231c0.075,0.144,0.064,0.316-0.025,0.449l-6.546,9.602c-0.081,0.119-0.215,0.19-0.36,0.19  C530.952,161.55,530.816,161.479,530.735,161.358z"/>
</svg>
