<?xml version="1.0" encoding="utf-8"?>
<!-- Generator: Adobe Illustrator 16.0.0, SVG Export Plug-In . SVG Version: 6.00 Build 0)  -->
<!DOCTYPE svg PUBLIC "-//W3C//DTD SVG 1.1//EN" "http://www.w3.org/Graphics/SVG/1.1/DTD/svg11.dtd">
<svg xmlns="http://www.w3.org/2000/svg" xmlns:xlink="http://www.w3.org/1999/xlink" version="1.1" id="Capa_1" x="0px" y="0px" width="26.184px" height="26.185px" viewBox="518.004 141.474 26.184 26.185" enable-background="new 518.004 141.474 26.184 26.185" xml:space="preserve">
<path fill="#FFFFFF" d="M518.004,154.566c0,7.22,5.873,13.093,13.092,13.093c7.22,0,13.092-5.873,13.092-13.093  c0-7.219-5.872-13.092-13.092-13.092C523.877,141.474,518.004,147.348,518.004,154.566z M531.455,147.775l6.547,9.601  c0.051,0.074,0.076,0.16,0.076,0.246c0,0.069-0.019,0.141-0.051,0.203c-0.076,0.145-0.226,0.232-0.388,0.232h-13.092  c-0.162,0-0.311-0.089-0.385-0.232c-0.076-0.144-0.066-0.315,0.024-0.449l6.546-9.602c0.081-0.119,0.215-0.189,0.36-0.189  C531.238,147.584,531.375,147.655,531.455,147.775z"/>
</svg>
