<?xml version="1.0" encoding="utf-8"?>
<!-- Generator: Adobe Illustrator 16.0.0, SVG Export Plug-In . SVG Version: 6.00 Build 0)  -->
<!DOCTYPE svg PUBLIC "-//W3C//DTD SVG 1.1//EN" "http://www.w3.org/Graphics/SVG/1.1/DTD/svg11.dtd">
<svg version="1.1" id="Capa_1" xmlns="http://www.w3.org/2000/svg" xmlns:xlink="http://www.w3.org/1999/xlink" x="0px" y="0px"
	 width="217.983px" height="38.581px" viewBox="189.009 401.711 217.983 38.581"
	 enable-background="new 189.009 401.711 217.983 38.581" xml:space="preserve">
<g>
	<g>
		<path fill="#333333" d="M316.427,430.891l-5.213-20.844h3.231l3.794,15.174l4.877-15.174h3.293l4.877,15.174l3.795-15.174h3.23
			l-5.211,20.844h-3.294l-5.044-15.737l-5.045,15.737H316.427z"/>
		<path fill="#333333" d="M352.24,417.989c-0.041-1.361-0.549-2.528-1.521-3.502c-1.016-1.015-2.243-1.521-3.688-1.521
			c-1.444,0-2.675,0.507-3.688,1.521c-0.652,0.654-1.098,1.396-1.334,2.23l-2.834-1.417c0.402-1.111,1.055-2.119,1.959-3.022
			c1.625-1.626,3.592-2.438,5.897-2.438s4.273,0.813,5.898,2.438c1.627,1.625,2.438,3.592,2.438,5.898v12.715h-3.127v-1.168
			c-1.486,0.917-3.225,1.376-5.211,1.376c-2.307,0-4.273-0.61-5.898-1.833c-1.625-1.224-2.438-2.697-2.438-4.42
			c0-1.724,0.558-3.005,1.668-3.845c1.111-0.841,2.119-1.346,3.021-1.512L352.24,417.989z M352.24,424.867v-3.772l-6.879,1.042
			c-1.098,0.166-1.963,0.446-2.594,0.844c-0.633,0.396-0.949,1.018-0.949,1.865c0,0.86,0.508,1.599,1.521,2.209
			c1.015,0.611,2.244,0.918,3.688,0.918c1.445,0,2.675-0.307,3.688-0.918C351.732,426.444,352.24,425.716,352.24,424.867z"/>
		<path fill="#333333" d="M357.451,424.846v-23.136h3.127v23.136c0,0.86,0.305,1.599,0.916,2.209
			c0.611,0.612,1.348,0.918,2.209,0.918h1.043l1.043,3.126h-2.086c-1.723,0-3.195-0.61-4.418-1.833
			C358.063,428.042,357.451,426.568,357.451,424.846z"/>
		<path fill="#333333" d="M366.852,424.846v-23.136h3.127v23.136c0,0.86,0.306,1.599,0.916,2.209c0.61,0.612,1.349,0.918,2.21,0.918
			h1.042l1.043,3.126h-2.085c-1.725,0-3.195-0.61-4.419-1.833C367.462,428.042,366.852,426.568,366.852,424.846z"/>
		<path fill="#333333" d="M374.425,421.72v-2.502c0-2.584,0.918-4.794,2.753-6.628c1.834-1.834,4.182-2.751,7.045-2.751
			c2.639,0,4.793,0.764,6.461,2.293c1.668,1.667,2.502,3.403,2.502,5.21v1.042l-14.717,6.628c0.251,0.389,0.557,0.765,0.918,1.125
			c1.223,1.224,2.834,1.835,4.836,1.835c1.776,0,3.194-0.39,4.252-1.168c0.959-0.807,1.59-1.584,1.896-2.334l2.814,1.417
			c-0.459,1.027-1.293,2.07-2.502,3.127c-1.668,1.39-3.822,2.084-6.461,2.084c-2.863,0-5.211-0.917-7.045-2.751
			C375.343,426.514,374.425,424.305,374.425,421.72z M377.553,419.219v2.794l12.381-5.378c-0.224-0.903-0.729-1.695-1.521-2.376
			c-1.016-0.861-2.412-1.292-4.189-1.292c-2.002,0-3.613,0.61-4.836,1.834C378.164,416.022,377.553,417.495,377.553,419.219z"/>
		<path fill="#333333" d="M396.569,410.048v-4.168h3.126v4.168h7.297v3.126h-7.297v11.672c0,0.86,0.307,1.599,0.918,2.209
			c0.611,0.612,1.348,0.918,2.209,0.918c0.848,0,1.57-0.293,2.168-0.876l1.459,2.835c-1.043,0.778-2.252,1.167-3.627,1.167
			c-1.724,0-3.195-0.61-4.419-1.833c-1.223-1.225-1.834-2.697-1.834-4.42v-11.672h-3.126v-3.126H396.569L396.569,410.048z"/>
	</g>
	<g>
		<path fill="#FFFFFF" d="M191.641,415.249c0-0.636-0.34-0.934-0.934-0.934h-1.698v-4.583h4.796c1.995,0,2.716,0.891,2.716,2.079
			c0,0.509,0,0.85,0,0.85h0.085c0,0,1.825-3.438,6.875-3.438c5.856,0,9.634,4.626,9.634,11.332c0,6.876-4.244,11.332-9.931,11.332
			c-4.287,0-6.197-2.844-6.197-2.844h-0.084c0,0,0.084,0.764,0.084,1.866v8.956h-5.347L191.641,415.249L191.641,415.249z
			 M202.208,427.346c2.971,0,5.476-2.42,5.476-6.706c0-4.118-2.207-6.791-5.39-6.791c-2.802,0-5.433,2.037-5.433,6.833
			C196.86,424.035,198.643,427.346,202.208,427.346z"/>
		<path fill="#FFFFFF" d="M215.645,415.249c0-0.636-0.34-0.934-0.934-0.934h-1.698v-4.583h5.136c1.994,0,2.844,0.891,2.844,2.843
			v9.974c0,2.632,0.679,4.414,3.353,4.414c3.905,0,6.07-3.438,6.07-7.3v-9.931h5.39v16.17c0,0.595,0.34,0.935,0.934,0.935h1.698
			v4.541h-4.965c-1.868,0-2.844-0.892-2.844-2.419v-0.596c0-0.508,0.043-0.975,0.043-0.975h-0.085
			c-1.019,2.248-3.735,4.498-7.47,4.498c-4.626,0-7.47-2.334-7.47-8.233v-8.404H215.645z"/>
		<path fill="#FFFFFF" d="M239.962,415.249c0-0.636-0.34-0.934-0.934-0.934h-1.697v-4.583h4.965c1.91,0,2.843,0.891,2.843,2.419
			v0.637c0,0.468-0.084,0.935-0.084,0.935h0.084c0.934-1.825,3.268-4.499,7.64-4.499c4.796,0,7.555,2.504,7.555,8.233v8.446
			c0,0.595,0.339,0.935,0.934,0.935h1.698v4.541h-5.136c-2.038,0-2.887-0.849-2.887-2.887v-9.931c0-2.632-0.679-4.414-3.396-4.414
			c-2.886,0-5.05,1.824-5.814,4.414c-0.297,0.891-0.425,1.867-0.425,2.886v9.932h-5.347L239.962,415.249L239.962,415.249z"/>
		<path fill="#FFFFFF" d="M272.124,409.223c5.008,0,6.664,3.056,6.664,3.056h0.085c0,0,0-0.254,0-0.552
			c0-0.977,0.679-1.994,2.377-1.994h5.008v4.583h-1.655c-0.552,0-0.934,0.297-0.934,0.849v14.898
			c0,7.426-5.772,10.229-11.417,10.229c-2.717,0-5.602-0.766-7.682-1.867l1.655-4.244c0,0,2.674,1.441,5.985,1.441
			c3.268,0,6.111-1.399,6.111-5.305v-1.019c0-0.51,0.042-1.146,0.042-1.146h-0.085c-1.273,1.825-3.14,2.801-6.026,2.801
			c-6.197,0-9.719-5.008-9.719-10.949C262.532,414.061,265.884,409.223,272.124,409.223z M278.447,420.047
			c0-4.925-2.461-6.24-5.39-6.24c-3.268,0-5.05,2.377-5.05,6.026c0,3.777,1.91,6.579,5.39,6.579
			C275.986,426.412,278.447,424.927,278.447,420.047z"/>
		<path fill="#FFFFFF" d="M297.249,409.223c6.622,0,11.883,4.711,11.883,11.332c0,6.664-5.264,11.332-11.883,11.332
			c-6.578,0-11.841-4.668-11.841-11.332C285.407,413.934,290.67,409.223,297.249,409.223z M297.249,427.303
			c3.523,0,6.452-2.717,6.452-6.748c0-3.99-2.929-6.749-6.452-6.749c-3.48,0-6.409,2.759-6.409,6.749
			C290.839,424.587,293.768,427.303,297.249,427.303z"/>
	</g>
</g>
</svg>
